<svg width="124" height="106" viewBox="0 0 124 106" fill="none" xmlns="http://www.w3.org/2000/svg">
<path d="M108.485 24.0345C108.383 22.7415 108.181 21.4583 107.881 20.1965C107.717 19.4111 107.496 18.6388 107.22 17.8854C107.189 17.6783 107.128 17.4768 107.04 17.287C105.748 13.7229 103.668 10.4987 100.954 7.85697C99.279 6.21404 97.3861 4.80996 95.3289 3.68419C91.7936 1.73278 87.8687 0.596284 83.8401 0.357431C81.8908 0.212584 79.9315 0.289498 77.9996 0.586704C75.4557 1.01739 72.9944 1.84355 70.7047 3.03535C67.6609 4.62658 64.8833 6.68422 62.4722 9.13402C62.4173 9.19134 62.3624 9.23949 62.3121 9.29681C62.1932 9.42749 62.0835 9.4573 61.9394 9.31515C61.7404 9.11568 61.5163 8.93456 61.3242 8.73509C59.4963 6.86621 57.4492 5.2264 55.2276 3.85156C53.1635 2.56237 50.9319 1.5648 48.5959 0.887055C46.6165 0.333673 44.5746 0.0362637 42.5199 0.00205948C41.464 -0.0106258 40.4081 0.0352971 39.3573 0.139621C37.9485 0.250291 36.5516 0.480387 35.1816 0.827442C32.6756 1.44104 30.2726 2.41893 28.049 3.73005C25.6098 5.15161 23.4223 6.96834 21.5751 9.10651C19.8761 11.061 18.492 13.2696 17.4726 15.6523C16.9931 16.7286 16.6104 17.8458 16.3292 18.9905C15.8141 20.814 15.5117 22.6913 15.4282 24.5848C15.35 26.1215 15.4082 27.6622 15.602 29.1886C15.933 31.7326 16.5656 34.2279 17.4863 36.6216C18.1771 38.4015 18.9823 40.1346 19.8966 41.8101C20.4614 42.8372 21.0766 43.8414 21.71 44.825C24.5137 49.1812 27.8432 53.1087 31.4106 56.8481C33.2401 58.7649 35.1678 60.5922 37.1436 62.3667C37.6261 62.8285 38.1321 63.2647 38.6598 63.6736C39.2635 64.2674 39.9152 64.8085 40.5624 65.3565C41.9162 66.509 43.2928 67.6362 44.6924 68.7383C48.1591 71.4735 51.7151 74.0826 55.3923 76.5198C56.7849 77.4369 58.189 78.354 59.6297 79.1908C60.3969 79.6626 61.3053 79.8485 62.1955 79.7159C62.7954 79.6047 63.3674 79.3756 63.8786 79.0418C67.7662 76.7307 71.5645 74.3073 75.1388 71.5354C75.6671 71.1319 76.1999 70.7329 76.7396 70.3592C77.3799 69.9236 77.9401 69.3871 78.6102 68.995C78.7542 68.9125 78.9326 68.8323 78.9898 68.6397C78.9946 68.6207 79.0059 68.604 79.0219 68.5927C79.0378 68.5814 79.0572 68.5761 79.0767 68.5778C79.534 68.3714 79.877 68.0092 80.2498 67.6997C80.2522 67.6852 80.2522 67.6705 80.2498 67.6561C80.1812 67.3122 80.1743 67.3191 80.4922 67.3924C80.5322 67.4059 80.5736 67.4143 80.6157 67.4176C80.8204 67.2977 81.0069 67.1486 81.1691 66.9751C81.2807 66.9322 81.3809 66.8639 81.4618 66.7757C82.4794 65.9365 83.5199 65.1318 84.4918 64.217C85.0589 63.6805 85.7038 63.2334 86.2938 62.7221C87.4807 61.6881 88.6492 60.622 89.7995 59.5375C92.5929 56.8981 95.2274 54.0945 97.6889 51.1415C97.8513 50.9535 97.9176 50.7059 98.1463 50.5615C98.2339 50.5012 98.308 50.4231 98.3635 50.3322C99.2943 49.1675 100.209 47.9913 101.06 46.7624C104.032 42.4887 106.509 37.9789 107.691 32.8524C107.84 32.1989 108.021 31.557 108.149 30.8967C108.352 29.7998 108.474 28.6894 108.515 27.5745C108.572 26.3949 108.562 25.213 108.485 24.0345ZM101.067 27.6662C100.821 30.3753 100.118 33.0228 98.9878 35.4959C97.5403 38.7676 95.6079 41.739 93.4217 44.5545C92.0177 46.3543 90.5267 48.0853 88.9716 49.7613C88.8354 49.8775 88.7201 50.0163 88.6309 50.1717C88.1644 50.6532 87.6964 51.1308 87.2268 51.6046C86.0834 52.7831 84.9088 53.9257 83.7029 55.0323C83.6381 55.0918 83.5702 55.1476 83.4993 55.1997C82.6921 55.9906 81.8345 56.7266 80.9839 57.4672C79.8953 58.4072 78.8137 59.3679 77.6657 60.2391C76.8768 60.943 76.0306 61.5735 75.1982 62.2269C73.3093 63.708 71.3701 65.141 69.4149 66.5372C69.3067 66.5908 69.2126 66.6694 69.1405 66.7665C68.4385 67.2411 67.7364 67.7203 67.0412 68.1995C65.5114 69.2472 63.9655 70.2492 62.3876 71.2213C62.1589 71.3703 61.9302 71.6202 61.6535 71.6202C61.3768 71.6202 61.1619 71.3657 60.9263 71.2144C58.7333 69.8204 56.6272 68.3072 54.5027 66.8238C53.3593 66.0259 52.2411 65.2189 51.1526 64.3752C50.805 64.1023 50.5145 63.7584 50.1212 63.5475C49.4832 62.9674 48.7743 62.4768 48.1203 61.922C47.6995 61.5666 47.2444 61.2548 46.8602 60.8627C46.2268 60.4042 45.6414 59.8654 45.0308 59.361C43.725 58.2582 42.4513 57.1255 41.1913 55.9723C41.1132 55.9015 41.0406 55.8248 40.974 55.743C40.1965 55.0965 39.483 54.3674 38.7558 53.6796C35.4658 50.472 32.4368 47.0058 29.6978 43.3141C29.3791 42.8337 29.0301 42.3742 28.6528 41.9385C27.2807 39.6572 25.8514 37.4034 24.8247 34.925C23.8666 32.6868 23.2328 30.3228 22.9426 27.9046C22.6516 25.3168 22.9119 22.6965 23.7064 20.2171C23.8688 19.7127 24.0494 19.2129 24.2415 18.7222C24.5708 18.117 24.8247 17.4819 25.1562 16.8766C26.8071 13.8736 29.2857 11.4109 32.2956 9.78287C34.1595 8.77356 36.1808 8.089 38.2733 7.75838C39.3021 7.6033 40.339 7.50761 41.3788 7.47179C43.4931 7.35625 45.6093 7.66091 47.6057 8.36825C49.7489 9.15773 51.7506 10.2897 53.5331 11.7202C55.6232 13.3615 57.4757 15.2859 59.0374 17.4383C59.4233 17.9931 59.9598 18.4252 60.5833 18.6833C61.8959 19.2083 63.3984 19.1418 64.6104 17.9427C65.2255 17.3328 65.6989 16.6038 66.2706 15.9503C67.8001 14.1947 69.531 12.6263 71.4273 11.2777C73.0143 10.1358 74.7573 9.22923 76.6023 8.58606C78.2552 8.0259 79.9892 7.74391 81.7339 7.7515C84.2228 7.71736 86.6987 8.11609 89.0517 8.92997C93.1517 10.3452 96.5928 13.217 98.7248 17.0027C98.8915 17.3507 99.0802 17.6876 99.2897 18.0115C99.5504 18.752 99.9048 19.4628 100.161 20.2102C100.973 22.6063 101.281 25.1449 101.067 27.6662Z" fill="url(#paint0_linear)"/>
<path d="M41.5411 94.089C41.5114 93.9927 41.4405 93.9721 41.3696 93.9445C39.8375 93.3759 39.0188 92.1906 38.5706 90.6843C38.3213 89.8497 38.3694 88.9968 38.4128 88.1485C38.4634 87.4625 38.5798 86.783 38.7604 86.1194C38.8176 85.8902 38.9045 85.7801 39.1789 85.7847C40.8185 85.8008 42.4582 85.7847 44.0978 85.7847H44.1412C44.466 85.7847 44.466 85.7847 44.4065 86.1057C44.3128 86.6055 44.2281 87.103 44.1778 87.6097C44.1207 88.2219 44.1092 88.8317 44.1024 89.4439C44.0948 90.0486 44.321 90.6328 44.7335 91.0741C45.0432 91.4297 45.4233 91.7167 45.8497 91.9168C46.2761 92.117 46.7394 92.2258 47.2101 92.2365C47.5669 92.2502 47.9259 92.2365 48.2826 92.2365C48.4862 92.2365 48.5799 92.2915 48.5799 92.5139C48.5799 93.5296 48.5799 94.5453 48.5799 95.5609C48.5799 95.7558 48.5136 95.8246 48.3215 95.8246C47.8005 95.8009 47.2784 95.8255 46.7619 95.898C46.1751 96.0073 45.6132 96.2233 45.104 96.5353C44.2213 97.0764 43.7845 97.8605 43.8714 98.8969C43.9606 99.979 44.4797 100.786 45.495 101.229C46.2349 101.511 47.0259 101.632 47.8161 101.586C48.2 101.588 48.583 101.551 48.9595 101.476C49.4487 101.393 49.9063 101.179 50.2836 100.856C50.6609 100.533 50.9438 100.113 51.1022 99.642C51.372 98.8493 51.4975 98.0145 51.4727 97.1773V86.3487C51.4727 85.6838 51.459 85.7962 52.0193 85.7939C53.524 85.7939 55.0287 85.7939 56.5334 85.7939C56.6386 85.7939 56.7438 85.7939 56.8467 85.7939C56.9999 85.7939 57.0617 85.8695 57.0594 86.0232C57.0594 86.1286 57.0594 86.2318 57.0594 86.3373C57.0594 90.3557 57.0594 94.3748 57.0594 98.3948C57.0671 99.2925 56.9422 100.186 56.6889 101.047C56.0463 103.166 54.6148 104.514 52.5727 105.261C51.4481 105.662 50.2706 105.894 49.0784 105.949C47.249 106.055 45.4196 105.997 43.6199 105.534C42.1871 105.208 40.8786 104.474 39.8512 103.42C39.2812 102.826 38.8429 102.118 38.5651 101.342C38.2872 100.566 38.1761 99.7396 38.239 98.9175C38.3465 96.7325 39.4099 95.178 41.3514 94.2082C41.4222 94.1624 41.484 94.1211 41.5411 94.089Z" fill="#001740"/>
<path d="M123.491 99.0505V105.101C123.491 105.206 123.491 105.312 123.491 105.415C123.511 105.628 123.429 105.704 123.212 105.699C122.674 105.686 122.137 105.699 121.611 105.699H118.339C117.923 105.699 117.92 105.699 117.92 105.291C117.92 104.214 117.92 103.138 117.92 102.063C117.92 99.2553 117.92 96.446 117.92 93.6351C117.933 93.2919 117.909 92.9483 117.849 92.6102C117.78 92.21 117.616 91.8323 117.371 91.5094C117.125 91.1865 116.805 90.9278 116.438 90.7554C115.782 90.4298 115.065 90.2437 114.334 90.209C113.602 90.1743 112.871 90.2916 112.187 90.5536C111.419 90.8603 110.782 91.4285 110.39 92.1585C109.913 93.0032 109.628 93.9424 109.553 94.9098C109.401 96.2231 109.54 97.5536 109.958 98.8075C110.216 99.6215 110.71 100.34 111.378 100.871C111.918 101.301 112.584 101.543 113.273 101.559C113.731 101.57 114.188 101.584 114.646 101.577C114.874 101.577 114.952 101.657 114.95 101.891C114.95 103.056 114.95 104.223 114.95 105.388C114.95 105.555 114.931 105.67 114.721 105.672C113.068 105.686 111.414 105.69 109.791 105.291C107.021 104.604 105.185 102.914 104.392 100.174C103.598 97.5221 103.589 94.6965 104.364 92.0393C105.235 89.0588 107.227 87.0755 110.189 86.1745C112.977 85.3118 115.974 85.4234 118.691 86.4909C120.674 87.2452 122.146 88.5819 122.965 90.5743C123.347 91.5829 123.526 92.6576 123.491 93.7359C123.489 95.5166 123.489 97.2882 123.491 99.0505Z" fill="#001740"/>
<path d="M20.6627 88.9808C20.7862 88.9648 20.7839 88.873 20.8113 88.8134C21.2951 87.7695 22.1495 86.9439 23.2079 86.4978C24.9687 85.7022 26.8233 85.5256 28.7168 85.7228C29.8811 85.8453 30.9934 86.2705 31.9435 86.9563C32.6084 87.4284 33.1732 88.0282 33.605 88.7209C34.0368 89.4136 34.3271 90.1854 34.4589 90.9915C34.5399 91.4455 34.5782 91.906 34.5733 92.3672C34.5733 96.6469 34.5733 100.921 34.5733 105.188C34.5733 105.771 34.6144 105.69 34.0725 105.693H29.1924C29.0621 105.693 29.0003 105.633 29.0026 105.502V105.145C29.0026 101.436 29.0026 97.7307 29.0026 94.0271C29.0095 93.5039 28.948 92.9821 28.8197 92.4749C28.7278 92.0725 28.5435 91.6972 28.2815 91.3788C28.0195 91.0604 27.687 90.8077 27.3104 90.6407C26.6533 90.3332 25.9394 90.1668 25.2144 90.1522C24.4893 90.1376 23.7693 90.2751 23.1004 90.5559C22.2452 90.9044 21.6849 91.5785 21.303 92.4062C20.9436 93.216 20.7649 94.0947 20.7793 94.9809C20.7679 97.7322 20.7793 100.483 20.7679 103.235C20.7679 103.952 20.7679 104.67 20.7679 105.388C20.7679 105.699 20.7679 105.706 20.4432 105.706C18.8195 105.706 17.1951 105.706 15.57 105.706C15.2476 105.706 15.2476 105.706 15.2384 105.385C15.2384 105.296 15.2384 105.206 15.2384 105.117V86.3648C15.2384 86.3029 15.2384 86.2433 15.2384 86.1837C15.2384 85.7962 15.2384 85.7939 15.634 85.7939H20.2854C20.6215 85.7939 20.6284 85.7939 20.6307 86.1401C20.6307 86.9471 20.6307 87.745 20.6307 88.5612C20.6103 88.7017 20.6212 88.845 20.6627 88.9808Z" fill="#001740"/>
<path d="M100.36 95.898C100.4 97.0033 100.347 98.11 100.202 99.2064C99.9551 100.811 99.4292 102.272 98.2972 103.469C97.2933 104.532 96.0356 105.149 94.6383 105.532C92.8912 106.004 91.1075 106.062 89.317 105.949C88.2598 105.89 87.2142 105.698 86.2046 105.378C83.3941 104.461 81.7865 102.526 81.2354 99.6466C80.961 98.2113 81.025 96.76 81.0067 95.3133C81.0067 95.0336 81.1737 95.0542 81.3589 95.0542H85.562C85.7907 95.0542 86.04 95.0542 86.2778 95.0542C86.5156 95.0542 86.5957 95.123 86.5911 95.3592C86.5797 96.0034 86.5911 96.6454 86.5911 97.2874C86.5901 97.8106 86.6538 98.332 86.7809 98.8396C87.1491 100.332 88.0478 101.279 89.5959 101.527C90.4495 101.677 91.3248 101.647 92.1663 101.44C92.6764 101.318 93.1479 101.07 93.5375 100.718C93.9271 100.367 94.2223 99.9225 94.3959 99.4265C94.6463 98.7535 94.7711 98.04 94.7641 97.3218C94.7641 96.2602 94.787 95.1987 94.7412 94.1394C94.6475 91.9889 93.3371 90.5834 91.2104 90.2991C90.1008 90.1114 88.9604 90.2715 87.9449 90.7577C87.2595 91.074 86.7222 91.6431 86.4447 92.3465C86.4204 92.4377 86.3632 92.5165 86.2842 92.5678C86.2052 92.6191 86.11 92.6391 86.0171 92.6239C84.4529 92.6239 82.8865 92.6239 81.3223 92.6239C80.9496 92.6239 80.9519 92.6239 81.0136 92.2456C81.3406 90.2533 82.468 88.779 84.0207 87.5891C85.2503 86.6547 86.6996 86.0545 88.2284 85.8466C90.5643 85.4737 92.9558 85.6832 95.1917 86.4565C96.2971 86.8338 97.3042 87.4542 98.1394 88.2723C99.3308 89.4554 99.9254 90.9273 100.198 92.5575C100.347 93.6642 100.401 94.7819 100.36 95.898Z" fill="#001740"/>
<path d="M63.0348 99.5434C63.7368 99.5434 64.4366 99.5434 65.1363 99.5434C65.2369 99.5239 65.3412 99.5426 65.4288 99.596C65.5163 99.6495 65.5808 99.7337 65.6097 99.8323C65.8192 100.335 66.2002 100.746 66.6845 100.992C68.2578 101.852 69.854 101.77 71.457 101.082C71.5792 101.023 71.6918 100.945 71.7909 100.853C71.9422 100.73 72.0626 100.573 72.1423 100.395C72.222 100.217 72.2588 100.023 72.2497 99.828C72.2405 99.6331 72.1858 99.4431 72.0898 99.2734C71.9938 99.1036 71.8593 98.959 71.6972 98.851C71.4247 98.6682 71.1264 98.5275 70.8122 98.4337C69.5779 98.0404 68.3237 97.7129 67.055 97.4525C66.2274 97.2658 65.4124 97.0269 64.6149 96.7371C64.0117 96.5203 63.4367 96.2316 62.9021 95.8773C61.2762 94.7929 60.6519 93.2407 60.7846 91.3331C60.908 89.593 61.7999 88.3067 63.1743 87.3209C64.3591 86.5062 65.721 85.9874 67.1464 85.8076C68.9786 85.5159 70.8523 85.6318 72.6347 86.147C74.2081 86.6055 75.5436 87.4263 76.5063 88.7951C77.1113 89.6917 77.4419 90.746 77.4576 91.8284C77.4576 91.9957 77.4187 92.0875 77.2289 92.0783H77.0963C75.6648 92.0783 74.2332 92.0783 72.8017 92.0783C72.573 92.0783 72.4632 92.021 72.3992 91.7894C72.3249 91.4982 72.1825 91.229 71.9836 91.0041C71.7848 90.7792 71.5352 90.6051 71.2558 90.4963C70.5844 90.2034 69.8589 90.0558 69.1267 90.0633C68.3946 90.0708 67.6722 90.2332 67.0069 90.5399C66.7708 90.6411 66.5628 90.7984 66.4009 90.9984C66.3079 91.1062 66.238 91.232 66.1958 91.3681C66.1536 91.5042 66.1399 91.6476 66.1555 91.7893C66.1712 91.931 66.2159 92.0678 66.2869 92.1914C66.3579 92.3149 66.4535 92.4223 66.5679 92.507C66.9015 92.7601 67.2803 92.9468 67.6838 93.0573C68.9118 93.4172 70.1444 93.768 71.3701 94.1303C72.0562 94.332 72.7422 94.5338 73.4283 94.77C74.5273 95.1173 75.5152 95.7501 76.2913 96.6041C77.0526 97.4449 77.4797 98.5364 77.4919 99.6718C77.5138 100.269 77.4701 100.866 77.3616 101.453C77.1355 102.451 76.5754 103.341 75.7745 103.975C74.8482 104.739 73.754 105.271 72.5822 105.527C70.2405 106.096 67.8942 106.165 65.5571 105.505C63.9838 105.062 62.6277 104.264 61.6284 102.93C60.9776 102.052 60.6084 100.996 60.5696 99.9034C60.5513 99.5549 60.5582 99.548 60.9012 99.5457C61.6032 99.5411 62.319 99.5434 63.0348 99.5434Z" fill="#001740"/>
<path d="M7.58221 81.2245H0.90019C0.504574 81.2245 0.502287 81.2245 0.5 80.8393C0.5 80.1675 0.5 79.4934 0.5 78.8217C0.5 78.5236 0.5 78.2233 0.5 77.9252C0.5 77.7212 0.561739 77.6134 0.781272 77.634C0.871161 77.6386 0.96123 77.6386 1.05112 77.634H13.5668C14.1156 77.634 14.0996 77.5446 14.0996 78.1591C14.0996 78.9501 14.0996 79.7411 14.0996 80.5343C14.1074 80.5805 14.1058 80.6278 14.0949 80.6733C14.0841 80.7189 14.0642 80.7618 14.0364 80.7994C14.0087 80.8371 13.9737 80.8688 13.9334 80.8925C13.8932 80.9163 13.8486 80.9317 13.8023 80.9379C13.1546 81.1209 12.5504 81.4328 12.0255 81.855C11.0604 82.6414 10.5825 83.6891 10.395 84.8974C10.3138 85.4738 10.2771 86.0556 10.2852 86.6376C10.2852 92.8066 10.2852 98.9771 10.2852 105.149C10.2852 105.741 10.3287 105.688 9.76381 105.688H4.89523C4.7443 105.688 4.68026 105.615 4.68255 105.459C4.68255 105.353 4.68255 105.25 4.68255 105.145C4.68255 99.6038 4.68255 94.0615 4.68255 88.5176C4.68255 87.2154 4.76945 85.9223 5.17879 84.6704C5.57287 83.4066 6.3409 82.2928 7.38097 81.4767C7.44958 81.4239 7.51132 81.3597 7.57764 81.3001C7.58149 81.2751 7.58302 81.2498 7.58221 81.2245Z" fill="#001740"/>
<path d="M80.2589 67.6973C80.26 67.6836 80.26 67.6698 80.2589 67.6561C80.1857 67.3144 80.1857 67.3167 80.4876 67.3947L80.6134 67.4176C80.5245 67.5431 80.4014 67.6402 80.2589 67.6973Z" fill="#FF3A38"/>
<path d="M78.9944 68.6328C78.9991 68.6136 79.0104 68.5967 79.0263 68.585C79.0421 68.5732 79.0616 68.5674 79.0813 68.5686L78.9944 68.6328Z" fill="#FF3A38"/>
<path d="M28.6528 41.9293C27.2693 39.6503 25.8469 37.3942 24.8224 34.9181C23.864 32.6799 23.2295 30.3159 22.9381 27.8977C22.6484 25.3088 22.9103 22.6878 23.7064 20.2079C23.8688 19.7012 24.0494 19.206 24.2393 18.7108C24.5686 18.1101 24.8224 17.4727 25.154 16.8766C26.8055 13.8741 29.2839 11.4115 32.2933 9.78284C34.1562 8.77119 36.1779 8.08649 38.271 7.75836C39.3004 7.60128 40.3382 7.50481 41.3788 7.46947C43.4929 7.35411 45.6089 7.65796 47.6058 8.36364C49.7487 9.15428 51.7496 10.2878 53.5308 11.7202C55.6221 13.36 57.4754 15.2837 59.0375 17.436C59.4231 17.9914 59.9597 18.4243 60.5833 18.6832C61.896 19.206 63.4007 19.1418 64.6104 17.9404C65.2278 17.3305 65.6966 16.5991 66.2683 15.9503C67.7976 14.1932 69.5285 12.6233 71.425 11.2731C73.0146 10.1339 74.7589 9.22896 76.6046 8.58604C78.2558 8.02503 79.9883 7.74225 81.7316 7.74919C84.2204 7.7139 86.6964 8.11186 89.0494 8.92536C93.1502 10.3404 96.5916 13.2133 98.7226 17.0004C98.8895 17.3486 99.079 17.6856 99.2897 18.0092C99.5527 18.7543 99.9048 19.4582 100.159 20.2056C100.973 22.6034 101.285 25.1442 101.073 27.6685C100.825 30.3763 100.12 33.0223 98.9878 35.4936C97.5449 38.7676 95.6079 41.7367 93.4218 44.5522C92.0199 46.3565 90.529 48.0853 88.9716 49.759C88.8382 49.8775 88.7247 50.0169 88.6355 50.1717L87.2314 51.6069C86.0865 52.7808 84.9118 53.9226 83.7074 55.0323C83.6411 55.0919 83.5679 55.1446 83.4993 55.1996C83.4993 53.2416 83.4993 51.2836 83.4993 49.3256C83.4993 49.3073 83.5359 49.2889 83.5748 49.2523C83.8446 49.5182 84.1076 49.8025 84.3981 50.0547C85.3425 50.8732 86.4127 51.0681 87.5561 50.5706C88.6995 50.0731 89.2598 49.1583 89.2987 47.9248C89.3066 47.5041 89.2243 47.0866 89.0574 46.7006C88.8905 46.3145 88.6429 45.9689 88.3314 45.6871C80.3596 37.7053 72.3901 29.7189 64.4229 21.728C64.3497 21.6546 64.2788 21.5767 64.1942 21.5102C63.6679 21.035 62.9861 20.7699 62.2778 20.765C61.86 20.7614 61.446 20.8454 61.0624 21.0116C60.6789 21.1779 60.3342 21.4226 60.0505 21.7303C52.0894 29.7228 44.1245 37.7129 36.1558 45.7008C36.0506 45.8063 35.9454 45.914 35.8493 46.0287C35.4519 46.4999 35.219 47.0884 35.1862 47.7047C35.1492 48.2865 35.2857 48.8663 35.5782 49.3702C35.8708 49.8741 36.3062 50.2793 36.8291 50.5345C37.352 50.7896 37.9387 50.883 38.5148 50.8029C39.0908 50.7228 39.63 50.4727 40.0639 50.0845C40.2926 49.8782 40.5098 49.6443 40.7385 49.4288C40.8048 49.3669 40.8414 49.2362 40.9946 49.2935C40.9946 50.4697 40.9946 51.6505 40.9946 52.8312C40.9946 53.8003 40.9893 54.7709 40.9786 55.743C40.2011 55.0942 39.4853 54.3674 38.7627 53.6681C35.4709 50.4635 32.4396 47.0004 29.6978 43.3118C29.3814 42.8276 29.0322 42.3656 28.6528 41.9293Z" fill="white"/>
<path d="M77.6611 60.2368C76.8722 60.9406 76.0284 61.5757 75.196 62.2269C73.3025 63.7103 71.3679 65.1409 69.4081 66.5372C69.3014 66.5913 69.209 66.6699 69.1382 66.7665C68.4362 67.2457 67.7341 67.7203 67.0344 68.2017C65.5099 69.2488 63.9602 70.2568 62.3853 71.2259C62.1452 71.3749 61.928 71.6248 61.6513 71.6202C61.3746 71.6156 61.1573 71.3657 60.9195 71.2144C58.731 69.8204 56.6226 68.3095 54.4982 66.8238C53.3548 66.0305 52.2365 65.2189 51.148 64.3752C50.8004 64.1023 50.51 63.7607 50.1144 63.5475C49.4786 62.9674 48.772 62.4768 48.1157 61.9219C47.6949 61.5689 47.2444 61.2547 46.8557 60.8627C46.8557 60.6839 46.8717 60.505 46.8717 60.3262C46.8717 54.7961 46.8717 49.2668 46.8717 43.7383C46.8656 43.5853 46.8932 43.4329 46.9525 43.2918C47.0118 43.1508 47.1013 43.0245 47.2147 42.922C52.11 38.0309 57.003 33.1298 61.8937 28.2187C61.9969 28.0852 62.125 27.973 62.271 27.8886C62.3739 27.9895 62.4837 28.0881 62.5888 28.1935C67.5009 33.1183 72.4144 38.0416 77.3295 42.9633C77.4366 43.0619 77.5209 43.1827 77.5766 43.3174C77.6323 43.452 77.658 43.5972 77.652 43.7428C77.6428 49.062 77.6428 54.3819 77.652 59.7026C77.6383 59.8791 77.6543 60.0579 77.6611 60.2368ZM60.1305 45.1643C60.1488 45.0887 60.0962 45.0703 60.0414 45.052C59.9684 44.8565 59.8332 44.6906 59.6566 44.5799C59.4801 44.4693 59.2721 44.42 59.0649 44.4398C58.9783 44.3583 58.8731 44.2992 58.7585 44.2679C57.3475 43.6557 55.9137 43.6947 54.4936 44.1968C53.3507 44.5914 52.3675 45.3493 51.6934 46.3553C51.0194 47.3613 50.6914 48.5604 50.7592 49.7704C50.8484 51.6711 51.7037 53.2806 52.8585 54.748C52.952 55.012 53.1317 55.2366 53.3685 55.3853C53.4367 55.5351 53.5357 55.6687 53.6589 55.7774C55.868 58.3178 58.484 60.3629 61.2945 62.1971C61.4019 62.2822 61.5349 62.3286 61.6718 62.3286C61.8088 62.3286 61.9417 62.2822 62.0492 62.1971C64.3467 60.7849 66.4924 59.1383 68.4522 57.2837C69.0771 56.7096 69.6509 56.0821 70.1673 55.4083C70.9036 55.4083 71.2512 54.8374 71.0523 54.2619C71.6372 53.4892 72.0936 52.6267 72.4038 51.7078C72.6473 51.0173 72.7688 50.2896 72.7628 49.5572C72.7125 44.9947 67.9239 42.8372 64.6035 44.433C63.5982 44.9303 62.712 45.6396 62.0057 46.5125C61.9348 46.5973 61.8799 46.7028 61.777 46.7417C61.5141 46.4437 61.2808 46.1502 61.0155 45.8911C60.7503 45.6321 60.5124 45.3065 60.1351 45.1712L60.1305 45.1643Z" fill="white"/>
<path d="M77.6611 60.2368C77.6611 60.058 77.6383 59.8791 77.6383 59.7003C77.6383 54.3812 77.6383 49.0612 77.6383 43.7406C77.6443 43.5949 77.6186 43.4497 77.5629 43.3151C77.5072 43.1805 77.4229 43.0596 77.3158 42.961C72.4022 38.0408 67.491 33.1176 62.582 28.1912C62.4768 28.0858 62.367 27.9872 62.2641 27.8863C62.1182 27.9708 61.99 28.0829 61.8868 28.2165C56.9946 33.1183 52.1016 38.0194 47.2078 42.9198C47.0944 43.0223 47.0049 43.1485 46.9456 43.2896C46.8864 43.4306 46.8588 43.583 46.8648 43.736C46.8755 49.2661 46.8755 54.7954 46.8648 60.3239C46.8648 60.5028 46.8648 60.6816 46.8488 60.8604C46.2131 60.4019 45.63 59.8654 45.0194 59.3587C43.7136 58.2582 42.4376 57.121 41.1776 55.97C41.0998 55.9012 41.0335 55.8187 40.9626 55.7408C40.9626 54.7702 40.9679 53.7996 40.9786 52.829C40.9786 51.6482 40.9786 50.4675 40.9786 49.2913C40.8254 49.234 40.7888 49.3647 40.7225 49.4266C40.4938 49.6421 40.2834 49.8851 40.0479 50.0823C39.6136 50.4648 39.0762 50.7101 38.5032 50.7872C37.9302 50.8644 37.3473 50.77 36.8277 50.5159C36.3081 50.2618 35.8751 49.8593 35.583 49.3592C35.2909 48.859 35.1528 48.2834 35.1861 47.7047C35.219 47.0885 35.4519 46.4999 35.8493 46.0287C35.9454 45.9141 36.0506 45.7994 36.1557 45.7009C44.1229 37.7099 52.0902 29.7197 60.0574 21.7303C60.341 21.4227 60.6857 21.1779 61.0693 21.0117C61.4528 20.8454 61.8668 20.7614 62.2847 20.7651C62.9929 20.7699 63.6748 21.035 64.201 21.5102C64.2788 21.5767 64.3497 21.6546 64.4297 21.728C72.3954 29.719 80.3626 37.7053 88.3313 45.6871C88.6412 45.9686 88.8874 46.3133 89.0535 46.6981C89.2195 47.0828 89.3015 47.4988 89.294 47.9179C89.2552 49.1514 88.6835 50.0685 87.5515 50.5638C86.4195 51.059 85.3379 50.8664 84.3934 50.0479C84.103 49.7957 83.84 49.5114 83.5702 49.2454C83.5313 49.2821 83.4947 49.3005 83.4947 49.3188C83.4947 51.2768 83.4947 53.2348 83.4947 55.1928C82.6852 55.9838 81.8299 56.7197 80.9793 57.4603C79.8907 58.4095 78.8091 59.3633 77.6611 60.2368Z" fill="#001740"/>
<path d="M60.1283 45.1598C60.5056 45.295 60.7388 45.6183 61.0087 45.8797C61.2785 46.141 61.5072 46.4322 61.7702 46.7303C61.88 46.6913 61.9348 46.5858 61.9989 46.501C62.7051 45.6282 63.5913 44.9188 64.5967 44.4215C67.9171 42.8166 72.7056 44.9832 72.756 49.5458C72.7619 50.2781 72.6404 51.0059 72.3969 51.6963C72.0868 52.6152 71.6304 53.4777 71.0454 54.2505C70.9437 54.0943 70.8012 53.969 70.6335 53.8882C70.4659 53.8074 70.2793 53.7741 70.0941 53.7919C69.216 53.808 68.3379 53.7919 67.4574 53.8034C67.3563 53.8187 67.2532 53.7936 67.1703 53.7336C67.0874 53.6736 67.0312 53.5834 67.0138 53.4824C66.6959 52.5355 66.3598 51.5955 66.0282 50.6532C65.9863 50.51 65.9311 50.3711 65.8636 50.2382C65.7956 50.1038 65.6887 49.9931 65.5569 49.9207C65.4251 49.8482 65.2745 49.8175 65.1249 49.8323C64.9822 49.8361 64.8437 49.8814 64.7263 49.9629C64.6089 50.0443 64.5178 50.1583 64.464 50.2909C64.4107 50.4141 64.3671 50.5414 64.3337 50.6715C63.8199 52.417 63.3054 54.1618 62.7901 55.9058C62.7558 56.025 62.7101 56.1351 62.6666 56.2612C62.6295 56.2406 62.5983 56.2108 62.5759 56.1747C62.5535 56.1386 62.5406 56.0973 62.5385 56.0548C61.7382 52.5821 60.9393 49.1086 60.142 45.6343C60.1123 45.4807 60.0139 45.3203 60.1283 45.1598Z" fill="#FF1D14"/>
<path d="M60.1283 45.1598C60.0139 45.3203 60.1168 45.4808 60.1488 45.6183C60.9446 49.0941 61.7435 52.5676 62.5454 56.0388C62.5475 56.0813 62.5603 56.1225 62.5827 56.1586C62.6051 56.1947 62.6364 56.2245 62.6735 56.2451C62.7169 56.1236 62.7626 56.0159 62.797 55.8898C63.3138 54.1442 63.8283 52.3995 64.3405 50.6555C64.374 50.5254 64.4176 50.3981 64.4709 50.2749C64.5246 50.1423 64.6158 50.0283 64.7332 49.9469C64.8506 49.8654 64.9891 49.8201 65.1318 49.8163C65.2813 49.8014 65.4319 49.8322 65.5637 49.9046C65.6955 49.977 65.8024 50.0877 65.8704 50.2221C65.938 50.355 65.9931 50.494 66.0351 50.6371C66.3666 51.5794 66.7028 52.5195 67.0207 53.4664C67.0381 53.5674 67.0942 53.6576 67.1772 53.7176C67.2601 53.7776 67.3632 53.8026 67.4643 53.7873C68.3447 53.7713 69.2229 53.7873 70.101 53.7759C70.2862 53.758 70.4727 53.7913 70.6404 53.8722C70.8081 53.953 70.9505 54.0783 71.0523 54.2344C71.2512 54.8214 70.9036 55.3808 70.1673 55.3808C70.0026 55.3808 69.8403 55.3624 69.6756 55.3624H66.7257C66.1631 55.3624 65.9619 55.2111 65.7675 54.6746C65.6692 54.4064 65.5846 54.1358 65.4816 53.8722C65.4347 53.6815 65.3575 53.4995 65.253 53.3334C65.1523 53.3884 65.1478 53.4664 65.1272 53.5374C64.7705 54.7388 64.4145 55.941 64.0593 57.1439C63.8054 58.0014 63.5607 58.8635 63.2978 59.7186C63.256 59.8974 63.1564 60.0573 63.0145 60.1734C62.8726 60.2895 62.6965 60.3553 62.5134 60.3606C62.3335 60.3462 62.1629 60.2746 62.0263 60.1562C61.8898 60.0379 61.7945 59.879 61.7542 59.7026C61.7382 59.6453 61.7336 59.5857 61.7199 59.526C60.921 56.0671 60.1229 52.6066 59.3256 49.1445C59.3147 49.0089 59.2592 48.8806 59.1678 48.78L57.7134 54.5852C57.5579 55.2111 57.3521 55.3785 56.7209 55.3808C55.605 55.3808 54.4867 55.3808 53.3685 55.3808C53.1317 55.232 52.952 55.0074 52.8585 54.7434C52.8486 54.5495 52.8879 54.3562 52.9729 54.1817C53.0594 54.05 53.1794 53.9439 53.3205 53.8742C53.4616 53.8044 53.6187 53.7737 53.7755 53.785C54.4753 53.785 55.1773 53.785 55.8771 53.785C56.2681 53.785 56.2681 53.785 56.3711 53.3861C56.37 53.3708 56.37 53.3555 56.3711 53.3403C57.0571 50.6486 57.7431 47.9592 58.3972 45.2629C58.4249 45.0792 58.5003 44.906 58.6159 44.7607C58.7315 44.6154 58.8832 44.5032 59.0558 44.4353C59.2633 44.4157 59.4714 44.465 59.6482 44.5756C59.8251 44.6862 59.9608 44.852 60.0345 45.0474C60.0345 45.1025 60.0162 45.1827 60.1214 45.1598H60.1283Z" fill="#001740"/>
<path d="M53.3685 55.3854C54.4867 55.3854 55.605 55.3854 56.7209 55.3854C57.3521 55.3854 57.5579 55.2157 57.7134 54.5898L59.1678 48.7846C59.2592 48.8852 59.3147 49.0134 59.3256 49.1491C60.1214 52.6081 60.9195 56.0686 61.7199 59.5306C61.7336 59.5902 61.7382 59.6498 61.7542 59.7072C61.7953 59.8827 61.891 60.0406 62.0275 60.158C62.1639 60.2755 62.3341 60.3464 62.5134 60.3606C62.6941 60.357 62.8687 60.2944 63.0107 60.1823C63.1527 60.0701 63.2543 59.9146 63.3001 59.7393C63.563 58.8841 63.8077 58.022 64.0616 57.1645C64.4183 55.9631 64.7743 54.761 65.1295 53.558C65.1501 53.487 65.1546 53.409 65.2553 53.354C65.3598 53.5202 65.437 53.7021 65.4839 53.8928C65.5869 54.1565 65.6715 54.427 65.7698 54.6952C65.9642 55.2295 66.1654 55.3831 66.728 55.3831H69.6779C69.8426 55.3831 70.0049 55.3945 70.1696 55.4014C69.6532 56.0752 69.0794 56.7028 68.4545 57.2769C66.4947 59.1315 64.349 60.778 62.0515 62.1902C61.944 62.2754 61.8111 62.3217 61.6741 62.3217C61.5372 62.3217 61.4042 62.2754 61.2968 62.1902C58.4863 60.3698 55.8702 58.3178 53.6612 55.7705C53.5379 55.664 53.4382 55.5328 53.3685 55.3854Z" fill="#FF1D14"/>
<path d="M59.0649 44.4398C58.8924 44.5077 58.7407 44.62 58.6251 44.7652C58.5095 44.9105 58.434 45.0837 58.4063 45.2675C57.7408 47.9638 57.0571 50.6531 56.3802 53.3448C56.3791 53.3601 56.3791 53.3754 56.3802 53.3907C56.2773 53.7873 56.2773 53.7896 55.8863 53.7896C55.1865 53.7896 54.4845 53.7896 53.7847 53.7896C53.6278 53.7782 53.4707 53.809 53.3297 53.8787C53.1886 53.9484 53.0686 54.0546 52.982 54.1862C52.8971 54.3607 52.8577 54.554 52.8677 54.7479C51.7243 53.2806 50.8576 51.6711 50.7684 49.7704C50.7005 48.5604 51.0286 47.3613 51.7026 46.3553C52.3766 45.3493 53.3598 44.5914 54.5027 44.1968C55.9228 43.6947 57.3567 43.6557 58.7676 44.2679C58.879 44.3006 58.9809 44.3595 59.0649 44.4398Z" fill="#FF1D14"/>
<path d="M60.1305 45.1643C60.0253 45.1873 60.0482 45.107 60.0436 45.052C60.0962 45.0703 60.1488 45.0887 60.1305 45.1643Z" fill="#FF1D14"/>
<defs>
<linearGradient id="paint0_linear" x1="61.9737" y1="-0.0139897" x2="61.9737" y2="79.748" gradientUnits="userSpaceOnUse">
<stop stop-color="#FE707B"/>
<stop offset="1" stop-color="#FF2219"/>
</linearGradient>
</defs>
</svg>
