<svg width="138" height="27" viewBox="0 0 138 27" fill="none" xmlns="http://www.w3.org/2000/svg">
<path d="M73.7013 15.7139C73.6784 15.6395 73.6236 15.6236 73.5689 15.6024C72.3854 15.1631 71.753 14.2476 71.4068 13.084C71.2143 12.4394 71.2514 11.7806 71.2849 11.1253C71.324 10.5955 71.4139 10.0706 71.5534 9.55803C71.5976 9.38093 71.6647 9.29593 71.8767 9.29947C73.1432 9.31187 74.4097 9.29947 75.6762 9.29947H75.7097C75.9605 9.29947 75.9606 9.29947 75.9146 9.5474C75.8422 9.93347 75.7768 10.3178 75.738 10.7092C75.6938 11.182 75.685 11.6531 75.6797 12.1259C75.6739 12.593 75.8486 13.0443 76.1672 13.3851C76.4064 13.6598 76.7 13.8815 77.0294 14.0361C77.3587 14.1907 77.7166 14.2748 78.0802 14.283C78.3558 14.2936 78.6331 14.283 78.9087 14.283C79.0659 14.283 79.1383 14.3255 79.1383 14.4973C79.1383 15.2818 79.1383 16.0664 79.1383 16.8509C79.1383 17.0014 79.0871 17.0545 78.9387 17.0545C78.5362 17.0362 78.133 17.0552 77.734 17.1112C77.2808 17.1957 76.8467 17.3625 76.4534 17.6036C75.7715 18.0215 75.4342 18.6272 75.5013 19.4277C75.5702 20.2636 75.9712 20.8869 76.7554 21.2287C77.3269 21.4466 77.9379 21.5407 78.5483 21.505C78.8448 21.5062 79.1406 21.4777 79.4315 21.42C79.8093 21.3559 80.1628 21.1903 80.4543 20.9408C80.7457 20.6913 80.9642 20.3673 81.0866 20.0032C81.295 19.3909 81.3919 18.7461 81.3728 18.0994V9.73512C81.3728 9.22154 81.3622 9.30832 81.7949 9.30655C82.9572 9.30655 84.1195 9.30655 85.2818 9.30655C85.363 9.30655 85.4443 9.30655 85.5238 9.30655C85.6421 9.30655 85.6898 9.36499 85.688 9.48365C85.688 9.56511 85.688 9.64481 85.688 9.72627C85.688 12.8302 85.688 15.9347 85.688 19.0398C85.694 19.7332 85.5976 20.4237 85.4019 21.0888C84.9055 22.7252 83.7998 23.7665 82.2224 24.3439C81.3537 24.6532 80.4442 24.8323 79.5234 24.8752C78.1102 24.9566 76.6971 24.9124 75.307 24.5546C74.2003 24.3022 73.1896 23.7353 72.396 22.9218C71.9557 22.4627 71.6172 21.9155 71.4026 21.3161C71.1879 20.7167 71.1021 20.0786 71.1507 19.4436C71.2337 17.7559 72.0551 16.5551 73.5547 15.806C73.6095 15.7706 73.6572 15.7387 73.7013 15.7139Z" fill="#001740"/>
<path d="M137.002 19.5463V24.2199C137.002 24.3014 137.002 24.3829 137.002 24.4626C137.017 24.6273 136.954 24.6857 136.786 24.6822C136.371 24.6715 135.956 24.6822 135.55 24.6822H133.022C132.7 24.6822 132.699 24.6822 132.699 24.3669C132.699 23.5346 132.699 22.7034 132.699 21.8734C132.699 19.7045 132.699 17.5345 132.699 15.3633C132.709 15.0982 132.69 14.8328 132.644 14.5717C132.591 14.2625 132.464 13.9708 132.274 13.7214C132.084 13.4719 131.837 13.2721 131.554 13.139C131.047 12.8874 130.493 12.7437 129.928 12.7169C129.363 12.6901 128.799 12.7807 128.27 12.9831C127.677 13.22 127.185 13.6589 126.882 14.2228C126.514 14.8752 126.293 15.6007 126.235 16.348C126.118 17.3624 126.225 18.3901 126.548 19.3586C126.748 19.9874 127.129 20.5423 127.645 20.9525C128.062 21.2848 128.577 21.4713 129.109 21.4838C129.463 21.4926 129.816 21.5033 130.169 21.498C130.346 21.498 130.406 21.5599 130.404 21.7406C130.404 22.6402 130.404 23.5417 130.404 24.4413C130.404 24.5706 130.39 24.6591 130.227 24.6609C128.95 24.6715 127.673 24.6751 126.419 24.3669C124.28 23.8356 122.862 22.5304 122.249 20.4141C121.636 18.3658 121.628 16.1832 122.227 14.1307C122.9 11.8284 124.439 10.2966 126.726 9.60056C128.88 8.9342 131.195 9.02036 133.294 9.84495C134.825 10.4276 135.963 11.4601 136.595 12.9991C136.89 13.7782 137.028 14.6082 137.002 15.4412C137 16.8167 137 18.185 137.002 19.5463Z" fill="#001740"/>
<path d="M57.5743 11.7682C57.6696 11.7558 57.6679 11.685 57.6891 11.639C58.0627 10.8326 58.7228 10.1949 59.5403 9.85028C60.9004 9.23575 62.3329 9.09938 63.7955 9.25169C64.6948 9.3463 65.554 9.67473 66.2878 10.2045C66.8015 10.5691 67.2377 11.0324 67.5713 11.5675C67.9048 12.1026 68.129 12.6987 68.2309 13.3214C68.2934 13.672 68.323 14.0278 68.3192 14.384C68.3192 17.6898 68.3192 20.9909 68.3192 24.2872C68.3192 24.7371 68.351 24.6751 67.9323 24.6768H64.1629C64.0622 24.6768 64.0145 24.6308 64.0163 24.5299V24.2536C64.0163 21.3893 64.0163 18.5269 64.0163 15.6662C64.0216 15.262 63.9741 14.8589 63.875 14.4672C63.804 14.1564 63.6616 13.8665 63.4593 13.6205C63.2569 13.3746 63 13.1793 62.7091 13.0504C62.2016 12.8129 61.6501 12.6843 61.0901 12.6731C60.5301 12.6618 59.9739 12.768 59.4572 12.9849C58.7966 13.2541 58.3638 13.7748 58.0689 14.4141C57.7913 15.0396 57.6532 15.7183 57.6644 16.4029C57.6555 18.528 57.6644 20.6532 57.6555 22.7784C57.6555 23.3327 57.6555 23.887 57.6555 24.4413C57.6555 24.6822 57.6555 24.6875 57.4047 24.6875C56.1506 24.6875 54.8958 24.6875 53.6405 24.6875C53.3915 24.6875 53.3915 24.6875 53.3844 24.4395C53.3844 24.3705 53.3844 24.3014 53.3844 24.2323V9.74756C53.3844 9.69974 53.3844 9.6537 53.3844 9.60765C53.3844 9.30836 53.3844 9.30659 53.69 9.30659H57.2828C57.5425 9.30659 57.5478 9.30659 57.5495 9.574C57.5495 10.1974 57.5495 10.8137 57.5495 11.4441C57.5338 11.5527 57.5422 11.6634 57.5743 11.7682Z" fill="#001740"/>
<path d="M119.135 17.1112C119.165 17.965 119.125 18.8198 119.013 19.6667C118.822 20.9064 118.416 22.0345 117.541 22.959C116.766 23.7807 115.794 24.2571 114.715 24.5528C113.366 24.9177 111.988 24.9619 110.605 24.8751C109.788 24.8294 108.98 24.6812 108.201 24.4342C106.03 23.7258 104.788 22.2311 104.362 20.0067C104.15 18.8981 104.2 17.7771 104.186 16.6596C104.186 16.4436 104.315 16.4595 104.458 16.4595H107.704C107.881 16.4595 108.073 16.4595 108.257 16.4595C108.441 16.4595 108.503 16.5126 108.499 16.695C108.49 17.1927 108.499 17.6885 108.499 18.1844C108.498 18.5886 108.548 18.9913 108.646 19.3834C108.93 20.5363 109.624 21.2677 110.82 21.4589C111.479 21.5749 112.156 21.552 112.806 21.3916C113.2 21.2979 113.564 21.1064 113.865 20.8347C114.166 20.563 114.394 20.2198 114.528 19.8367C114.721 19.3169 114.818 18.7658 114.812 18.211C114.812 17.391 114.83 16.5711 114.795 15.7529C114.722 14.0917 113.71 13.0061 112.067 12.7865C111.21 12.6415 110.329 12.7652 109.545 13.1407C109.015 13.3851 108.6 13.8246 108.386 14.368C108.367 14.4384 108.323 14.4993 108.262 14.5389C108.201 14.5785 108.128 14.5939 108.056 14.5823C106.848 14.5823 105.638 14.5823 104.429 14.5823C104.141 14.5823 104.143 14.5823 104.191 14.29C104.444 12.7511 105.314 11.6123 106.514 10.6932C107.463 9.97149 108.583 9.50787 109.764 9.34726C111.568 9.05924 113.415 9.22103 115.143 9.81835C115.996 10.1098 116.774 10.589 117.419 11.221C118.34 12.1348 118.799 13.2717 119.009 14.5309C119.125 15.3858 119.167 16.2491 119.135 17.1112Z" fill="#001740"/>
<path d="M90.3036 19.927C90.8459 19.927 91.3864 19.927 91.9269 19.927C92.0046 19.9119 92.0852 19.9263 92.1528 19.9676C92.2204 20.0089 92.2703 20.074 92.2926 20.1501C92.4544 20.5382 92.7487 20.8558 93.1228 21.0462C94.338 21.7103 95.571 21.6466 96.8092 21.1153C96.9036 21.0696 96.9905 21.0099 97.0671 20.9382C97.184 20.8434 97.277 20.7224 97.3386 20.5849C97.4001 20.4474 97.4285 20.2973 97.4215 20.1468C97.4144 19.9962 97.3721 19.8495 97.298 19.7184C97.2238 19.5873 97.1199 19.4755 96.9947 19.3921C96.7843 19.2509 96.5538 19.1422 96.3111 19.0698C95.3577 18.766 94.389 18.513 93.4089 18.3119C92.7697 18.1677 92.1402 17.9831 91.5242 17.7593C91.0583 17.5918 90.6141 17.3689 90.2012 17.0952C88.9453 16.2575 88.463 15.0586 88.5655 13.5851C88.6609 12.241 89.3498 11.2474 90.4114 10.4859C91.3266 9.85669 92.3785 9.45593 93.4796 9.31707C94.8948 9.09175 96.3421 9.18122 97.7189 9.57917C98.9342 9.93337 99.9658 10.5674 100.709 11.6247C101.177 12.3172 101.432 13.1316 101.444 13.9676C101.444 14.0969 101.414 14.1678 101.268 14.1607H101.165C100.059 14.1607 98.9536 14.1607 97.8479 14.1607C97.6712 14.1607 97.5864 14.1164 97.537 13.9375C97.4796 13.7126 97.3696 13.5047 97.216 13.3309C97.0624 13.1572 96.8696 13.0228 96.6538 12.9387C96.1352 12.7125 95.5748 12.5985 95.0092 12.6043C94.4437 12.6101 93.8857 12.7355 93.3718 12.9724C93.1894 13.0505 93.0287 13.1721 92.9037 13.3266C92.8319 13.4098 92.7779 13.507 92.7453 13.6121C92.7127 13.7173 92.7021 13.828 92.7142 13.9375C92.7263 14.0469 92.7609 14.1526 92.8157 14.248C92.8705 14.3434 92.9444 14.4264 93.0327 14.4919C93.2904 14.6873 93.583 14.8316 93.8947 14.9169C94.8432 15.1949 95.7953 15.4659 96.7421 15.7457C97.272 15.9015 97.8019 16.0574 98.3318 16.2398C99.1808 16.5081 99.9438 16.9969 100.543 17.6566C101.131 18.306 101.461 19.1491 101.471 20.0262C101.488 20.4871 101.454 20.9486 101.37 21.4022C101.195 22.1729 100.763 22.8604 100.144 23.3503C99.4286 23.9402 98.5834 24.3512 97.6783 24.5492C95.8695 24.9884 94.0572 25.0415 92.2519 24.5315C91.0367 24.1897 89.9892 23.5734 89.2173 22.5427C88.7146 21.8646 88.4294 21.0493 88.3995 20.205C88.3853 19.9358 88.3906 19.9305 88.6556 19.9287C89.1979 19.9252 89.7507 19.927 90.3036 19.927Z" fill="#001740"/>
<path d="M47.4705 5.77685H42.3091C42.0035 5.77685 42.0018 5.77686 42 5.47933C42 4.96044 42 4.43977 42 3.92087C42 3.69065 42 3.45865 42 3.22842C42 3.0708 42.0477 2.98757 42.2173 3.00351C42.2867 3.00705 42.3563 3.00705 42.4257 3.00351H52.0931C52.5171 3.00351 52.5047 2.93444 52.5047 3.40906C52.5047 4.02005 52.5047 4.63103 52.5047 5.24379C52.5107 5.27945 52.5095 5.31597 52.5011 5.35115C52.4927 5.38632 52.4774 5.41945 52.4559 5.44854C52.4345 5.47763 52.4074 5.5021 52.3764 5.52047C52.3453 5.53885 52.3108 5.55075 52.2751 5.55548C51.7748 5.6969 51.308 5.93781 50.9026 6.26387C50.1572 6.87132 49.788 7.68065 49.6432 8.61395C49.5805 9.05915 49.5521 9.50854 49.5584 9.95812C49.5584 14.7232 49.5584 19.4895 49.5584 24.257C49.5584 24.7139 49.5919 24.6731 49.1556 24.6731H45.395C45.2784 24.6731 45.229 24.6165 45.2307 24.496C45.2307 24.4146 45.2307 24.3349 45.2307 24.2534C45.2307 19.9736 45.2307 15.6925 45.2307 11.4103C45.2307 10.4044 45.2978 9.40558 45.614 8.43863C45.9184 7.4624 46.5117 6.60204 47.3151 5.97166C47.368 5.93093 47.4157 5.88134 47.467 5.83529C47.4699 5.81596 47.4711 5.7964 47.4705 5.77685Z" fill="#001740"/>
<path d="M31.5135 8.1363C31.4789 7.69857 31.4106 7.26418 31.3091 6.83703C31.2534 6.57117 31.1787 6.3097 31.0854 6.05467C31.0747 5.98457 31.0541 5.91635 31.0242 5.85209C30.5871 4.64554 29.8828 3.55407 28.9642 2.65979C28.397 2.10361 27.7562 1.6283 27.0598 1.24719C25.863 0.586591 24.5344 0.201857 23.1706 0.120999C22.5107 0.0719651 21.8474 0.0980026 21.1934 0.198614C20.3322 0.344412 19.499 0.624088 18.7239 1.02754C17.6935 1.56622 16.7532 2.26278 15.937 3.0921C15.9184 3.11151 15.8998 3.1278 15.8828 3.14721C15.8426 3.19145 15.8054 3.20154 15.7566 3.15342C15.6893 3.08589 15.6134 3.02458 15.5484 2.95705C14.9296 2.32439 14.2366 1.76927 13.4845 1.30385C12.7858 0.867429 12.0303 0.529726 11.2395 0.300291C10.5694 0.112957 9.87819 0.0122762 9.18263 0.000697186C8.82516 -0.0035971 8.46774 0.011949 8.11199 0.0472655C7.63508 0.0847301 7.1622 0.162623 6.69841 0.28011C5.85007 0.48783 5.03661 0.818871 4.28387 1.26272C3.45813 1.74395 2.71759 2.35896 2.09228 3.08279C1.51713 3.74445 1.04855 4.49209 0.70347 5.2987C0.541134 5.66308 0.411595 6.04127 0.3164 6.42877C0.142011 7.04609 0.0396562 7.6816 0.0113884 8.32258C-0.0150785 8.8428 0.00460882 9.36435 0.0702214 9.88108C0.182287 10.7423 0.396432 11.587 0.708114 12.3974C0.941972 12.9999 1.21452 13.5866 1.52406 14.1538C1.71527 14.5015 1.92351 14.8415 2.13795 15.1744C3.08705 16.6491 4.21419 17.9787 5.42185 19.2446C6.04116 19.8934 6.69376 20.512 7.36262 21.1127C7.52593 21.2691 7.69725 21.4167 7.87588 21.5552C8.08025 21.7562 8.30088 21.9394 8.51996 22.1248C8.97825 22.515 9.44429 22.8966 9.91806 23.2697C11.0917 24.1956 12.2954 25.0789 13.5403 25.9039C14.0117 26.2144 14.487 26.5248 14.9747 26.8081C15.2345 26.9679 15.542 27.0308 15.8433 26.9859C16.0464 26.9482 16.24 26.8707 16.4131 26.7577C17.7291 25.9753 19.015 25.1549 20.225 24.2166C20.4038 24.08 20.5842 23.9449 20.7669 23.8184C20.9836 23.6709 21.1733 23.4893 21.4001 23.3566C21.4489 23.3287 21.5093 23.3015 21.5286 23.2363C21.5302 23.2299 21.5341 23.2242 21.5395 23.2204C21.5449 23.2166 21.5514 23.2148 21.558 23.2153C21.7129 23.1455 21.829 23.0229 21.9552 22.9181C21.956 22.9132 21.956 22.9082 21.9552 22.9033C21.9319 22.7869 21.9296 22.7892 22.0372 22.8141C22.0508 22.8186 22.0648 22.8215 22.079 22.8226C22.1483 22.782 22.2114 22.7315 22.2664 22.6728C22.3041 22.6583 22.3381 22.6352 22.3655 22.6053C22.7099 22.3212 23.0622 22.0488 23.3912 21.7391C23.5832 21.5575 23.8015 21.4061 24.0012 21.2331C24.403 20.883 24.7986 20.5221 25.188 20.155C26.1336 19.2615 27.0255 18.3124 27.8588 17.3127C27.9137 17.2491 27.9362 17.1653 28.0136 17.1164C28.0433 17.0959 28.0683 17.0695 28.0871 17.0387C28.4022 16.6445 28.7119 16.2463 28.9998 15.8303C30.0062 14.3835 30.8446 12.8568 31.2448 11.1214C31.2952 10.9002 31.3563 10.6828 31.3997 10.4593C31.4684 10.088 31.5098 9.71209 31.5235 9.33467C31.543 8.93535 31.5397 8.53524 31.5135 8.1363ZM29.0022 9.36572C28.919 10.2828 28.681 11.1791 28.2985 12.0163C27.8084 13.1238 27.1543 14.1297 26.4142 15.0828C25.9389 15.6921 25.4341 16.2781 24.9077 16.8455C24.8616 16.8848 24.8226 16.9318 24.7924 16.9844C24.6345 17.1474 24.476 17.3091 24.3171 17.4695C23.93 17.8684 23.5323 18.2552 23.1241 18.6298C23.1022 18.65 23.0792 18.6689 23.0552 18.6865C22.7819 18.9543 22.4916 19.2034 22.2037 19.4541C21.8352 19.7723 21.469 20.0975 21.0804 20.3925C20.8133 20.6308 20.5269 20.8442 20.2451 21.0654C19.6056 21.5668 18.9492 22.0519 18.2873 22.5246C18.2506 22.5427 18.2188 22.5693 18.1944 22.6022C17.9567 22.7628 17.7191 22.9251 17.4837 23.0873C16.9658 23.442 16.4425 23.7812 15.9084 24.1102C15.8309 24.1607 15.7535 24.2453 15.6599 24.2453C15.5662 24.2453 15.4934 24.1591 15.4137 24.1079C14.6713 23.636 13.9583 23.1238 13.2391 22.6216C12.852 22.3515 12.4735 22.0783 12.105 21.7927C11.9873 21.7003 11.889 21.5839 11.7559 21.5125C11.5399 21.3161 11.2999 21.15 11.0785 20.9622C10.9361 20.8419 10.782 20.7363 10.6519 20.6036C10.4375 20.4484 10.2393 20.266 10.0326 20.0952C9.5906 19.7219 9.1594 19.3385 8.73285 18.9481C8.70642 18.9241 8.68184 18.8981 8.65931 18.8705C8.3961 18.6516 8.15457 18.4048 7.90839 18.1719C6.79462 17.0861 5.76923 15.9127 4.84202 14.6629C4.73413 14.5003 4.61596 14.3448 4.48824 14.1973C4.02376 13.425 3.53992 12.662 3.19233 11.823C2.86799 11.0653 2.65345 10.265 2.55521 9.44644C2.45668 8.57039 2.54481 7.68336 2.81377 6.84401C2.86874 6.67326 2.9299 6.50406 2.99492 6.33796C3.1064 6.13306 3.19233 5.91806 3.30458 5.71316C3.86345 4.69658 4.70251 3.86289 5.72144 3.31175C6.35241 2.97007 7.03667 2.73833 7.74505 2.62641C8.09333 2.57391 8.44434 2.54152 8.79633 2.52939C9.51207 2.49028 10.2285 2.59341 10.9043 2.83287C11.6298 3.10013 12.3074 3.48332 12.9109 3.9676C13.6184 4.5232 14.2455 5.17466 14.7742 5.90332C14.9048 6.09112 15.0865 6.2374 15.2976 6.32477C15.7419 6.5025 16.2505 6.48 16.6608 6.07407C16.8691 5.86761 17.0293 5.6208 17.2228 5.3996C17.7406 4.80528 18.3266 4.27434 18.9685 3.8178C19.5058 3.43122 20.0958 3.12433 20.7204 2.9066C21.28 2.71698 21.8669 2.62151 22.4576 2.62408C23.3001 2.61253 24.1383 2.74751 24.9348 3.02302C26.3228 3.50213 27.4877 4.47429 28.2094 5.75585C28.2659 5.87364 28.3297 5.98771 28.4007 6.09735C28.4889 6.34805 28.6089 6.58866 28.6956 6.84168C28.9704 7.65282 29.0747 8.51218 29.0022 9.36572Z" fill="url(#paint0_linear)"/>
<path d="M4.48823 14.1942C4.01988 13.4227 3.53836 12.659 3.19155 11.8207C2.86713 11.063 2.65233 10.2628 2.55366 9.44416C2.45559 8.56775 2.54425 7.68045 2.81377 6.84095C2.86873 6.66942 2.92989 6.50178 2.99414 6.33413C3.10562 6.13078 3.19155 5.91501 3.3038 5.71321C3.86288 4.69679 4.70188 3.86315 5.72066 3.3118C6.35128 2.96933 7.03569 2.73754 7.74427 2.62646C8.09275 2.57329 8.44404 2.54063 8.79633 2.52867C9.512 2.48961 10.2283 2.59248 10.9043 2.83137C11.6297 3.09902 12.3071 3.48275 12.9101 3.96765C13.618 4.52275 14.2454 5.17399 14.7742 5.90259C14.9048 6.09062 15.0864 6.23716 15.2976 6.32481C15.7419 6.50178 16.2513 6.48004 16.6608 6.07334C16.8698 5.86689 17.0285 5.6193 17.2221 5.39964C17.7398 4.80482 18.3257 4.27336 18.9677 3.8163C19.5059 3.43063 20.0963 3.1243 20.7212 2.90665C21.2801 2.71674 21.8666 2.62101 22.4568 2.62336C23.2993 2.61141 24.1375 2.74613 24.934 3.02152C26.3223 3.50056 27.4873 4.47308 28.2087 5.75512C28.2652 5.87302 28.3293 5.9871 28.4006 6.09663C28.4897 6.34888 28.6089 6.58715 28.6948 6.84018C28.9706 7.6519 29.076 8.51203 29.0045 9.36654C28.9203 10.2832 28.6816 11.1789 28.2985 12.0155C27.81 13.1239 27.1543 14.129 26.4142 15.0821C25.9397 15.6929 25.4349 16.2782 24.9077 16.8447C24.8625 16.8849 24.8241 16.932 24.7939 16.9844L24.3186 17.4703C23.931 17.8677 23.5334 18.2542 23.1257 18.6299C23.1032 18.6501 23.0784 18.6679 23.0552 18.6865C23.0552 18.0237 23.0552 17.3609 23.0552 16.698C23.0552 16.6918 23.0676 16.6856 23.0808 16.6732C23.1721 16.7632 23.2611 16.8595 23.3594 16.9449C23.6792 17.2219 24.0415 17.2879 24.4285 17.1195C24.8156 16.9511 25.0053 16.6414 25.0184 16.2238C25.0211 16.0814 24.9933 15.9401 24.9368 15.8094C24.8803 15.6787 24.7964 15.5617 24.691 15.4663C21.9923 12.7643 19.2944 10.0607 16.5973 7.35554C16.5726 7.3307 16.5486 7.30432 16.5199 7.28181C16.3418 7.12094 16.1109 7.03119 15.8712 7.02956C15.7297 7.02833 15.5896 7.05677 15.4597 7.11304C15.3299 7.16931 15.2132 7.25217 15.1172 7.35632C12.4221 10.062 9.72581 12.7669 7.02819 15.471C6.99258 15.5067 6.95697 15.5431 6.92446 15.5819C6.78991 15.7415 6.71107 15.9407 6.69995 16.1493C6.68744 16.3463 6.73364 16.5425 6.83267 16.7131C6.93171 16.8837 7.0791 17.0209 7.25612 17.1073C7.43314 17.1936 7.63177 17.2253 7.82677 17.1981C8.02177 17.171 8.20431 17.0864 8.35119 16.955C8.42861 16.8851 8.50215 16.8059 8.57957 16.733C8.60202 16.712 8.6144 16.6678 8.66627 16.6872C8.66627 17.0853 8.66627 17.4851 8.66627 17.8848C8.66627 18.2128 8.66446 18.5414 8.66085 18.8705C8.39764 18.6508 8.15534 18.4048 7.91071 18.1681C6.79634 17.0832 5.77018 15.9109 4.84202 14.6622C4.73489 14.4983 4.61669 14.3419 4.48823 14.1942Z" fill="white"/>
<path d="M21.0788 20.3917C20.8117 20.63 20.5261 20.845 20.2443 21.0654C19.6033 21.5676 18.9484 22.0519 18.285 22.5246C18.2489 22.5429 18.2176 22.5695 18.1936 22.6022C17.9559 22.7644 17.7183 22.9251 17.4814 23.0881C16.9653 23.4425 16.4407 23.7837 15.9076 24.1118C15.8263 24.1622 15.7527 24.2468 15.6591 24.2453C15.5654 24.2437 15.4919 24.1591 15.4114 24.1079C14.6705 23.636 13.9567 23.1245 13.2376 22.6216C12.8505 22.353 12.4719 22.0783 12.1034 21.7927C11.9858 21.7003 11.8875 21.5847 11.7535 21.5125C11.5383 21.3161 11.2991 21.15 11.0769 20.9622C10.9345 20.8427 10.782 20.7363 10.6504 20.6036C10.6504 20.5431 10.6558 20.4825 10.6558 20.422C10.6558 18.5499 10.6558 16.6781 10.6558 14.8065C10.6538 14.7548 10.6631 14.7032 10.6832 14.6554C10.7032 14.6077 10.7335 14.5649 10.7719 14.5302C12.4291 12.8744 14.0855 11.2153 15.7411 9.55279C15.7761 9.50758 15.8195 9.46962 15.8689 9.44102C15.9037 9.47517 15.9409 9.50855 15.9765 9.54425C17.6393 11.2114 19.3027 12.8781 20.9666 14.5442C21.0028 14.5776 21.0314 14.6185 21.0502 14.6641C21.0691 14.7096 21.0778 14.7588 21.0757 14.8081C21.0726 16.6088 21.0726 18.4097 21.0757 20.2109C21.0711 20.2706 21.0765 20.3312 21.0788 20.3917ZM15.1443 15.2893C15.1505 15.2637 15.1327 15.2575 15.1141 15.2513C15.0894 15.1851 15.0436 15.1289 14.9838 15.0915C14.9241 15.054 14.8537 15.0373 14.7835 15.044C14.7542 15.0164 14.7186 14.9964 14.6798 14.9858C14.2021 14.7786 13.7168 14.7918 13.236 14.9618C12.8491 15.0953 12.5163 15.3519 12.2881 15.6925C12.0599 16.033 11.9489 16.439 11.9718 16.8486C12.002 17.492 12.2916 18.0369 12.6825 18.5336C12.7141 18.623 12.775 18.699 12.8551 18.7494C12.8782 18.8001 12.9117 18.8453 12.9535 18.8821C13.7013 19.7421 14.5869 20.4344 15.5383 21.0553C15.5747 21.0842 15.6197 21.0998 15.666 21.0998C15.7124 21.0998 15.7574 21.0842 15.7938 21.0553C16.5715 20.5773 17.2979 20.0199 17.9614 19.392C18.1729 19.1977 18.3672 18.9853 18.542 18.7571C18.7912 18.7571 18.9089 18.5639 18.8416 18.3691C19.0396 18.1075 19.1941 17.8155 19.2991 17.5044C19.3815 17.2707 19.4226 17.0243 19.4206 16.7764C19.4036 15.2319 17.7825 14.5015 16.6585 15.0417C16.3182 15.2101 16.0182 15.4502 15.7791 15.7457C15.7551 15.7744 15.7365 15.8101 15.7017 15.8233C15.6126 15.7224 15.5337 15.6231 15.4439 15.5353C15.3541 15.4476 15.2735 15.3374 15.1458 15.2916L15.1443 15.2893Z" fill="white"/>
<path d="M21.0789 20.3916C21.0789 20.3311 21.0711 20.2706 21.0711 20.21C21.0711 18.4093 21.0711 16.6084 21.0711 14.8072C21.0732 14.7579 21.0645 14.7088 21.0456 14.6632C21.0267 14.6176 20.9982 14.5767 20.962 14.5433C19.2986 12.8777 17.636 11.2111 15.9742 9.54338C15.9386 9.50767 15.9014 9.4743 15.8666 9.44015C15.8172 9.46874 15.7738 9.5067 15.7388 9.55191C14.0827 11.2113 12.4263 12.8705 10.7696 14.5294C10.7312 14.5641 10.7009 14.6068 10.6809 14.6546C10.6608 14.7023 10.6515 14.7539 10.6535 14.8057C10.6571 16.6778 10.6571 18.5496 10.6535 20.4211C10.6535 20.4817 10.6535 20.5422 10.6481 20.6027C10.4329 20.4475 10.2355 20.2659 10.0288 20.0944C9.58675 19.7218 9.15478 19.3368 8.72823 18.9472C8.70191 18.9239 8.67946 18.896 8.65546 18.8696C8.65546 18.541 8.65727 18.2125 8.66088 17.8839C8.66088 17.4842 8.66088 17.0845 8.66088 16.6863C8.60901 16.6669 8.59663 16.7111 8.57418 16.7321C8.49676 16.805 8.42554 16.8873 8.34581 16.9541C8.19878 17.0836 8.01685 17.1666 7.82289 17.1927C7.62893 17.2188 7.43159 17.1869 7.25569 17.1009C7.0798 17.0148 6.9332 16.8786 6.83432 16.7093C6.73544 16.5399 6.6887 16.3451 6.69998 16.1492C6.7111 15.9406 6.78994 15.7413 6.92449 15.5818C6.957 15.543 6.99261 15.5042 7.02822 15.4708C9.72532 12.7657 12.4224 10.0608 15.1195 7.35619C15.2156 7.25204 15.3322 7.16918 15.4621 7.11291C15.5919 7.05663 15.7321 7.0282 15.8735 7.02943C16.1133 7.03105 16.3441 7.12081 16.5223 7.28168C16.5486 7.30418 16.5726 7.33057 16.5997 7.35541C19.2963 10.0606 21.9934 12.7641 24.691 15.4662C24.7959 15.5615 24.8792 15.6782 24.9355 15.8084C24.9917 15.9387 25.0194 16.0795 25.0169 16.2214C25.0037 16.6389 24.8102 16.9494 24.427 17.1171C24.0438 17.2847 23.6776 17.2195 23.3579 16.9424C23.2596 16.857 23.1706 16.7608 23.0792 16.6708C23.0661 16.6832 23.0537 16.6894 23.0537 16.6956C23.0537 17.3584 23.0537 18.0213 23.0537 18.6841C22.7796 18.9519 22.4901 19.201 22.2021 19.4517C21.8336 19.773 21.4675 20.0959 21.0789 20.3916Z" fill="#001740"/>
<path d="M15.1435 15.2876C15.2712 15.3334 15.3502 15.4428 15.4415 15.5313C15.5329 15.6198 15.6103 15.7184 15.6993 15.8193C15.7365 15.8061 15.755 15.7704 15.7767 15.7416C16.0158 15.4462 16.3158 15.206 16.6561 15.0377C17.7802 14.4944 19.4012 15.2278 19.4183 16.7724C19.4203 17.0203 19.3792 17.2667 19.2967 17.5004C19.1917 17.8115 19.0372 18.1034 18.8392 18.365C18.8048 18.3122 18.7565 18.2698 18.6998 18.2424C18.643 18.215 18.5799 18.2038 18.5172 18.2098C18.2199 18.2152 17.9226 18.2098 17.6246 18.2137C17.5904 18.2188 17.5555 18.2104 17.5274 18.1901C17.4993 18.1697 17.4803 18.1392 17.4744 18.105C17.3668 17.7845 17.253 17.4662 17.1408 17.1472C17.1266 17.0988 17.1079 17.0518 17.085 17.0068C17.062 16.9613 17.0258 16.9238 16.9812 16.8993C16.9366 16.8748 16.8856 16.8643 16.835 16.8694C16.7867 16.8706 16.7398 16.886 16.7 16.9136C16.6603 16.9411 16.6294 16.9797 16.6112 17.0246C16.5932 17.0663 16.5784 17.1094 16.5671 17.1535C16.3932 17.7444 16.219 18.335 16.0446 18.9254C16.033 18.9658 16.0175 19.003 16.0028 19.0457C15.9902 19.0387 15.9796 19.0286 15.9721 19.0164C15.9645 19.0042 15.9601 18.9902 15.9594 18.9759C15.6885 17.8002 15.418 16.6244 15.1481 15.4483C15.1381 15.3962 15.1048 15.3419 15.1435 15.2876Z" fill="#FF1D14"/>
<path d="M15.1435 15.2878C15.1048 15.3421 15.1396 15.3964 15.1505 15.443C15.4199 16.6197 15.6903 17.7955 15.9618 18.9706C15.9625 18.985 15.9668 18.999 15.9744 19.0112C15.982 19.0234 15.9926 19.0335 16.0051 19.0405C16.0198 18.9993 16.0353 18.9629 16.0469 18.9202C16.2219 18.3293 16.3961 17.7386 16.5695 17.1482C16.5808 17.1042 16.5955 17.0611 16.6136 17.0194C16.6318 16.9745 16.6627 16.9359 16.7024 16.9083C16.7421 16.8808 16.789 16.8654 16.8373 16.8641C16.888 16.8591 16.9389 16.8695 16.9836 16.894C17.0282 16.9186 17.0644 16.956 17.0874 17.0015C17.1103 17.0465 17.1289 17.0935 17.1431 17.142C17.2554 17.461 17.3692 17.7792 17.4768 18.0998C17.4827 18.134 17.5017 18.1645 17.5297 18.1848C17.5578 18.2051 17.5927 18.2136 17.627 18.2084C17.925 18.203 18.2223 18.2084 18.5195 18.2046C18.5822 18.1985 18.6454 18.2098 18.7021 18.2371C18.7589 18.2645 18.8071 18.3069 18.8416 18.3598C18.9089 18.5585 18.7913 18.7479 18.542 18.7479C18.4862 18.7479 18.4313 18.7416 18.3755 18.7416H17.3769C17.1865 18.7416 17.1183 18.6904 17.0525 18.5088C17.0192 18.418 16.9906 18.3264 16.9558 18.2372C16.9399 18.1726 16.9137 18.111 16.8784 18.0548C16.8443 18.0734 16.8427 18.0998 16.8358 18.1238C16.715 18.5305 16.5945 18.9375 16.4743 19.3447C16.3883 19.635 16.3055 19.9268 16.2165 20.2163C16.2023 20.2769 16.1686 20.331 16.1206 20.3703C16.0726 20.4096 16.0129 20.4319 15.9509 20.4337C15.89 20.4288 15.8323 20.4045 15.7861 20.3645C15.7398 20.3244 15.7076 20.2706 15.6939 20.2109C15.6885 20.1915 15.687 20.1713 15.6823 20.1511C15.4119 18.9802 15.1417 17.8087 14.8718 16.6367C14.8681 16.5908 14.8493 16.5474 14.8184 16.5133L14.326 18.4785C14.2734 18.6904 14.2037 18.7471 13.99 18.7479C13.6123 18.7479 13.2337 18.7479 12.8552 18.7479C12.775 18.6975 12.7142 18.6215 12.6825 18.5321C12.6791 18.4664 12.6925 18.401 12.7212 18.3419C12.7505 18.2974 12.7912 18.2614 12.8389 18.2378C12.8867 18.2142 12.9398 18.2038 12.9929 18.2077C13.2298 18.2077 13.4675 18.2077 13.7044 18.2077C13.8368 18.2077 13.8368 18.2077 13.8716 18.0726C13.8712 18.0674 13.8712 18.0623 13.8716 18.0571C14.1038 17.1459 14.3361 16.2355 14.5575 15.3227C14.5669 15.2605 14.5924 15.2019 14.6315 15.1527C14.6707 15.1035 14.722 15.0655 14.7804 15.0425C14.8507 15.0359 14.9211 15.0526 14.981 15.09C15.0409 15.1275 15.0868 15.1836 15.1118 15.2497C15.1118 15.2684 15.1056 15.2955 15.1412 15.2878H15.1435Z" fill="#001740"/>
<path d="M12.8551 18.7494C13.2337 18.7494 13.6122 18.7494 13.99 18.7494C14.2037 18.7494 14.2734 18.6919 14.326 18.48L14.8183 16.5148C14.8493 16.5489 14.8681 16.5923 14.8718 16.6382C15.1412 17.8092 15.4113 18.9807 15.6823 20.1527C15.6869 20.1728 15.6885 20.193 15.6939 20.2124C15.7078 20.2718 15.7402 20.3253 15.7864 20.365C15.8326 20.4048 15.8902 20.4288 15.9509 20.4336C16.0121 20.4324 16.0712 20.4112 16.1193 20.3732C16.1673 20.3353 16.2017 20.2826 16.2172 20.2233C16.3062 19.9338 16.3891 19.6419 16.475 19.3517C16.5958 18.945 16.7163 18.538 16.8365 18.1308C16.8435 18.1067 16.845 18.0803 16.8791 18.0617C16.9145 18.118 16.9406 18.1795 16.9565 18.2441C16.9914 18.3334 17.02 18.4249 17.0533 18.5158C17.1191 18.6966 17.1872 18.7486 17.3777 18.7486H18.3763C18.432 18.7486 18.487 18.7525 18.5427 18.7548C18.3679 18.9829 18.1737 19.1953 17.9621 19.3897C17.2987 20.0175 16.5723 20.5749 15.7945 21.053C15.7582 21.0818 15.7132 21.0975 15.6668 21.0975C15.6204 21.0975 15.5754 21.0818 15.5391 21.053C14.5877 20.4367 13.702 19.7421 12.9542 18.8798C12.9125 18.8437 12.8787 18.7993 12.8551 18.7494Z" fill="#FF1D14"/>
<path d="M14.7836 15.044C14.7251 15.067 14.6738 15.105 14.6347 15.1542C14.5955 15.2033 14.57 15.262 14.5606 15.3242C14.3353 16.2369 14.1039 17.1474 13.8747 18.0586C13.8744 18.0637 13.8744 18.0689 13.8747 18.0741C13.8399 18.2083 13.8399 18.2091 13.7075 18.2091C13.4706 18.2091 13.233 18.2091 12.9961 18.2091C12.943 18.2053 12.8898 18.2157 12.842 18.2393C12.7943 18.2629 12.7537 18.2988 12.7243 18.3434C12.6956 18.4025 12.6823 18.4679 12.6856 18.5336C12.2986 18.0368 12.0052 17.492 11.975 16.8485C11.952 16.4389 12.063 16.033 12.2912 15.6924C12.5194 15.3519 12.8522 15.0953 13.2391 14.9617C13.7199 14.7917 14.2053 14.7785 14.6829 14.9858C14.7206 14.9969 14.7551 15.0168 14.7836 15.044Z" fill="#FF1D14"/>
<path d="M15.1443 15.2896C15.1087 15.2974 15.1164 15.27 15.1149 15.2512C15.1327 15.2574 15.1505 15.2637 15.1443 15.2896Z" fill="#FF1D14"/>
<defs>
<linearGradient id="paint0_linear" x1="15.7682" y1="-0.00473589" x2="15.7682" y2="26.9967" gradientUnits="userSpaceOnUse">
<stop stop-color="#FE707B"/>
<stop offset="1" stop-color="#FF2219"/>
</linearGradient>
</defs>
</svg>
