<svg width="90" height="90" viewBox="0 0 90 90" fill="none" xmlns="http://www.w3.org/2000/svg">
<circle cx="45" cy="45" r="45" fill="#F8D7D7"/>
<g clip-path="url(#clip0)">
<path d="M49.0533 20.2188L76 32.8803L41.3287 43.0143L14 29.3056L49.0533 20.2188Z" fill="#F8FAFE"/>
<path d="M75.8402 63.1284L41.2656 75.2187V42.8937L75.9998 32.8802L75.8402 63.1284Z" fill="#E6EAEF"/>
<path d="M14 29.3055L14.0725 58.8888L41.2658 75.2188V42.8937L14 29.3055Z" fill="white"/>
<path d="M24.1064 34.3385L59.5111 25.1311L63.2469 26.8828L28.0792 36.3329L24.1064 34.3385Z" fill="#FFD0D0"/>
<path d="M29.2559 25.3643L56.2912 38.5622L60.9215 37.2532L33.4816 24.2664L29.2559 25.3643Z" fill="#FFD0D0"/>
<path d="M56.291 38.5622L60.9213 37.2532V47.6553L56.457 49.5736L56.291 38.5622Z" fill="#F9B7B7"/>
<path d="M24.1064 34.3385L28.0792 36.3329V47.5855L24.0903 45.1548L24.1064 34.3385Z" fill="#F9AFAF"/>
<path d="M55.8722 63.4299L55.8626 63.2347L55.782 63.2601V63.4553C54.6538 63.8551 54.5571 65.2625 54.5571 65.2625C54.5571 65.2625 55.1373 64.9087 55.363 65.2181C55.5023 65.0787 55.6661 64.9653 55.8465 64.8833L55.9125 66.4033C55.9183 66.5037 55.9183 66.6044 55.9125 66.7048C55.898 66.8063 55.8142 66.7968 55.8013 66.7143C55.7884 66.6318 55.7433 66.6587 55.7352 66.7143C55.7272 66.7698 55.782 66.9078 55.8964 66.8555C55.9284 66.8407 55.9553 66.8171 55.9739 66.7875C55.9925 66.7579 56.002 66.7237 56.0012 66.6889L55.9883 66.3716L55.9206 64.8468C56.0948 64.7801 56.2888 64.7835 56.4605 64.8563C56.4605 64.8563 56.9311 64.3057 57.2357 64.4565C57.2486 64.4612 57.0874 63.0697 55.8722 63.4299Z" fill="#5B534D"/>
<path d="M57.8515 63.4108C57.8192 62.673 57.2826 62.2399 56.654 62.4414L54.9731 62.9856C54.3445 63.1887 53.8594 63.9534 53.8917 64.6912L53.9771 66.665C54.0093 67.4013 54.5476 67.836 55.1761 67.6329L56.8571 67.0903C57.4856 66.8872 57.9707 66.1224 57.9385 65.3846L57.8515 63.4108ZM56.8426 66.7428L55.16 67.2854C54.6975 67.4441 54.301 67.1156 54.2768 66.5714L54.1898 64.5976C54.1672 64.0534 54.525 63.487 54.9956 63.3394L56.6782 62.7968C57.1407 62.6381 57.5372 62.9665 57.5614 63.5108L57.6468 65.4846C57.6629 66.0256 57.3051 66.5889 56.8426 66.7396V66.7428Z" fill="#5B534D"/>
<path d="M50.0267 67.9646L50.233 67.8979L50.1653 66.3224L50.5392 66.2018L50.0186 65.3846L49.5835 66.5096L49.9574 66.389L50.0267 67.9646Z" fill="#5B534D"/>
<path d="M49.6655 68.3136L49.6768 68.5564L52.033 67.7948L52.0234 67.552L49.6655 68.3136Z" fill="#5B534D"/>
<path d="M51.0034 66.051L51.3773 65.9304L51.445 67.5059L51.6529 67.4393L51.5852 65.8637L51.9575 65.7432L51.4386 64.926L51.0034 66.051Z" fill="#5B534D"/>
<path d="M51.535 64.0692L49.8525 64.6134C49.2239 64.8165 48.7388 65.5813 48.771 66.3175L48.8581 68.2913C48.8903 69.0291 49.427 69.4639 50.0555 69.2608L51.7381 68.7165C52.365 68.515 52.8501 67.7487 52.8179 67.0125L52.7325 65.0387C52.7002 64.3009 52.162 63.863 51.535 64.0692ZM51.722 68.3659L50.0394 68.9101C49.5769 69.0593 49.1804 68.7388 49.1562 68.1961L49.0708 66.2223C49.0466 65.6781 49.4044 65.1117 49.867 64.9641L51.5495 64.4199C52.0137 64.2707 52.4085 64.5912 52.4327 65.1355L52.5197 67.1093C52.5423 67.6519 52.1861 68.2168 51.722 68.3659Z" fill="#5B534D"/>
<path d="M45.5756 66.7491L45.5128 66.7697L45.6739 67.2124L45.8093 67.0807L45.9914 67.7868L45.7529 67.2632L45.6417 67.3727L45.4128 66.8015L45.1131 66.8967C45.1131 66.8967 44.7827 67.8725 44.9052 68.3881C45.0115 68.834 45.4934 68.6896 45.6223 68.642L45.6707 69.8415C45.4897 69.9205 45.3205 70.0235 45.1679 70.1477C45.1469 70.1636 45.1534 70.1985 45.1679 70.1906L46.2525 69.8463C46.2735 69.8463 46.2783 69.8019 46.2525 69.7987C46.0796 69.7696 45.9024 69.7755 45.7319 69.8161L45.6836 68.6182C45.8509 68.5787 46.003 68.4921 46.1212 68.369C46.2394 68.2459 46.3186 68.0915 46.3492 67.9248C46.4282 67.3441 46.0269 66.6016 46.0269 66.6016L45.5756 66.7491Z" fill="#5B534D"/>
<path d="M46.3828 65.7115L44.7003 66.2462C44.0717 66.4461 43.585 67.2093 43.614 67.9471L43.693 69.924C43.722 70.6618 44.2571 71.0998 44.8856 70.8999L46.5682 70.3651C47.1967 70.1652 47.6834 69.402 47.6544 68.6642L47.5754 66.6873C47.5464 65.9495 47.0114 65.5116 46.3828 65.7115ZM47.3498 68.7594C47.3708 69.3037 47.0114 69.8701 46.544 70.0145L44.8631 70.5492C44.3989 70.6952 44.004 70.3731 43.9831 69.8288L43.9041 67.8519C43.8815 67.3076 44.2409 66.7412 44.7099 66.5984L46.3925 66.0621C46.855 65.9161 47.2499 66.2382 47.2725 66.7825L47.3498 68.7594Z" fill="#5B534D"/>
</g>
<defs>
<clipPath id="clip0">
<rect width="62" height="55" fill="white" transform="translate(14 20.2188)"/>
</clipPath>
</defs>
</svg>
