<svg width="40" height="40" viewBox="0 0 40 40" fill="none" xmlns="http://www.w3.org/2000/svg">
<rect width="40" height="40" rx="6" fill="#E5EFFB"/>
<g clip-path="url(#clip0)">
<path opacity="0.22" d="M33.9483 27.6875L21.7493 33L16.9749 32.4337L4.5 23.0952L4.86656 19.7676L16.2469 13.2844L21.9643 13.9643L34.2513 24.9066L33.9483 27.6875Z" fill="#191617"/>
<path d="M19.0059 16.6003L7.57111 23.1487L20.0978 32.5276L31.3434 27.63L19.0059 16.6003Z" fill="#F2CAAA"/>
<path d="M5.24481 18.1584L17.7715 27.536L20.0978 32.5276L7.57114 23.1487L5.24481 18.1584Z" fill="#F7D7B5"/>
<path d="M7.00122 21.926L7.57114 23.1488L20.0978 32.5277L19.5279 31.3049L7.00122 21.926Z" fill="#EAC5A4"/>
<path d="M15.4309 29.0342L11.1577 25.8344L9.42206 22.1113L13.6952 25.3098L15.4309 29.0342Z" fill="#F7D7B5"/>
<path d="M34.7591 23.3196L32.1866 26.5664L31.3434 27.6286L20.0978 32.5275L20.941 31.4639L23.5134 28.2172L34.7591 23.3196Z" fill="#EFCCAF"/>
<path d="M35.1257 19.9777L22.7881 8.94804L17.0461 8.26685L5.61138 14.8152L5.24481 18.1573L17.7715 27.5361L23.5135 28.2187L34.7578 23.3198L35.1257 19.9777Z" fill="#4F4F4F"/>
<path d="M35.5 19.885L22.8593 8.62956L16.9788 7.9314L5.27199 14.5985L4.89636 18.0215L17.7261 27.6274L23.6067 28.3256L35.1244 23.3093L35.5 19.885Z" fill="#FCE4CA"/>
<path d="M16.9788 7.9314L6.39502 13.9591L20.1794 23.077L22.2415 23.3249L33.7592 18.3073L33.6931 16.7648L16.9788 7.9314Z" fill="#FCE4CA"/>
<path d="M4.89636 18.0214L17.7261 27.6273L21.5045 20.6235L8.6747 11.0176L4.89636 18.0214Z" fill="#FFE3C0"/>
<path d="M7.35089 13.4722L20.1794 23.0769L21.5032 20.6222L8.67467 11.0176L7.35089 13.4722Z" fill="#FFE3C0"/>
<path d="M35.5 19.885L22.8593 8.62953L20.191 6L33.0221 15.6059L35.5 19.885Z" fill="#818181"/>
<path d="M35.1244 23.3092L23.6067 28.3256L22.2415 23.3249L21.5045 20.6236L33.0221 15.606L33.7591 18.3073L35.1244 23.3092Z" fill="#F9D8B4"/>
<path d="M35.1244 23.3091L23.6067 28.3254L22.2415 23.3248L33.7592 18.3071L35.1244 23.3091Z" fill="#F9D8B4"/>
<path d="M33.0221 15.6059L21.5045 20.6236L20.5188 19.885L9.66041 11.755L8.6734 11.0176L20.1911 6L21.1781 6.73862L32.0364 14.8673L33.0221 15.6059Z" fill="#FCEDDE"/>
<path d="M9.12286 10.8402L20.1898 6.01831L32.6258 15.3293L21.5589 20.1512L9.12286 10.8402Z" fill="#FCEDDE"/>
<path d="M20.5188 19.8849L16.7404 26.89L14.589 25.2784L8.03484 20.3717L5.88208 18.76L9.66042 11.7549L20.5188 19.8849Z" fill="#FFE3C0"/>
<path d="M16.0449 21.5631L14.589 25.2784L8.03485 20.3717L10.4246 17.0244C10.5024 16.9153 10.601 16.8228 10.7147 16.7525C10.8284 16.6822 10.9548 16.6354 11.0866 16.6149C11.2184 16.5944 11.3529 16.6005 11.4824 16.633C11.6118 16.6654 11.7335 16.7235 11.8404 16.8039L15.4672 19.5169C15.7732 19.7467 15.9957 20.0716 16.1001 20.4414C16.2045 20.8113 16.1851 21.2055 16.0449 21.5631Z" fill="#F9E4CD"/>
<path d="M8.67341 11.0176L7.35092 13.4709V13.4722L4.89636 18.0227L5.27199 14.5984L7.48175 12.2717L8.67341 11.0176Z" fill="#FCE4CA"/>
<path d="M8.67338 11.0176L7.35089 13.4709L7.48171 12.2717L8.67338 11.0176Z" fill="#FCE4CA"/>
<path d="M35.5 19.885L33.0221 15.606L35.1243 23.3092L35.5 19.885Z" fill="#FCE4CA"/>
<path d="M33.7591 18.3072L33.8912 17.1079L33.0221 15.6072L33.7591 18.3072Z" fill="#DEDFE3"/>
<path d="M11.2121 22.2874L9.94922 20.4839L13.1343 22.8681L11.2121 22.2874Z" fill="#BB7959"/>
<path d="M10.7174 20.2556C10.5801 20.1525 10.5749 19.9946 10.6707 19.8171L10.8223 19.5431C10.9117 19.3799 11.0515 19.3121 11.1837 19.4126C11.3158 19.513 11.3248 19.6735 11.2303 19.8497L11.0787 20.1238C10.9868 20.2908 10.8598 20.3626 10.7174 20.2543V20.2556ZM11.2963 19.2116C11.0632 19.0367 10.8158 19.1215 10.6487 19.4295L10.5088 19.6827C10.334 19.9998 10.3793 20.2869 10.6086 20.4657C10.8378 20.6444 11.0852 20.5661 11.2562 20.249L11.3961 19.9959C11.5658 19.6879 11.5256 19.3904 11.295 19.2129L11.2963 19.2116Z" fill="#BB7959"/>
<path d="M11.6318 20.2842L11.8248 19.9345L12.0114 20.0741C12.0516 20.1065 12.0781 20.1531 12.0856 20.2045C12.093 20.2558 12.0808 20.3081 12.0515 20.3508C11.9932 20.4578 11.9 20.4813 11.8184 20.4252L11.6318 20.2842ZM12.15 19.8797L11.7743 19.5991L11.1111 20.801L11.2821 20.9315L11.5243 20.493L11.729 20.6457C11.8974 20.7762 12.1046 20.7123 12.2315 20.4826C12.2945 20.3902 12.3211 20.2776 12.306 20.1665C12.2909 20.0555 12.2353 19.9542 12.15 19.8823V19.8797Z" fill="#BB7959"/>
<path d="M13.1279 20.617L12.5269 20.1667L11.8637 21.3699L12.4712 21.8241L12.5852 21.6192L12.1487 21.2916L12.3119 20.9954L12.7043 21.2903L12.8196 21.0828L12.4272 20.7879L12.5839 20.5034L13.0139 20.8245L13.1279 20.617Z" fill="#BB7959"/>
<path d="M13.9491 21.2316L13.7781 21.1037L13.2328 22.0929L13.2173 22.0812L13.5527 20.9354L13.247 20.707L12.5839 21.9089L12.7574 22.0381L13.3027 21.0489L13.3183 21.0607L12.9815 22.2051L13.2859 22.4348L13.9491 21.2316Z" fill="#BB7959"/>
<path d="M32.1867 26.5664L31.3434 27.6287L20.0978 32.5275L20.9306 31.4692L20.941 31.464L32.1867 26.5664Z" fill="#EAC5A4"/>
<path d="M20.9411 31.4641L19.5279 31.3049L20.0978 32.5277L20.9411 31.4641Z" fill="#F2CAAA"/>
<path d="M19.6716 8.927L16.7948 10.2594L17.2663 10.6065L18.4424 10.0623L19.3491 10.7279L19.8284 10.506L18.9204 9.84049L19.6638 9.49597L20.6845 10.245L21.1664 10.0219L19.6716 8.927Z" fill="#BB7959"/>
<path d="M19.9864 12.0628C19.9629 12.0497 19.9404 12.0349 19.919 12.0184C19.7571 11.8997 19.7144 11.7718 19.7895 11.627C19.8646 11.4821 20.0486 11.3503 20.3452 11.2146L20.4851 11.1493C20.7393 11.0244 21.015 10.9499 21.2972 10.9301C21.4808 10.9171 21.6642 10.9574 21.8257 11.0462C21.8502 11.0602 21.874 11.0755 21.8969 11.0919C22.0563 11.2094 22.1016 11.336 22.0265 11.4717C21.9513 11.6074 21.7674 11.7457 21.4669 11.8853L21.3283 11.9493C21.074 12.0756 20.7977 12.151 20.5149 12.1711C20.3301 12.1855 20.1452 12.1456 19.9825 12.0563L19.9864 12.0628ZM22.2467 10.7761C22.0766 10.6785 21.892 10.6094 21.7001 10.5712C21.4233 10.5147 21.1389 10.5068 20.8594 10.5477C20.5578 10.5896 20.2642 10.6776 19.989 10.8087L19.8465 10.8753C19.6146 10.9726 19.4064 11.1195 19.2364 11.3059C19.1762 11.3692 19.1318 11.4459 19.1068 11.5299C19.0818 11.6138 19.0769 11.7026 19.0926 11.7888C19.1452 11.9762 19.2653 12.1372 19.4294 12.2403C19.4735 12.2739 19.5198 12.3044 19.568 12.3316C19.7382 12.4289 19.9227 12.4981 20.1146 12.5365C20.3902 12.592 20.6732 12.5995 20.9514 12.5587C21.2506 12.5154 21.5418 12.4275 21.8153 12.2977L21.9449 12.2377C22.1818 12.1395 22.3948 11.9908 22.5692 11.8018C22.6306 11.7392 22.6763 11.6628 22.7025 11.5788C22.7286 11.4948 22.7344 11.4057 22.7194 11.319C22.6677 11.1307 22.5481 10.9688 22.384 10.8649C22.34 10.8326 22.2941 10.8029 22.2467 10.7761Z" fill="#BB7959"/>
<path d="M22.2155 13.6981C22.1923 13.6845 22.1698 13.6697 22.1482 13.6537C21.9863 13.535 21.9435 13.4058 22.0187 13.2622C22.0938 13.1187 22.2777 12.9856 22.5743 12.8499L22.7142 12.7846C22.9682 12.659 23.2441 12.5845 23.5264 12.5654C23.7105 12.5523 23.8945 12.5931 24.0561 12.6828C24.08 12.6961 24.1029 12.7109 24.1248 12.7272C24.2854 12.8447 24.3294 12.9712 24.2543 13.1069C24.1792 13.2427 23.9953 13.381 23.696 13.5206L23.5562 13.5859C23.302 13.7111 23.0263 13.786 22.744 13.8064C22.5593 13.8209 22.3743 13.781 22.2117 13.6916L22.2155 13.6981ZM24.4732 12.4088C24.3035 12.3127 24.12 12.244 23.9292 12.2052C23.6523 12.1498 23.368 12.1423 23.0886 12.183C22.7865 12.2249 22.4926 12.3129 22.2168 12.444L22.0756 12.5093C21.8434 12.6067 21.6352 12.7541 21.4656 12.9412C21.4055 13.0046 21.3611 13.0813 21.3359 13.1652C21.3107 13.2491 21.3054 13.3378 21.3205 13.4241C21.3728 13.612 21.4929 13.7735 21.6573 13.8769C21.7013 13.9082 21.7467 13.9382 21.7946 13.9656C21.9652 14.0639 22.1508 14.1331 22.3438 14.1705C22.6193 14.227 22.9024 14.2349 23.1805 14.194C23.4798 14.1508 23.771 14.0628 24.0445 13.933L24.174 13.8743C24.4108 13.7758 24.6237 13.6272 24.7983 13.4384C24.8594 13.3756 24.9049 13.2991 24.931 13.2152C24.9571 13.1313 24.9631 13.0423 24.9486 12.9556C24.8966 12.7671 24.7764 12.6051 24.6118 12.5014C24.5678 12.4688 24.5211 12.4388 24.4732 12.4101" fill="#BB7959"/>
<path d="M24.2893 15.183C24.2582 15.1635 24.2271 15.1439 24.1961 15.1217L23.9694 14.9534L25.889 14.0634L26.1221 14.2343C26.3087 14.3648 26.3812 14.5097 26.3203 14.6506C26.2594 14.7916 26.0923 14.9299 25.8022 15.0643L25.6507 15.1361C25.4005 15.2567 25.1275 15.3217 24.8502 15.3266C24.6548 15.3292 24.4622 15.2797 24.2919 15.183H24.2893ZM25.8993 13.4866L23.0225 14.8281L23.7336 15.3501C23.7815 15.385 23.8312 15.4172 23.8826 15.4467C24.0592 15.5481 24.25 15.6221 24.4486 15.6659C24.7288 15.7307 25.0179 15.747 25.3035 15.7142C25.5958 15.6836 25.8812 15.6047 26.148 15.4806L26.2776 15.4193C26.5039 15.3259 26.704 15.178 26.8604 14.9886C26.9172 14.9202 26.957 14.8393 26.9766 14.7524C26.9962 14.6655 26.995 14.5751 26.9731 14.4888C26.907 14.2922 26.7763 14.1242 26.6027 14.0125L25.8967 13.4905" fill="#BB7959"/>
<path d="M16.1692 10.326C16.0773 10.2715 15.9795 10.2277 15.8777 10.1955C15.7328 10.1475 15.5809 10.1241 15.4283 10.1264C15.291 10.1286 15.1557 10.1592 15.0306 10.2164C14.8014 10.3221 14.7198 10.4774 14.7832 10.6888C14.8194 10.7909 14.8686 10.8879 14.9296 10.9772C14.9889 11.0534 15.0289 11.143 15.0462 11.2382C15.0462 11.2943 15.0073 11.3426 14.9167 11.3831C14.8356 11.4203 14.7451 11.4312 14.6576 11.4144C14.5871 11.403 14.5194 11.3782 14.4581 11.3413C14.4348 11.3279 14.4123 11.3131 14.3908 11.2969C14.1585 11.1273 14.1645 10.9863 14.4089 10.8741L14.0449 10.6131C13.9258 10.659 13.8248 10.7429 13.7574 10.8519C13.7331 10.8989 13.7204 10.951 13.7204 11.004C13.7204 11.0569 13.7331 11.1091 13.7574 11.156C13.821 11.2829 13.916 11.3913 14.0333 11.4705C14.0799 11.5044 14.1278 11.5344 14.1757 11.5631C14.325 11.6508 14.4894 11.7092 14.6602 11.7354C14.8708 11.7716 15.0873 11.7434 15.2819 11.6545C15.3511 11.6321 15.4136 11.5927 15.4638 11.5398C15.514 11.487 15.5503 11.4223 15.5695 11.3517C15.5915 11.2291 15.5371 11.0738 15.4101 10.8872C15.3528 10.8139 15.3121 10.7288 15.291 10.6379C15.2861 10.6061 15.293 10.5736 15.3105 10.5466C15.3279 10.5196 15.3547 10.5001 15.3855 10.4918C15.467 10.4561 15.5569 10.4448 15.6446 10.4591C15.7196 10.4712 15.7916 10.4973 15.857 10.5361C15.8793 10.5489 15.9009 10.5629 15.9218 10.5779C16.0081 10.6457 16.0513 10.711 16.0513 10.7736C16.0513 10.8376 15.9943 10.8924 15.8933 10.9381L16.2547 11.1991C16.3664 11.1547 16.4615 11.0762 16.5267 10.9746C16.5514 10.9327 16.5655 10.8853 16.5677 10.8366C16.57 10.7879 16.5603 10.7394 16.5396 10.6953C16.4831 10.5797 16.3974 10.4811 16.2909 10.4096C16.2495 10.3808 16.208 10.3534 16.1614 10.3286" fill="#BB7959"/>
<path d="M16.5564 11.3138L15.484 11.811C15.2897 11.9024 15.1809 11.9977 15.1537 12.0994C15.1265 12.2012 15.1822 12.3017 15.3221 12.4035C15.3454 12.4215 15.37 12.4377 15.3959 12.4518C15.5424 12.535 15.7083 12.5773 15.8764 12.5745L15.7197 12.6593L16.0474 12.8994L17.6847 12.1412L17.3349 11.8802L16.1692 12.4166C16.0496 12.4311 15.9287 12.4058 15.8246 12.3448C15.8059 12.334 15.7877 12.3222 15.7702 12.3095C15.6407 12.2195 15.6705 12.1334 15.8415 12.0485L16.901 11.5579L16.5513 11.2969" fill="#BB7959"/>
<path d="M17.243 13.3887L17.2093 13.3665C17.1005 13.2856 17.0797 13.206 17.1432 13.1238L17.8129 12.8132C17.9293 12.7957 18.0483 12.8177 18.1509 12.8759L18.1963 12.9059C18.2792 12.9659 18.2999 13.0364 18.2597 13.1016C18.1854 13.1981 18.0852 13.2711 17.9709 13.3117C17.6523 13.4605 17.4087 13.4853 17.243 13.3887ZM17.9476 12.3343L15.6821 13.3783L16.0293 13.6393L16.8064 13.2817C16.7728 13.394 16.8207 13.4996 16.9541 13.5962C16.9762 13.6122 16.9991 13.627 17.0228 13.6406C17.1848 13.7285 17.3674 13.7704 17.5512 13.762C17.8085 13.7548 18.0615 13.693 18.2934 13.5806L18.3154 13.5701C18.5745 13.4488 18.739 13.3209 18.7999 13.1865C18.8608 13.052 18.8089 12.9255 18.6483 12.8067C18.629 12.7922 18.6087 12.7791 18.5875 12.7676C18.4463 12.6906 18.2881 12.6511 18.1276 12.6527L18.2753 12.5705L17.9528 12.333" fill="#BB7959"/>
<path d="M18.6354 14.4092L18.6004 14.3871C18.4908 14.3062 18.4688 14.2252 18.5344 14.1443L19.2041 13.8338C19.3197 13.8159 19.4379 13.8379 19.5395 13.8964C19.5564 13.9055 19.5719 13.916 19.5874 13.9264C19.6691 13.9877 19.6898 14.0569 19.6496 14.1221C19.5765 14.2187 19.477 14.2917 19.3634 14.3322C19.0434 14.481 18.8012 14.5058 18.6354 14.4092ZM19.3388 13.3548L17.072 14.3988L17.4204 14.6598L18.1976 14.3009C18.1639 14.4145 18.2132 14.5189 18.344 14.6154C18.3661 14.6319 18.389 14.6471 18.4126 14.6611C18.5751 14.749 18.7582 14.7909 18.9424 14.7825C19.1997 14.7751 19.4526 14.7133 19.6846 14.6011L19.7079 14.5906C19.967 14.4688 20.128 14.341 20.1911 14.207C20.2506 14.0765 20.2014 13.946 20.0395 13.8285C20.0191 13.8134 19.998 13.7995 19.976 13.7868C19.8359 13.7099 19.6784 13.6708 19.5188 13.6732L19.6678 13.591L19.3439 13.3535" fill="#BB7959"/>
<path d="M20.0149 15.422C20.0022 15.4151 19.9901 15.4072 19.9786 15.3985C19.8918 15.3345 19.8659 15.268 19.9022 15.1949C19.9726 15.0941 20.0727 15.0183 20.1884 14.9783C20.3312 14.9059 20.4864 14.8616 20.6457 14.8478C20.7447 14.8407 20.8436 14.8625 20.9306 14.9104C20.9436 14.9179 20.9562 14.9262 20.9682 14.9352C21.055 14.9992 21.0796 15.0657 21.0433 15.1414C20.9737 15.2415 20.8744 15.3169 20.7597 15.3567C20.6163 15.4313 20.4594 15.4757 20.2985 15.4872C20.1998 15.4923 20.1016 15.4697 20.0149 15.422ZM21.2273 14.7121C21.1223 14.6514 21.0087 14.6074 20.8905 14.5816C20.7229 14.5446 20.5503 14.5371 20.3801 14.5594C20.2041 14.5824 20.0324 14.6321 19.8711 14.7068L19.8517 14.716C19.5926 14.836 19.4411 14.977 19.4022 15.1244C19.3634 15.2719 19.4385 15.422 19.6263 15.5603C19.6574 15.5838 19.6911 15.6047 19.7247 15.6256C19.902 15.7252 20.1008 15.7799 20.3037 15.7848C20.5715 15.7968 20.8383 15.743 21.0809 15.6282L21.191 15.5747C21.4099 15.4572 21.5317 15.3267 21.555 15.1832C21.5783 15.0396 21.5032 14.9013 21.327 14.7721C21.2966 14.75 21.265 14.7295 21.2324 14.7108" fill="#BB7959"/>
<path d="M22.1262 15.3997L20.489 16.1591L20.8374 16.4201L21.9086 15.9243C22.0349 15.9052 22.1639 15.9305 22.2739 15.996C22.2946 16.0078 22.3153 16.0221 22.336 16.0365C22.3757 16.067 22.4138 16.0997 22.45 16.1344L22.8749 15.9438C22.8505 15.9088 22.8203 15.8783 22.7855 15.8538L22.7415 15.8251C22.5954 15.7512 22.4306 15.7235 22.2687 15.7455L22.4552 15.6476L22.1262 15.4062" fill="#BB7959"/>
<path d="M23.5588 15.9662L23.156 16.1516L22.9655 16.0119L22.6443 16.1607L22.8347 16.3003L21.9539 16.7101C21.6482 16.8562 21.6185 17.0194 21.862 17.1994C21.8905 17.219 21.9202 17.2386 21.9526 17.2569C22.0038 17.2876 22.0575 17.3138 22.1132 17.3352L22.4448 17.1825L22.406 17.1616C22.3805 17.1465 22.3558 17.1299 22.3322 17.112C22.2803 17.0742 22.257 17.0416 22.2648 17.0155C22.2726 16.9894 22.3075 16.9633 22.3658 16.9345L23.1844 16.5561L23.4072 16.7205L23.7272 16.5718L23.5044 16.4073L23.9072 16.2207L23.5588 15.9597" fill="#BB7959"/>
</g>
<defs>
<clipPath id="clip0">
<rect width="31" height="27" fill="white" transform="translate(4.5 6)"/>
</clipPath>
</defs>
</svg>
