<svg width="40" height="40" viewBox="0 0 40 40" fill="none" xmlns="http://www.w3.org/2000/svg">
<rect width="40" height="40" rx="6" fill="#E5EFFB"/>
<g clip-path="url(#clip0)">
<path opacity="0.2" d="M4.16168 25.8628L11.1953 32.9999L36.0021 22.1045L30.3283 19.7241L4.16168 25.8628Z" fill="#191617"/>
<path d="M34.6159 16.2263L34.0218 20.5033C33.7632 22.365 32.5872 22.7586 32.5872 22.7586L16.7337 29.2212C14.9293 30.1008 11.8136 29.6559 11.8136 29.6559C3.88077 28.9013 3.99998 23.9868 3.99998 23.9868L4.59402 19.7098C4.59402 19.7098 4.47279 24.6305 12.4076 25.3768C12.4076 25.3768 15.5234 25.8218 17.3277 24.9422L33.1792 18.4817C33.1792 18.4817 34.3572 18.0819 34.6159 16.2263Z" fill="#E3E5E4"/>
<path d="M34.8988 14.176L34.6159 16.2263C34.3573 18.0859 33.1793 18.4817 33.1793 18.4817L17.3278 24.9422C15.5234 25.8218 12.4076 25.3768 12.4076 25.3768C4.47281 24.6244 4.59404 19.7098 4.59404 19.7098L4.89513 17.5344C5.00626 16.7327 4.99817 15.6891 5.26287 14.8895C5.28307 14.8259 5.30731 14.7624 5.33156 14.7029C5.33156 14.6845 5.34772 14.6619 5.35783 14.6435C5.97613 13.2554 7.80275 12.8413 9.05753 12.3348C13.2846 10.629 17.5096 8.84928 21.8256 7.37306C22.8281 7.01682 23.9002 6.90949 24.952 7.06003C26.0039 7.21057 27.0049 7.6146 27.8712 8.23831L33.7713 12.874C34.7937 13.5916 34.8988 14.176 34.8988 14.176Z" fill="#EBBE73"/>
<path d="M34.8988 14.1761L34.6159 16.2265C34.3573 18.0861 33.1793 18.4818 33.1793 18.4818L17.3278 24.9423C15.5234 25.8219 12.4076 25.377 12.4076 25.377C4.47281 24.6245 4.59404 19.7099 4.59404 19.7099L5.13557 15.802C5.13557 15.802 5.01434 20.7228 12.9492 21.4712C12.9492 21.4712 16.0649 21.9161 17.8693 21.0365L33.7268 14.5862C34.124 14.4114 34.4564 14.1136 34.6765 13.7354C34.7777 13.8665 34.8531 14.0162 34.8988 14.1761Z" fill="#DADDE2"/>
<path d="M34.6725 13.7251C34.4524 14.1033 34.12 14.4011 33.7228 14.5759L17.8693 21.0385C16.065 21.9181 12.9492 21.4732 12.9492 21.4732C5.01438 20.7187 5.1356 15.8041 5.1356 15.8041L5.2629 14.8917C5.28311 14.8281 5.30735 14.7646 5.3316 14.7051C5.3316 14.6867 5.34776 14.6641 5.35786 14.6457C5.97616 13.2576 7.80278 12.8435 9.05757 12.337C13.2846 10.6312 17.5097 8.85148 21.8256 7.37526C22.8282 7.01902 23.9003 6.91169 24.9521 7.06223C26.0039 7.21276 27.0049 7.6168 27.8712 8.24051L33.7713 12.8762C34.117 13.1052 34.4218 13.3923 34.6725 13.7251Z" fill="#E8E9EA"/>
<path d="M31.6659 14.176L16.861 19.9887C16.4509 20.1499 16.0061 20.1989 15.5714 20.1309C15.1366 20.0629 14.7271 19.8802 14.3838 19.6011L8.0998 14.5061C8.01704 14.4387 7.9532 14.3503 7.91466 14.2499C7.87612 14.1496 7.86422 14.0407 7.88018 13.9342C7.89613 13.8277 7.93938 13.7273 8.00557 13.6431C8.07177 13.5589 8.1586 13.4938 8.25738 13.4543L22.0944 8.00458C22.6439 7.78848 23.2385 7.71762 23.8223 7.79868C24.4062 7.87973 24.9602 8.11004 25.4324 8.46796L31.7851 13.2882C31.8572 13.343 31.9135 13.4164 31.9483 13.5007C31.983 13.585 31.9949 13.6772 31.9828 13.7677C31.9706 13.8583 31.9348 13.9438 31.8791 14.0156C31.8234 14.0874 31.7498 14.1428 31.6659 14.176Z" fill="#21242B"/>
<path d="M28.7966 13.6839L15.7437 18.8384L9.84558 14.2006L22.3227 9.15479L28.7966 13.6839Z" fill="#3F434C"/>
<path d="M6.86321 15.4822L12.737 20.3045C12.737 20.3045 5.98021 19.1502 6.86321 15.4822Z" fill="#21242B"/>
<path d="M4.91129 21.463C4.91129 21.463 5.19821 20.7454 6.22063 21.463C7.24305 22.1806 10.4639 24.5384 9.04945 25.2827C7.16424 26.273 4.10104 23.4969 4.91129 21.463Z" fill="#7D7E82"/>
</g>
<defs>
<clipPath id="clip0">
<rect width="32" height="26" fill="white" transform="translate(4 7)"/>
</clipPath>
</defs>
</svg>
