<svg width="40" height="40" viewBox="0 0 40 40" fill="none" xmlns="http://www.w3.org/2000/svg">
<rect width="40" height="40" rx="6" fill="#E5EFFB"/>
<g clip-path="url(#clip0)">
<path opacity="0.2" d="M14.3299 28.7123L16.5084 28.9999L36 20.6644L33.6729 18.9309L14.3299 28.7123Z" fill="#191617"/>
<path d="M4.6327 20.4728L13.2695 27.2379C14.0389 27.84 15.3934 28.0202 16.2927 27.6367L33.9237 20.1487C34.3771 19.9569 34.6292 19.6597 34.6762 19.3337L34.5596 20.2695C34.5368 20.4044 34.4855 20.5326 34.4091 20.6452C34.3328 20.7578 34.2332 20.8521 34.1175 20.9215C34.0217 20.9853 33.9204 21.0399 33.8146 21.0844L16.1835 28.5725C15.2843 28.956 13.9261 28.7757 13.1604 28.1736L4.52546 21.4066C4.14921 21.1074 3.97614 20.7604 4.01565 20.4478C4.05515 20.1352 4.0928 19.8246 4.13231 19.5121C4.08339 19.8246 4.25645 20.1736 4.6327 20.4728Z" fill="#454C53"/>
<path d="M4.86725 18.6951C3.96801 19.0786 3.86078 19.8763 4.63021 20.4784L13.267 27.2435C14.0364 27.8456 15.3909 28.0258 16.2902 27.6423L33.9212 20.1543C34.8223 19.7708 34.9277 18.975 34.1582 18.371L25.5139 11.6001C24.7445 10.998 23.3919 10.8197 22.4908 11.2013L4.86725 18.6951Z" fill="#6E7A86"/>
<path d="M7.10031 18.9098C6.13335 19.3201 6.01858 20.1773 6.84633 20.8273C7.67408 21.4774 9.1264 21.6672 10.0934 21.2568C11.0603 20.8465 11.1732 19.9874 10.3473 19.3393C9.52143 18.6912 8.06727 18.5032 7.10031 18.9098Z" fill="#CACBCC"/>
<path d="M7.47091 18.5493L7.44269 18.8005L10.3868 21.1073L10.4169 20.858L7.47091 18.5493Z" fill="#D6D6D6"/>
<path d="M10.9004 20.3826C10.9268 20.1659 10.9004 20.348 10.9305 20.1313C10.9039 20.284 10.8439 20.4286 10.755 20.5544C10.6661 20.6802 10.5505 20.784 10.4169 20.8581L10.3868 21.1074C10.5202 21.0335 10.6356 20.93 10.7245 20.8045C10.8134 20.679 10.8735 20.5349 10.9004 20.3826Z" fill="#E2E2E2"/>
<path d="M7.47284 18.5494L10.417 20.8504C11.1093 20.4036 11.1187 19.6616 10.3831 19.0844C9.64755 18.5072 8.41723 18.3116 7.47284 18.5494Z" fill="#EDEEEF"/>
<path d="M6.8689 20.5839C7.60634 21.1592 8.83672 21.3739 9.78111 21.1246L9.75286 21.3682C9.8688 21.3386 9.98259 21.3008 10.0934 21.255C10.1958 21.2108 10.2946 21.1582 10.3887 21.0978L10.4169 20.8581C10.5505 20.784 10.6661 20.6802 10.755 20.5544C10.8439 20.4286 10.9039 20.284 10.9305 20.1313L10.9004 20.3826C10.9004 20.4171 10.8609 20.6376 10.8609 20.6376C10.8177 20.9866 10.5468 21.3068 10.0614 21.5139C9.09445 21.9242 7.64024 21.7325 6.81249 21.0844C6.69508 20.9929 6.58892 20.8873 6.49641 20.7699C6.27254 20.4784 6.23116 20.3269 6.26691 20.0451C6.26691 19.9895 6.31396 19.6501 6.3403 19.4353C6.32748 19.6565 6.36909 19.8774 6.46141 20.078C6.55374 20.2786 6.69382 20.4526 6.8689 20.5839Z" fill="#E2E2E2"/>
<path d="M6.83694 18.8179C6.14464 19.2647 6.13334 20.0068 6.8689 20.584C7.60447 21.1612 8.83673 21.374 9.78112 21.1247L6.83694 18.8179Z" fill="#EDEEEF"/>
<path d="M12.142 16.7776C11.175 17.1879 11.0622 18.047 11.8881 18.6951C12.7139 19.3432 14.17 19.535 15.1351 19.1246C16.1002 18.7143 16.2168 17.8552 15.3909 17.2071C14.565 16.559 13.109 16.373 12.142 16.7776Z" fill="#CACBCC"/>
<path d="M12.5145 16.4248L12.4844 16.6741L15.4305 18.9809L15.4587 18.7316L12.5145 16.4248Z" fill="#D6D6D6"/>
<path d="M15.9422 18.2559C15.9704 18.0411 15.9421 18.2214 15.9722 18.0066C15.9454 18.1587 15.8855 18.3027 15.797 18.4282C15.7084 18.5536 15.5935 18.6572 15.4605 18.7314L15.4304 18.9807C15.5636 18.9068 15.6788 18.8033 15.7674 18.6778C15.856 18.5523 15.9157 18.4081 15.9422 18.2559Z" fill="#E2E2E2"/>
<path d="M12.5145 16.4248L15.4606 18.7258C16.1529 18.2791 16.1623 17.537 15.4267 16.9617C14.6911 16.3865 13.4589 16.1755 12.5145 16.4248Z" fill="#EDEEEF"/>
<path d="M11.9125 18.4574C12.6481 19.0327 13.8803 19.2494 14.8247 19.0001L14.7946 19.2417C14.9107 19.2127 15.0245 19.1749 15.1351 19.1286C15.2383 19.0859 15.3371 19.0333 15.4304 18.9713L15.4605 18.7316C15.5935 18.6574 15.7084 18.5538 15.797 18.4284C15.8855 18.303 15.9454 18.1589 15.9722 18.0068L15.9422 18.2561C15.9422 18.2906 15.9045 18.5111 15.9045 18.5111C15.8612 18.8601 15.5903 19.1804 15.1031 19.3875C14.1361 19.7978 12.6819 19.6061 11.8561 18.9579C11.7376 18.867 11.6308 18.7614 11.5381 18.6434C11.4452 18.5506 11.3759 18.4361 11.3362 18.3098C11.2966 18.1835 11.2877 18.0492 11.3105 17.9186C11.3105 17.863 11.3575 17.5351 11.3839 17.3088C11.3703 17.5301 11.4117 17.7513 11.5041 17.952C11.5965 18.1528 11.7369 18.3266 11.9125 18.4574Z" fill="#E2E2E2"/>
<path d="M11.8787 16.6912C11.1864 17.138 11.177 17.88 11.9125 18.4572C12.6481 19.0344 13.8803 19.2492 14.8247 18.9999L11.8787 16.6912Z" fill="#EDEEEF"/>
<path d="M17.1856 14.6568C16.2187 15.0672 16.1039 15.9262 16.9317 16.5744C17.7594 17.2225 19.2117 17.4143 20.1787 17.0039C21.1456 16.5935 21.2585 15.7345 20.4327 15.0864C19.6068 14.4382 18.1526 14.2465 17.1856 14.6568Z" fill="#CACBCC"/>
<path d="M17.5581 14.2983L17.528 14.5476L20.4722 16.8563L20.5023 16.6051L17.5581 14.2983Z" fill="#D6D6D6"/>
<path d="M20.9858 16.1294C21.0121 15.9147 20.9858 16.0949 21.0159 15.8801C20.989 16.0324 20.9289 16.1766 20.84 16.3021C20.7511 16.4275 20.6357 16.531 20.5024 16.605L20.4722 16.8561C20.6058 16.782 20.7214 16.6782 20.8103 16.5524C20.8992 16.4266 20.9592 16.2821 20.9858 16.1294Z" fill="#E2E2E2"/>
<path d="M17.5582 14.2981L20.5023 16.5991C21.1946 16.1523 21.2059 15.4103 20.4684 14.835C19.731 14.2597 18.5026 14.0488 17.5582 14.2981Z" fill="#EDEEEF"/>
<path d="M16.9543 16.3307C17.6917 16.906 18.922 17.1227 19.8664 16.8734L19.8382 17.117C19.9541 17.0864 20.0679 17.048 20.1787 17.0019C20.2811 16.9583 20.3799 16.9064 20.4741 16.8466L20.5023 16.605C20.6357 16.5311 20.7511 16.4275 20.8399 16.3021C20.9288 16.1766 20.989 16.0324 21.0159 15.8801L20.9858 16.1294C20.9858 16.1639 20.9463 16.3844 20.9463 16.3844C20.903 16.7334 20.634 17.0537 20.1467 17.2608C19.1798 17.6711 17.7256 17.4794 16.8997 16.8312C16.7809 16.7415 16.6741 16.6364 16.5818 16.5187C16.489 16.4253 16.4197 16.3104 16.3797 16.1839C16.3398 16.0574 16.3304 15.923 16.3523 15.7919C16.3523 15.7363 16.3993 15.3988 16.4256 15.1821C16.4126 15.4034 16.4542 15.6244 16.5466 15.825C16.6389 16.0256 16.7791 16.1995 16.9543 16.3307Z" fill="#E2E2E2"/>
<path d="M16.9223 14.5667C16.23 15.0115 16.2187 15.7555 16.9543 16.3308C17.6899 16.906 18.9221 17.1227 19.8665 16.8735L16.9223 14.5667Z" fill="#EDEEEF"/>
<path d="M22.2274 12.5322C21.2605 12.9426 21.1476 13.7997 21.9734 14.4498C22.7993 15.0998 24.2554 15.2897 25.2223 14.8774C26.1893 14.4651 26.3022 13.6099 25.4763 12.9598C24.6505 12.3098 23.1944 12.12 22.2274 12.5322Z" fill="#CACBCC"/>
<path d="M22.5999 12.1716L22.5698 12.4228L25.5158 14.7296L25.5459 14.4784L22.5999 12.1716Z" fill="#D6D6D6"/>
<path d="M26.0275 14.0049C26.0557 13.7882 26.0275 13.9703 26.0576 13.7537C26.0315 13.906 25.972 14.0504 25.8834 14.1759C25.7948 14.3015 25.6794 14.4049 25.5459 14.4785L25.5158 14.7297C25.6489 14.6557 25.764 14.5521 25.8526 14.4266C25.9412 14.3012 26.0009 14.157 26.0275 14.0049Z" fill="#E2E2E2"/>
<path d="M22.5999 12.1756L25.5459 14.4766C26.2382 14.0317 26.2476 13.2897 25.5121 12.7125C24.7765 12.1353 23.5443 11.9224 22.5999 12.1756Z" fill="#EDEEEF"/>
<path d="M21.9979 14.2043C22.7335 14.7796 23.9657 14.9962 24.9101 14.7469L24.88 14.9905C24.9966 14.9605 25.1111 14.9221 25.2224 14.8754C25.3247 14.833 25.4229 14.781 25.5158 14.7201L25.5459 14.4785C25.6794 14.4049 25.7948 14.3015 25.8834 14.1759C25.972 14.0504 26.0316 13.906 26.0576 13.7537L26.0275 14.0049C26.0275 14.0394 25.9899 14.258 25.9899 14.258C25.9467 14.6089 25.6758 14.9291 25.1904 15.1343C24.2234 15.5446 22.7673 15.3529 21.9415 14.7067C21.8241 14.6152 21.718 14.5097 21.6254 14.3922C21.4016 14.1008 21.3602 13.9493 21.3959 13.6655C21.3959 13.6099 21.4429 13.2724 21.4693 13.0576C21.4559 13.2786 21.4973 13.4995 21.5897 13.6999C21.6821 13.9003 21.8225 14.0737 21.9979 14.2043Z" fill="#E2E2E2"/>
<path d="M21.964 12.4399C21.2717 12.8867 21.2624 13.6289 21.9979 14.2041C22.7335 14.7794 23.9657 14.996 24.9101 14.7468L21.964 12.4399Z" fill="#EDEEEF"/>
<path d="M12.8663 23.3797C11.8994 23.7901 11.7865 24.6472 12.6123 25.2973C13.4382 25.9473 14.8943 26.1372 15.8594 25.7268C16.8245 25.3164 16.9411 24.4574 16.1152 23.8093C15.2894 23.1611 13.8333 22.9694 12.8663 23.3797Z" fill="#CACBCC"/>
<path d="M13.2388 23.0212L13.2087 23.2705L16.1547 25.5773L16.1848 25.3281L13.2388 23.0212Z" fill="#D6D6D6"/>
<path d="M16.6721 24.8523C16.7003 24.6376 16.6721 24.8178 16.7022 24.603C16.6753 24.7551 16.6155 24.8991 16.527 25.0246C16.4384 25.15 16.3234 25.2536 16.1905 25.3279L16.1604 25.5771C16.2933 25.5029 16.4083 25.3993 16.4968 25.2738C16.5854 25.1484 16.6453 25.0044 16.6721 24.8523Z" fill="#E2E2E2"/>
<path d="M13.2388 23.0212L16.1848 25.3222C16.8771 24.8755 16.8866 24.1334 16.151 23.5562C15.4154 22.979 14.1832 22.7719 13.2388 23.0212Z" fill="#EDEEEF"/>
<path d="M12.6368 25.0536C13.3724 25.6289 14.6046 25.8437 15.5471 25.5944L15.5189 25.8379C15.635 25.8089 15.7488 25.7711 15.8594 25.7248C15.9622 25.6814 16.061 25.6288 16.1547 25.5676L16.1848 25.3279C16.3177 25.2536 16.4327 25.15 16.5213 25.0246C16.6098 24.8991 16.6697 24.7551 16.6965 24.603L16.6664 24.8523C16.6664 24.8868 16.6288 25.1073 16.6288 25.1073C16.5855 25.4563 16.3146 25.7766 15.8274 25.9837C14.8604 26.394 13.4062 26.2023 12.5804 25.5541C12.4619 25.4632 12.3551 25.3576 12.2624 25.2396C12.0386 24.9482 11.9991 24.7967 12.0348 24.5148C12.0348 24.4592 12.0818 24.1198 12.1082 23.905C12.0946 24.1263 12.136 24.3475 12.2284 24.5483C12.3207 24.749 12.4612 24.9228 12.6368 25.0536Z" fill="#E2E2E2"/>
<path d="M12.603 23.2971C11.9107 23.7439 11.9013 24.486 12.6368 25.0632C13.3724 25.6403 14.6046 25.8532 15.5471 25.6039L12.603 23.2971Z" fill="#EDEEEF"/>
<path d="M17.9099 21.253C16.943 21.6634 16.8282 22.5224 17.656 23.1706C18.4837 23.8187 19.936 24.0104 20.903 23.6001C21.8699 23.1897 21.9847 22.3307 21.157 21.6825C20.3292 21.0344 18.8769 20.8427 17.9099 21.253Z" fill="#CACBCC"/>
<path d="M18.2824 20.8945L18.2523 21.1438L21.1965 23.4506L21.2266 23.2013L18.2824 20.8945Z" fill="#D6D6D6"/>
<path d="M21.71 22.7219C21.7364 22.5072 21.71 22.6874 21.7401 22.4727C21.7132 22.625 21.6531 22.7691 21.5642 22.8946C21.4753 23.0201 21.3599 23.1236 21.2266 23.1975L21.1965 23.4468C21.3302 23.3733 21.4458 23.2699 21.5348 23.1444C21.6237 23.0189 21.6837 22.8744 21.71 22.7219Z" fill="#E2E2E2"/>
<path d="M18.2825 20.8945L21.2266 23.1956C21.9189 22.7488 21.9302 22.0067 21.1928 21.4314C20.4553 20.8562 19.2269 20.6452 18.2825 20.8945Z" fill="#EDEEEF"/>
<path d="M17.6785 22.9272C18.416 23.5024 19.6463 23.7191 20.5907 23.4698L20.5625 23.7114C20.6786 23.6824 20.7924 23.6446 20.903 23.5983C21.0054 23.5547 21.1041 23.5027 21.1984 23.443L21.2266 23.2014C21.3599 23.1274 21.4753 23.0239 21.5642 22.8985C21.6531 22.773 21.7132 22.6288 21.7401 22.4765L21.71 22.7258C21.71 22.7603 21.6705 22.9809 21.6705 22.9809C21.6273 23.3299 21.3583 23.6501 20.871 23.8572C19.9041 24.2675 18.4499 24.0758 17.624 23.4276C17.5047 23.3378 17.3978 23.232 17.3061 23.1132C17.2133 23.0202 17.144 22.9057 17.104 22.7795C17.0641 22.6533 17.0546 22.5191 17.0765 22.3883C17.0765 22.3327 17.1236 21.9952 17.1499 21.7786C17.1369 21.9998 17.1785 22.2208 17.2708 22.4214C17.3631 22.6221 17.5033 22.7959 17.6785 22.9272Z" fill="#E2E2E2"/>
<path d="M17.6465 21.1631C16.9542 21.608 16.943 22.35 17.6786 22.9272C18.4141 23.5044 19.6463 23.7191 20.5907 23.4698L17.6465 21.1631Z" fill="#EDEEEF"/>
<path d="M22.9516 19.1266C21.9847 19.537 21.8718 20.396 22.6977 21.0442C23.5236 21.6923 24.9796 21.8821 25.9466 21.4718C26.9136 21.0614 27.0264 20.2043 26.2005 19.5542C25.3747 18.9042 23.9186 18.7163 22.9516 19.1266Z" fill="#CACBCC"/>
<path d="M23.3242 18.7681L23.2941 19.0173L26.2401 21.3261L26.2702 21.0749L23.3242 18.7681Z" fill="#D6D6D6"/>
<path d="M26.7518 20.6011C26.78 20.3844 26.7518 20.5646 26.7819 20.3499C26.7553 20.502 26.6956 20.6462 26.607 20.7717C26.5184 20.8971 26.4033 21.0007 26.2702 21.0747L26.2401 21.3259C26.3732 21.2519 26.4883 21.1483 26.5769 21.0229C26.6654 20.8974 26.7252 20.7532 26.7518 20.6011Z" fill="#E2E2E2"/>
<path d="M23.3242 18.7679L26.2702 21.0689C26.9625 20.6241 26.972 19.882 26.2364 19.3048C25.5008 18.7276 24.2686 18.5186 23.3242 18.7679Z" fill="#EDEEEF"/>
<path d="M22.7222 20.8044C23.4577 21.3796 24.69 21.5963 25.6343 21.347L25.6043 21.5906C25.7209 21.5606 25.8354 21.5222 25.9467 21.4755C26.0486 21.4323 26.1468 21.3803 26.2401 21.3202L26.2702 21.0786C26.4033 21.0045 26.5185 20.901 26.607 20.7755C26.6956 20.6501 26.7553 20.5059 26.7819 20.3537L26.7518 20.6049C26.7518 20.6395 26.7142 20.8581 26.7142 20.8581C26.6709 21.209 26.4 21.5273 25.9146 21.7344C24.9477 22.1448 23.4916 21.953 22.6658 21.3068C22.5484 21.2153 22.4422 21.1097 22.3497 20.9923C22.1239 20.7008 22.0844 20.5493 22.1202 20.2655C22.1202 20.2099 22.1672 19.8724 22.1936 19.6558C22.1801 19.8771 22.2214 20.0982 22.3138 20.299C22.4062 20.4997 22.5466 20.6735 22.7222 20.8044Z" fill="#E2E2E2"/>
<path d="M22.692 19.0364C21.9997 19.4832 21.9903 20.2252 22.7259 20.8005C23.4614 21.3758 24.6937 21.5925 25.638 21.3432L22.692 19.0364Z" fill="#EDEEEF"/>
<path d="M27.9953 17.002C27.0283 17.4123 26.9136 18.2695 27.7414 18.9195C28.5691 19.5695 30.0214 19.7594 30.9884 19.3471C31.9554 18.9348 32.0701 18.0796 31.2423 17.4296C30.4146 16.7795 28.9623 16.5858 27.9953 17.002Z" fill="#CACBCC"/>
<path d="M28.3678 16.6414L28.3377 16.8926L31.2819 19.1994L31.312 18.9482L28.3678 16.6414Z" fill="#D6D6D6"/>
<path d="M31.7954 18.4746C31.8218 18.2579 31.7955 18.4401 31.8256 18.2234C31.7992 18.3759 31.7392 18.5203 31.6503 18.6458C31.5614 18.7714 31.4457 18.8747 31.312 18.9482L31.2819 19.1994C31.4152 19.1255 31.5306 19.022 31.6195 18.8965C31.7084 18.7711 31.7685 18.6269 31.7954 18.4746Z" fill="#E2E2E2"/>
<path d="M28.3678 16.6413L31.312 18.9424C32.0062 18.4975 32.0155 17.7554 31.2781 17.1782C30.5406 16.6011 29.3122 16.394 28.3678 16.6413Z" fill="#EDEEEF"/>
<path d="M27.7714 18.674C28.5089 19.2493 29.7392 19.466 30.6836 19.2167L30.6554 19.4602C30.7715 19.4306 30.8853 19.3921 30.9958 19.3452C31.0986 19.3024 31.1974 19.2504 31.2912 19.1899L31.3195 18.9483C31.4532 18.8748 31.5688 18.7714 31.6578 18.6459C31.7467 18.5204 31.8066 18.3759 31.833 18.2234L31.8029 18.4746C31.8029 18.5092 31.7653 18.7296 31.7653 18.7296C31.7201 19.0786 31.4511 19.3989 30.9639 19.6041C29.9969 20.0163 28.5427 19.8227 27.7168 19.1765C27.5989 19.085 27.4921 18.9795 27.3989 18.862C27.3062 18.7686 27.2368 18.6537 27.1969 18.5272C27.1569 18.4007 27.1475 18.2663 27.1694 18.1352C27.1694 18.0796 27.2164 17.7517 27.2446 17.5273C27.2307 17.7482 27.2717 17.9691 27.3638 18.1696C27.4559 18.37 27.5961 18.5435 27.7714 18.674Z" fill="#E2E2E2"/>
<path d="M27.732 16.9099C27.0397 17.3567 27.0284 18.0988 27.7639 18.674C28.4995 19.2493 29.7317 19.466 30.6761 19.2167L27.732 16.9099Z" fill="#EDEEEF"/>
<path d="M27.4347 15.4679C27.4674 15.4865 27.494 15.5147 27.5109 15.5488C27.5279 15.5829 27.5345 15.6213 27.5298 15.6592C27.5252 15.6971 27.5095 15.7328 27.4848 15.7616C27.4602 15.7904 27.4277 15.811 27.3914 15.8208L10.701 22.9483C10.6021 22.984 10.4964 22.9953 10.3924 22.9813C10.2884 22.9673 10.1892 22.9284 10.1028 22.8678C9.94852 22.7489 9.96733 22.5897 10.1442 22.5149L26.8365 15.3893C26.9352 15.3534 27.0408 15.3417 27.1448 15.3554C27.2488 15.3691 27.3481 15.4076 27.4347 15.4679Z" fill="#596570"/>
</g>
<defs>
<clipPath id="clip0">
<rect width="32" height="18" fill="white" transform="translate(4 11)"/>
</clipPath>
</defs>
</svg>
