<svg width="147" height="90" viewBox="0 0 147 90" fill="none" xmlns="http://www.w3.org/2000/svg">
<rect width="147" height="90" rx="6" fill="#D5DDF2"/>
<g clip-path="url(#clip0)">
<g opacity="0.2">
<path opacity="0.2" d="M99.5646 54.6151C104.126 57.2054 104.147 61.404 99.6132 63.9966C95.0797 66.5891 87.7083 66.5868 83.147 63.9966C78.5857 61.4063 78.5625 57.2054 83.0937 54.6151C87.6249 52.0249 94.9986 52.0249 99.5646 54.6151Z" fill="#8D717A"/>
</g>
<path d="M96.7128 26.3318C92.3623 23.86 85.3269 23.86 81.0041 26.3318C78.8497 27.562 77.7795 29.1727 77.7795 30.7857V30.8061L77.7054 56.0937C77.7054 57.7248 78.7941 59.3583 80.9856 60.5999C85.3384 63.0717 92.3692 63.0739 96.692 60.5999C98.8394 59.3742 99.9166 57.7658 99.9213 56.1575L99.9931 30.8403C100 30.9542 99.0503 27.6577 96.7128 26.3318Z" fill="#F3D4AC"/>
<path d="M101.258 30.33L101.177 32.214C101.177 33.9819 99.9908 35.7474 97.6302 37.0961C92.8766 39.814 85.1485 39.8094 80.3648 37.0961C77.9555 35.7292 76.7555 33.934 76.7579 32.1434L76.839 30.2594C76.839 32.0523 78.0366 33.8475 80.4459 35.2144C85.2273 37.9299 92.9554 37.9322 97.709 35.2144C100.07 33.8634 101.251 32.0979 101.258 30.33Z" fill="#EDEDED"/>
<path d="M97.6534 25.3773C102.437 28.0929 102.463 32.4988 97.709 35.2144C92.9554 37.9299 85.2273 37.9276 80.4459 35.2144C75.6645 32.5011 75.632 28.0951 80.3833 25.3796C85.1346 22.664 92.8697 22.6617 97.6534 25.3773Z" fill="#DDDDDD"/>
<path d="M97.0302 18.1533C101.381 20.6228 101.404 24.63 97.0812 27.1018C92.7584 29.5736 85.73 29.5691 81.3748 27.1018C77.0197 24.6346 76.9965 20.625 81.3192 18.1555C85.642 15.686 92.6774 15.6906 97.0302 18.1533Z" fill="#E0E0E0"/>
<path d="M100.308 22.6594L100.236 29.3413C100.236 30.9497 99.1568 32.5558 97.0071 33.7837C92.6843 36.2555 85.6559 36.2532 81.303 33.7837C79.1115 32.5398 78.0181 30.9087 78.0227 29.2775L78.0945 22.5957C78.0945 24.2246 79.1834 25.858 81.3748 27.1018C85.7254 29.5714 92.7584 29.5736 97.0812 27.1018C99.2286 25.8739 100.304 24.2678 100.308 22.6594Z" fill="#EDEDED"/>
<path d="M88.3153 35.613C88.845 35.6358 89.3755 35.6358 89.9067 35.613V28.9335C89.3762 28.9517 88.8435 28.9517 88.3153 28.9335V35.613Z" fill="#E2E2E2"/>
<path d="M97.0302 18.1533C101.381 20.6228 101.404 24.63 97.0812 27.1018C92.7584 29.5736 85.73 29.5691 81.3748 27.1018C77.0197 24.6346 76.9965 20.625 81.3192 18.1555C85.642 15.686 92.6774 15.6906 97.0302 18.1533Z" fill="#EBEBEB"/>
<path d="M99.1476 25.4548C99.0734 25.5368 98.9993 25.621 98.9159 25.7031C98.8325 25.7851 98.7722 25.8443 98.6981 25.9127C98.4822 26.1159 98.254 26.3061 98.0147 26.4822L97.9452 26.5392V33.164C98.571 32.7142 99.11 32.1579 99.5367 31.5215V24.9581C99.4835 25.0333 99.4232 25.1085 99.3653 25.1859C99.3074 25.2634 99.224 25.3682 99.1476 25.4548Z" fill="#E2E2E2"/>
<path d="M95.6495 27.783C95.3854 27.8901 95.119 27.9881 94.8457 28.0792V34.7359C95.3915 34.5522 95.9239 34.3322 96.4394 34.0776V27.4322C96.1962 27.5507 95.9437 27.66 95.6866 27.7648L95.6495 27.783Z" fill="#E2E2E2"/>
<path d="M91.6303 28.8014V35.4741C92.1701 35.4034 92.7028 35.3146 93.2217 35.1961V28.5302H93.1847C92.689 28.6373 92.1816 28.7239 91.6673 28.7877L91.6303 28.8014Z" fill="#E2E2E2"/>
<path d="M84.9979 35.1756C85.5192 35.2941 86.052 35.3829 86.5918 35.4558V28.7649C86.3323 28.7285 86.0775 28.6874 85.825 28.6419L85.5632 28.5895C85.3755 28.553 85.1856 28.5166 84.9979 28.4733V35.1756Z" fill="#E2E2E2"/>
<path d="M82.6072 27.6941C82.3431 27.5825 82.0883 27.4663 81.8405 27.3365V34.057C82.355 34.314 82.8867 34.5363 83.4319 34.7223V28.0154C83.1609 27.9197 82.8945 27.8149 82.635 27.7055L82.6072 27.6941Z" fill="#E2E2E2"/>
<path d="M78.7872 31.5898C79.2217 32.2064 79.76 32.7457 80.3787 33.1845V26.4457C79.9045 26.0969 79.4772 25.6905 79.1069 25.236L79.093 25.2178C78.9818 25.0765 78.8798 24.9353 78.7872 24.7918V31.5898Z" fill="#E2E2E2"/>
<path d="M92.8905 52.1661C91.3824 51.3072 90.1546 51.9952 90.1476 53.7016C90.1407 55.4079 91.2086 57.5904 92.7167 58.447C94.2248 59.3036 95.6101 58.5108 95.6148 56.8067C95.6194 55.1027 94.4009 53.0227 92.8905 52.1661Z" fill="#CACBCC"/>
<path d="M92.8303 52.7994L92.814 58.8775C94.0905 59.3332 95.0634 58.6315 95.0704 57.1143C95.0773 55.597 94.109 53.7859 92.8303 52.7994Z" fill="#F1F2F2"/>
<path d="M90.4002 52.2891C90.6242 52.1746 90.8716 52.1114 91.1239 52.1043C91.3763 52.0972 91.627 52.1464 91.8573 52.2481L92.2302 52.0203C92.3992 52.083 92.5627 52.1592 92.7191 52.2481C92.8875 52.3452 93.0484 52.454 93.2009 52.5739L92.8303 52.8017C94.109 53.7882 95.0727 55.5993 95.0704 57.1165C95.0704 57.964 94.7623 58.5586 94.2712 58.8388L95.0936 58.3832C95.5847 58.1007 95.8904 57.5061 95.8928 56.6586C95.8928 54.9523 94.6766 52.8746 93.1661 52.018C92.4086 51.5874 91.7206 51.5465 91.2226 51.8312L90.4002 52.2891Z" fill="#E2E2E2"/>
<path d="M91.8411 58.3262L92.2303 58.0939L92.221 52.0249L91.8596 52.2481L91.8411 58.3262Z" fill="#D6D6D6"/>
<path d="M91.8573 52.2481C90.5809 51.7925 89.608 52.4919 89.6033 54.0114C89.5987 55.5309 90.5647 57.3398 91.8411 58.3263L91.8573 52.2481Z" fill="#F1F2F2"/>
<path d="M85.4983 51.4257C87.1755 50.4712 88.54 51.2366 88.5446 53.132C88.5493 55.0275 87.3678 57.4605 85.6906 58.4037C84.0134 59.3469 82.4775 58.4743 82.4729 56.5812C82.4683 54.688 83.8211 52.3689 85.4983 51.4257Z" fill="#CACBCC"/>
<path d="M85.5655 52.1411L85.584 58.8935C84.164 59.4106 83.0844 58.6224 83.0798 56.9343C83.0752 55.2462 84.1454 53.2232 85.5655 52.1411Z" fill="#F1F2F2"/>
<path d="M87.3516 51.0407C86.8002 50.7263 86.0358 50.7696 85.1926 51.2503C83.5154 52.2003 82.1601 54.508 82.1648 56.4057C82.1648 57.3466 82.5053 58.0005 83.0497 58.3194L83.9764 58.8365C83.432 58.5267 83.0937 57.8638 83.0914 56.9229C83.0914 55.237 84.157 53.2232 85.5771 52.1388L85.1647 51.8927C85.3346 51.7599 85.5143 51.6395 85.7022 51.5328C85.8759 51.4325 86.058 51.3471 86.2466 51.2776L86.6589 51.5259C87.2844 51.2981 87.8473 51.3232 88.2805 51.5692L87.3516 51.0407Z" fill="#E2E2E2"/>
<path d="M86.6659 58.2693L86.235 58.0119L86.2442 51.2685L86.6473 51.5168L86.6659 58.2693Z" fill="#D6D6D6"/>
<path d="M86.6473 51.5168C88.0651 50.9997 89.1469 51.7879 89.1515 53.476C89.1562 55.1642 88.0836 57.1758 86.6658 58.2602L86.6473 51.5168Z" fill="#F1F2F2"/>
<path d="M86.8952 56.4969C85.3848 57.3535 85.3779 58.7432 86.8767 59.5997C88.3755 60.4563 90.8148 60.4586 92.3276 59.5997C93.8403 58.7409 93.8449 57.3535 92.3438 56.4969C90.8426 55.6403 88.4172 55.6403 86.8952 56.4969Z" fill="#CACBCC"/>
<path d="M87.435 55.8476L87.4373 56.2509L92.7816 59.3059L92.7793 58.9003L87.435 55.8476Z" fill="#D6D6D6"/>
<path d="M93.4766 58.0438C93.4766 57.6929 93.4766 57.9868 93.4766 57.6382C93.4641 57.8863 93.3952 58.1285 93.2749 58.3469C93.1546 58.5654 92.9861 58.7545 92.7816 58.9003V59.3058C92.986 59.1599 93.1544 58.9707 93.2747 58.7523C93.395 58.5339 93.4639 58.2918 93.4766 58.0438V58.0438Z" fill="#E2E2E2"/>
<path d="M87.435 55.8476L92.7793 58.9003C93.8264 58.0438 93.6874 56.85 92.353 56.0982C91.0187 55.3464 88.9407 55.2507 87.435 55.8476Z" fill="#F1F2F2"/>
<path d="M86.8674 59.2033C88.2018 59.9665 90.2797 60.0485 91.7855 59.4539V59.848C91.971 59.775 92.1514 59.6897 92.3253 59.5929C92.4888 59.5034 92.6439 59.3997 92.7886 59.2831V58.8935C92.993 58.7476 93.1615 58.5585 93.2818 58.3401C93.4021 58.1217 93.4711 57.8795 93.4836 57.6314V58.0369C93.4836 58.0916 93.472 58.4492 93.472 58.4492C93.472 59.0142 93.0943 59.5884 92.3345 60.0121C90.8264 60.8687 88.3847 60.8687 86.8859 60.0121C86.6717 59.8921 86.4734 59.7467 86.2952 59.5792C85.8667 59.1623 85.767 58.93 85.767 58.4721C85.767 58.3809 85.767 57.8342 85.767 57.4856C85.79 57.8395 85.9027 58.1821 86.0949 58.4822C86.2871 58.7822 86.5527 59.0302 86.8674 59.2033V59.2033Z" fill="#E2E2E2"/>
<path d="M86.4412 56.408C85.3918 57.2623 85.5308 58.4584 86.8674 59.2102C88.2041 59.9619 90.2797 60.0553 91.7855 59.4607L86.4412 56.408Z" fill="#F1F2F2"/>
<path d="M97.6835 39.4153C97.6795 39.2991 97.6454 39.1858 97.5845 39.0862C97.5235 38.9865 97.4377 38.9038 97.3352 38.8459C97.2327 38.788 97.1168 38.7567 96.9986 38.7551C96.8804 38.7535 96.7637 38.7815 96.6596 38.8366C92.3971 41.2128 85.5887 41.2287 81.2613 38.8913C81.1552 38.8342 81.0357 38.8053 80.9147 38.8076C80.7937 38.8098 80.6754 38.843 80.5715 38.904C80.4676 38.965 80.3817 39.0516 80.3223 39.1553C80.2629 39.2589 80.232 39.376 80.2327 39.495V45.22C80.2198 45.5979 80.3113 45.9722 80.4973 46.3031C80.6832 46.634 80.9569 46.9092 81.2891 47.0995C85.6558 49.4004 92.4596 49.3458 96.6827 46.9332C97.0042 46.7278 97.2657 46.4434 97.4412 46.1082C97.6167 45.773 97.7002 45.3985 97.6835 45.0218V39.4153Z" fill="#F7F7F7"/>
<g opacity="0.2">
<path opacity="0.2" d="M73.056 50.1066C77.6173 52.6969 77.6405 56.8978 73.1069 59.4881C68.5734 62.0783 61.2021 62.0783 56.6385 59.4881C52.0748 56.8978 52.0563 52.6969 56.5852 50.1089C61.1141 47.5209 68.4947 47.5164 73.056 50.1066Z" fill="#8D717A"/>
</g>
<g opacity="0.2">
<path opacity="0.2" d="M68.6545 51.264C73.2251 53.8588 73.2483 58.0688 68.7031 60.6659C64.158 63.263 56.7728 63.263 52.1999 60.6659C47.627 58.0688 47.6038 53.8611 52.1443 51.264C56.6848 48.6669 64.077 48.6669 68.6545 51.264Z" fill="#8D717A"/>
</g>
<path d="M70.2691 44.6938C70.2691 45.6233 70.2691 32.6196 70.2691 30.0521C70.2691 29.2228 68.1842 34.4102 67.3364 34.9934C67.158 34.8726 66.975 34.7656 66.7804 34.6403C61.589 31.5671 52.8161 31.7311 47.9652 35.0458C45.9938 33.7131 45.007 32.0842 45.0023 30.4348C45.0023 30.6284 45.0255 53.9704 45.0324 54.1664C45.0324 54.155 45.0324 54.1436 45.0324 54.1299C45.044 60.5087 58.6655 63.8895 66.5928 59.2193C71.1634 56.5516 70.2993 55.007 70.2691 44.6938Z" fill="#DEDFDF"/>
<path d="M46.7745 39.1556C46.7745 40.6068 47.7869 42.1513 49.8115 43.3497C53.9814 45.8192 60.887 45.8852 65.2352 43.5023C67.473 42.2766 68.5966 40.6386 68.5919 39.0006L46.7745 39.1556Z" fill="#69757B"/>
<path d="M46.7861 53.4054L46.7722 34.1163C46.7722 34.2074 46.7166 33.5057 46.8579 33.5855C48.9683 34.7815 66.0854 34.1322 68.4229 32.9726C68.6012 32.8861 68.592 34.1618 68.5897 34.0548L68.6036 53.3416C68.6036 54.9796 67.4847 56.6176 65.2469 57.8433C60.901 60.2262 53.9953 60.1579 49.8231 57.6906C47.8007 56.4923 46.7907 54.9568 46.7861 53.4054Z" fill="#9FC0E9"/>
<path d="M67.6352 25.8398C64.2947 23.311 58.8925 22.5683 54.8524 23.172C45.1668 24.4888 41.7823 31.4121 48.5166 35.3989C53.3489 38.258 61.3457 38.3377 66.3819 35.5766C71.0452 33.0183 71.3371 29.077 68.2352 26.3159L67.6352 25.8398ZM62.6268 32.9431C59.7519 34.5195 55.186 34.474 52.4339 32.8428C49.6818 31.2117 49.7722 28.6077 52.647 27.0313C55.5219 25.4548 60.0879 25.5003 62.8399 27.1338C65.592 28.7672 65.5016 31.3666 62.6268 32.9431Z" fill="#EEF1F3"/>
<path d="M66.3657 26.5391C66.3426 25.9969 66.2731 24.3521 63.8175 22.8736C63.8534 22.8996 63.882 22.9342 63.9006 22.974C63.9192 23.0139 63.9273 23.0577 63.9241 23.1014C65.5457 24.0628 66.3542 25.2998 66.3565 26.5369L66.3657 26.5391Z" fill="#436663"/>
<path d="M66.3681 27.3091C66.3681 26.3979 66.5997 24.6847 63.9333 23.0991V23.8737C65.5549 24.8351 66.3611 26.0721 66.3657 27.3091H66.3681Z" fill="#85CCC6"/>
<path d="M63.8268 22.8736C57.9566 19.6455 49.0193 21.8689 48.8803 26.5893C48.8803 22.1514 58.4454 19.8573 63.938 23.1037C63.9412 23.06 63.9332 23.0161 63.9145 22.9763C63.8959 22.9365 63.8673 22.9019 63.8314 22.8759L63.8268 22.8736Z" fill="#436663"/>
<path d="M63.9357 23.8782V23.1037C58.457 19.8619 48.878 22.1423 48.878 26.5892V27.3638C48.8664 22.8986 58.4732 20.6478 63.9357 23.8782Z" fill="#85CCC6"/>
<path d="M50.4254 30.0088C51.1968 30.0088 51.8154 29.503 51.8154 28.8856C51.8154 31.7721 57.952 33.2871 61.6608 31.2527C62.8538 30.5988 63.4538 29.724 63.4515 28.8515C63.4515 29.4689 64.0793 29.9678 64.8414 29.9678C64.8414 31.0499 64.1024 32.132 62.6221 32.943C59.7473 34.5195 55.1813 34.474 52.4292 32.8428C51.0926 32.05 50.4254 31.0203 50.4208 30.0088H50.4254Z" fill="#DEDFDF"/>
<path d="M51.8154 28.8856C51.8733 30.2525 54.2918 31.3597 56.5134 31.5511C60.433 31.8905 63.4075 30.3118 63.4515 28.8515C63.4515 29.724 62.8538 30.5988 61.6608 31.2527C57.9543 33.2848 51.8246 31.7721 51.8154 28.8856Z" fill="#6AA29D"/>
<path d="M63.5419 22.8166C66.7202 24.6984 66.6113 27.6964 63.2963 29.5144C59.9813 31.3324 54.725 31.2777 51.542 29.3959C48.3591 27.5142 48.4726 24.5161 51.7737 22.7004C55.0748 20.8848 60.3612 20.9303 63.5419 22.8166Z" fill="#D4D5D6"/>
<path d="M66.3078 26.8057C66.3078 26.8057 63.9913 30.5191 57.5581 30.5191C51.125 30.5191 48.82 26.6303 48.82 26.6303V21.4361L66.3866 21.8917L66.3078 26.8057Z" fill="#E2E2E2"/>
<path d="M57.7296 21.29C59.3512 21.3059 61.7095 21.5816 63.806 22.8049C63.7642 22.7845 63.7175 22.7756 63.671 22.7792C63.6245 22.7828 63.5799 22.7988 63.5419 22.8254C60.3682 20.9482 55.1142 20.8959 51.8084 22.7093C48.5027 24.5227 48.3915 27.5162 51.5768 29.3934C54.762 31.2706 60.0022 31.323 63.3079 29.5096C66.6137 27.6962 66.7248 24.7049 63.5534 22.8254C63.5914 22.7988 63.6361 22.7828 63.6826 22.7792C63.7291 22.7756 63.7758 22.7845 63.8175 22.8049C63.938 22.8824 64.1048 22.9758 64.2229 23.0601C67.5009 25.443 66.8314 28.3978 63.6669 30.1338C60.155 32.0611 54.5768 32.0064 51.2061 30.0108C45.8062 26.8213 49.8509 21.2102 57.7296 21.29Z" fill="#9B9FAB"/>
<path d="M51.5582 22.68C55.135 20.7663 60.4006 20.821 63.8059 22.8053C63.7642 22.7848 63.7175 22.7759 63.671 22.7795C63.6245 22.7831 63.5798 22.7991 63.5419 22.8258C60.3682 20.9486 55.1141 20.8962 51.8084 22.7096C48.5026 24.523 48.3914 27.5165 51.5767 29.3937C54.762 31.2709 60.0021 31.3233 63.3079 29.5099C66.6136 27.6965 66.7248 24.7052 63.5534 22.8258C63.5914 22.7991 63.636 22.7831 63.6826 22.7795C63.7291 22.7759 63.7757 22.7848 63.8175 22.8053C67.4846 25.1267 67.0306 28.2888 63.6669 30.1341C60.155 32.0614 54.5767 32.0067 51.2061 30.0111C47.539 27.84 48.2524 24.4547 51.5698 22.68H51.5582Z" fill="#DDDDDD"/>
<path d="M48.7366 27.3228V26.5414C48.7505 30.92 58.0377 33.2096 63.6554 30.1272C65.4646 29.1362 66.3727 27.8149 66.3681 26.4822C66.3681 27.382 66.6461 29.2615 63.6577 30.8995C60.1458 32.8246 54.5651 32.7699 51.1945 30.7765C49.559 29.8083 48.7436 28.5599 48.7389 27.3137L48.7366 27.3228Z" fill="#EEF1F3"/>
<path d="M63.1666 17.4607C59.7033 15.6929 55.0146 15.9275 52.0169 17.5245C44.7406 21.2721 50.9281 28.6442 60.44 26.808C67.3225 25.4867 68.2908 19.9872 63.1666 17.4607Z" fill="#D4D5D6"/>
<path d="M62.7565 17.7887C65.4808 19.3994 65.3881 21.9692 62.548 23.5274C59.7079 25.0857 55.1976 25.0401 52.4733 23.4272C49.749 21.8142 49.8416 19.2445 52.6817 17.6885C55.5218 16.1325 60.0322 16.1758 62.7565 17.7887Z" fill="#EBEBEB"/>
<path d="M65.469 52.2161C65.469 52.2161 65.4556 52.2095 65.469 52.2161V52.2161Z" fill="#14A797"/>
<path d="M57.6832 48.5712C57.6832 48.5712 55.7188 48.9494 52.9852 48.2659C51.4122 47.8841 49.9593 47.1267 48.7552 46.0607V37.2852C48.7552 37.2852 51.0208 38.7774 53.3258 39.2695C54.7592 39.5737 56.2176 39.7499 57.6832 39.7958V48.5712Z" fill="#EEF1F3"/>
<path d="M57.6832 52.018C56.0986 52.0607 54.516 51.8766 52.9852 51.4713C50.3119 50.8015 48.7552 49.5895 48.7552 49.5895V48.496C48.7552 48.496 51.0208 49.9882 53.3258 50.4803C54.7592 50.7845 56.2176 50.9614 57.6832 51.0088V52.018Z" fill="#EEF1F3"/>
<path d="M57.6832 54.745C56.0984 54.7875 54.5158 54.6025 52.9852 54.196C50.3119 53.5262 48.7552 52.3165 48.7552 52.3165V51.2298C48.7552 51.2298 51.0208 52.722 53.3258 53.2141C54.7592 53.5183 56.2176 53.6944 57.6832 53.7403V54.745Z" fill="#EEF1F3"/>
<path d="M57.6832 57.415C56.0986 57.4577 54.516 57.2735 52.9852 56.8682C50.3119 56.1984 48.7552 54.9864 48.7552 54.9864V53.902C48.7552 53.902 51.0208 55.3919 53.3258 55.8863C54.7594 56.1892 56.2177 56.3653 57.6832 56.4126V57.415Z" fill="#EEF1F3"/>
<path d="M49.2023 23.7051V26.6417C49.2973 26.8424 49.4113 27.0338 49.5428 27.2135V24.2747C49.4113 24.0958 49.2973 23.9051 49.2023 23.7051V23.7051Z" fill="#E2E2E2"/>
<path d="M50.3328 25.1107V28.0495C50.4424 28.1407 50.5559 28.2318 50.6733 28.3229V25.3841C50.5559 25.3006 50.4424 25.2094 50.3328 25.1107Z" fill="#E2E2E2"/>
<path d="M51.4864 25.9149V28.8515C51.5953 28.9153 51.7181 28.9767 51.8269 29.0383V26.0994C51.7096 26.0387 51.5961 25.9772 51.4864 25.9149Z" fill="#E2E2E2"/>
<path d="M52.8277 26.5528V29.4916C52.9389 29.5349 53.0594 29.5782 53.1683 29.6192V26.6804C53.0524 26.6394 52.9389 26.5961 52.8277 26.5528Z" fill="#E2E2E2"/>
<path d="M54.5304 27.0813V30.0202L54.8709 30.093V27.1542C54.7551 27.1269 54.6416 27.1041 54.5304 27.0813Z" fill="#E2E2E2"/>
<path d="M56.4902 27.3752V30.314L56.8307 30.3368V27.398C56.7172 27.3935 56.6037 27.3844 56.4902 27.3752Z" fill="#E2E2E2"/>
<path d="M58.4755 27.3866V30.3254C58.5882 30.3254 58.7017 30.3163 58.816 30.2981V27.3593L58.4755 27.3866Z" fill="#E2E2E2"/>
<path d="M60.3519 27.1269V30.0634C60.4655 30.0407 60.5836 30.0133 60.6925 29.986V27.0494L60.3519 27.1269Z" fill="#E2E2E2"/>
<path d="M62.0268 26.6485V29.5873C62.1427 29.5463 62.2562 29.503 62.3674 29.4575V26.5186C62.2562 26.5619 62.1427 26.6052 62.0268 26.6485Z" fill="#E2E2E2"/>
<path d="M63.4654 26.0004L63.3913 26.0391V28.9711C63.5071 28.9096 63.6229 28.8435 63.7318 28.7797V25.8933L63.4654 26.0004Z" fill="#E2E2E2"/>
<path d="M64.5565 25.3955V28.2204C64.6746 28.127 64.7881 28.0336 64.897 27.9356V25.1062C64.7881 25.2064 64.6723 25.3021 64.5565 25.3955Z" fill="#E2E2E2"/>
<path d="M65.9024 23.9147L65.8283 24.0013C65.7497 24.1485 65.6607 24.2901 65.5619 24.425V27.2112C65.6951 27.0318 65.8093 26.8395 65.9024 26.6371V23.9147Z" fill="#E2E2E2"/>
<path d="M63.3797 26.0334L63.4538 25.9947L63.3797 26.0334Z" fill="#79818B"/>
<g opacity="0.2">
<path opacity="0.2" d="M84.1547 66.7736C88.7693 69.3935 88.7879 73.6423 84.2057 76.2644C79.6235 78.8866 72.1595 78.8843 67.5495 76.2644C62.9395 73.6445 62.9164 69.3958 67.4939 66.7759C72.0715 64.156 79.5378 64.1538 84.1547 66.7736Z" fill="#8D717A"/>
</g>
<path d="M85.7855 59.4129C85.7855 60.3515 85.7855 55.3123 85.7855 52.722C85.7855 51.8859 83.6868 57.1211 82.825 57.7089C82.6443 57.5881 82.4613 57.481 82.2644 57.3535C77.0243 54.2529 68.1703 54.4192 63.2685 57.7636C61.2762 56.4194 60.2824 54.7655 60.2778 53.1093C60.2778 53.3052 60.3009 68.7761 60.3079 68.9721C60.3079 68.9607 60.3079 68.9493 60.3079 68.9379C60.3079 75.3805 74.0684 78.7864 82.0675 74.0729C86.6891 71.3801 85.8157 69.8218 85.7855 59.4129Z" fill="#DEDFDF"/>
<path d="M62.0731 61.9189C62.0731 63.386 63.0947 64.9443 65.138 66.1517C69.3472 68.644 76.3177 68.7123 80.703 66.3066C82.9616 65.0696 84.0968 63.4156 84.0922 61.7639L62.0731 61.9189Z" fill="#69757B"/>
<path d="M62.0848 68.2043L62.0708 56.8135C62.0708 56.9069 62.0152 56.1962 62.1588 56.2782C64.2878 57.4856 81.5625 56.8295 83.9231 55.6608C84.1015 55.5719 84.0922 56.8591 84.0899 56.752L84.106 68.1291C84.106 69.7831 82.9756 71.4347 80.7169 72.6855C76.3293 75.0889 69.3657 75.0205 65.1496 72.5305C63.1087 71.3208 62.0894 69.7626 62.0848 68.202V68.2043Z" fill="#ECB3B3"/>
<path d="M83.1284 48.471C79.7555 45.9194 74.3046 45.1699 70.2252 45.7804C60.4515 47.1086 57.0369 54.0957 63.8314 58.1189C68.7078 61.0054 76.781 61.0805 81.8636 58.2966C86.5686 55.7155 86.8628 51.7378 83.7169 48.9562L83.1284 48.471ZM78.0737 55.6426C75.1711 57.2373 70.5634 57.1872 67.7788 55.5401C64.9943 53.893 65.0917 51.2663 67.992 49.6738C70.8923 48.0814 75.5023 48.1292 78.2868 49.7763C81.0713 51.4234 80.9741 54.0501 78.0737 55.6426V55.6426Z" fill="#EEF1F3"/>
<path d="M81.845 49.1794C81.8219 48.635 81.7501 46.9742 79.283 45.482C79.319 45.5079 79.3477 45.5424 79.3663 45.5823C79.385 45.6221 79.393 45.6661 79.3895 45.7098C81.0273 46.678 81.8427 47.9264 81.845 49.1749V49.1794Z" fill="#436663"/>
<path d="M81.8474 49.9586C81.8474 49.0473 82.0906 47.3114 79.3895 45.7121V46.4935C81.0273 47.4617 81.8427 48.7102 81.845 49.9586H81.8474Z" fill="#85CCC6"/>
<path d="M79.283 45.4797C73.3595 42.2197 64.3387 44.4637 64.1997 49.2273C64.1882 44.7484 73.8529 42.4339 79.3895 45.7121C79.393 45.6684 79.385 45.6245 79.3663 45.5846C79.3477 45.5447 79.319 45.5102 79.283 45.4843V45.4797Z" fill="#436663"/>
<path d="M79.3826 46.4935V45.7121C73.8529 42.4384 64.1789 44.7416 64.1928 49.2273V50.0087C64.1789 45.5048 73.8761 43.2335 79.3826 46.4935Z" fill="#85CCC6"/>
<path d="M65.7518 52.6787C66.5302 52.6787 67.1603 52.1684 67.158 51.5396C67.158 54.4534 73.3525 55.9797 77.0938 53.9271C78.2984 53.2664 78.903 52.3848 78.9007 51.5054C78.9007 52.1274 79.5355 52.6445 80.3138 52.6309C80.3138 53.7244 79.5656 54.8156 78.0737 55.6357C75.1711 57.2304 70.5633 57.1803 67.7788 55.5332C66.4283 54.7313 65.7565 53.7107 65.7518 52.6718V52.6787Z" fill="#DEDFDF"/>
<path d="M67.158 51.5464C67.2182 52.9133 69.6576 54.0524 71.8977 54.2369C75.8567 54.5787 78.8474 52.9839 78.9007 51.5031C78.9007 52.3825 78.2984 53.2642 77.0938 53.9248C73.3525 55.9752 67.1673 54.4511 67.158 51.5373V51.5464Z" fill="#6AA29D"/>
<path d="M78.9957 45.4205C82.2018 47.3205 82.093 50.3459 78.7478 52.1798C75.4027 54.0137 70.0931 53.9613 66.8847 52.0613C63.6762 50.1613 63.7851 47.1359 67.1302 45.3043C70.4754 43.4727 75.7849 43.5228 78.9957 45.4205Z" fill="#83888D"/>
<path d="M81.7871 49.1794C81.7871 49.1794 79.4567 53.1958 72.9564 53.1958C66.4561 53.1958 64.1372 48.8673 64.1372 48.8673V44.0308L81.8659 44.4865L81.7871 49.1794Z" fill="#8A9099"/>
<path d="M73.1278 43.8801C74.7494 43.8961 77.1424 44.1763 79.2598 45.4088C79.2175 45.3888 79.1706 45.3802 79.1238 45.3838C79.077 45.3874 79.032 45.4031 78.9934 45.4293C75.7896 43.5361 70.4869 43.4815 67.1511 45.3131C63.8152 47.1447 63.7017 50.1633 66.9055 52.0587C70.1093 53.9541 75.4097 54.0065 78.7478 52.1772C82.086 50.3478 82.1949 47.327 78.9934 45.4293C79.032 45.4031 79.077 45.3874 79.1238 45.3838C79.1706 45.3802 79.2175 45.3888 79.2598 45.4088C79.3826 45.4862 79.5517 45.5819 79.6675 45.6662C82.9779 48.0719 82.3015 51.0541 79.1069 52.806C75.5626 54.7515 69.9333 54.6945 66.5302 52.6829C61.0956 49.4639 65.1774 43.8004 73.1278 43.8801Z" fill="#8A9099"/>
<path d="M64.0538 49.9677V49.1794C64.0677 53.5991 73.4406 55.9091 79.1115 52.7994C80.9347 51.7993 81.852 50.4643 81.8474 49.1293C81.8474 50.0406 82.1277 51.9337 79.1138 53.5877C75.5672 55.5309 69.9356 55.4763 66.5349 53.4624C64.8831 52.4851 64.0608 51.2275 64.0561 49.9677H64.0538Z" fill="#EEF1F3"/>
<path d="M78.6065 40.0167C75.1131 38.2306 70.3804 38.4676 67.355 40.0805C60.0114 43.8622 66.2569 51.3027 75.8544 49.4483C82.8111 48.1042 83.784 42.5728 78.6065 40.0167Z" fill="#83888D"/>
<path d="M78.2034 40.3448C80.9532 41.9736 80.8582 44.5662 77.9926 46.1381C75.127 47.71 70.5796 47.6645 67.8252 46.0379C65.0708 44.4113 65.1681 41.8165 68.036 40.2445C70.9039 38.6726 75.4444 38.7182 78.2034 40.3448Z" fill="#8A9099"/>
<path d="M80.9391 75.0933C80.9391 75.0933 80.9257 75.0845 80.9391 75.0933V75.0933Z" fill="#14A797"/>
<path d="M73.0838 71.6557C71.4843 71.6996 69.8868 71.5138 68.3418 71.1044C66.7547 70.719 65.2884 69.9554 64.0723 68.8809V60.3424C65.5379 61.081 67.0868 61.6476 68.687 62.0305C70.1348 62.3378 71.608 62.5155 73.0884 62.5613L73.0838 71.6557Z" fill="#EEF1F3"/>
</g>
<defs>
<clipPath id="clip0">
<rect width="58" height="62" fill="white" transform="translate(45 16.2282)"/>
</clipPath>
</defs>
</svg>
