<svg width="147" height="91" viewBox="0 0 147 91" fill="none" xmlns="http://www.w3.org/2000/svg">
<rect width="147" height="91" rx="6" fill="#F2F4F8"/>
<path opacity="0.2" d="M39.6914 65.5276L45.5367 66.2831L97.8366 44.3862L91.5925 39.8325L39.6914 65.5276Z" fill="#191617"/>
<path d="M13.6705 43.8825L36.8447 61.654C38.9093 63.2357 42.5437 63.7091 44.9565 62.7017L92.2642 43.0312C93.4807 42.5275 94.1571 41.7467 94.2833 40.8904L93.9704 43.3486C93.9093 43.7029 93.7715 44.0397 93.5667 44.3355C93.3618 44.6313 93.0947 44.879 92.7841 45.0612C92.5272 45.229 92.2552 45.3724 91.9715 45.4894L44.6637 65.1599C42.2509 66.1673 38.6065 65.6938 36.552 64.1121L13.3827 46.3357C12.3732 45.5499 11.9088 44.6381 12.0148 43.8171C12.1208 42.996 12.2218 42.1799 12.3278 41.3589C12.1966 42.1799 12.6609 43.0967 13.6705 43.8825Z" fill="#454C53"/>
<path d="M14.301 39.2131C11.8882 40.2205 11.6004 42.316 13.665 43.8977L36.8392 61.6692C38.9038 63.2509 42.5382 63.7243 44.951 62.7168L92.2587 43.0464C94.6765 42.0389 94.9592 39.9485 92.8947 38.3618L69.7002 20.5752C67.6357 18.9935 64.0063 18.5251 61.5884 19.5275L14.301 39.2131Z" fill="#6E7A86"/>
<path d="M20.2928 39.7773C17.6983 40.8553 17.3903 43.1069 19.6113 44.8146C21.8323 46.5222 25.7292 47.0209 28.3238 45.9429C30.9183 44.8649 31.2211 42.6082 29.0051 40.9057C26.7892 39.2031 22.8874 38.7094 20.2928 39.7773Z" fill="#CACBCC"/>
<path d="M30.4894 43.646C30.56 43.0768 30.4893 43.5553 30.5701 42.9861C30.4986 43.3871 30.3376 43.7669 30.0991 44.0973C29.8605 44.4278 29.5505 44.7005 29.192 44.8952L29.1113 45.55C29.4692 45.3558 29.7789 45.084 30.0174 44.7544C30.2559 44.4249 30.4172 44.0461 30.4894 43.646Z" fill="#E2E2E2"/>
<path d="M21.2922 38.8302L29.1919 44.8749C31.0495 43.7012 31.0748 41.7519 29.1011 40.2356C27.1274 38.7194 23.8262 38.2056 21.2922 38.8302Z" fill="#EDEEEF"/>
<path d="M19.6718 44.1748C21.6506 45.686 24.9519 46.2502 27.4859 45.5953L27.4101 46.235C27.7212 46.1572 28.0265 46.058 28.3238 45.9378C28.5986 45.8216 28.8637 45.6835 29.1163 45.5248L29.192 44.8951C29.5505 44.7004 29.8605 44.4277 30.099 44.0972C30.3375 43.7668 30.4985 43.387 30.57 42.986L30.4893 43.6459C30.4893 43.7366 30.3833 44.3158 30.3833 44.3158C30.2672 45.2326 29.5403 46.0738 28.238 46.6178C25.6435 47.6958 21.7415 47.1921 19.5205 45.4895C19.2055 45.2493 18.9206 44.9719 18.6724 44.6634C18.0717 43.8977 17.9607 43.4998 18.0566 42.7593C18.0566 42.6133 18.1828 41.7216 18.2535 41.1575C18.2191 41.7385 18.3308 42.319 18.5785 42.846C18.8262 43.373 19.2021 43.8297 19.6718 44.1748Z" fill="#E2E2E2"/>
<path d="M33.8207 34.1757C31.2262 35.2537 30.9234 37.5104 33.1393 39.213C35.3553 40.9156 39.2623 41.4193 41.8518 40.3413C44.4413 39.2633 44.7542 37.0066 42.5382 35.3041C40.3222 33.6015 36.4153 33.1129 33.8207 34.1757Z" fill="#CACBCC"/>
<path d="M34.8203 33.2488L34.7395 33.9036L42.6443 39.9634L42.72 39.3086L34.8203 33.2488Z" fill="#D6D6D6"/>
<path d="M44.0174 38.0596C44.0931 37.4954 44.0173 37.969 44.0981 37.4048C44.0261 37.8043 43.8654 38.1826 43.6278 38.5121C43.3903 38.8416 43.0818 39.1138 42.7251 39.3088L42.6443 39.9637C43.0017 39.7695 43.3108 39.4975 43.5485 39.1679C43.7862 38.8383 43.9464 38.4595 44.0174 38.0596Z" fill="#E2E2E2"/>
<path d="M34.8203 33.2488L42.7252 39.2935C44.5828 38.1198 44.6079 36.1704 42.6342 34.6592C40.6606 33.148 37.3543 32.594 34.8203 33.2488Z" fill="#EDEEEF"/>
<path d="M33.205 38.5886C35.1787 40.0998 38.485 40.669 41.019 40.0141L40.9383 40.6488C41.2498 40.5726 41.5552 40.4732 41.8519 40.3516C42.1288 40.2396 42.3941 40.1013 42.6443 39.9385L42.7252 39.3089C43.0819 39.1138 43.3903 38.8416 43.6279 38.5122C43.8655 38.1827 44.0262 37.8044 44.0982 37.4049L44.0174 38.0597C44.0174 38.1503 43.9164 38.7297 43.9164 38.7297C43.8003 39.6464 43.0734 40.4876 41.766 41.0317C39.1715 42.1096 35.2696 41.6059 33.0536 39.9033C32.7358 39.6645 32.4493 39.387 32.2005 39.0772C31.9512 38.8334 31.7652 38.5325 31.6588 38.2007C31.5524 37.8688 31.5286 37.5161 31.5898 37.1731C31.5898 37.027 31.7159 36.1657 31.7866 35.5713C31.7503 36.1526 31.8613 36.7337 32.1092 37.261C32.3571 37.7883 32.7339 38.2448 33.205 38.5886Z" fill="#E2E2E2"/>
<path d="M33.1141 33.9492C31.2565 35.1229 31.2312 37.0723 33.2049 38.5885C35.1786 40.1047 38.4848 40.6689 41.0188 40.014L33.1141 33.9492Z" fill="#EDEEEF"/>
<path d="M47.3538 28.6045C44.7593 29.6825 44.4513 31.9392 46.6723 33.6418C48.8934 35.3444 52.7902 35.8481 55.3848 34.7702C57.9793 33.6922 58.2823 31.4355 56.0663 29.7329C53.8503 28.0303 49.9484 27.5265 47.3538 28.6045Z" fill="#CACBCC"/>
<path d="M48.3535 27.6626L48.2727 28.3174L56.1725 34.3823L56.2532 33.7224L48.3535 27.6626Z" fill="#D6D6D6"/>
<path d="M57.5504 32.4732C57.6211 31.9091 57.5505 32.3825 57.6312 31.8184C57.559 32.2184 57.3976 32.5973 57.1591 32.9268C56.9206 33.2564 56.6111 33.5283 56.2532 33.7225L56.1724 34.3824C56.5308 34.1877 56.8408 33.9149 57.0794 33.5845C57.3179 33.254 57.4789 32.8742 57.5504 32.4732Z" fill="#E2E2E2"/>
<path d="M48.3533 27.6626L56.2531 33.7073C58.1107 32.5336 58.1409 30.5842 56.1621 29.0731C54.1834 27.5619 50.8872 27.0078 48.3533 27.6626Z" fill="#EDEEEF"/>
<path d="M46.7331 33.0022C48.7118 34.5134 52.013 35.0825 54.547 34.4277L54.4713 35.0674C54.7823 34.9872 55.0875 34.8862 55.3849 34.7652C55.6596 34.6506 55.9247 34.5142 56.1774 34.3572L56.2532 33.7225C56.6111 33.5283 56.9206 33.2564 57.1591 32.9268C57.3976 32.5973 57.5591 32.2185 57.6313 31.8184L57.5504 32.4732C57.5504 32.5639 57.4444 33.1432 57.4444 33.1432C57.3283 34.06 56.6065 34.9012 55.2991 35.4452C52.7046 36.5232 48.8026 36.0195 46.5867 34.3169C46.268 34.0811 45.9813 33.8051 45.7336 33.4958C45.4847 33.2505 45.2987 32.9488 45.1915 32.6164C45.0843 32.2841 45.0591 31.9309 45.1178 31.5867C45.1178 31.4406 45.244 30.5793 45.3146 29.9849C45.2798 30.566 45.3913 31.1466 45.6391 31.6736C45.8869 32.2007 46.263 32.6574 46.7331 33.0022Z" fill="#E2E2E2"/>
<path d="M46.6473 28.3679C44.7897 29.5366 44.7594 31.4911 46.7331 33.0022C48.7068 34.5134 52.0131 35.0826 54.547 34.4278L46.6473 28.3679Z" fill="#EDEEEF"/>
<path d="M60.8821 23.0233C58.2875 24.1013 57.9846 26.3529 60.2006 28.0605C62.4165 29.7682 66.3235 30.2668 68.9181 29.1838C71.5126 28.1008 71.8155 25.8542 69.5996 24.1466C67.3836 22.439 63.4766 21.9403 60.8821 23.0233Z" fill="#CACBCC"/>
<path d="M61.8813 22.0762L61.8005 22.7361L69.7053 28.7959L69.7861 28.136L61.8813 22.0762Z" fill="#D6D6D6"/>
<path d="M71.0783 26.8921C71.154 26.3229 71.0783 26.8014 71.159 26.2322C71.0891 26.6324 70.9294 27.0117 70.6916 27.3415C70.4538 27.6712 70.1441 27.943 69.786 28.1363L69.7053 28.7961C70.0625 28.6017 70.3714 28.3296 70.609 28C70.8467 27.6704 71.007 27.2918 71.0783 26.8921Z" fill="#E2E2E2"/>
<path d="M61.8813 22.0863L69.7861 28.131C71.6437 26.9624 71.6689 25.013 69.6953 23.4968C67.7216 21.9805 64.4153 21.4214 61.8813 22.0863Z" fill="#EDEEEF"/>
<path d="M60.2661 27.4158C62.2398 28.927 65.546 29.4963 68.08 28.8414L67.9992 29.4812C68.3122 29.4025 68.6193 29.3014 68.9179 29.1789C69.1925 29.0674 69.4561 28.9309 69.7054 28.7709L69.7861 28.1362C70.1442 27.9429 70.4538 27.6711 70.6916 27.3414C70.9294 27.0116 71.0892 26.6323 71.1591 26.2321L71.0784 26.892C71.0784 26.9827 70.9774 27.5569 70.9774 27.5569C70.8613 28.4787 70.1344 29.32 68.8321 29.859C66.2376 30.9369 62.3306 30.4331 60.1146 28.7356C59.7996 28.4954 59.5149 28.2181 59.2666 27.9095C58.6659 27.1439 58.5549 26.7459 58.6508 26.0004C58.6508 25.8543 58.777 24.9929 58.8476 24.4036C58.8118 24.9841 58.9229 25.5643 59.1708 26.0907C59.4186 26.6171 59.7953 27.0729 60.2661 27.4158Z" fill="#E2E2E2"/>
<path d="M60.1753 22.7815C58.3177 23.9552 58.2926 25.9046 60.2662 27.4157C62.2399 28.9269 65.5462 29.4962 68.0802 28.8413L60.1753 22.7815Z" fill="#EDEEEF"/>
<path d="M35.7644 51.5191C33.1698 52.5971 32.8669 54.8487 35.0829 56.5563C37.2989 58.264 41.2058 58.7626 43.7953 57.6846C46.3848 56.6066 46.6979 54.35 44.4819 52.6474C42.2659 50.9448 38.3589 50.4411 35.7644 51.5191Z" fill="#CACBCC"/>
<path d="M36.7636 50.5771L36.6829 51.232L44.5877 57.2918L44.6684 56.637L36.7636 50.5771Z" fill="#D6D6D6"/>
<path d="M45.9758 55.3877C46.0515 54.8235 45.9757 55.2971 46.0565 54.7329C45.9845 55.1324 45.8239 55.5107 45.5863 55.8402C45.3488 56.1697 45.0402 56.4419 44.6835 56.6369L44.6028 57.2918C44.9595 57.0968 45.2679 56.8245 45.5055 56.495C45.7431 56.1656 45.9038 55.7872 45.9758 55.3877Z" fill="#E2E2E2"/>
<path d="M36.7637 50.577L44.6684 56.6217C46.526 55.4481 46.5513 53.4986 44.5776 51.9824C42.6039 50.4662 39.2977 49.9222 36.7637 50.577Z" fill="#EDEEEF"/>
<path d="M35.1485 55.9165C37.1221 57.4277 40.4284 57.9918 42.9573 57.337L42.8817 57.9767C43.1932 57.9004 43.4985 57.8011 43.7952 57.6795C44.0711 57.5654 44.3364 57.4272 44.5878 57.2664L44.6685 56.6368C45.0252 56.4417 45.3337 56.1695 45.5713 55.8401C45.8089 55.5106 45.9695 55.1322 46.0415 54.7327L45.9607 55.3875C45.9607 55.4782 45.8598 56.0575 45.8598 56.0575C45.7437 56.9743 45.0168 57.8155 43.7095 58.3595C41.1149 59.4375 37.213 58.9338 34.997 57.2312C34.6792 56.9924 34.3927 56.7149 34.144 56.4051C33.5433 55.6394 33.4373 55.2415 33.5332 54.501C33.5332 54.3549 33.6593 53.4633 33.73 52.8992C33.6937 53.4805 33.8046 54.0616 34.0525 54.5889C34.3004 55.1162 34.6773 55.5727 35.1485 55.9165Z" fill="#E2E2E2"/>
<path d="M35.0577 51.3025C33.2001 52.4762 33.1748 54.4256 35.1485 55.9418C37.1222 57.458 40.4284 58.0172 42.9574 57.3623L35.0577 51.3025Z" fill="#EDEEEF"/>
<path d="M49.2972 45.9327C46.7027 47.0106 46.3947 49.2673 48.6157 50.9699C50.8367 52.6725 54.7336 53.1762 57.3281 52.0982C59.9227 51.0203 60.2307 48.7636 58.0096 47.061C55.7886 45.3584 51.8918 44.8547 49.2972 45.9327Z" fill="#CACBCC"/>
<path d="M50.2968 44.9907L50.2161 45.6456L58.1158 51.7054L58.1966 51.0505L50.2968 44.9907Z" fill="#D6D6D6"/>
<path d="M59.4938 49.7913C59.5644 49.2272 59.4937 49.7006 59.5745 49.1365C59.5023 49.5366 59.341 49.9154 59.1025 50.245C58.864 50.5745 58.5543 50.8464 58.1964 51.0406L58.1157 51.6954C58.4745 51.5024 58.7848 51.2308 59.0235 50.901C59.2621 50.5713 59.423 50.1919 59.4938 49.7913Z" fill="#E2E2E2"/>
<path d="M50.2969 44.9907L58.1966 51.0354C60.0542 49.8618 60.0845 47.9124 58.1058 46.4012C56.127 44.89 52.8309 44.3359 50.2969 44.9907Z" fill="#EDEEEF"/>
<path d="M48.6765 50.3303C50.6553 51.8415 53.9565 52.4107 56.4905 51.7559L56.4147 52.3906C56.7262 52.3143 57.0316 52.2149 57.3284 52.0933C57.6031 51.9788 57.8681 51.8423 58.1209 51.6854L58.1966 51.0507C58.5544 50.8565 58.8641 50.5846 59.1026 50.255C59.3411 49.9255 59.5024 49.5466 59.5746 49.1466L59.4939 49.8014C59.4939 49.8921 59.3879 50.4714 59.3879 50.4714C59.2718 51.3881 58.55 52.2294 57.2426 52.7734C54.648 53.8514 50.7461 53.3477 48.5301 51.6451C48.2101 51.409 47.9232 51.1311 47.6771 50.819C47.4282 50.5746 47.2422 50.2738 47.135 49.9423C47.0277 49.6108 47.0024 49.2583 47.0612 48.9149C47.0612 48.7688 47.1874 47.9074 47.2581 47.313C47.2232 47.8941 47.3347 48.4747 47.5824 49.0018C47.8302 49.5289 48.2064 49.9856 48.6765 50.3303Z" fill="#E2E2E2"/>
<path d="M48.5906 45.696C46.733 46.8647 46.7028 48.8141 48.6765 50.3303C50.6502 51.8465 53.9565 52.4107 56.4905 51.7559L48.5906 45.696Z" fill="#EDEEEF"/>
<path d="M62.8251 40.3465C60.2305 41.4245 59.9278 43.6812 62.1437 45.3837C64.3597 47.0863 68.2667 47.585 70.8612 46.507C73.4558 45.4291 73.7586 43.1774 71.5426 41.4698C69.3266 39.7622 65.4196 39.2685 62.8251 40.3465Z" fill="#CACBCC"/>
<path d="M63.8247 39.4045L63.7439 40.0594L71.6487 46.1242L71.7295 45.4644L63.8247 39.4045Z" fill="#D6D6D6"/>
<path d="M73.0219 44.2202C73.0976 43.6509 73.0219 44.1245 73.1026 43.5603C73.0313 43.96 72.871 44.3387 72.6333 44.6683C72.3957 44.9979 72.0868 45.2699 71.7296 45.4644L71.6489 46.1242C72.0061 45.9298 72.3148 45.6577 72.5525 45.3281C72.7901 44.9986 72.9506 44.6199 73.0219 44.2202Z" fill="#E2E2E2"/>
<path d="M63.8247 39.4044L71.7295 45.4491C73.587 44.2805 73.6123 42.3311 71.6386 40.8149C69.665 39.2987 66.3587 38.7496 63.8247 39.4044Z" fill="#EDEEEF"/>
<path d="M62.2095 44.7541C64.1831 46.2653 67.4894 46.8345 70.0234 46.1796L69.9427 46.8194C70.2557 46.7407 70.5628 46.6397 70.8614 46.5172C71.135 46.4037 71.3985 46.2672 71.6489 46.1091L71.7296 45.4745C72.0868 45.28 72.3956 45.0079 72.6333 44.6784C72.8709 44.3488 73.0313 43.9701 73.1026 43.5704L73.0218 44.2302C73.0218 44.3209 72.9208 44.8952 72.9208 44.8952C72.8047 45.817 72.0778 46.6532 70.7755 47.1972C68.1809 48.2752 64.2741 47.7714 62.0581 46.0739C61.7431 45.8337 61.4582 45.5563 61.21 45.2478C60.6043 44.4821 60.4983 44.0841 60.5942 43.3386C60.5942 43.1925 60.7205 42.306 60.7911 41.7368C60.7549 42.3181 60.8658 42.8992 61.1136 43.4265C61.3615 43.9538 61.7383 44.4104 62.2095 44.7541Z" fill="#E2E2E2"/>
<path d="M62.1287 40.1099C60.2711 41.2835 60.2459 43.2329 62.2195 44.7441C64.1932 46.2553 67.4995 46.8245 70.0335 46.1697L62.1287 40.1099Z" fill="#EDEEEF"/>
<path d="M76.3584 34.7653C73.7639 35.8433 73.456 38.0949 75.677 39.8025C77.8981 41.5102 81.7949 42.0089 84.3895 40.9258C86.9841 39.8428 87.2919 37.5962 85.0709 35.8886C82.8499 34.181 78.953 33.6722 76.3584 34.7653Z" fill="#CACBCC"/>
<path d="M77.3579 33.8181L77.2771 34.478L85.1769 40.5378L85.2576 39.8779L77.3579 33.8181Z" fill="#D6D6D6"/>
<path d="M86.5548 38.6337C86.6254 38.0645 86.5549 38.5431 86.6356 37.9739C86.5648 38.3745 86.404 38.7538 86.1654 39.0836C85.9267 39.4133 85.6164 39.6849 85.2576 39.8779L85.1768 40.5378C85.5346 40.3436 85.8443 40.0718 86.0828 39.7422C86.3213 39.4126 86.4826 39.0338 86.5548 38.6337Z" fill="#E2E2E2"/>
<path d="M77.3579 33.8183L85.2577 39.863C87.1203 38.6943 87.1455 36.7449 85.1668 35.2287C83.1881 33.7124 79.8919 33.1685 77.3579 33.8183Z" fill="#EDEEEF"/>
<path d="M75.7577 39.1575C77.7365 40.6687 81.0377 41.2379 83.5717 40.5831L83.496 41.2228C83.8077 41.1449 84.113 41.0438 84.4096 40.9206C84.6853 40.8082 84.9505 40.6716 85.2021 40.5125L85.2779 39.8778C85.6367 39.6848 85.947 39.4133 86.1857 39.0835C86.4243 38.7537 86.5851 38.3744 86.6559 37.9738L86.5751 38.6336C86.5751 38.7243 86.4742 39.3036 86.4742 39.3036C86.353 40.2204 85.6312 41.0616 84.3238 41.6006C81.7292 42.6836 77.8273 42.1748 75.6113 40.4773C75.2948 40.2371 75.0084 39.9597 74.7583 39.6512C74.5094 39.4058 74.3234 39.1042 74.2162 38.7718C74.109 38.4395 74.0837 38.0862 74.1425 37.742C74.1425 37.596 74.2686 36.7346 74.3443 36.1453C74.307 36.7255 74.417 37.3057 74.664 37.8322C74.9111 38.3588 75.2872 38.8146 75.7577 39.1575Z" fill="#E2E2E2"/>
<path d="M75.6517 34.5234C73.7941 35.6971 73.7638 37.6466 75.7375 39.1577C77.7112 40.6689 81.0175 41.2381 83.5514 40.5833L75.6517 34.5234Z" fill="#EDEEEF"/>
<path d="M74.8542 30.7355C74.9421 30.7844 75.0133 30.8583 75.0588 30.9479C75.1043 31.0374 75.1219 31.1384 75.1095 31.238C75.097 31.3376 75.055 31.4312 74.9888 31.5068C74.9227 31.5824 74.8354 31.6366 74.7381 31.6624L29.9544 50.3859C29.6891 50.4796 29.4054 50.5093 29.1264 50.4725C28.8474 50.4357 28.581 50.3335 28.3492 50.1743C27.9353 49.862 27.9858 49.4439 28.4603 49.2475L73.2491 30.529C73.514 30.4345 73.7975 30.404 74.0765 30.4399C74.3555 30.4758 74.622 30.5771 74.8542 30.7355Z" fill="#596570"/>
<path d="M108.144 59.1305L108.028 62.7069C107.993 63.8554 107.205 64.9838 105.666 65.82C102.566 67.5025 97.5892 67.3664 94.5858 65.5076C93.0715 64.5758 92.3294 63.387 92.3647 62.2183L92.4759 58.647C92.4406 59.8156 93.1775 61.0044 94.6969 61.9363C97.7255 63.79 102.677 63.9512 105.777 62.2486C107.316 61.4124 108.104 60.2841 108.144 59.1305Z" fill="#E2E2E2"/>
<path d="M105.918 55.836C108.947 57.6948 108.876 60.561 105.777 62.2434C102.677 63.9259 97.7003 63.7849 94.6969 61.9312C91.6935 60.0775 91.744 57.2112 94.8433 55.5237C97.9426 53.8363 102.899 53.9874 105.918 55.836Z" fill="#F5F5F5"/>
<path d="M124.352 40.6537L124.236 44.2302C124.206 45.3787 123.414 46.507 121.874 47.3432C118.775 49.0256 113.798 48.8846 110.769 47.0309C109.255 46.099 108.513 44.9102 108.548 43.7416L108.659 40.1702C108.624 41.3338 109.361 42.5276 110.88 43.4595C113.909 45.3132 118.86 45.4744 121.96 43.7718C123.499 42.9356 124.287 41.8073 124.327 40.6537H124.352Z" fill="#E2E2E2"/>
<path d="M122.126 37.3644C125.155 39.2232 125.084 42.0894 121.985 43.7718C118.886 45.4543 113.909 45.3133 110.905 43.4595C107.902 41.6058 107.952 38.7396 111.052 37.0521C114.151 35.3646 119.108 35.5107 122.126 37.3644Z" fill="#F5F5F5"/>
<path d="M132.974 57.3471L132.863 60.9185C132.828 62.0721 132.035 63.2004 130.496 64.0366C127.401 65.719 122.419 65.5779 119.421 63.7242C117.906 62.7873 117.159 61.5985 117.2 60.4349L117.311 56.8635C117.27 58.0271 118.012 59.2159 119.532 60.1478C122.56 62.0066 127.512 62.1627 130.607 60.4601C132.146 59.6289 132.939 58.5006 132.974 57.3471Z" fill="#E2E2E2"/>
<path d="M130.778 54.0377C133.807 55.8914 133.731 58.7626 130.632 60.44C127.532 62.1174 122.555 61.9865 119.557 60.1277C116.559 58.269 116.599 55.4078 119.698 53.7254C122.798 52.043 127.75 52.184 130.778 54.0377Z" fill="#F5F5F5"/>
</svg>
