<svg width="147" height="91" viewBox="0 0 147 91" fill="none" xmlns="http://www.w3.org/2000/svg">
<rect width="147" height="91" rx="6" fill="#E7F3FF"/>
<g opacity="0.2">
<path opacity="0.2" d="M87.451 56.2279C93.9185 59.8965 93.9498 65.8478 87.5206 69.5198C81.0914 73.1919 70.6487 73.1919 64.1987 69.5198C57.7486 65.8478 57.6998 59.9 64.1221 56.2279C70.5443 52.5559 80.98 52.5559 87.451 56.2279Z" fill="#191617"/>
</g>
<path d="M89.7382 45.9172C89.7382 47.2279 89.7382 40.1816 89.7382 36.5437C89.7382 35.3733 86.7969 42.7038 85.5925 43.5285C85.3384 43.3608 85.0808 43.1863 84.8058 43.0323C77.4646 38.686 65.0552 38.9256 58.1978 43.6038C55.4131 41.7216 54.0208 39.4047 54.0208 37.1016C54.0208 37.3753 54.0521 59.0517 54.0626 59.3255C54.0643 59.3084 54.0643 59.2913 54.0626 59.2742C54.0626 68.2986 73.3433 73.0726 84.5552 66.4609C91.0018 62.6793 89.78 60.4959 89.7382 45.9172Z" fill="#E2E2E2"/>
<path d="M56.5092 49.4178C56.5092 51.4711 57.9398 53.6545 60.8011 55.3485C66.7012 58.8391 76.4652 58.935 82.6159 55.5675C85.7801 53.8324 87.3708 51.5156 87.3638 49.2021L56.5092 49.4178Z" fill="#91BEE8"/>
<path d="M56.5269 58.2335L56.506 42.2928C56.506 42.4194 56.4294 41.4269 56.6278 41.5398C59.6109 43.2304 83.8171 42.3133 87.124 40.674C87.3746 40.5508 87.3606 42.3544 87.3606 42.2038L87.3815 58.1445C87.3815 60.4579 85.7978 62.7713 82.6336 64.5064C76.4864 67.8773 66.7189 67.7815 60.8223 64.2908C57.9575 62.5797 56.5339 60.4134 56.5269 58.2335Z" fill="#91BEE8"/>
<path d="M86.0138 30.5957C81.2868 27.0229 73.6462 25.9723 67.9341 26.8313C54.2368 28.693 49.4504 38.4668 58.9742 44.1169C65.8072 48.1585 77.1166 48.2715 84.2385 44.3667C90.8348 40.7494 91.2456 35.1781 86.8527 31.2733L86.0138 30.5957ZM78.9302 40.6433C74.8645 42.8712 68.404 42.8062 64.5054 40.4996C60.6068 38.193 60.739 34.5141 64.8047 32.2863C68.8703 30.0584 75.3275 30.1234 79.2296 32.43C83.1316 34.7366 82.9958 38.4018 78.9302 40.6331V40.6433Z" fill="#EFEFEF"/>
<path d="M84.2173 31.578C84.1825 30.8114 84.0816 28.498 80.6251 26.3967C80.6792 26.4351 80.7216 26.4872 80.7479 26.5475C80.7743 26.6078 80.7836 26.6739 80.7747 26.739C83.0686 28.1078 84.2103 29.8429 84.2173 31.5951V31.578Z" fill="#436663"/>
<path d="M84.2174 32.6695C84.2174 31.3999 84.5656 28.9632 80.7749 26.7217V27.8168C83.0688 29.1857 84.2105 30.9208 84.214 32.6695H84.2174Z" fill="#81CBC5"/>
<path d="M80.6254 26.3965C72.3235 21.8312 59.6809 24.9728 59.4894 31.6462C59.472 25.3732 73.0162 22.129 80.7751 26.7216C80.7839 26.6566 80.7747 26.5904 80.7483 26.5302C80.722 26.4699 80.6795 26.4178 80.6254 26.3794V26.3965Z" fill="#436663"/>
<path d="M80.7716 27.8171V26.722C73.0231 22.1362 59.4651 25.353 59.486 31.6465V32.7417C59.486 26.4311 73.0614 23.2484 80.7751 27.8171H80.7716Z" fill="#81CBC5"/>
<path d="M61.6649 36.482C62.7544 36.482 63.635 35.7668 63.635 34.8941C63.635 38.9768 72.3129 41.1157 77.5586 38.241C79.2468 37.317 80.0927 36.0816 80.0892 34.8462C80.0892 35.7189 80.9803 36.4273 82.0663 36.4238C82.0663 37.9536 81.0221 39.4833 78.9335 40.6331C74.8679 42.861 68.4073 42.796 64.5087 40.4894C62.6151 39.3669 61.6719 37.9262 61.6684 36.482H61.6649Z" fill="#EAEAEA"/>
<path d="M63.6351 34.8939C63.7187 36.8138 67.1369 38.3914 70.2767 38.6583C75.8217 39.1375 80.0231 36.9061 80.0893 34.8425C80.0893 36.078 79.2469 37.3134 77.5587 38.2374C72.3165 41.1121 63.6351 38.9732 63.6351 34.8904V34.8939Z" fill="#7FBDCC"/>
<path d="M80.2211 26.3145C84.7149 28.9736 84.5618 33.2137 79.873 35.7838C75.1843 38.3539 67.7421 38.2786 63.2483 35.6161C58.7545 32.9537 58.9041 28.7169 63.5964 26.1503C68.2886 23.5836 75.7238 23.6554 80.2211 26.3145Z" fill="#91BEE8"/>
<path d="M84.134 31.5781C84.134 31.5781 80.8655 37.2042 71.7595 37.2042C62.6535 37.2042 59.4024 31.1366 59.4024 31.1366V24.364L84.242 25.0176L84.134 31.5781Z" fill="#9FC9F0"/>
<path d="M72.0031 24.1562C74.2865 24.1801 77.6282 24.5702 80.5974 26.2984C80.5376 26.2702 80.4712 26.2582 80.4051 26.2636C80.339 26.269 80.2756 26.2917 80.2214 26.3293C75.7311 23.6736 68.3029 23.5915 63.628 26.165C58.9532 28.7385 58.7965 32.9581 63.2799 35.6138C67.7633 38.2694 75.195 38.3515 79.8733 35.7814C84.5516 33.2114 84.7048 28.9849 80.2214 26.3293C80.2756 26.2917 80.339 26.269 80.4051 26.2636C80.4712 26.2582 80.5376 26.2702 80.5974 26.2984C80.7679 26.4079 81.0046 26.5414 81.1682 26.6612C85.8082 30.0287 84.8579 34.1901 80.3815 36.6609C75.4143 39.3987 67.5266 39.3063 62.7578 36.4864C55.1381 31.9656 60.8607 24.0466 72.0031 24.1562Z" fill="#6D6E71"/>
<path d="M63.2778 26.1228C68.3355 23.4159 75.7812 23.4945 80.5987 26.2973C80.539 26.2691 80.4726 26.2571 80.4065 26.2625C80.3404 26.2679 80.277 26.2906 80.2228 26.3282C75.7324 23.6725 68.3042 23.5904 63.6294 26.1639C58.9545 28.7374 58.7979 32.957 63.2813 35.6127C67.7647 38.2683 75.1964 38.3505 79.8747 35.7804C84.553 33.2103 84.7062 28.9838 80.2228 26.3282C80.277 26.2906 80.3404 26.2679 80.4065 26.2625C80.4726 26.2571 80.539 26.2691 80.5987 26.2973C85.7853 29.5827 85.1413 34.0521 80.3829 36.6599C75.4156 39.3976 67.528 39.3052 62.7592 36.4853C57.5726 33.4053 58.5821 28.6142 63.2778 26.1228Z" fill="#9FC9F0"/>
<path d="M59.2837 32.6833V31.5814C59.3046 37.7688 72.438 41.0062 80.3814 36.6531C82.9398 35.25 84.2103 33.378 84.2103 31.5198C84.2103 32.7894 84.6002 35.4485 80.3814 37.7653C75.4107 40.5031 67.5195 40.4107 62.7542 37.5908C60.4394 36.2219 59.2733 34.4561 59.2733 32.6936L59.2837 32.6833Z" fill="#E6E7E8"/>
<path d="M79.6784 18.7412C74.7808 16.2429 68.1497 16.5749 63.91 18.8336C53.6204 24.1312 62.3714 34.5553 75.8216 31.9578C85.5681 30.0756 86.9361 22.314 79.6784 18.7412Z" fill="#91BEE8"/>
<path d="M79.1111 19.203C82.9644 21.4857 82.8321 25.1167 78.8151 27.3172C74.7982 29.5176 68.4212 29.456 64.5679 27.1768C60.7146 24.8976 60.8469 21.2632 64.8638 19.0627C68.8808 16.8622 75.2577 16.9238 79.1111 19.203Z" fill="#9FC9F0"/>
<path d="M82.947 67.8983C82.947 67.8983 82.9257 67.87 82.947 67.8983V67.8983Z" fill="#14A797"/>
<path d="M71.9366 63.0656C69.6963 63.1272 67.4588 62.8666 65.295 62.2922C63.069 61.7545 61.0125 60.6848 59.3079 59.178V47.2002C61.362 48.235 63.5327 49.0287 65.7754 49.565C67.8021 49.9949 69.8643 50.2446 71.9366 50.311V63.0656Z" fill="#E6E7E8"/>
</svg>
