<svg width="147" height="91" viewBox="0 0 147 91" fill="none" xmlns="http://www.w3.org/2000/svg">
<rect width="147" height="91" rx="6" fill="#FCF9F0"/>
<g clip-path="url(#clip0)">
<path d="M82.4547 10L109.495 22.9063L74.7029 33.2361L47.2762 19.2624L82.4547 10Z" fill="#F0F4FA"/>
<path d="M109.335 53.739L74.6398 66.063V33.1132L109.495 22.9062L109.335 53.739Z" fill="#E6EAEF"/>
<path d="M47.2762 19.2625L47.3506 49.4175L74.6398 66.0631V33.1132L47.2762 19.2625Z" fill="white"/>
<path d="M57.4185 24.3927L92.9479 15.0073L96.6985 16.7929L61.4068 26.4257L57.4185 24.3927Z" fill="#FBDC9F"/>
<path d="M62.5858 15.2449L89.7165 28.6979L94.3631 27.3636L66.8281 14.1257L62.5858 15.2449Z" fill="#FBDC9F"/>
<path d="M89.7165 28.6978L94.3631 27.3635V37.9667L89.8831 39.9221L89.7165 28.6978Z" fill="#F3D496"/>
<path d="M57.4185 24.3926L61.4068 26.4256V37.8956L57.4023 35.4179L57.4185 24.3926Z" fill="#FFECC7"/>
<path d="M89.296 54.0463L89.2863 53.8474L89.2054 53.8733V54.0722C88.0733 54.4798 87.9763 55.9143 87.9763 55.9143C87.9763 55.9143 88.5585 55.5537 88.7849 55.8691C88.9248 55.727 89.0892 55.6114 89.2701 55.5278L89.3364 57.0772C89.3423 57.1796 89.3423 57.2822 89.3364 57.3845C89.3219 57.488 89.2378 57.4783 89.2249 57.3942C89.2119 57.3101 89.1666 57.3376 89.1585 57.3942C89.1505 57.4508 89.2054 57.5915 89.3203 57.5381C89.3524 57.5231 89.3794 57.499 89.3981 57.4689C89.4167 57.4387 89.4262 57.4038 89.4254 57.3683L89.4125 57.0449L89.3445 55.4906C89.5194 55.4226 89.714 55.4261 89.8863 55.5003C89.8863 55.5003 90.3586 54.9391 90.6643 55.0927C90.6772 55.0976 90.5155 53.6792 89.296 54.0463Z" fill="#5B534D"/>
<path d="M91.2821 54.0268C91.2497 53.2748 90.7112 52.8332 90.0804 53.0386L88.3935 53.5934C87.7628 53.8004 87.276 54.5799 87.3083 55.332L87.394 57.344C87.4264 58.0944 87.9666 58.5375 88.5973 58.3305L90.2842 57.7774C90.9149 57.5704 91.4018 56.7908 91.3694 56.0388L91.2821 54.0268ZM90.2696 57.4232L88.5812 57.9763C88.117 58.1381 87.7191 57.8033 87.6949 57.2485L87.6075 55.2366C87.5849 54.6818 87.9439 54.1044 88.4162 53.954L90.1047 53.4009C90.5688 53.2392 90.9667 53.574 90.991 54.1287L91.0767 56.1407C91.0929 56.6922 90.7338 57.2663 90.2696 57.42V57.4232Z" fill="#5B534D"/>
<path d="M83.43 58.6686L83.6386 58.6007L83.5691 56.9947L83.9443 56.8717L83.4219 56.0388L82.9868 57.1855L83.3604 57.0626L83.43 58.6686Z" fill="#5B534D"/>
<path d="M83.0677 59.0244L83.079 59.2718L85.4436 58.4955L85.4338 58.248L83.0677 59.0244Z" fill="#5B534D"/>
<path d="M84.4101 56.7182L84.7853 56.5953L84.8548 58.2013L85.0635 58.1334L84.9939 56.5274L85.3691 56.4045L84.8467 55.5715L84.4101 56.7182Z" fill="#5B534D"/>
<path d="M84.9438 54.698L83.2553 55.2528C82.6245 55.4598 82.1377 56.2393 82.1701 56.9898L82.2574 59.0017C82.2897 59.7538 82.8283 60.1969 83.4591 59.9899L85.1476 59.4352C85.7767 59.2298 86.2635 58.4486 86.2312 57.6982L86.1455 55.6862C86.1131 54.9342 85.5729 54.4878 84.9438 54.698ZM85.1314 59.0778L83.4429 59.6325C82.9787 59.7845 82.5809 59.4578 82.5566 58.9047L82.4709 56.8927C82.4466 56.338 82.8057 55.7606 83.2698 55.6102L84.9583 55.0555C85.4241 54.9034 85.8204 55.2301 85.8446 55.7849L85.932 57.7968C85.9546 58.3499 85.5972 58.9257 85.1314 59.0778Z" fill="#5B534D"/>
<path d="M78.9629 57.4297L78.8998 57.4507L79.0616 57.902L79.1974 57.7677L79.3802 58.4874L79.1408 57.9537L79.0292 58.0653L78.7996 57.4831L78.4987 57.5801C78.4987 57.5801 78.1672 58.5748 78.2901 59.1004C78.3968 59.5549 78.8804 59.4077 79.0098 59.3592L79.0583 60.5819C78.8767 60.6624 78.7069 60.7674 78.5537 60.894C78.5327 60.9102 78.5392 60.9458 78.5537 60.9377L79.6422 60.5867C79.6632 60.5867 79.6681 60.5414 79.6422 60.5382C79.4687 60.5085 79.2909 60.5146 79.1198 60.556L79.0713 59.3349C79.2392 59.2947 79.3918 59.2064 79.5104 59.0809C79.629 58.9554 79.7085 58.7981 79.7392 58.6281C79.8185 58.0362 79.4158 57.2793 79.4158 57.2793L78.9629 57.4297Z" fill="#5B534D"/>
<path d="M79.7732 56.3721L78.0847 56.9171C77.4539 57.1209 76.9655 57.8988 76.9946 58.6509L77.0739 60.6661C77.103 61.4181 77.6399 61.8645 78.2707 61.6607L79.9592 61.1157C80.5899 60.9119 81.0784 60.134 81.0492 59.3819L80.97 57.3667C80.9409 56.6147 80.4039 56.1683 79.7732 56.3721ZM80.7436 59.479C80.7646 60.0337 80.4039 60.6111 79.9349 60.7583L78.248 61.3033C77.7823 61.4521 77.386 61.1238 77.365 60.569L77.2857 58.5538C77.2631 57.9991 77.6237 57.4217 78.0944 57.2762L79.7829 56.7295C80.2471 56.5807 80.6433 56.909 80.6659 57.4638L80.7436 59.479Z" fill="#5B534D"/>
<path d="M108.102 45.2788C105.27 43.6437 100.69 43.6437 97.8743 45.2788C96.4721 46.0875 95.7718 47.1614 95.7718 48.2288V48.2402L95.7249 64.9795C95.7249 66.0582 96.4333 67.1402 97.8598 67.9634C100.693 69.5986 105.27 69.6002 108.084 67.9634C109.483 67.1548 110.187 66.0874 110.187 65.0215L110.234 48.2596C110.237 48.342 109.623 46.157 108.102 45.2788Z" fill="#F2F6F9"/>
<path d="M111.056 47.9264L111.004 49.1733C111.004 50.3443 110.231 51.5136 108.694 52.408C105.599 54.2065 100.567 54.2049 97.4538 52.408C95.885 51.5039 95.1038 50.3152 95.1054 49.1297L95.1588 47.8811C95.1588 49.0682 95.9384 50.257 97.5056 51.161C100.619 52.9595 105.652 52.9611 108.746 51.161C110.282 50.2667 111.052 49.0973 111.056 47.9264Z" fill="#EEEEEE"/>
<path d="M108.714 44.648C111.829 46.4465 111.845 49.3625 108.751 51.161C105.657 52.9594 100.624 52.9562 97.5104 51.161C94.397 49.3658 94.3776 46.4497 97.4716 44.6512C100.566 42.8528 105.6 42.8431 108.714 44.648Z" fill="#E8E6E6"/>
<path d="M108.306 39.8638C111.138 41.5006 111.154 44.153 108.338 45.7897C105.523 47.4264 100.946 47.4232 98.1121 45.7897C95.2785 44.1562 95.2623 41.5022 98.0765 39.8654C100.891 38.2287 105.476 38.2287 108.306 39.8638Z" fill="#E0E0E0"/>
<path d="M110.444 42.8431L110.396 47.2681C110.396 48.3323 109.692 49.3965 108.293 50.2084C105.477 51.8451 100.9 51.8435 98.0667 50.2084C96.6403 49.3852 95.9286 48.3048 95.9319 47.226L95.9788 42.801C95.9788 43.8798 96.6872 44.9618 98.1137 45.785C100.947 47.4201 105.526 47.4217 108.34 45.785C109.741 44.9763 110.441 43.9137 110.444 42.8431Z" fill="#EEEEEE"/>
<path d="M110.444 42.8431L110.396 47.2681C110.396 48.3323 109.692 49.3965 108.293 50.2084C105.477 51.8451 100.9 51.8435 98.0667 50.2084C96.6403 49.3852 95.9286 48.3048 95.9319 47.226L95.9788 42.801C95.9788 43.8798 96.6872 44.9618 98.1137 45.785C100.947 47.4201 105.526 47.4217 108.34 45.785C109.739 44.9763 110.443 43.9089 110.443 42.8431H110.444Z" fill="#EEEEEE"/>
<path d="M102.634 51.4246C102.98 51.4397 103.326 51.4397 103.671 51.4246V47.0012C103.326 47.0142 102.979 47.0142 102.634 47.0012V51.4246Z" fill="#E8E6E6"/>
<path d="M108.306 39.8638C111.138 41.5006 111.154 44.153 108.338 45.7897C105.523 47.4264 100.946 47.4232 98.1121 45.7897C95.2785 44.1562 95.2623 41.5022 98.0765 39.8654C100.891 38.2287 105.476 38.2287 108.306 39.8638Z" fill="#E8E6E6"/>
<path d="M109.687 44.6982C109.639 44.7548 109.59 44.8082 109.538 44.8599C109.487 44.9117 109.445 44.9537 109.396 44.999C109.255 45.1333 109.107 45.2597 108.951 45.3775L108.906 45.413V49.7976C109.313 49.4996 109.664 49.1316 109.943 48.7108V44.3699C109.909 44.42 109.87 44.4685 109.831 44.517C109.792 44.5656 109.737 44.6416 109.687 44.6982Z" fill="#E8E6E6"/>
<path d="M107.41 46.2395C107.239 46.3106 107.064 46.3753 106.886 46.4352V50.8424C107.241 50.7198 107.588 50.574 107.924 50.4057V46.0066C107.763 46.0842 107.601 46.157 107.439 46.2265L107.41 46.2395Z" fill="#E8E6E6"/>
<path d="M104.793 46.9139V51.3324C105.144 51.2855 105.492 51.2257 105.83 51.1497V46.7344H105.804C105.481 46.8055 105.157 46.8621 104.818 46.9058L104.793 46.9139Z" fill="#E8E6E6"/>
<path d="M100.475 51.1334C100.813 51.2127 101.161 51.2725 101.512 51.321V46.8863C101.35 46.8621 101.179 46.8362 101.012 46.8054C100.955 46.7957 100.9 46.7828 100.85 46.7715C100.727 46.7472 100.603 46.723 100.481 46.6938L100.475 51.1334Z" fill="#E8E6E6"/>
<path d="M98.9256 46.1828C98.7525 46.1084 98.5875 46.0292 98.4258 45.9451V50.3943C98.761 50.5643 99.1074 50.7113 99.4625 50.8343V46.4012C99.2846 46.3381 99.1116 46.2685 98.9434 46.1958L98.9256 46.1828Z" fill="#E8E6E6"/>
<path d="M96.4317 48.761C96.7143 49.1688 97.065 49.5249 97.4684 49.8138V45.3516C97.1587 45.1188 96.8804 44.847 96.6403 44.543L96.6306 44.5317C96.5573 44.4379 96.491 44.344 96.4317 44.2502V48.761Z" fill="#E8E6E6"/>
<path d="M105.613 62.3821C104.631 61.816 103.834 62.2705 103.834 63.401C103.834 64.5315 104.525 65.9741 105.508 66.5418C106.491 67.1095 107.391 66.5839 107.394 65.455C107.397 64.3261 106.597 62.9498 105.613 62.3821Z" fill="#CACBCC"/>
<path d="M105.574 62.8025L105.563 66.828C106.394 67.1353 107.028 66.6663 107.032 65.6603C107.035 64.6543 106.406 63.4543 105.574 62.8025Z" fill="#EDEEEF"/>
<path d="M103.993 62.4645C104.138 62.3891 104.299 62.3475 104.463 62.3427C104.627 62.3379 104.79 62.3702 104.94 62.4371L105.183 62.2899C105.295 62.3307 105.403 62.381 105.506 62.4403C105.615 62.5053 105.72 62.5771 105.82 62.6554L105.579 62.8026C106.411 63.4495 107.035 64.6544 107.035 65.6604C107.035 66.22 106.836 66.6146 106.516 66.8006L107.051 66.4917C107.374 66.3057 107.569 65.9111 107.572 65.3499C107.572 64.2177 106.779 62.8462 105.793 62.2769C105.308 61.9907 104.851 61.9648 104.528 62.1524L103.993 62.4645Z" fill="#E2E2E2"/>
<path d="M104.931 66.4609L105.183 66.3072L105.178 62.2898L104.94 62.437L104.931 66.4609Z" fill="#D6D6D6"/>
<path d="M104.94 62.4369C104.109 62.1296 103.485 62.5987 103.473 63.6046C103.462 64.6106 104.099 65.809 104.929 66.4608L104.94 62.4369Z" fill="#EDEEEF"/>
<path d="M100.802 61.8937C101.893 61.2613 102.781 61.7675 102.785 63.0258C102.788 64.2841 102.018 65.8869 100.926 66.516C99.8345 67.1451 98.8334 66.5645 98.8237 65.3095C98.814 64.0544 99.7084 62.5228 100.802 61.8937Z" fill="#CACBCC"/>
<path d="M100.845 62.3594L100.857 66.8297C99.9315 67.1725 99.228 66.6501 99.2248 65.5358C99.2215 64.4215 99.9202 63.0839 100.845 62.3594Z" fill="#EDEEEF"/>
<path d="M102.008 61.6397C101.648 61.4294 101.149 61.4585 100.601 61.7771C99.5094 62.4063 98.6264 63.9347 98.6296 65.1897C98.6296 65.814 98.8528 66.2507 99.207 66.4577L99.8022 66.8006C99.4464 66.5935 99.2264 66.1536 99.2248 65.5326C99.2248 64.4166 99.9202 63.0839 100.842 62.3594L100.574 62.1977C100.684 62.1098 100.801 62.0298 100.923 61.9583C101.036 61.8939 101.155 61.8398 101.277 61.7965L101.546 61.9583C101.712 61.8844 101.893 61.8486 102.075 61.8537C102.258 61.8587 102.436 61.9044 102.599 61.9874L102.008 61.6397Z" fill="#E2E2E2"/>
<path d="M101.56 66.4236L101.28 66.2522L101.285 61.7883L101.549 61.9533L101.56 66.4236Z" fill="#D6D6D6"/>
<path d="M101.549 61.9535C102.472 61.6106 103.176 62.133 103.179 63.2474C103.182 64.3617 102.484 65.696 101.562 66.4206L101.549 61.9535Z" fill="#EDEEEF"/>
<path d="M101.711 65.2496C100.727 65.8173 100.722 66.7391 101.699 67.3052C102.676 67.8713 104.263 67.8729 105.246 67.3052C106.229 66.7375 106.234 65.8173 105.257 65.2496C104.281 64.6819 102.692 64.6771 101.711 65.2496Z" fill="#CACBCC"/>
<path d="M102.062 64.8193L102.063 65.0878L105.542 67.1095L105.54 66.841L102.062 64.8193Z" fill="#D6D6D6"/>
<path d="M105.995 66.2748C105.995 66.0419 105.995 66.2376 105.995 66.0063C105.987 66.1707 105.942 66.3311 105.863 66.4758C105.785 66.6205 105.675 66.7458 105.542 66.8425V67.1029C105.674 67.0072 105.784 66.8832 105.862 66.74C105.94 66.5967 105.986 66.4378 105.995 66.2748Z" fill="#E2E2E2"/>
<path d="M102.062 64.8211L105.54 66.8427C106.223 66.2751 106.132 65.4923 105.264 64.9861C104.395 64.4798 103.042 64.4265 102.062 64.8211Z" fill="#EDEEEF"/>
<path d="M101.691 67.0464C102.56 67.5526 103.913 67.6076 104.894 67.2081V67.4685C105.014 67.423 105.131 67.369 105.244 67.3068C105.349 67.2474 105.448 67.1786 105.54 67.1014V66.8442C105.674 66.7475 105.783 66.6222 105.862 66.4775C105.94 66.3328 105.985 66.1724 105.993 66.008V66.2765C105.993 66.3137 105.993 66.5498 105.993 66.5498C105.993 66.9234 105.746 67.2987 105.253 67.5849C104.269 68.151 102.681 68.151 101.706 67.5849C101.566 67.5047 101.437 67.4081 101.321 67.297C101.041 67.0221 100.976 66.8668 100.976 66.5644C100.976 66.5046 100.976 66.1423 100.976 65.9175C100.993 66.1502 101.066 66.3751 101.191 66.5722C101.316 66.7692 101.488 66.9322 101.691 67.0464Z" fill="#E2E2E2"/>
<path d="M101.415 65.1912C100.732 65.7572 100.823 66.5416 101.691 67.0462C102.56 67.5508 103.913 67.6074 104.894 67.208L101.415 65.1912Z" fill="#EDEEEF"/>
<path d="M108.739 53.9411C108.739 53.8634 108.718 53.7873 108.679 53.7202C108.64 53.6531 108.584 53.5975 108.517 53.5588C108.45 53.5202 108.373 53.4999 108.296 53.5C108.218 53.5001 108.142 53.5206 108.075 53.5594C105.298 55.1314 100.866 55.1411 98.0474 53.5933C97.9782 53.556 97.9005 53.5373 97.8219 53.5391C97.7433 53.5409 97.6665 53.5631 97.5991 53.6036C97.5317 53.6441 97.476 53.7014 97.4375 53.7699C97.399 53.8384 97.379 53.9158 97.3794 53.9944V57.7854C97.3709 58.0353 97.4302 58.2829 97.5509 58.5018C97.6716 58.7208 97.8493 58.903 98.0652 59.0292C100.91 60.5511 105.343 60.5155 108.093 58.9176C108.301 58.7817 108.471 58.5936 108.584 58.3721C108.698 58.1505 108.751 57.9031 108.739 57.6544V53.9411Z" fill="#76B5FF"/>
<path opacity="0.2" d="M77.3973 84.9161L79.6422 85.2073L99.7359 76.7761L97.3374 75.0229L77.3973 84.9161Z" fill="#F5F5F5"/>
<path d="M67.3974 76.582L76.2927 83.425C77.0868 84.0347 78.4809 84.2158 79.4093 83.8293L97.5848 76.2553C98.0522 76.0613 98.311 75.7604 98.353 75.4321L98.2333 76.3766C98.2101 76.5135 98.1571 76.6435 98.078 76.7576C97.9989 76.8716 97.8957 76.9668 97.7757 77.0365C97.6778 77.1007 97.5738 77.1549 97.4651 77.1983L79.2896 84.7722C78.3612 85.1587 76.9671 84.9776 76.173 84.3679L67.2777 77.5249C66.8847 77.2225 66.7133 76.878 66.7537 76.5545C66.7941 76.2311 66.8329 75.9238 66.8734 75.6084C66.8329 75.9286 67.0044 76.2796 67.3974 76.582Z" fill="#6A7279"/>
<path d="M67.6416 74.7788C66.7133 75.1654 66.6049 75.974 67.3974 76.5821L76.2927 83.4251C77.0868 84.0348 78.4809 84.2159 79.4093 83.8294L97.5848 76.2554C98.5132 75.8689 98.6215 75.0619 97.829 74.4521L88.9337 67.6092C88.1396 67.0011 86.7455 66.82 85.8171 67.2065L67.6416 74.7788Z" fill="#949A9F"/>
<path d="M69.9431 75.0021C68.9468 75.4177 68.8287 76.2846 69.681 76.9429C70.5334 77.6011 72.0326 77.792 73.0289 77.3763C74.0252 76.9607 74.1433 76.0938 73.2909 75.4355C72.4386 74.7773 70.9458 74.5864 69.9431 75.0021Z" fill="#CACBCC"/>
<path d="M70.3264 74.6382L70.2957 74.8921L73.3314 77.2243L73.3621 76.972L70.3264 74.6382Z" fill="#D6D6D6"/>
<path d="M73.857 76.4916C73.8845 76.2732 73.857 76.4576 73.8877 76.2393C73.8605 76.3933 73.7988 76.5393 73.7072 76.6661C73.6156 76.793 73.4965 76.8975 73.3589 76.9719L73.3281 77.2258C73.4657 77.1509 73.5846 77.046 73.6762 76.9189C73.7677 76.7918 73.8295 76.6458 73.857 76.4916Z" fill="#E2E2E2"/>
<path d="M70.3264 74.6381L73.3621 76.972C74.077 76.5207 74.0867 75.7703 73.3281 75.1929C72.5696 74.6155 71.3 74.381 70.3264 74.6381Z" fill="#EDEEEF"/>
<path d="M69.7053 76.6953C70.4638 77.2775 71.7335 77.5039 72.7071 77.2435L72.6764 77.4894C72.7965 77.4589 72.9143 77.4199 73.0289 77.3729C73.1346 77.3276 73.2364 77.2735 73.333 77.2112L73.3621 76.967C73.4998 76.8926 73.6188 76.7881 73.7104 76.6612C73.802 76.5343 73.8637 76.3884 73.891 76.2343L73.8603 76.4866C73.8603 76.5222 73.8214 76.7438 73.8214 76.7438C73.7762 77.098 73.498 77.4214 72.9966 77.6301C71.9987 78.0457 70.4994 77.8517 69.6471 77.1966C69.5267 77.1022 69.4181 76.9936 69.3236 76.8732C69.094 76.5788 69.0519 76.4252 69.0875 76.1389C69.0875 76.0823 69.136 75.741 69.1635 75.5227C69.1473 75.748 69.1885 75.9738 69.2833 76.1788C69.3781 76.3839 69.5232 76.5616 69.7053 76.6953Z" fill="#E2E2E2"/>
<path d="M69.6713 74.9099C68.9581 75.3611 68.9468 76.1116 69.7053 76.689C70.4638 77.2664 71.7334 77.4976 72.7071 77.2373L69.6713 74.9099Z" fill="#EDEEEF"/>
<path d="M75.1411 72.8524C74.1449 73.2665 74.0268 74.135 74.8791 74.7932C75.7315 75.4515 77.2307 75.6423 78.227 75.2267C79.2233 74.811 79.3413 73.9441 78.489 73.2859C77.6367 72.6276 76.139 72.44 75.1411 72.8524Z" fill="#CACBCC"/>
<path d="M75.5245 72.4888L75.4937 72.7411L78.5311 75.0749L78.5618 74.821L75.5245 72.4888Z" fill="#D6D6D6"/>
<path d="M79.06 74.3423C79.0875 74.124 79.0599 74.3067 79.0907 74.0884C79.0629 74.2425 79.0009 74.3884 78.9094 74.5154C78.8179 74.6425 78.6992 74.7475 78.5618 74.8226L78.5311 75.075C78.6683 75 78.787 74.8953 78.8785 74.7686C78.9701 74.6418 79.032 74.4961 79.06 74.3423Z" fill="#E2E2E2"/>
<path d="M75.5261 72.4886L78.5618 74.8224C79.275 74.3711 79.2864 73.6207 78.5262 73.0433C77.7661 72.4659 76.4997 72.2363 75.5261 72.4886Z" fill="#EDEEEF"/>
<path d="M74.9034 74.5426C75.6635 75.1265 76.9331 75.3513 77.9052 75.0909L77.876 75.3367C77.9957 75.3072 78.113 75.2688 78.227 75.2219C78.3332 75.1776 78.435 75.1234 78.5311 75.0602L78.5618 74.8176C78.6991 74.7424 78.8179 74.6374 78.9094 74.5104C79.0009 74.3833 79.0628 74.2374 79.0906 74.0833L79.0599 74.3372C79.0599 74.3712 79.0195 74.5944 79.0195 74.5944C78.9742 74.9469 78.696 75.272 78.1946 75.4807C77.1984 75.8947 75.6975 75.7006 74.8468 75.0472C74.7257 74.9536 74.617 74.8449 74.5233 74.7238C74.2921 74.4294 74.25 74.2757 74.2872 73.9895C74.2872 73.9329 74.3341 73.5916 74.3632 73.3733C74.3471 73.598 74.3882 73.8231 74.4827 74.0275C74.5771 74.232 74.7219 74.4092 74.9034 74.5426Z" fill="#E2E2E2"/>
<path d="M74.8695 72.7637C74.1562 73.2149 74.1465 73.9653 74.9034 74.5427C75.6603 75.1201 76.9332 75.3514 77.9052 75.091L74.8695 72.7637Z" fill="#EDEEEF"/>
<path d="M80.3392 70.7015C79.343 71.1172 79.2265 71.9841 80.0772 72.6423C80.9279 73.3006 82.4288 73.4914 83.4267 73.0758C84.4246 72.6601 84.5394 71.7932 83.6887 71.135C82.838 70.4767 81.3371 70.2859 80.3392 70.7015Z" fill="#CACBCC"/>
<path d="M80.7242 70.3376L80.6934 70.5916L83.7292 72.9237L83.7599 72.6714L80.7242 70.3376Z" fill="#D6D6D6"/>
<path d="M84.258 72.191C84.2855 71.9727 84.258 72.1571 84.2888 71.9387C84.2608 72.0926 84.1989 72.2382 84.1073 72.365C84.0158 72.4917 83.8971 72.5964 83.7599 72.6714L83.7227 72.9253C83.8612 72.8508 83.9813 72.7462 84.0739 72.6191C84.1666 72.492 84.2295 72.3457 84.258 72.191Z" fill="#E2E2E2"/>
<path d="M80.7242 70.3377L83.7599 72.6715C84.4748 72.2203 84.4845 71.4699 83.7259 70.8925C82.9674 70.3151 81.6978 70.087 80.7242 70.3377Z" fill="#EDEEEF"/>
<path d="M80.1031 72.395C80.8616 72.9772 82.1312 73.2036 83.1049 72.9432L83.0741 73.1891C83.1942 73.1586 83.3121 73.1197 83.4267 73.0726C83.5323 73.027 83.6339 72.9729 83.7308 72.9109L83.7599 72.6667C83.8971 72.5918 84.0158 72.4871 84.1073 72.3603C84.1988 72.2335 84.2608 72.0879 84.2887 71.934L84.258 72.1864C84.258 72.2219 84.2176 72.4435 84.2176 72.4435C84.1739 72.7977 83.8941 73.1212 83.3927 73.3298C82.3965 73.7454 80.8972 73.5514 80.0449 72.8963C79.9241 72.8023 79.8155 72.6936 79.7214 72.5729C79.4901 72.2785 79.4481 72.1249 79.4853 71.8386C79.4853 71.782 79.5338 71.4391 79.5613 71.2224C79.5451 71.4477 79.5863 71.6735 79.6811 71.8785C79.7758 72.0836 79.921 72.2613 80.1031 72.395Z" fill="#E2E2E2"/>
<path d="M80.0676 70.6094C79.3543 71.0606 79.3446 71.811 80.1031 72.3884C80.8617 72.9658 82.1313 73.1971 83.1049 72.9367L80.0676 70.6094Z" fill="#EDEEEF"/>
<path d="M85.5389 68.5584C84.5427 68.9724 84.4246 69.8409 85.2769 70.4992C86.1293 71.1574 87.6285 71.3483 88.6248 70.9326C89.6211 70.517 89.7392 69.6501 88.8868 68.9919C88.0345 68.3336 86.5352 68.1363 85.5389 68.5584Z" fill="#CACBCC"/>
<path d="M85.9223 68.1882L85.8915 68.4405L88.9272 70.7743L88.958 70.5204L85.9223 68.1882Z" fill="#D6D6D6"/>
<path d="M89.4561 70.0415C89.4836 69.8232 89.4561 70.0059 89.4869 69.7876C89.4594 69.9418 89.3976 70.0879 89.306 70.215C89.2145 70.3421 89.0955 70.447 88.958 70.5219L88.9273 70.7742C89.0645 70.6992 89.1832 70.5945 89.2747 70.4678C89.3662 70.341 89.4282 70.1954 89.4561 70.0415Z" fill="#E2E2E2"/>
<path d="M85.9222 68.1883L88.958 70.5221C89.6728 70.0708 89.6825 69.3204 88.924 68.743C88.1655 68.1656 86.8959 67.936 85.9222 68.1883Z" fill="#EDEEEF"/>
<path d="M85.3012 70.2438C86.0597 70.8277 87.3293 71.0444 88.303 70.7921L88.2722 71.0379C88.3925 71.0087 88.5104 70.9703 88.6248 70.9231C88.7308 70.8784 88.8326 70.8243 88.9289 70.7613L88.958 70.5187C89.0955 70.4438 89.2145 70.3389 89.306 70.2118C89.3976 70.0847 89.4594 69.9387 89.4868 69.7845L89.4561 70.0384C89.4561 70.0724 89.4173 70.2956 89.4173 70.2956C89.372 70.6481 89.0938 70.9732 88.5908 71.1818C87.5946 71.5959 86.0953 71.4018 85.243 70.7484C85.1219 70.6547 85.0132 70.5461 84.9195 70.4249C84.6882 70.1306 84.6478 69.9769 84.6834 69.6907C84.6834 69.6341 84.7319 69.2928 84.7594 69.0745C84.7436 69.2993 84.785 69.5244 84.8797 69.7289C84.9745 69.9334 85.1195 70.1105 85.3012 70.2438Z" fill="#E2E2E2"/>
<path d="M85.2673 68.46C84.5524 68.9112 84.5427 69.6616 85.3012 70.239C86.0597 70.8164 87.3293 71.0396 88.303 70.7873L85.2673 68.46Z" fill="#EDEEEF"/>
<path d="M75.8884 79.5225C74.8921 79.9381 74.774 80.8066 75.6264 81.4633C76.4787 82.1199 77.978 82.3123 78.9742 81.8983C79.9705 81.4843 80.0886 80.6141 79.2362 79.9575C78.3839 79.3009 76.8847 79.1084 75.8884 79.5225Z" fill="#CACBCC"/>
<path d="M76.2717 79.1584L76.2409 79.4124L79.2767 81.7462L79.3074 81.4922L76.2717 79.1584Z" fill="#D6D6D6"/>
<path d="M79.8055 81.0121C79.833 80.7954 79.8055 80.9781 79.8363 80.7598C79.8092 80.9139 79.7476 81.06 79.656 81.1869C79.5644 81.3138 79.4452 81.4182 79.3074 81.4924L79.2767 81.7464C79.4144 81.6716 79.5334 81.5668 79.625 81.4396C79.7166 81.3125 79.7783 81.1664 79.8055 81.0121Z" fill="#E2E2E2"/>
<path d="M76.2717 79.1601L79.3074 81.4972C80.0222 81.0459 80.0319 80.2955 79.2734 79.7181C78.5149 79.1407 77.2534 78.9095 76.2717 79.1601Z" fill="#EDEEEF"/>
<path d="M75.6506 81.2156C76.4091 81.7979 77.6788 82.0243 78.6524 81.7639L78.6216 82.0097C78.7417 81.9798 78.8595 81.9414 78.9742 81.8949C79.0802 81.8502 79.182 81.7961 79.2783 81.7332L79.3074 81.4889C79.4452 81.4147 79.5644 81.3103 79.656 81.1834C79.7476 81.0565 79.8092 80.9105 79.8363 80.7563L79.8055 81.0086C79.8055 81.0442 79.7667 81.2674 79.7667 81.2674C79.7214 81.6199 79.4433 81.9434 78.9403 82.1537C77.944 82.5677 76.4447 82.3736 75.5924 81.7186C75.472 81.6241 75.3634 81.5155 75.2689 81.3951C75.0376 81.1008 74.9972 80.9471 75.0328 80.6609C75.0328 80.6043 75.0813 80.263 75.1088 80.0447C75.0929 80.2697 75.1342 80.4951 75.229 80.6999C75.3237 80.9047 75.4688 81.0821 75.6506 81.2156Z" fill="#E2E2E2"/>
<path d="M75.6166 79.4302C74.9018 79.8814 74.8921 80.6335 75.6506 81.2092C76.4091 81.785 77.6787 82.0179 78.6524 81.7575L75.6166 79.4302Z" fill="#EDEEEF"/>
<path d="M81.0864 77.3729C80.0902 77.7886 79.9721 78.6555 80.8244 79.3137C81.6768 79.972 83.176 80.1628 84.1723 79.7472C85.1686 79.3315 85.2867 78.4646 84.4343 77.8064C83.582 77.1481 82.0827 76.9573 81.0864 77.3729Z" fill="#CACBCC"/>
<path d="M81.4698 77.009L81.439 77.2613L84.4764 79.5952L84.5071 79.3428L81.4698 77.009Z" fill="#D6D6D6"/>
<path d="M85.0036 78.8626C85.0327 78.6443 85.0036 78.8271 85.036 78.6104C85.008 78.7642 84.9461 78.9098 84.8545 79.0366C84.763 79.1634 84.6443 79.2681 84.5071 79.343L84.4764 79.5953C84.6138 79.5208 84.7326 79.4162 84.8239 79.2894C84.9152 79.1625 84.9767 79.0166 85.0036 78.8626Z" fill="#E2E2E2"/>
<path d="M81.4698 77.0091L84.5071 79.3429C85.2203 78.8917 85.23 78.1413 84.4715 77.5639C83.713 76.9865 82.4434 76.7584 81.4698 77.0091Z" fill="#EDEEEF"/>
<path d="M80.8487 79.0713C81.6089 79.6552 82.8785 79.88 83.8505 79.6212L83.8214 79.8655C83.941 79.836 84.0584 79.7976 84.1723 79.7506C84.2782 79.7057 84.3799 79.6515 84.4764 79.5889L84.5071 79.3447C84.6443 79.2697 84.7631 79.165 84.8546 79.0383C84.9461 78.9115 85.0081 78.7659 85.036 78.612L85.0036 78.8643C85.0036 78.8999 84.9648 79.1215 84.9648 79.1215C84.9195 79.4757 84.6413 79.7991 84.14 80.0078C83.1437 80.4234 81.6428 80.2293 80.7921 79.5743C80.6715 79.4801 80.5628 79.3715 80.4686 79.2509C80.239 78.9565 80.1969 78.8029 80.2341 78.5166C80.2341 78.4616 80.281 78.1187 80.3101 77.9004C80.2936 78.1252 80.3343 78.3505 80.4285 78.5553C80.5227 78.7601 80.6672 78.9376 80.8487 79.0713Z" fill="#E2E2E2"/>
<path d="M80.8115 77.2808C80.0983 77.732 80.0886 78.4824 80.8455 79.0598C81.6024 79.6372 82.8752 79.8685 83.8472 79.6097L80.8115 77.2808Z" fill="#EDEEEF"/>
<path d="M86.2845 75.2219C85.2883 75.6376 85.1718 76.5061 86.0225 77.1627C86.8732 77.8194 88.3741 78.0118 89.3704 77.5978C90.3667 77.1838 90.4847 76.3136 89.634 75.657C88.7833 75.0004 87.2808 74.8079 86.2845 75.2219Z" fill="#CACBCC"/>
<path d="M86.6695 74.8582L86.6387 75.1121L89.6745 77.4459L89.7052 77.192L86.6695 74.8582Z" fill="#D6D6D6"/>
<path d="M90.2033 76.7115C90.2308 76.4948 90.2033 76.6776 90.2341 76.4592C90.2064 76.6131 90.1444 76.7589 90.0529 76.8857C89.9614 77.0125 89.8426 77.1171 89.7052 77.1919L89.6745 77.4458C89.812 77.3708 89.9308 77.2659 90.0224 77.1388C90.1139 77.0117 90.1757 76.8657 90.2033 76.7115Z" fill="#E2E2E2"/>
<path d="M86.6695 74.8662L89.7052 77.1984C90.4184 76.7471 90.4297 75.9967 89.6712 75.4193C88.9127 74.8419 87.6431 74.6074 86.6695 74.8662Z" fill="#EDEEEF"/>
<path d="M86.0484 76.9153C86.8069 77.4976 88.0765 77.7159 89.0486 77.4636L89.0194 77.7094C89.139 77.6794 89.2563 77.6411 89.3704 77.5946C89.4769 77.5499 89.5792 77.4958 89.6761 77.4329L89.7052 77.1886C89.8426 77.1139 89.9614 77.0093 90.0529 76.8825C90.1444 76.7557 90.2064 76.6099 90.2341 76.456L90.2033 76.7083C90.2033 76.7439 90.1629 76.9671 90.1629 76.9671C90.1192 77.3196 89.8394 77.6431 89.338 77.8534C88.3418 78.2674 86.8425 78.0733 85.9902 77.4183C85.8694 77.3242 85.7608 77.2156 85.6667 77.0948C85.4354 76.8005 85.3934 76.6468 85.4306 76.3606C85.4306 76.304 85.4791 75.9627 85.5066 75.7444C85.4904 75.9695 85.5316 76.195 85.6263 76.3998C85.7211 76.6046 85.8663 76.782 86.0484 76.9153Z" fill="#E2E2E2"/>
<path d="M86.0128 75.1299C85.2996 75.5811 85.2899 76.3332 86.0484 76.9089C86.8069 77.4847 88.0766 77.7095 89.0486 77.4572L86.0128 75.1299Z" fill="#EDEEEF"/>
<path d="M91.4859 73.0726C90.4896 73.4883 90.3715 74.3552 91.2239 75.0134C92.0762 75.6717 93.5754 75.8625 94.5717 75.4469C95.568 75.0312 95.6861 74.1643 94.8337 73.5061C93.9814 72.8478 92.4805 72.657 91.4859 73.0726Z" fill="#CACBCC"/>
<path d="M91.8675 72.7087L91.8368 72.961L94.8725 75.2948L94.9033 75.0425L91.8675 72.7087Z" fill="#D6D6D6"/>
<path d="M95.4014 74.5621C95.4289 74.3438 95.4014 74.5265 95.4321 74.3098C95.4046 74.4638 95.3427 74.6095 95.2511 74.7364C95.1596 74.8632 95.0407 74.9678 94.9033 75.0424L94.8726 75.2948C95.0099 75.22 95.1288 75.1154 95.2203 74.9886C95.3118 74.8618 95.3737 74.716 95.4014 74.5621Z" fill="#E2E2E2"/>
<path d="M91.8676 72.7086L94.9033 75.0424C95.6181 74.5911 95.6279 73.8407 94.8693 73.2633C94.1108 72.6859 92.8412 72.4579 91.8676 72.7086Z" fill="#EDEEEF"/>
<path d="M91.2465 74.7642C92.005 75.3481 93.2746 75.5729 94.2483 75.3141L94.2175 75.5583C94.3378 75.5291 94.4557 75.4907 94.5701 75.4435C94.6758 75.3982 94.7775 75.3441 94.8742 75.2817L94.9033 75.0375C95.0407 74.9629 95.1596 74.8583 95.2512 74.7315C95.3427 74.6046 95.4046 74.4588 95.4322 74.3049L95.4014 74.5572C95.4014 74.5928 95.361 74.8144 95.361 74.8144C95.3173 75.1686 95.0375 75.492 94.5362 75.7006C93.5399 76.1163 92.0406 75.9222 91.1883 75.2672C91.0672 75.1735 90.9585 75.0648 90.8648 74.9437C90.6335 74.6494 90.5931 74.4957 90.6287 74.2095C90.6287 74.1545 90.6772 73.8116 90.7047 73.5933C90.6886 73.8183 90.7299 74.0438 90.8247 74.2486C90.9194 74.4534 91.0646 74.6308 91.2465 74.7642Z" fill="#E2E2E2"/>
<path d="M91.2126 72.9805C90.4977 73.4317 90.488 74.1821 91.2465 74.7595C92.005 75.3369 93.2746 75.5682 94.2483 75.3094L91.2126 72.9805Z" fill="#EDEEEF"/>
<path d="M90.9053 71.5214C91.067 71.6427 91.0443 71.8028 90.8616 71.8788L73.6548 79.0856C73.5532 79.1224 73.4443 79.1344 73.3371 79.1206C73.23 79.1068 73.1276 79.0676 73.0386 79.0064C73.0026 78.9891 72.9729 78.961 72.9537 78.926C72.9345 78.891 72.9267 78.8508 72.9315 78.8112C72.9364 78.7715 72.9535 78.7344 72.9805 78.705C73.0076 78.6756 73.0432 78.6554 73.0823 78.6473L90.289 71.4405C90.3908 71.4044 90.4998 71.3929 90.6069 71.4069C90.714 71.421 90.8162 71.4602 90.9053 71.5214Z" fill="#808488"/>
<path d="M103.965 81.261L103.928 82.4093C103.917 82.778 103.664 83.1403 103.171 83.4088C102.178 83.949 100.583 83.9053 99.6129 83.3085C99.1277 83.0093 98.89 82.6276 98.9013 82.2524L98.9369 81.1057C98.9256 81.4809 99.1617 81.8626 99.6485 82.1618C100.619 82.757 102.205 82.8088 103.207 82.2621C103.692 81.9936 103.952 81.6314 103.965 81.261Z" fill="#E2E2E2"/>
<path d="M103.252 80.2033C104.222 80.8001 104.2 81.7204 103.207 82.2606C102.214 82.8007 100.619 82.7555 99.6485 82.1603C98.6781 81.5651 98.7024 80.6448 99.6954 80.103C100.688 79.5612 102.285 79.6098 103.252 80.2033Z" fill="#F5F5F5"/>
<path d="M109.158 75.3286L109.121 76.4769C109.112 76.8456 108.858 77.2079 108.364 77.4764C107.371 78.0166 105.777 77.9713 104.806 77.3761C104.321 77.0769 104.083 76.6952 104.095 76.32L104.13 75.1733C104.119 75.5469 104.355 75.9303 104.842 76.2295C105.812 76.8246 107.399 76.8764 108.392 76.3297C108.885 76.0613 109.137 75.699 109.15 75.3286H109.158Z" fill="#E2E2E2"/>
<path d="M108.446 74.2725C109.416 74.8693 109.393 75.7895 108.4 76.3297C107.407 76.8699 105.812 76.8246 104.85 76.2295C103.888 75.6343 103.904 74.714 104.897 74.1722C105.89 73.6304 107.478 73.6773 108.446 74.2725Z" fill="#F5F5F5"/>
<path d="M111.921 80.6885L111.885 81.8351C111.874 82.2055 111.62 82.5678 111.127 82.8363C110.135 83.3765 108.539 83.3312 107.578 82.736C107.093 82.4352 106.854 82.0535 106.867 81.6799L106.902 80.5332C106.889 80.9068 107.127 81.2885 107.614 81.5877C108.584 82.1845 110.171 82.2346 111.162 81.688C111.656 81.4211 111.909 81.0588 111.921 80.6885Z" fill="#E2E2E2"/>
<path d="M111.218 79.6258C112.188 80.221 112.164 81.1429 111.171 81.6815C110.178 82.22 108.583 82.178 107.622 81.5812C106.662 80.9844 106.674 80.0658 107.668 79.5256C108.661 78.9854 110.247 79.0307 111.218 79.6258Z" fill="#F5F5F5"/>
<g opacity="0.2">
<path opacity="0.2" d="M122.246 66.9251C125.251 68.6589 125.265 71.4714 122.278 73.2068C119.291 74.9422 114.439 74.9422 111.442 73.2068C108.445 71.4714 108.423 68.6605 111.406 66.9251C114.39 65.1897 119.239 65.1897 122.246 66.9251Z" fill="#191617"/>
</g>
<path d="M123.308 62.052C123.308 62.6715 123.308 59.3414 123.308 57.6222C123.308 57.069 121.942 60.5334 121.382 60.9231C121.264 60.8439 121.144 60.7614 121.017 60.6886C117.606 58.6346 111.84 58.7478 108.654 60.9587C107.36 60.0692 106.713 58.9743 106.713 57.8858C106.713 58.0152 106.728 68.2593 106.732 68.3887C106.733 68.3806 106.733 68.3725 106.732 68.3645C106.732 72.6294 115.691 74.8855 120.9 71.7609C123.895 69.9737 123.328 68.9418 123.308 62.052Z" fill="#E2E2E2"/>
<path d="M107.869 63.7064C107.869 64.6768 108.534 65.7086 109.864 66.5092C112.605 68.1589 117.142 68.2042 119.999 66.6127C121.47 65.7927 122.209 64.6978 122.205 63.6045L107.869 63.7064Z" fill="#071E2A"/>
<path d="M107.877 67.8727L107.868 60.3392C107.868 60.399 107.832 59.93 107.924 59.9833C109.31 60.7823 120.557 60.3488 122.094 59.5741C122.21 59.5159 122.204 60.3683 122.204 60.2971L122.213 67.8306C122.213 68.9239 121.478 70.0172 120.007 70.8372C117.151 72.4303 112.613 72.385 109.873 70.7353C108.542 69.9267 107.881 68.9029 107.877 67.8727Z" fill="#F3D496"/>
<path d="M121.578 54.8113C119.382 53.1228 115.832 52.6263 113.177 53.0323C106.813 53.9121 104.589 58.5312 109.014 61.2014C112.189 63.1114 117.444 63.1648 120.753 61.3194C123.818 59.6099 124.009 56.9769 121.968 55.1315L121.578 54.8113ZM118.287 59.5598C116.398 60.6127 113.396 60.5819 111.584 59.4918C109.773 58.4018 109.834 56.6631 111.723 55.6103C113.613 54.5574 116.613 54.5881 118.426 55.6782C120.239 56.7683 120.176 58.5004 118.287 59.5549V59.5598Z" fill="#EFEFEF"/>
<path d="M120.743 55.2755C120.727 54.9133 120.68 53.8199 119.074 52.8269C119.099 52.8451 119.119 52.8697 119.131 52.8982C119.144 52.9266 119.148 52.9579 119.144 52.9886C120.21 53.6356 120.74 54.4556 120.743 55.2836V55.2755Z" fill="#436663"/>
<path d="M120.743 55.7914C120.743 55.1914 120.905 54.0398 119.144 52.9805V53.498C120.21 54.1449 120.74 54.9649 120.742 55.7914H120.743Z" fill="#85CCC6"/>
<path d="M119.074 52.8268C115.217 50.6692 109.343 52.1539 109.254 55.3077C109.246 52.3432 115.539 50.81 119.144 52.9804C119.148 52.9497 119.144 52.9184 119.131 52.8899C119.119 52.8615 119.099 52.8368 119.074 52.8187V52.8268Z" fill="#436663"/>
<path d="M119.142 53.498V52.9805C115.542 50.8133 109.243 52.3335 109.252 55.3078V55.8254C109.252 52.843 115.56 51.3389 119.144 53.498H119.142Z" fill="#85CCC6"/>
<path d="M110.265 57.5931C110.771 57.5931 111.18 57.2551 111.18 56.8427C111.18 58.7722 115.212 59.783 117.649 58.4244C118.434 57.9878 118.827 57.4039 118.825 56.8201C118.825 57.2325 119.239 57.5673 119.744 57.5657C119.744 58.2886 119.259 59.0115 118.288 59.555C116.399 60.6078 113.397 60.5771 111.586 59.487C110.706 58.9566 110.268 58.2756 110.266 57.5931H110.265Z" fill="#EAEAEA"/>
<path d="M111.18 56.8426C111.219 57.7499 112.807 58.4955 114.266 58.6217C116.842 58.8481 118.794 57.7936 118.825 56.8184C118.825 57.4022 118.434 57.9861 117.649 58.4227C115.214 59.7813 111.18 58.7705 111.18 56.841V56.8426Z" fill="#6AA29D"/>
<path d="M118.887 52.7879C120.975 54.0446 120.903 56.0485 118.725 57.2631C116.546 58.4777 113.088 58.4421 111.001 57.1838C108.913 55.9255 108.982 53.9233 111.162 52.7103C113.342 51.4973 116.797 51.5313 118.887 52.7879Z" fill="#FBDC9F"/>
<path d="M120.704 55.2755C120.704 55.2755 119.186 57.9344 114.955 57.9344C110.724 57.9344 109.213 55.0669 109.213 55.0669V51.8662L120.755 52.1751L120.704 55.2755Z" fill="#F3D496"/>
<path d="M115.068 51.7674C116.129 51.7787 117.682 51.9631 119.061 52.7798C119.034 52.7665 119.003 52.7608 118.972 52.7633C118.941 52.7659 118.912 52.7766 118.887 52.7944C116.8 51.5393 113.349 51.5005 111.177 52.7167C109.005 53.933 108.932 55.9271 111.015 57.1822C113.098 58.4372 116.551 58.476 118.725 57.2614C120.899 56.0468 120.97 54.0494 118.887 52.7944C118.912 52.7766 118.941 52.7659 118.972 52.7633C119.003 52.7608 119.034 52.7665 119.061 52.7798C119.141 52.8316 119.251 52.8946 119.327 52.9513C121.482 54.5427 121.041 56.5094 118.961 57.6771C116.653 58.9709 112.988 58.9273 110.773 57.5946C107.232 55.4581 109.891 51.7156 115.068 51.7674Z" fill="#6D6E71"/>
<path d="M111.013 52.6975C113.363 51.4182 116.823 51.4553 119.061 52.7799C119.033 52.7666 119.003 52.7609 118.972 52.7635C118.941 52.766 118.912 52.7767 118.886 52.7945C116.8 51.5395 113.349 51.5006 111.177 52.7169C109.005 53.9331 108.932 55.9273 111.015 57.1823C113.098 58.4374 116.551 58.4762 118.725 57.2616C120.898 56.0469 120.97 54.0495 118.886 52.7945C118.912 52.7767 118.941 52.766 118.972 52.7635C119.003 52.7609 119.033 52.7666 119.061 52.7799C121.471 54.3326 121.172 56.4448 118.961 57.6772C116.653 58.9711 112.988 58.9274 110.772 57.5947C108.363 56.1391 108.832 53.8749 111.013 52.6975Z" fill="#F3D496"/>
<path d="M109.158 55.7979V55.2772C109.168 58.2013 115.27 59.7313 118.961 57.674C120.15 57.0109 120.74 56.1263 120.74 55.248C120.74 55.8481 120.921 57.1047 118.961 58.1997C116.651 59.4935 112.985 59.4499 110.771 58.1172C109.695 57.4703 109.154 56.6357 109.154 55.8028L109.158 55.7979Z" fill="#F3D496"/>
<path d="M118.634 49.2089C116.359 48.0282 113.278 48.1851 111.308 49.2525C106.527 51.7562 110.593 56.6825 116.842 55.455C121.371 54.5654 122.006 50.8973 118.634 49.2089Z" fill="#FBDC9F"/>
<path d="M118.371 49.4271C120.161 50.5058 120.1 52.2218 118.233 53.2618C116.367 54.3017 113.404 54.2726 111.613 53.1954C109.823 52.1183 109.885 50.4007 111.751 49.3608C113.617 48.3208 116.58 48.3499 118.371 49.4271Z" fill="#F3D496"/>
<path d="M120.153 72.4399C120.153 72.4399 120.143 72.4273 120.153 72.4399V72.4399Z" fill="#14A797"/>
<path d="M115.037 70.1564C113.996 70.1855 112.957 70.0623 111.952 69.7909C110.917 69.5367 109.962 69.0312 109.17 68.3191V62.6584C110.124 63.1475 111.133 63.5226 112.175 63.776C113.116 63.9792 114.075 64.0972 115.037 64.1286V70.1564Z" fill="#E6E7E8"/>
<path opacity="0.22" d="M56.7699 61.0898L41.5379 67.6724L35.5765 66.9721L20 55.3985L20.4577 51.2727L34.6675 43.2378L41.8064 44.082L57.1484 57.6433L56.7699 61.0898Z" fill="#F0F2F3"/>
<path d="M38.1125 47.3489L23.8347 55.4646L39.4759 67.0884L53.5175 61.0169L38.1125 47.3489Z" fill="#F2CAAA"/>
<path d="M20.93 49.2786L36.5711 60.9023L39.4759 67.0886L23.8347 55.4648L20.93 49.2786Z" fill="#F7D7B5"/>
<path d="M23.1231 53.9492L23.8347 55.4647L39.4759 67.0884L38.7642 65.5729L23.1231 53.9492Z" fill="#EAC5A4"/>
<path d="M33.6486 62.7573L28.3131 58.7932L26.1458 54.179L31.4814 58.143L33.6486 62.7573Z" fill="#F7D7B5"/>
<path d="M57.7824 55.6765L54.5704 59.7004L53.5175 61.0169L39.4758 67.0884L40.5287 65.7702L43.7407 61.7463L57.7824 55.6765Z" fill="#EFCCAF"/>
<path d="M58.2401 51.533L42.835 37.865L35.6654 37.0208L21.3877 45.1365L20.93 49.2785L36.5711 60.9022L43.7407 61.7465L57.7808 55.6766L58.2401 51.533Z" fill="#4F4F4F"/>
<path d="M58.7075 51.4197L42.924 37.4703L35.5813 36.605L20.9639 44.8679L20.4949 49.1102L36.5145 61.0153L43.8572 61.8806L58.2385 55.6619L58.7075 51.4197Z" fill="#FCE4CA"/>
<path d="M35.5813 36.605L22.3661 44.0754L39.5777 55.3757L42.1525 55.683L56.5338 49.4643L56.4513 47.5527L35.5813 36.605Z" fill="#FCE4CA"/>
<path d="M20.4949 49.1101L36.5145 61.0153L41.2323 52.3335L25.2126 40.4299L20.4949 49.1101Z" fill="#FFE3C0"/>
<path d="M23.5597 43.4705L39.5777 55.3756L41.2307 52.3335L25.2126 40.4299L23.5597 43.4705Z" fill="#FFE3C0"/>
<path d="M58.7075 51.4198L42.924 37.4703L39.5923 34.2114L55.6135 46.1166L58.7075 51.4198Z" fill="#818181"/>
<path d="M58.2385 55.6635L43.8572 61.8805L42.1525 55.6829L41.2323 52.3335L55.6135 46.1165L56.5338 49.4643L58.2385 55.6635Z" fill="#F9D8B4"/>
<path d="M58.2385 55.6636L43.8572 61.8806L42.1525 55.683L56.5338 49.4644L58.2385 55.6636Z" fill="#F9D8B4"/>
<path d="M55.6135 46.1166L41.2323 52.3336L40.0015 51.4198L26.4434 41.3438L25.211 40.43L39.5923 34.2114L40.8247 35.1252L54.3828 45.2012L55.6135 46.1166Z" fill="#FCEDDE"/>
<path d="M25.7722 40.2083L39.5907 34.2339L55.1187 45.7735L41.3002 51.7479L25.7722 40.2083Z" fill="#FCEDDE"/>
<path d="M40.0015 51.4197L35.2838 60.0999L32.5974 58.1041L24.4137 52.023L21.7257 50.0256L26.4434 41.3438L40.0015 51.4197Z" fill="#FFE3C0"/>
<path d="M34.4152 53.4996L32.5974 58.1041L24.4137 52.023L27.3977 47.8745C27.4948 47.7393 27.6179 47.6247 27.7598 47.5376C27.9018 47.4505 28.0596 47.3925 28.2242 47.367C28.3888 47.3416 28.5568 47.3492 28.7184 47.3894C28.88 47.4296 29.0319 47.5016 29.1654 47.6012L33.6939 50.9636C34.0761 51.2484 34.3538 51.651 34.4842 52.1094C34.6145 52.5678 34.5903 53.0564 34.4152 53.4996Z" fill="#F9E4CD"/>
<path d="M25.211 40.4299L23.5597 43.4705V43.4721L20.4949 49.1101L20.9639 44.8679L23.7231 41.9842L25.211 40.4299Z" fill="#FCE4CA"/>
<path d="M25.211 40.4299L23.5597 43.4705L23.7231 41.9842L25.211 40.4299Z" fill="#FCE4CA"/>
<path d="M58.7075 51.4197L55.6136 46.1165L58.2385 55.6619L58.7075 51.4197Z" fill="#FCE4CA"/>
<path d="M56.5338 49.4643L56.6988 47.9764L55.6136 46.1165L56.5338 49.4643Z" fill="#FCE4CA"/>
<path d="M28.381 54.3972L26.8041 52.1604L30.7811 55.1169L28.381 54.3972Z" fill="#BB7959"/>
<path d="M27.7632 51.879C27.5917 51.7512 27.5853 51.5555 27.705 51.3356L27.8942 50.9959C28.0058 50.7938 28.1804 50.7097 28.3454 50.8342C28.5104 50.9587 28.5217 51.1577 28.4036 51.376L28.2144 51.7156C28.0996 51.9226 27.9411 52.0116 27.7632 51.8774V51.879ZM28.4861 50.5851C28.195 50.3684 27.8861 50.4735 27.6775 50.8552L27.5028 51.169C27.2844 51.562 27.3411 51.9178 27.6273 52.1394C27.9136 52.3609 28.2225 52.2639 28.436 51.8709L28.6107 51.5571C28.8225 51.1754 28.7724 50.8067 28.4845 50.5867L28.4861 50.5851Z" fill="#BB7959"/>
<path d="M28.905 51.9145L29.146 51.4811L29.3789 51.6541C29.4291 51.6943 29.4622 51.752 29.4715 51.8157C29.4808 51.8793 29.4657 51.9441 29.429 51.997C29.3563 52.1296 29.2398 52.1587 29.1379 52.0892L28.905 51.9145ZM29.552 51.4132L29.0829 51.0654L28.2549 52.555L28.4683 52.7167L28.7708 52.1733L29.0263 52.3625C29.2366 52.5243 29.4953 52.445 29.6538 52.1604C29.7325 52.0459 29.7656 51.9062 29.7468 51.7687C29.7279 51.6311 29.6585 51.5055 29.552 51.4164V51.4132Z" fill="#BB7959"/>
<path d="M30.773 52.327L30.0226 51.769L29.1945 53.2586L29.953 53.823L30.0954 53.5675L29.5503 53.1632L29.7541 52.796L30.2442 53.1599L30.3881 52.9028L29.8981 52.5389L30.0938 52.1863L30.6307 52.5842L30.773 52.327Z" fill="#BB7959"/>
<path d="M31.7984 53.0888L31.5849 52.9303L30.904 54.1546L30.8846 54.1417L31.3035 52.7217L30.9218 52.437L30.0938 53.9266L30.3105 54.0883L30.9914 52.8624L31.0108 52.8769L30.5903 54.2953L30.9703 54.5784L31.7984 53.0888Z" fill="#BB7959"/>
<path d="M54.5704 59.7004L53.5175 61.0169L39.4758 67.0884L40.5158 65.7767L40.5287 65.7703L54.5704 59.7004Z" fill="#EAC5A4"/>
<path d="M40.5287 65.7703L38.7642 65.573L39.4758 67.0884L40.5287 65.7703Z" fill="#F2CAAA"/>
<path d="M38.9438 37.8374L35.3501 39.4903L35.9404 39.9205L37.4089 39.2445L38.5427 40.0709L39.1395 39.796L38.0057 38.9695L38.9341 38.5442L40.2085 39.4725L40.8085 39.196L38.9438 37.8374Z" fill="#BB7959"/>
<path d="M39.3384 41.7256C39.3089 41.7088 39.2803 41.6904 39.2527 41.6706C39.0521 41.5234 38.9971 41.3633 39.0909 41.1854C39.1847 41.0075 39.4144 40.8426 39.7831 40.6744L39.9594 40.5935C40.2757 40.4371 40.6198 40.3447 40.9719 40.3218C41.2023 40.3055 41.4325 40.3561 41.635 40.4673C41.6645 40.4842 41.6931 40.5025 41.7207 40.5223C41.9196 40.6679 41.9746 40.8248 41.8824 40.993C41.7903 41.1612 41.559 41.3326 41.1854 41.5057L41.0091 41.5865C40.6923 41.7417 40.3485 41.8345 39.9966 41.8599C39.7659 41.878 39.5349 41.8286 39.3319 41.7175L39.3384 41.7256ZM42.1541 40.1277C41.9425 40.0081 41.7132 39.9229 41.4749 39.8754C41.1291 39.8067 40.7741 39.7974 40.4252 39.8479C40.0486 39.8997 39.6821 40.0088 39.3384 40.1714L39.1605 40.2522C38.8707 40.3724 38.6111 40.5552 38.4003 40.7876C38.3248 40.8654 38.2689 40.9602 38.2374 41.064C38.2059 41.1678 38.1997 41.2776 38.2192 41.3844C38.2845 41.6173 38.4345 41.8175 38.6397 41.9456C38.6954 41.987 38.7538 42.0248 38.8144 42.0588C39.026 42.1795 39.2561 42.2647 39.4953 42.3111C39.8392 42.381 40.1927 42.3909 40.5401 42.3402C40.9142 42.2866 41.2784 42.1776 41.6204 42.0167L41.7822 41.944C42.0772 41.8209 42.3429 41.6368 42.5617 41.4038C42.6383 41.3261 42.6953 41.2313 42.7279 41.1273C42.7606 41.0232 42.7679 40.9128 42.7493 40.8054C42.6844 40.5718 42.5344 40.371 42.3288 40.2425C42.2738 40.2021 42.2156 40.1649 42.1558 40.1293" fill="#BB7959"/>
<path d="M42.1202 43.7519C42.0912 43.7351 42.0631 43.7168 42.0361 43.6969C41.8339 43.5498 41.7806 43.3897 41.8744 43.2198C41.9682 43.05 42.1978 42.877 42.5682 42.7088L42.7429 42.6279C43.0592 42.4716 43.4032 42.3793 43.7553 42.3562C43.9863 42.34 44.217 42.3905 44.42 42.5017C44.4495 42.5186 44.4782 42.5369 44.5058 42.5567C44.7047 42.7023 44.7597 42.8576 44.6675 43.0274C44.5753 43.1972 44.344 43.367 43.9704 43.5401L43.7957 43.6209C43.4781 43.7758 43.134 43.8691 42.7817 43.8959C42.551 43.9117 42.3205 43.8618 42.117 43.7519H42.1202ZM44.9408 42.1637C44.7296 42.0429 44.5002 41.9571 44.2615 41.9098C43.9157 41.8412 43.5608 41.8319 43.2119 41.8823C42.8352 41.9339 42.4687 42.043 42.1251 42.2058L41.9455 42.2866C41.656 42.4073 41.3965 42.59 41.1854 42.822C41.1104 42.9002 41.0549 42.995 41.0234 43.0987C40.9919 43.2024 40.9854 43.312 41.0042 43.4188C41.0692 43.6523 41.2192 43.8531 41.4247 43.9816C41.4797 44.0204 41.5363 44.0576 41.5962 44.0916C41.8098 44.2121 42.0413 44.2978 42.2819 44.3455C42.6259 44.4155 42.9794 44.4253 43.3267 44.3746C43.7009 44.321 44.065 44.212 44.4071 44.0511L44.5688 43.9784C44.8639 43.8562 45.1292 43.6719 45.3468 43.4382C45.4235 43.3606 45.4808 43.2659 45.5137 43.1618C45.5466 43.0578 45.5542 42.9474 45.536 42.8398C45.471 42.6062 45.321 42.4054 45.1155 42.2769C45.06 42.2364 45.0022 42.1991 44.9424 42.1653" fill="#BB7959"/>
<path d="M44.7095 45.5925C44.6707 45.5699 44.6319 45.5456 44.5931 45.5181L44.3084 45.3095L46.7069 44.2065L46.9981 44.4184C47.2309 44.5801 47.3215 44.7596 47.2455 44.9343C47.1695 45.109 46.9608 45.2804 46.5986 45.447L46.4077 45.5343C46.0958 45.6854 45.7547 45.7666 45.4082 45.7721C45.1641 45.7746 44.9237 45.7127 44.7111 45.5925H44.7095ZM46.7182 43.4997L43.1278 45.1526L44.0157 45.7996C44.0755 45.8416 44.137 45.8821 44.2017 45.9192C44.4222 46.045 44.6605 46.1366 44.9085 46.191C45.2583 46.2712 45.6193 46.2914 45.9759 46.2508C46.3411 46.2111 46.6976 46.1134 47.032 45.9613L47.1937 45.8853C47.476 45.769 47.7258 45.5859 47.9215 45.3516C47.9922 45.2671 48.0419 45.167 48.0663 45.0596C48.0908 44.9522 48.0894 44.8405 48.0622 44.7337C47.9799 44.4895 47.8168 44.2807 47.5997 44.1418L46.7182 43.4949" fill="#BB7959"/>
<path d="M34.5689 39.5712C34.4544 39.5042 34.3329 39.45 34.2066 39.4094C34.0262 39.3497 33.837 39.3213 33.647 39.3253C33.4746 39.3271 33.3045 39.3646 33.1473 39.4353C32.8626 39.5663 32.7591 39.7588 32.84 40.0208C32.8852 40.1476 32.9472 40.2678 33.0243 40.3782C33.0967 40.4734 33.146 40.5842 33.1683 40.7017C33.1683 40.7712 33.1182 40.8327 33.0066 40.8812C32.9054 40.9276 32.7923 40.9412 32.6831 40.92C32.5933 40.9061 32.507 40.8748 32.4292 40.8278C32.4017 40.8116 32.3758 40.7955 32.3483 40.7761C32.0604 40.5642 32.0669 40.3895 32.3693 40.2488L31.9181 39.9254C31.7692 39.9828 31.6428 40.0865 31.5574 40.2213C31.5271 40.2795 31.5113 40.3441 31.5113 40.4097C31.5113 40.4754 31.5271 40.54 31.5574 40.5982C31.6354 40.7565 31.7544 40.8911 31.9019 40.9879C31.9601 41.03 32.0184 41.0672 32.0782 41.1028C32.2647 41.2111 32.4699 41.2835 32.6831 41.3163C32.9461 41.3602 33.2162 41.3253 33.4594 41.216C33.6745 41.1173 33.7942 40.9928 33.8201 40.8408C33.8459 40.6887 33.778 40.4979 33.6195 40.265C33.5476 40.1745 33.4973 40.0689 33.4723 39.9561C33.4661 39.9169 33.4746 39.8767 33.496 39.8433C33.5175 39.8099 33.5505 39.7856 33.5888 39.7749C33.6902 39.7297 33.803 39.7162 33.9123 39.7361C34.0046 39.75 34.0936 39.7813 34.1743 39.8283L34.2567 39.8817C34.3716 39.9658 34.4185 40.0434 34.4185 40.1243C34.4185 40.2052 34.3441 40.2698 34.2196 40.3281L34.6692 40.6515C34.8096 40.5975 34.9292 40.5 35.0104 40.3734C35.0413 40.3214 35.0589 40.2627 35.0617 40.2023C35.0645 40.142 35.0525 40.0819 35.0266 40.0273C34.956 39.8835 34.8482 39.7612 34.7144 39.6731C34.6643 39.6375 34.6109 39.6035 34.5527 39.5712" fill="#BB7959"/>
<path d="M35.0541 40.7972L33.715 41.4134C33.474 41.5266 33.3365 41.6463 33.3025 41.7692C33.2686 41.8921 33.3381 42.0215 33.5128 42.1477C33.5424 42.1693 33.5732 42.1893 33.605 42.2075C33.788 42.3104 33.995 42.3629 34.205 42.3595L34.0093 42.4647L34.4185 42.7623L36.4628 41.8226L36.0245 41.4991L34.577 42.1655C34.4277 42.1834 34.2767 42.1522 34.1468 42.0765C34.1237 42.0635 34.1016 42.0489 34.0805 42.0328C33.9187 41.9212 33.9543 41.8145 34.1678 41.7175L35.4892 41.1094L35.0541 40.7859" fill="#BB7959"/>
<path d="M35.9113 43.3687L35.8692 43.3412C35.7323 43.242 35.7048 43.1418 35.7867 43.0404L36.6229 42.6555C36.7683 42.6337 36.9169 42.661 37.045 42.7331L37.1016 42.7703C37.2051 42.8447 37.231 42.932 37.1809 43.0129C37.0884 43.1321 36.9639 43.2224 36.8218 43.2733C36.424 43.4577 36.1199 43.4884 35.9113 43.3687ZM36.7911 42.0619L33.9624 43.3558L34.3975 43.6792L35.3679 43.2361C35.3258 43.3752 35.3873 43.5062 35.5506 43.6259C35.5777 43.6452 35.6057 43.663 35.6347 43.6792C35.8378 43.7893 36.0671 43.8419 36.2978 43.8313C36.6196 43.8224 36.936 43.7458 37.2262 43.6065L37.2537 43.5935C37.5771 43.4437 37.7782 43.2852 37.8569 43.118C37.9313 42.9563 37.8699 42.7946 37.6693 42.6474C37.6443 42.6299 37.6184 42.6137 37.5917 42.5989C37.4158 42.5028 37.2179 42.4543 37.0175 42.4582L37.2035 42.3547L36.7992 42.0603" fill="#BB7959"/>
<path d="M37.6499 44.6334L37.6079 44.6059C37.4704 44.5056 37.4461 44.4053 37.5237 44.3051L38.3615 43.9201C38.5052 43.8987 38.6519 43.9255 38.7788 43.9961C38.7998 44.0091 38.8192 44.0204 38.8386 44.035C38.9405 44.1094 38.968 44.1967 38.9179 44.2776C38.8248 44.3961 38.7005 44.4863 38.5588 44.5379C38.1599 44.7202 37.8569 44.752 37.6499 44.6334ZM38.5281 43.3266L35.6978 44.6204L36.1345 44.9439L37.1049 44.4991C37.0628 44.6398 37.1243 44.7692 37.2876 44.8905C37.3151 44.9099 37.3442 44.9277 37.3733 44.9455C37.5756 45.0544 37.8037 45.1064 38.0332 45.0959C38.355 45.0871 38.6713 45.0105 38.9616 44.8711L38.9907 44.8582C39.3141 44.7078 39.5195 44.5493 39.5939 44.3827C39.6683 44.2161 39.6052 44.0592 39.4047 43.9137C39.3798 43.8949 39.3539 43.8776 39.3271 43.8619C39.1515 43.7666 38.9543 43.7181 38.7545 43.7212L38.9389 43.6193L38.5362 43.325" fill="#BB7959"/>
<path d="M39.374 45.8901L39.3271 45.8594C39.2187 45.7801 39.1864 45.6976 39.2317 45.6071C39.3204 45.483 39.4452 45.3892 39.5891 45.3386C39.7667 45.2472 39.9608 45.1922 40.16 45.1769C40.2846 45.1684 40.4091 45.1953 40.519 45.2545L40.5643 45.2836C40.6711 45.3629 40.7018 45.4453 40.6565 45.5391C40.5693 45.6634 40.4455 45.7573 40.3023 45.8076C40.1237 45.8994 39.9284 45.9544 39.7282 45.9694C39.6051 45.976 39.4825 45.9486 39.374 45.8901ZM40.8862 45.0087C40.7551 44.9335 40.6133 44.879 40.4657 44.8469C40.257 44.8012 40.0419 44.7919 39.8301 44.8194C39.6096 44.8475 39.3947 44.9092 39.1928 45.0022L39.1686 45.0119C38.8451 45.1628 38.6586 45.3321 38.609 45.5197C38.5588 45.709 38.6526 45.8885 38.8872 46.0599C38.9268 46.0884 38.9678 46.1149 39.0101 46.1392C39.2315 46.2641 39.4804 46.3324 39.7346 46.3381C40.069 46.353 40.4021 46.2864 40.705 46.144L40.8409 46.0777C41.1142 45.9322 41.2662 45.7704 41.2954 45.5925C41.3245 45.4146 41.229 45.2448 41.0107 45.0847C40.973 45.0569 40.9335 45.0315 40.8926 45.0087" fill="#BB7959"/>
<path d="M42.0086 45.8608L39.9643 46.8021L40.401 47.1175L41.7385 46.5029C41.8962 46.4794 42.0572 46.5108 42.1946 46.5919C42.2205 46.608 42.2463 46.6242 42.2706 46.642C42.3206 46.6794 42.3681 46.7199 42.4129 46.7633L42.9434 46.5272C42.913 46.4838 42.8752 46.446 42.8318 46.4156L42.7768 46.38C42.595 46.2886 42.3898 46.2542 42.1881 46.2813L42.421 46.16L42.0086 45.8608Z" fill="#BB7959"/>
<path d="M43.7974 46.563L43.2944 46.7943L43.0566 46.6196L42.6571 46.804L42.8949 46.9771L41.7935 47.4849C41.4134 47.666 41.3746 47.8682 41.6803 48.0914C41.7163 48.117 41.7535 48.1407 41.7919 48.1626C41.8558 48.2007 41.9229 48.2331 41.9924 48.2596L42.4065 48.0704L42.3563 48.0429C42.3272 48.0251 42.2965 48.0057 42.2641 47.983C42.1994 47.9345 42.1736 47.8957 42.1817 47.8633C42.1897 47.831 42.2334 47.7987 42.3094 47.7631L43.33 47.2941L43.6081 47.4978L44.0092 47.3135L43.7294 47.1097L44.2324 46.8784L43.7974 46.5549" fill="#BB7959"/>
<path opacity="0.2" d="M47.1194 73.5708L52.7493 79.2023L72.6052 70.6078L68.0637 68.7285L47.1194 73.5708Z" fill="#CFD4D9"/>
<path d="M71.4957 65.9709L71.0202 69.3447C70.8132 70.8132 69.8719 71.1237 69.8719 71.1237L57.1824 76.2216C55.7381 76.9154 53.2442 76.5644 53.2442 76.5644C46.8945 75.9693 46.99 72.0925 46.99 72.0925L47.4654 68.7188C47.4654 68.7188 47.3684 72.6004 53.7197 73.1891C53.7197 73.1891 56.2136 73.54 57.6579 72.8462L70.3458 67.75C70.3458 67.75 71.2887 67.4346 71.4957 65.9709Z" fill="#ECECEC"/>
<path d="M71.7222 64.3534L71.4957 65.9707C71.2887 67.4376 70.3458 67.7498 70.3458 67.7498L57.6579 72.846C56.2136 73.5398 53.7197 73.1888 53.7197 73.1888C47.3684 72.5953 47.4654 68.7185 47.4654 68.7185L47.7064 67.0026C47.7954 66.3702 47.7889 65.547 48.0008 64.9162C48.017 64.8661 48.0364 64.8159 48.0558 64.769C48.0558 64.7545 48.0687 64.7367 48.0768 64.7221C48.5717 63.6272 50.0338 63.3005 51.0381 62.901C54.4216 61.5554 57.8034 60.1516 61.258 58.9871C62.0605 58.7061 62.9186 58.6214 63.7605 58.7402C64.6024 58.8589 65.4036 59.1776 66.0971 59.6696L70.8197 63.3264C71.638 63.8924 71.7222 64.3534 71.7222 64.3534Z" fill="#EBBE73"/>
<path d="M71.7222 64.3536L71.4957 65.9709C71.2887 67.4378 70.3458 67.75 70.3458 67.75L57.6579 72.8462C56.2136 73.54 53.7197 73.189 53.7197 73.189C47.3684 72.5955 47.4654 68.7188 47.4654 68.7188L47.8989 65.6361C47.8989 65.6361 47.8019 69.5177 54.1531 70.108C54.1531 70.108 56.647 70.459 58.0913 69.7652L70.7841 64.6771C71.102 64.5392 71.368 64.3042 71.5442 64.0059C71.6252 64.1093 71.6856 64.2274 71.7222 64.3536Z" fill="#F3F3F3"/>
<path d="M71.541 63.9979C71.3648 64.2963 71.0987 64.5312 70.7808 64.6691L58.0913 69.7669C56.647 70.4607 54.1531 70.1098 54.1531 70.1098C47.8019 69.5146 47.8989 65.6379 47.8989 65.6379L48.0008 64.9182C48.017 64.868 48.0364 64.8179 48.0558 64.771C48.0558 64.7564 48.0687 64.7386 48.0768 64.7241C48.5717 63.6292 50.0338 63.3025 51.0381 62.903C54.4216 61.5574 57.8034 60.1535 61.258 58.989C62.0605 58.708 62.9186 58.6234 63.7605 58.7421C64.6024 58.8609 65.4036 59.1796 66.0971 59.6716L70.8197 63.3283C71.0964 63.509 71.3403 63.7354 71.541 63.9979Z" fill="#E8E9EA"/>
<path d="M69.1344 64.3534L57.2843 68.9385C56.9559 69.0656 56.5999 69.1043 56.252 69.0507C55.904 68.9971 55.5762 68.853 55.3014 68.6328L50.2715 64.6138C50.2053 64.5605 50.1542 64.4909 50.1233 64.4117C50.0925 64.3325 50.083 64.2466 50.0957 64.1626C50.1085 64.0786 50.1431 63.9994 50.1961 63.933C50.2491 63.8666 50.3186 63.8152 50.3977 63.7841L61.4731 59.4852C61.913 59.3148 62.3889 59.2589 62.8563 59.3228C63.3236 59.3867 63.7671 59.5684 64.1449 59.8507L69.2298 63.6531C69.2875 63.6963 69.3326 63.7541 69.3604 63.8206C69.3883 63.8871 69.3978 63.9599 69.3881 64.0313C69.3783 64.1027 69.3497 64.1702 69.3051 64.2269C69.2605 64.2835 69.2016 64.3272 69.1344 64.3534Z" fill="#21242B"/>
<path d="M66.8394 63.9655L56.3915 68.0298L51.6689 64.3731L61.6559 60.3928L66.8394 63.9655Z" fill="#3F434C"/>
<path d="M49.2817 65.3838L53.9833 69.1877C53.9833 69.1877 48.5749 68.2772 49.2817 65.3838Z" fill="#21242B"/>
<path d="M47.7194 70.1014C47.7194 70.1014 47.949 69.5354 48.7674 70.1014C49.5858 70.6675 52.1638 72.5274 51.0316 73.1145C49.5227 73.8957 47.0708 71.7058 47.7194 70.1014Z" fill="#7D7E82"/>
</g>
<defs>
<clipPath id="clip0">
<rect width="104.508" height="75.2073" fill="white" transform="translate(20 10)"/>
</clipPath>
</defs>
</svg>
