<svg width="49" height="49" viewBox="0 0 49 49" fill="none" xmlns="http://www.w3.org/2000/svg">
<rect x="0.686035" y="0.125244" width="48" height="48" rx="9" fill="#F8E5E5"/>
<mask id="mask0" mask-type="alpha" maskUnits="userSpaceOnUse" x="3" y="4" width="45" height="45">
<rect width="44" height="44" rx="9" transform="matrix(-1 0 0 1 47.686 4.12524)" fill="#C4C4C4"/>
</mask>
<g mask="url(#mask0)">
<path d="M29.7632 31.4466C29.7632 31.4466 31.6057 30.8903 32.4906 34.0017C33.3754 37.1132 33.9293 43.9961 33.9293 43.9961L30.2796 45.3303L29.7632 31.4466Z" fill="white"/>
<g style="mix-blend-mode:multiply" opacity="0.1">
<path d="M29.7632 31.4466C29.7632 31.4466 31.6057 30.8903 32.4906 34.0017C33.3754 37.1132 33.9293 43.9961 33.9293 43.9961L30.2796 45.3303L29.7632 31.4466Z" fill="#E35757"/>
</g>
<g style="mix-blend-mode:multiply" opacity="0.1">
<path d="M30.9016 31.6072C31.8874 33.9643 32.5727 36.4488 33.3825 38.8837C33.7298 41.5309 33.9293 43.9965 33.9293 43.9965L30.2796 45.3306L29.7632 31.4469C30.1496 31.362 30.5534 31.4188 30.9016 31.6072Z" fill="#E35757"/>
</g>
<path d="M38.5144 39.3892L43.3483 50.0615L28.4488 56.8682L23.6149 46.1959L38.5144 39.3892Z" fill="#162133"/>
<g style="mix-blend-mode:multiply" opacity="0.4">
<path d="M42.9795 49.8375L38.2924 39.4895L38.513 39.3882L43.348 50.0615L28.4487 56.8666L28.3032 56.5437L42.9795 49.8375Z" fill="#162133"/>
</g>
<g style="mix-blend-mode:multiply" opacity="0.4">
<path d="M43.348 50.0615L28.4487 56.8666L23.6161 46.1934L43.348 50.0615Z" fill="#162133"/>
</g>
<g style="mix-blend-mode:multiply" opacity="0.4">
<path d="M40.0932 42.8912L41.7294 46.502L40.5587 47.037L38.9225 43.4262L40.0932 42.8912Z" fill="#162133"/>
</g>
<path d="M40.9495 42.3999L42.5851 46.011L40.7221 46.8621L39.0865 43.251L40.9495 42.3999Z" fill="#E35757"/>
<path d="M40.8698 42.206L42.5054 45.8171L40.6424 46.6682L39.0068 43.0571L40.8698 42.206Z" fill="white"/>
<g style="mix-blend-mode:multiply" opacity="0.2">
<path d="M39.006 43.0583L40.6396 46.6695L42.5032 45.8186" fill="#E35757"/>
</g>
<path d="M30.5495 91.0292C30.5495 91.0292 29.0708 91.5337 27.6743 90.8548L25.1207 63.5823L22.2901 90.9538C21.8515 91.1511 21.3726 91.2416 20.8925 91.2179C20.4125 91.1941 19.9448 91.0568 19.5276 90.8171C19.5276 90.8171 17.6499 75.9362 18.8516 65.6543C20.0533 55.3723 21.7996 47.7044 21.7996 47.7044L21.9451 31.4894C21.9451 31.4894 28.1484 30.4357 29.4558 32.2248C30.7631 34.0139 31.6151 38.0211 31.7512 39.2067C31.8873 40.3924 30.0543 47.3366 30.0543 47.3366C30.0543 47.3366 32.9506 78.1614 30.5495 91.0292Z" fill="#162133"/>
<g style="mix-blend-mode:multiply" opacity="0.4">
<path d="M18.8516 65.6542C20.051 55.3746 21.7996 47.7043 21.7996 47.7043L21.9451 31.4894C21.9451 31.4894 28.1484 30.4357 29.4558 32.2248C30.7631 34.0139 31.6151 38.0211 31.7512 39.2067C31.8873 40.3924 30.0543 47.3366 30.0543 47.3366C30.0543 47.3366 30.1129 47.9448 30.2021 49.0197H30.174C29.6935 48.9054 29.1876 48.9859 28.7657 49.2436C27.6063 49.3332 26.2708 49.939 25.5197 50.4505C24.8414 50.9219 24.0903 51.5654 23.9237 52.4258C23.757 53.2861 23.8603 54.4247 24.5926 55.0469C26.0478 56.2868 27.726 55.5443 29.0168 54.4624C29.5657 54.0088 30.0645 53.4976 30.5049 52.9373C30.7161 55.7847 30.9743 59.4997 31.155 63.5658C29.8367 66.8033 28.9558 70.2035 28.5357 73.6757C28.2639 75.8826 28.1713 78.108 28.2587 80.33C28.3644 82.5505 28.6132 84.7662 28.4512 86.989C28.3432 88.4858 29.8806 88.9573 30.9274 88.4222C30.8171 89.365 30.6927 90.2325 30.5378 91.0386C30.5378 91.0386 29.0591 91.5431 27.6626 90.8642L25.109 63.5917L24.8156 66.4203C24.8156 65.9088 24.7968 65.3949 24.7827 64.8834C24.724 62.6795 21.3161 62.6724 21.3747 64.8834C21.5813 72.6621 21.14 80.4408 20.4899 88.2077C20.3843 89.4546 21.4287 89.9873 22.3981 89.82L22.2784 90.9585C21.8397 91.1558 21.3609 91.2463 20.8808 91.2226C20.4007 91.1988 19.9331 91.0615 19.5159 90.8218C19.5159 90.8218 17.6523 75.9362 18.8516 65.6542Z" fill="#162133"/>
</g>
<path d="M21.7996 47.6077L21.9451 31.4894C21.9451 31.4894 28.1484 30.4357 29.4558 32.2248C30.7631 34.0139 31.6151 38.0211 31.7512 39.2067C31.8873 40.3924 30.0543 47.3366 30.0543 47.3366C30.0543 47.3366 30.0824 47.636 30.1317 48.1829C28.8314 49.1682 26.3717 49.715 21.7996 47.6077Z" fill="#E35757"/>
<g style="mix-blend-mode:multiply" opacity="0.3">
<path d="M21.8958 37.0334C22.485 35.3834 22.9168 34.2402 22.9802 34.259C23.2008 34.3344 24.4542 41.6653 27.3293 41.6653C30.2045 41.6653 29.5145 36.7506 29.9839 37.0004C30.8359 37.4506 31.3921 38.3464 31.7606 39.4802C31.6785 41.2009 30.059 47.3366 30.059 47.3366C30.059 47.3366 30.0871 47.636 30.1364 48.1828C29.3267 46.1627 28.2236 44.0931 27.043 44.3996C25.4892 44.8027 25.0268 47.2282 24.8884 48.7273C23.8289 48.4484 22.7973 48.072 21.8066 47.603L21.8958 37.0334Z" fill="#E35757"/>
</g>
<path d="M28.6624 36.9978C28.6037 37.3278 28.5638 37.5471 28.5638 37.5471L28.4113 38.0868C28.3291 38.4121 28.1766 38.8364 28.0357 39.2654C27.7283 40.1069 27.3316 40.9154 27.2917 40.8919C27.2518 40.8683 27.5687 40.0409 27.8151 39.1924C27.9278 38.7634 28.0498 38.3391 28.1179 38.0138L28.2423 37.4763C28.2423 37.4763 28.2916 37.2618 28.3667 36.9413C28.4418 36.6207 28.5192 36.1893 28.6014 35.7627C28.7422 34.8953 28.7892 34.0137 28.8361 34.0137C28.883 34.0137 28.9135 34.9023 28.8361 35.7933C28.7774 36.2247 28.7328 36.6749 28.6624 36.9978Z" fill="#162133"/>
<path d="M24.3533 35.9939C24.6349 36.3546 24.9236 36.7011 25.1208 36.9934L25.4587 37.4648L25.7568 37.948C25.9399 38.238 26.1652 38.634 26.3905 39.03C26.8318 39.8291 27.2214 40.6517 27.1815 40.68C27.1416 40.7083 26.6816 39.9186 26.191 39.1573C25.9422 38.7801 25.6982 38.3983 25.5033 38.1225L25.1841 37.651L24.872 37.1796C24.6913 36.892 24.4237 36.5243 24.1679 36.1495C23.6398 35.4094 23.0553 34.714 23.0905 34.6786C23.1257 34.6433 23.7712 35.2844 24.3533 35.9939Z" fill="#162133"/>
<path d="M26.8881 31.1498C27.7132 31.9521 28.2805 32.984 28.517 34.1127C28.8855 35.9631 28.5898 73.7251 28.5898 73.7251C28.5898 73.7251 29.998 74.2437 32.9413 73.2065C35.8845 72.1693 36.4783 69.2842 36.4055 68.1739C36.3328 67.0637 31.9813 42.1083 31.9813 42.1083C32.3143 40.9977 32.5368 39.8568 32.6455 38.7022C32.7934 36.9248 31.6879 35.4445 31.472 35.0745C31.256 34.7044 30.2984 31.6683 30.2984 31.6683L29.7821 31.4468C29.4864 30.6312 27.0548 28.4838 27.0548 28.4838L26.8881 31.1498ZM17.0163 55.9543C17.0163 55.9543 13.9205 68.3201 13.7726 69.2087C13.6248 70.0974 18.7132 74.9107 25.2733 73.5035C25.2733 73.5035 26.1582 47.4402 25.7873 41.8136C25.5115 38.2094 24.7942 34.6531 23.6515 31.2252L23.79 28.1892C23.79 28.1892 22.6164 28.1137 21.579 31.0013C21.579 31.0013 20.0299 30.1126 16.4929 34.6313C12.9558 39.15 10.7402 43.7371 10.5196 44.7672C10.2989 45.7973 12.4371 53.3567 13.9862 56.3173C13.9862 56.3244 15.2372 56.5483 17.0163 55.9543ZM17.9011 50.6601C17.9011 50.6601 15.3593 45.274 15.5236 44.5527C15.6879 43.8314 20.2177 38.8318 20.2177 38.8318L17.9011 50.6601Z" fill="white"/>
<path d="M28.6742 32.8895C28.6759 32.6722 28.6226 32.4581 28.5192 32.2672C28.4532 32.1343 28.3746 32.008 28.2845 31.8901L28.1554 31.7322C28.1554 31.7322 28.0944 31.6779 28.0005 31.6025C27.8841 31.5131 27.76 31.4342 27.6297 31.3668C27.4443 31.2575 27.2362 31.1929 27.0218 31.1782C27.0218 31.2089 27.3011 31.322 27.5546 31.4917C27.6672 31.5727 27.7739 31.6617 27.8738 31.7581L28.0099 31.8877L28.139 32.0244C28.233 32.1263 28.3193 32.235 28.3972 32.3497C28.5544 32.5972 28.6436 32.9036 28.6742 32.8895Z" fill="#CDCED0"/>
<path d="M23.4777 33.9454C23.5691 33.5314 23.6326 33.1116 23.6678 32.689L23.7335 31.4162C23.7335 31.4162 23.7054 30.7844 23.6748 30.1503C23.6552 29.7281 23.6082 29.3077 23.534 28.8916C23.5054 29.313 23.5054 29.736 23.534 30.1574V31.4162C23.534 31.4162 23.534 32.0479 23.534 32.6796C23.4899 33.1 23.4711 33.5227 23.4777 33.9454Z" fill="#CDCED0"/>
<path d="M22.9801 37.3328C22.9708 37.4055 22.9708 37.4792 22.9801 37.552C22.9942 37.6911 23.0153 37.8891 23.0388 38.1248C23.0716 38.5962 23.2077 39.2279 23.3204 39.855C23.473 40.4725 23.6114 41.0972 23.7616 41.5498L23.9964 42.3135C23.9964 42.3135 24.1067 42.6105 24.2757 43.0584C24.4446 43.5063 24.6934 44.0861 24.9375 44.6731C25.1816 45.26 25.4656 45.8258 25.7003 46.2453L25.9679 46.7545C25.9982 46.8207 26.036 46.8832 26.0806 46.9407C26.0643 46.8694 26.0391 46.8005 26.0055 46.7356L25.7707 46.21C25.5689 45.781 25.3318 45.194 25.0666 44.6141C24.8014 44.0343 24.5972 43.4355 24.4493 42.99C24.3015 42.5445 24.1888 42.2452 24.1888 42.2452L23.9424 41.4932C23.7828 41.0454 23.6326 40.4301 23.4612 39.822C23.3321 39.202 23.1749 38.5868 23.1162 38.1153L23.02 37.5473C23.0143 37.4745 23.0009 37.4026 22.9801 37.3328Z" fill="#CDCED0"/>
<path d="M21.4757 32.3896C21.4757 32.3896 21.4475 32.4391 21.4147 32.5287C21.3675 32.6546 21.3299 32.7838 21.302 32.9153C21.2174 33.3132 21.1687 33.7179 21.1565 34.1245C21.1436 34.5303 21.1545 34.9364 21.1894 35.3408C21.2011 35.5058 21.2152 35.6449 21.2269 35.7392L21.2457 35.8924C21.2457 35.8924 21.2762 36.1093 21.3419 36.4346C21.4192 36.8327 21.5187 37.2262 21.64 37.6132L21.694 37.7711L21.7315 37.8772L21.7527 37.9408C21.7527 37.9597 21.7527 37.9927 21.7879 37.9714C21.9052 37.9172 22.0226 37.863 22.1306 37.8135C22.2996 37.7429 22.4748 37.6885 22.654 37.6509C22.7812 37.6195 22.9107 37.5982 23.0412 37.5872C23.092 37.5861 23.142 37.5757 23.1891 37.5566C23.1399 37.5448 23.0893 37.5408 23.0389 37.5448C22.9053 37.5389 22.7715 37.5476 22.6399 37.5707C22.4521 37.596 22.2673 37.6402 22.0883 37.7027L21.9404 37.764L21.8513 37.7994C21.8513 37.7994 21.8513 37.7829 21.8513 37.7758L21.8372 37.7263L21.7926 37.5707C21.6861 37.183 21.6015 36.7895 21.5391 36.3921C21.4874 36.0716 21.4593 35.8547 21.4593 35.8547L21.4405 35.7062C21.4241 35.6119 21.4053 35.4705 21.3889 35.3149C21.3428 34.9174 21.3177 34.5177 21.3138 34.1175C21.309 33.7177 21.3349 33.3181 21.3912 32.9224C21.4382 32.6065 21.5062 32.3967 21.4757 32.3896Z" fill="#CDCED0"/>
<path d="M30.3946 37.6177C30.5249 37.6873 30.6598 37.748 30.7983 37.7992C30.918 37.8558 31.0565 37.9265 31.1973 38.0113C31.27 38.049 31.3451 38.0938 31.4179 38.141L31.6033 38.2494L31.6526 38.2777L31.6761 38.2918C31.6761 38.2918 31.6761 38.2753 31.6761 38.2683V38.1575C31.6761 38.0467 31.6761 37.9335 31.6902 37.8251C31.6972 37.7373 31.6972 37.649 31.6902 37.5611C31.6902 37.3938 31.6737 37.2335 31.662 37.0897C31.6245 36.821 31.5986 36.6418 31.5986 36.6418C31.5933 36.6005 31.5854 36.5596 31.5752 36.5192C31.5587 36.4438 31.5306 36.333 31.5001 36.2034C31.4695 36.0737 31.4296 35.9205 31.3804 35.7602C31.3311 35.6 31.2841 35.4255 31.2208 35.2582C31.1081 34.9187 30.972 34.5864 30.8663 34.3412C30.8119 34.2018 30.7435 34.0684 30.6622 33.9429C30.634 33.9547 30.8969 34.617 31.0799 35.3006C31.1339 35.4703 31.1715 35.6447 31.2137 35.805C31.256 35.9653 31.2888 36.1162 31.3123 36.2458C31.3358 36.3755 31.3616 36.4815 31.3757 36.5593C31.3848 36.5989 31.3911 36.6391 31.3944 36.6795L31.4719 37.1132C31.4883 37.2429 31.5001 37.3961 31.5188 37.5611C31.5259 37.645 31.5259 37.7294 31.5188 37.8133V37.9453C31.5174 37.9681 31.5174 37.9909 31.5188 38.0137C31.5188 38.0278 31.5188 38.0514 31.5071 38.0373L31.4625 38.0137L31.2278 37.8982C31.0902 37.8279 30.9483 37.7665 30.803 37.7143C30.6721 37.6629 30.5346 37.6303 30.3946 37.6177Z" fill="#CDCED0"/>
<path d="M28.9512 47.2184C29.0045 47.162 29.051 47.0995 29.0897 47.0322C29.2063 46.8666 29.3144 46.695 29.4136 46.5183C29.7144 45.9812 29.9756 45.4226 30.1951 44.8471C30.4299 44.2201 30.6387 43.5813 30.7749 43.0981C30.8476 42.8624 30.904 42.6549 30.9415 42.5135C30.9791 42.3721 31.0025 42.2919 31.0025 42.2919L31.0589 42.0703C31.0964 41.9313 31.1528 41.7309 31.2232 41.4905C31.4176 40.9027 31.539 40.2931 31.5846 39.6755C31.5876 39.3391 31.523 39.0055 31.3945 38.6949C31.276 38.431 31.1237 38.1838 30.9415 37.9594C30.7866 37.7614 30.6481 37.6059 30.5519 37.488C30.5037 37.4276 30.4494 37.3723 30.39 37.323C30.3759 37.323 30.5848 37.5941 30.8758 37.9971C31.0422 38.224 31.1809 38.4701 31.2889 38.7302C31.3994 39.0317 31.4497 39.3521 31.4367 39.6731C31.3752 40.2739 31.242 40.865 31.0401 41.4339C30.9626 41.6696 30.904 41.8747 30.8617 42.0161C30.8195 42.1576 30.8007 42.2377 30.8007 42.2377C30.8007 42.2377 30.7796 42.3178 30.7444 42.4593C30.7092 42.6007 30.6575 42.8034 30.5918 43.0439C30.4651 43.5294 30.2726 44.1682 30.0567 44.7952C29.8535 45.3715 29.6144 45.9345 29.3408 46.4806C29.1108 46.9214 28.9348 47.2066 28.9512 47.2184Z" fill="#CDCED0"/>
<path d="M15.5329 44.4773C15.5444 44.5488 15.5649 44.6185 15.5939 44.6847C15.6385 44.812 15.7066 44.9959 15.784 45.2151C15.9554 45.6488 16.1478 46.2405 16.352 46.8274C16.7417 48.006 17.1524 49.1846 17.1524 49.1846L17.4411 49.9059C17.4857 50.0143 17.5326 50.1416 17.5819 50.2571C17.6312 50.3726 17.6946 50.507 17.7556 50.639C17.8776 50.9053 18.002 51.1905 18.1405 51.4687C18.3967 51.979 18.682 52.474 18.9949 52.9514L19.3117 53.4228C19.3479 53.4835 19.3913 53.5397 19.4408 53.5901C19.4169 53.5227 19.3845 53.4585 19.3446 53.3992L19.0629 52.9113C18.8118 52.5223 18.5513 51.9684 18.272 51.4098C18.1452 51.1293 18.0372 50.8417 17.9128 50.5753L17.7509 50.1911L17.6195 49.8399L17.3496 49.1162L16.4905 46.7826C16.2675 46.2004 16.054 45.604 15.8592 45.1892C15.7653 44.977 15.6878 44.7979 15.6244 44.6729C15.6019 44.6042 15.5712 44.5385 15.5329 44.4773Z" fill="#CDCED0"/>
<path d="M20.0299 38.4805C20.0299 38.4805 20.0698 38.4452 20.1238 38.3698C20.2023 38.2691 20.2707 38.1609 20.328 38.0468C20.5084 37.7037 20.6433 37.3384 20.7294 36.9602C20.8177 36.5827 20.8766 36.1989 20.9054 35.8122C20.9218 35.4964 20.9265 35.2842 20.9265 35.2842C20.9265 35.2842 20.9265 35.2324 20.9265 35.1381C20.9265 35.0438 20.9265 34.9024 20.9054 34.7586C20.8759 34.3736 20.8218 33.991 20.7434 33.613C20.6675 33.2355 20.5584 32.8656 20.4172 32.5075C20.3719 32.3885 20.3186 32.2727 20.2576 32.161C20.2153 32.0809 20.1895 32.0361 20.1825 32.0384C20.2256 32.207 20.2781 32.3731 20.3397 32.5358C20.4528 32.8975 20.5399 33.267 20.6003 33.6413C20.6609 34.015 20.6985 34.392 20.7129 34.7704C20.7129 34.9236 20.7129 35.0532 20.7129 35.1428V35.2842C20.7129 35.2842 20.7129 35.4917 20.7129 35.8005C20.698 36.1786 20.6557 36.5552 20.5862 36.9272C20.5175 37.3001 20.4064 37.6639 20.2552 38.0115C20.2074 38.1267 20.1517 38.2386 20.0886 38.3462C20.0622 38.3876 20.0424 38.433 20.0299 38.4805Z" fill="#CDCED0"/>
<path d="M13.3737 45.9505C13.4397 45.9426 13.5044 45.926 13.5661 45.901C13.6391 45.8807 13.7099 45.853 13.7774 45.8185C13.8682 45.7812 13.956 45.7371 14.0402 45.6865C14.4945 45.4128 14.9018 45.0674 15.2466 44.6635C15.6316 44.2321 15.9719 43.7701 16.2324 43.4307C16.3638 43.261 16.4671 43.1195 16.5516 43.0252C16.6361 42.9309 16.676 42.8767 16.676 42.8767L17.1454 42.344C17.4177 42.0187 17.8214 41.6133 18.2086 41.1961C18.5959 40.7788 18.9926 40.364 19.2508 40.0175C19.4086 39.8383 19.5529 39.6476 19.6826 39.447C19.5075 39.6084 19.3429 39.7808 19.1897 39.9632C18.9151 40.2885 18.4997 40.6704 18.103 41.0876C17.7064 41.5048 17.2886 41.8867 17.0023 42.2096L16.5164 42.7377C16.4722 42.7864 16.4306 42.8375 16.392 42.8909C16.3146 42.9922 16.2066 43.1266 16.0798 43.3105C15.8264 43.657 15.5001 44.126 15.141 44.5621C14.8162 44.9664 14.4333 45.3199 14.005 45.6111C13.6436 45.8468 13.3666 45.9317 13.3737 45.9505Z" fill="#CDCED0"/>
<g style="mix-blend-mode:multiply" opacity="0.1">
<path d="M32.9343 73.2113C35.8822 72.1766 36.4713 69.289 36.3986 68.1788C36.3845 67.9808 36.239 67.0379 36.0042 65.6189C35.7461 67.8535 35.0959 69.8382 33.6712 70.0292C30.3525 70.4723 29.8361 47.5936 29.8361 47.3697C29.8361 47.1999 31.1317 44.4727 32.0377 42.4715C31.9978 42.2357 31.9743 42.1132 31.9743 42.1132C32.3073 41.0026 32.5298 39.8617 32.6385 38.707C32.6719 38.2837 32.641 37.8577 32.547 37.4436C32.547 38.3016 32.439 39.0253 32.1222 38.9286C31.3852 38.707 30.782 37.479 30.8242 37.7218C30.8665 37.9645 32.1222 40.4113 30.3548 40.6329C29.4301 40.7484 28.9278 39.8126 28.6602 38.8933C28.7752 49.4793 28.5851 73.7299 28.5851 73.7299C28.5851 73.7299 29.984 74.2438 32.9343 73.2113ZM25.8555 49.1399C25.0645 46.6554 22.3888 37.8938 22.3888 37.8938C22.3888 37.8938 23.4215 40.5598 24.527 41.0029C25.6325 41.4461 25.1185 37.8938 25.1185 37.8938C25.2281 38.3411 25.3605 38.7825 25.5151 39.2162C25.6301 40.0554 25.724 40.9275 25.7804 41.8091C25.8742 43.2187 25.8883 45.9011 25.8555 49.1352V49.1399ZM17.6712 57.0529C18.2603 55.9592 21.1355 56.1808 20.4736 52.183C19.8117 48.1852 21.2669 42.3206 21.3115 41.2174C21.3561 40.1143 20.7388 33.6108 20.7388 33.6108C20.7388 33.6108 19.6615 38.4053 17.1548 40.6989C14.6481 42.9924 12.51 44.9206 11.7002 44.3289C11.4256 44.1285 11.2519 43.6807 11.144 43.1786C10.8877 43.6895 10.6788 44.2228 10.5196 44.7721C10.4187 45.2435 10.8083 47.0679 11.4068 49.1918C11.8152 48.065 12.524 46.7191 13.6154 46.5494C15.533 46.2524 17.6712 51.2142 17.3027 52.6214C16.9929 53.8 14.9556 55.2497 12.9606 53.958C13.257 54.7629 13.5995 55.5499 13.9863 56.3151C13.9863 56.3151 15.2373 56.5391 17.007 55.9451C17.007 55.9451 13.9112 68.3108 13.7633 69.1994C13.6154 70.0881 18.7039 74.9014 25.264 73.4942C25.264 73.4942 25.4166 68.9496 25.5691 63.2452C24.9143 67.5023 23.6914 70.9555 21.5016 70.3851C16.4178 69.0604 17.0821 58.1396 17.6712 57.0482V57.0529ZM15.5142 44.5599C15.6809 43.8386 20.2084 38.839 20.2084 38.839L17.8848 50.6673C17.8848 50.6673 15.3499 45.2741 15.5142 44.5528V44.5599Z" fill="#E35757"/>
</g>
<path d="M29.7045 32.1963C29.4538 31.5653 29.1678 30.9491 28.8478 30.3506L28.9229 30.3105C31.4531 32.6795 31.446 37.1464 31.446 37.2006C31.4448 37.2557 31.4269 37.3092 31.3946 37.3539C31.3623 37.3985 31.3172 37.4322 31.2653 37.4504C31.2365 37.4599 31.2064 37.4647 31.1761 37.4646C31.1062 37.464 31.0393 37.4356 30.9901 37.3857C30.9409 37.3358 30.9133 37.2685 30.9133 37.1982C30.9133 37.1464 30.9203 34.4073 29.7045 32.1963Z" fill="#1F2330"/>
<g style="mix-blend-mode:multiply" opacity="0.5">
<path d="M29.1342 30.8953C29.0426 30.7091 28.9488 30.5228 28.8502 30.3413L28.9229 30.3013C31.4531 32.6702 31.446 37.137 31.446 37.1912C31.4448 37.2464 31.4269 37.2999 31.3946 37.3445C31.3623 37.3892 31.3172 37.4229 31.2653 37.4411C31.2365 37.4505 31.2064 37.4553 31.1761 37.4552C31.1489 37.4534 31.1221 37.4478 31.0963 37.4387C31.1406 37.3903 31.1664 37.3277 31.1691 37.2619C31.1691 37.2101 31.1738 33.3396 29.1342 30.8953Z" fill="#1F2330"/>
</g>
<path d="M34.685 43.9658C34.7437 43.9455 34.7933 43.905 34.825 43.8515C34.8568 43.7981 34.8688 43.735 34.8587 43.6735C34.8235 43.4637 34.0044 38.5325 32.2065 37.2738C32.0372 37.1473 31.8437 37.0574 31.6381 37.0095C31.4325 36.9616 31.2193 36.9569 31.0119 36.9956C28.4301 37.5001 29.1154 43.8315 29.1999 44.5669C29.2037 44.6017 29.2143 44.6355 29.2311 44.6662C29.2479 44.6969 29.2706 44.724 29.2979 44.7459C29.3251 44.7678 29.3564 44.7841 29.39 44.7938C29.4235 44.8036 29.4586 44.8066 29.4933 44.8026C29.5631 44.7943 29.6269 44.7588 29.6708 44.7036C29.7147 44.6485 29.7353 44.5782 29.728 44.508C29.5097 42.6812 29.3431 37.8584 31.1151 37.5189C31.2538 37.4931 31.3964 37.497 31.5335 37.5303C31.6706 37.5636 31.7992 37.6256 31.9108 37.7122C33.5279 38.8437 34.3353 43.7136 34.3447 43.7631C34.3557 43.8322 34.3935 43.894 34.4498 43.9351C34.5061 43.9762 34.5764 43.9932 34.6451 43.9823L34.685 43.9658Z" fill="#1F2330"/>
<g style="mix-blend-mode:multiply" opacity="0.5">
<path d="M29.3784 41.8087C29.3479 39.2418 30.1389 37.2641 31.2209 37.2806C32.3029 37.2971 33.0986 38.8764 33.568 40.2106C34.0374 41.5447 34.2721 43.5648 34.5538 43.6049C34.6875 43.6238 34.7556 43.4965 34.7885 43.3527C34.8213 43.5295 34.8401 43.645 34.8448 43.6733C34.8548 43.7347 34.8429 43.7978 34.8111 43.8513C34.7793 43.9048 34.7298 43.9452 34.6711 43.9656H34.6265C34.5578 43.9764 34.4875 43.9594 34.4312 43.9183C34.3749 43.8772 34.3371 43.8154 34.3261 43.7463C34.3261 43.6968 33.5093 38.8269 31.8922 37.6955C31.7806 37.6088 31.652 37.5468 31.5149 37.5135C31.3778 37.4802 31.2352 37.4764 31.0965 37.5022C29.3245 37.8416 29.4911 42.6644 29.7094 44.4912C29.7167 44.5614 29.6961 44.6317 29.6522 44.6869C29.6083 44.742 29.5445 44.7776 29.4747 44.7858C29.44 44.7898 29.4049 44.7868 29.3713 44.7771C29.3378 44.7673 29.3065 44.7511 29.2793 44.7292C29.252 44.7073 29.2293 44.6802 29.2125 44.6495C29.1957 44.6187 29.1851 44.585 29.1813 44.5501C29.1813 44.4912 29.1649 44.3922 29.1508 44.2649C29.3362 44.0433 29.3949 43.2207 29.3784 41.8087Z" fill="#1F2330"/>
</g>
<path d="M34.7039 43.8713C34.7039 43.8713 34.9386 45.618 33.3473 46.4406C31.756 47.2633 30.8594 47.0794 30.8594 47.0794C30.8594 47.0794 29.9487 47.4967 29.8008 47.1101C29.6084 46.6056 30.2984 46.4878 30.8218 46.8437C30.8218 46.8437 31.5447 47.1336 33.2417 46.2308C34.6945 45.46 34.5255 43.8218 34.5255 43.8218C34.5255 43.8218 34.6851 43.7794 34.7039 43.8713Z" fill="#838A98"/>
<g style="mix-blend-mode:multiply" opacity="0.3">
<path d="M30.7397 46.9334C30.7397 46.9334 31.6316 47.1149 33.2299 46.2946C33.6756 46.062 34.0429 45.7023 34.2855 45.2606C34.5282 44.819 34.6353 44.3152 34.5936 43.8125C34.6382 43.8125 34.6922 43.8125 34.7039 43.8714C34.7039 43.8714 34.9386 45.6181 33.3473 46.4407C31.7559 47.2634 30.8594 47.0795 30.8594 47.0795C30.8594 47.0795 29.9487 47.4967 29.8008 47.1101V47.0842C30.0801 47.2327 30.7397 46.9334 30.7397 46.9334Z" fill="#E35757"/>
</g>
<path d="M29.3736 44.6397C29.3736 44.6397 29.5309 46.3981 31.2724 46.8342C33.014 47.2703 33.8401 46.8907 33.8401 46.8907C33.8401 46.8907 34.8189 47.0911 34.8775 46.681C34.9503 46.1459 34.2532 46.1883 33.8214 46.655C33.8214 46.655 33.1853 47.1005 31.3264 46.6079C29.7398 46.186 29.5356 44.5501 29.5356 44.5501C29.5356 44.5501 29.3713 44.5454 29.3736 44.6397Z" fill="#838A98"/>
<g style="mix-blend-mode:multiply" opacity="0.3">
<path d="M33.9152 46.7238C33.9152 46.7238 33.0891 47.1033 31.3475 46.6649C30.863 46.5377 30.4266 46.2701 30.0927 45.8953C29.7587 45.5205 29.5421 45.0553 29.4699 44.5576C29.4253 44.5576 29.3736 44.5883 29.376 44.6401C29.376 44.6401 29.5332 46.3986 31.2748 46.8346C33.0163 47.2707 33.8425 46.8912 33.8425 46.8912C33.8425 46.8912 34.8212 47.0916 34.8799 46.6814C34.8787 46.6728 34.8787 46.6641 34.8799 46.6555C34.6334 46.8676 33.9152 46.7238 33.9152 46.7238Z" fill="#E35757"/>
</g>
<path d="M21.3818 32.392C21.8019 30.221 22.7901 29.033 23.3487 28.5074L23.4496 28.4696L23.6444 28.406V28.8774C23.1351 29.363 22.2362 30.4732 21.8395 32.4863C21.2809 35.3667 21.7691 36.8942 21.7738 36.9083L21.3325 37.0592C21.3114 36.9885 20.7974 35.4068 21.3818 32.392Z" fill="#1F2330"/>
<path d="M21.6259 32.4463C22.0461 30.2777 23.0342 29.0897 23.5928 28.564L23.6444 28.5452V28.8728C23.1351 29.3584 22.2362 30.4686 21.8395 32.4816C21.2809 35.3621 21.7691 36.8895 21.7738 36.9037L21.5391 36.9838C21.4288 36.5548 21.126 35.025 21.6259 32.4463Z" fill="#162133"/>
<path d="M20.0674 39.4541C20.3022 40.6916 21.2856 41.5425 22.2784 41.3587C23.2712 41.1748 23.8955 40.0221 23.6679 38.787C23.4402 37.5518 22.4497 36.6962 21.4569 36.8824C20.4641 37.0686 19.8515 38.2189 20.0674 39.4541Z" fill="#E35757"/>
<g style="mix-blend-mode:screen" opacity="0.5">
<path d="M20.0676 39.4541C19.8329 38.219 20.4619 37.0663 21.4571 36.8825C21.7186 36.8348 21.9881 36.8568 22.2386 36.9461C22.538 37.3016 22.7387 37.7301 22.8207 38.1883C23.0554 39.4258 22.424 40.5761 21.4312 40.7624C21.1687 40.8093 20.8984 40.7866 20.6473 40.6964C20.3478 40.3413 20.1477 39.9125 20.0676 39.4541Z" fill="#E35757"/>
</g>
<g style="mix-blend-mode:multiply" opacity="0.3">
<path d="M21.3114 41.2125C21.6131 41.3669 21.9567 41.4182 22.2901 41.3587C23.2853 41.1748 23.9073 40.0221 23.6796 38.787C23.4519 37.5518 22.4615 36.6962 21.4686 36.8824C21.2892 36.9148 21.1173 36.9803 20.9617 37.0757L21.0907 37.0427C22.0178 36.8706 22.9426 37.6673 23.1538 38.82C23.3651 39.9726 22.7877 41.0499 21.8583 41.222C21.6771 41.2543 21.4914 41.251 21.3114 41.2125Z" fill="#E35757"/>
</g>
<path d="M20.41 39.268C20.5415 39.9751 21.1142 40.4748 21.6892 40.3688C22.2642 40.2627 22.628 39.5956 22.4943 38.8814C22.3605 38.1672 21.7901 37.6722 21.2151 37.7782C20.6401 37.8843 20.2786 38.5608 20.41 39.268Z" fill="white"/>
<g style="mix-blend-mode:multiply" opacity="0.3">
<g style="mix-blend-mode:multiply" opacity="0.3">
<path d="M20.4806 39.1853C20.5769 39.7015 20.99 40.0575 21.4054 39.9797C21.8208 39.9019 22.079 39.4234 21.9851 38.9072C21.8912 38.3909 21.4758 38.035 21.0604 38.1104C20.6449 38.1859 20.3868 38.6691 20.4806 39.1853Z" fill="#E35757"/>
</g>
</g>
<g style="mix-blend-mode:multiply" opacity="0.3">
<g style="mix-blend-mode:multiply" opacity="0.3">
<path d="M20.7386 38.6266C20.7447 38.7059 20.7816 38.7796 20.8413 38.8316C20.9011 38.8837 20.9789 38.91 21.0579 38.9048C21.1333 38.8808 21.1966 38.8283 21.2343 38.7584C21.2719 38.6885 21.281 38.6066 21.2597 38.53C21.252 38.4512 21.2141 38.3785 21.1542 38.3271C21.0943 38.2757 21.0168 38.2495 20.9382 38.2542C20.8633 38.2781 20.8006 38.3304 20.7634 38.3999C20.7261 38.4694 20.7173 38.5507 20.7386 38.6266Z" fill="#E35757"/>
</g>
</g>
<g style="mix-blend-mode:multiply" opacity="0.3">
<g style="mix-blend-mode:multiply" opacity="0.3">
<path d="M20.7411 39.2371C20.7519 39.3714 20.8147 39.496 20.9161 39.5842C21.0175 39.6724 21.1494 39.717 21.2832 39.7085C21.4109 39.6687 21.5179 39.5804 21.5815 39.4623C21.6451 39.3443 21.6602 39.2059 21.6236 39.0768C21.6133 38.9423 21.5506 38.8173 21.4491 38.729C21.3476 38.6408 21.2154 38.5963 21.0814 38.6054C20.9534 38.6447 20.8459 38.733 20.7822 38.8512C20.7186 38.9694 20.7038 39.108 20.7411 39.2371Z" fill="#E35757"/>
</g>
</g>
<g style="mix-blend-mode:multiply" opacity="0.3">
<g style="mix-blend-mode:multiply" opacity="0.3">
<path d="M21.3443 40.3334C21.9193 40.2274 22.2831 39.5603 22.147 38.8437C22.113 38.6078 22.0176 38.3851 21.8705 38.198C21.7234 38.0109 21.5297 37.8662 21.3091 37.7783C21.8513 37.7382 22.37 38.2096 22.4826 38.8861C22.6141 39.5933 22.2479 40.2674 21.6776 40.3735C21.53 40.401 21.3778 40.3888 21.2363 40.3381C21.2786 40.3358 21.3114 40.3381 21.3443 40.3334Z" fill="#E35757"/>
</g>
</g>
<g style="mix-blend-mode:screen" opacity="0.5">
<path d="M22.7127 38.6504C22.7315 38.7895 22.8042 38.8861 22.8746 38.8861C22.945 38.8861 22.985 38.7541 22.9662 38.6127C22.9474 38.4712 22.8723 38.377 22.8019 38.377C22.7315 38.377 22.6916 38.509 22.7127 38.6504ZM22.8488 39.1949C22.9709 39.1949 23.0694 39.3952 23.0671 39.6427C23.0648 39.8902 22.9662 40.0883 22.8324 40.0883C22.6986 40.0883 22.6118 39.8855 22.6141 39.6404C22.6165 39.3952 22.7268 39.1925 22.8488 39.1949Z" fill="#E35757"/>
</g>
<path d="M25.3155 9.64299C26.5806 11.8587 26.8505 14.7298 27.1439 17.4217C27.395 19.7199 28.3667 26.2493 25.1911 27.1568C21.2879 28.2717 14.7959 29.4786 11.9887 25.5963C9.40695 22.0346 11.5193 16.5094 13.005 12.9784C14.1786 10.1498 14.6644 7.70068 17.8072 6.4443C20.6002 5.32465 23.9143 7.18446 25.3155 9.64299Z" fill="#310808"/>
<g style="mix-blend-mode:multiply" opacity="0.6">
<path d="M16.4247 20.9528C16.3778 19.0167 15.7986 17.1314 14.7512 15.5054C14.2552 14.6869 13.6007 13.9768 12.8266 13.4169L13.005 12.9879C13.3476 12.1676 13.6316 11.3803 13.9438 10.6449C15.496 10.9981 17.1176 10.8833 18.6051 10.3149C19.9852 9.75384 21.3301 8.9689 22.0037 7.55931C22.1202 7.31729 22.216 7.06573 22.29 6.80737C23.5495 7.43861 24.6014 8.42057 25.3201 9.63598C26.5852 11.8517 26.8551 14.7228 27.1485 17.4147C27.3996 19.7129 28.3713 26.2423 25.1957 27.1498C21.7619 28.1327 16.3261 29.1817 13.1552 26.775C15.054 25.4456 16.427 23.4985 16.4247 20.9528Z" fill="#310808"/>
</g>
<path d="M12.6953 18.8218C12.7722 18.7043 12.8375 18.5796 12.8901 18.4493C12.9611 18.3051 13.0222 18.1563 13.0732 18.0038C13.151 17.8098 13.2176 17.6115 13.2727 17.4098C13.4214 16.9081 13.5367 16.3971 13.6177 15.88C13.6999 15.3119 13.7656 14.7014 13.8008 14.0933C13.836 13.4851 13.8712 12.8746 13.9205 12.3112C13.9599 11.8007 14.0383 11.294 14.1552 10.7956C14.2423 10.4491 14.3609 10.1114 14.5096 9.7867C14.5683 9.6712 14.6152 9.58163 14.6481 9.52034C14.6629 9.48914 14.6802 9.45919 14.6997 9.43078L14.7537 9.3412C14.7992 9.25676 14.8494 9.17491 14.9039 9.09605C15.0424 8.88627 15.2818 8.58691 15.5658 8.24512C15.8945 7.85924 16.2574 7.5042 16.6502 7.18439C17.0976 6.81979 17.6108 6.54527 18.1617 6.37587C18.7185 6.21484 19.2997 6.15576 19.8774 6.20144C20.3846 6.23771 20.8849 6.34073 21.3654 6.50787C21.8323 6.6857 22.2823 6.905 22.7103 7.16317C22.6121 7.06346 22.5026 6.97565 22.3841 6.90153C22.0795 6.69427 21.7528 6.52191 21.41 6.38766C20.9238 6.19533 20.4137 6.07081 19.8938 6.01759C19.2923 5.952 18.6839 5.99672 18.0983 6.14959C17.5127 6.31363 16.9649 6.59153 16.4859 6.96753C16.0697 7.28873 15.6854 7.64948 15.3381 8.04476C15.0354 8.39362 14.7983 8.68119 14.634 8.90983C14.5702 8.99426 14.5114 9.08242 14.458 9.17384L14.3993 9.26813C14.3782 9.29976 14.3594 9.33284 14.343 9.36713C14.3101 9.43313 14.2632 9.52977 14.1998 9.65234C14.0493 9.99927 13.9299 10.359 13.8431 10.7272C13.7314 11.2433 13.6608 11.7674 13.6318 12.2947C13.5943 12.8699 13.5825 13.4733 13.552 14.0838C13.5215 14.6943 13.4839 15.2954 13.4182 15.8588C13.3541 16.3716 13.2592 16.8801 13.1342 17.3815C12.9277 18.256 12.6648 18.8076 12.6953 18.8218Z" fill="#5A543C"/>
<g style="mix-blend-mode:screen">
<path d="M17.7203 7.26935C17.7743 7.40607 18.0301 7.432 18.2906 7.33064C18.5511 7.22928 18.7178 7.02891 18.6638 6.8922C18.6098 6.75548 18.354 6.72955 18.0935 6.83327C17.8329 6.93698 17.6663 7.13263 17.7203 7.26935Z" fill="#5A543C"/>
</g>
<g style="mix-blend-mode:screen">
<path d="M16.7298 7.87272C16.7791 7.96701 16.9645 7.96937 17.1453 7.87272C17.326 7.77606 17.434 7.63698 17.38 7.5309C17.326 7.42482 17.1453 7.43425 16.9645 7.5309C16.7838 7.62755 16.6829 7.77606 16.7298 7.87272Z" fill="#5A543C"/>
</g>
<path d="M27.1816 27.5599V31.1122C27.1816 31.1122 27.8458 32.2248 27.8458 32.9979C27.8458 33.7711 27.2919 36.8873 27.2919 36.8873L23.6445 31.23V26.5652L27.1816 27.5599Z" fill="#EABBA8"/>
<g style="mix-blend-mode:multiply" opacity="0.4">
<path d="M23.6443 28.0008V26.5605L27.1814 27.56V29.0191C25.9232 29.0771 24.6808 28.7195 23.6443 28.0008Z" fill="#C87568"/>
</g>
<path d="M28.146 11.1514C28.146 11.1514 32.1478 12.0259 33.1734 14.6541C34.1991 17.2824 33.84 21.457 33.84 21.457C33.84 21.457 35.0136 23.5784 34.5066 25.3204C33.9996 27.0623 31.4765 28.6935 27.632 28.3611C26.3775 28.2581 25.1626 27.8709 24.0784 27.2287C22.9943 26.5865 22.0691 25.706 21.3723 24.6533C21.3723 24.6533 19.0135 25.5302 17.8329 23.6232C16.6523 21.7162 17.3635 18.8829 20.0392 20.0686C20.0392 20.0662 19.2693 10.9958 28.146 11.1514Z" fill="#EABBA8"/>
<g style="mix-blend-mode:multiply" opacity="0.2">
<g style="mix-blend-mode:multiply" opacity="0.2">
<path d="M20.2693 21.9285C20.7153 22.7252 20.5791 23.6493 19.9689 23.9934C19.3587 24.3376 18.8939 23.9274 18.4503 23.1307C18.0067 22.334 17.7462 21.4524 18.3565 21.1082C18.9667 20.764 19.8328 21.1294 20.2693 21.9285Z" fill="#C87568"/>
</g>
</g>
<path d="M20.4032 22.1596C20.3572 22.0529 20.3022 21.9504 20.2389 21.8532C20.1723 21.7586 20.0994 21.6689 20.0206 21.5844C19.8499 21.3955 19.6492 21.2362 19.4268 21.113C19.2059 20.9886 18.9571 20.9229 18.7039 20.9221C18.5888 20.9134 18.4737 20.9388 18.3729 20.9952C18.3729 21.014 18.5091 20.9952 18.6992 21.0117C18.9294 21.0399 19.1501 21.1205 19.3446 21.2474C19.5414 21.3758 19.7165 21.535 19.8633 21.7188C19.9305 21.7996 19.9924 21.8846 20.0487 21.9734C20.109 22.0602 20.1639 22.1508 20.213 22.2444L20.2482 22.3199C20.1345 22.2549 20.0059 22.2208 19.8751 22.2209C19.7395 22.2234 19.6066 22.259 19.4878 22.3246C19.4484 22.345 19.4107 22.3687 19.3751 22.3953L19.3352 22.4259L19.3 22.466C19.2695 22.4991 19.2428 22.5355 19.2202 22.5744C19.1452 22.6891 19.1015 22.8216 19.0935 22.9587C19.0876 23.0915 19.1176 23.2234 19.1803 23.3405C19.2367 23.4301 19.2836 23.4772 19.2953 23.4702C19.3071 23.4631 19.2953 23.3947 19.2625 23.3075C19.2388 23.1988 19.2388 23.0862 19.2625 22.9775C19.2841 22.8742 19.3308 22.7778 19.3986 22.697C19.4296 22.6615 19.4626 22.6277 19.4972 22.5957L19.5253 22.5697C19.5493 22.5454 19.5761 22.524 19.6051 22.5061C19.691 22.444 19.7897 22.4021 19.8938 22.3835C20.0027 22.3666 20.1139 22.373 20.2201 22.4024L20.3046 22.4283C20.3658 22.5793 20.4068 22.7379 20.4266 22.8997C20.442 23.0226 20.442 23.1469 20.4266 23.2698C20.4101 23.3772 20.3794 23.4818 20.3351 23.581C20.2576 23.7577 20.1708 23.8615 20.1849 23.8756C20.199 23.8897 20.3046 23.8002 20.4196 23.6234C20.4825 23.5218 20.53 23.4114 20.5604 23.2957C20.5934 23.1624 20.6084 23.0253 20.605 22.8879C20.585 22.6344 20.5165 22.3871 20.4032 22.1596Z" fill="#FC9595"/>
<g style="mix-blend-mode:multiply" opacity="0.2">
<g style="mix-blend-mode:multiply" opacity="0.2">
<path d="M30.7607 22.195C30.6958 22.371 30.5682 22.5166 30.4026 22.6037C30.237 22.6908 30.0452 22.7131 29.8642 22.6664C29.7745 22.6614 29.6869 22.6375 29.6072 22.596C29.5274 22.5546 29.4573 22.4967 29.4015 22.4261C29.3456 22.3555 29.3052 22.2739 29.283 22.1865C29.2608 22.0991 29.2573 22.008 29.2727 21.9192C29.2727 21.9192 28.6296 22.4472 28.646 22.7183C28.6625 22.9894 31.2677 23.8922 30.7607 22.195Z" fill="#C87568"/>
</g>
</g>
<path d="M28.6483 22.6569C28.6648 22.6569 28.7117 22.5792 28.8009 22.4731C28.9113 22.345 29.0413 22.2352 29.1858 22.1478C29.3283 22.0616 29.4825 21.9965 29.6435 21.9545C29.7149 21.9355 29.788 21.9237 29.8618 21.9191H29.9205C29.972 21.915 30.0238 21.915 30.0754 21.9191C30.2285 21.9216 30.3755 21.9803 30.4885 22.0841C30.5975 22.2034 30.6658 22.3545 30.6833 22.5155C30.7044 22.6522 30.702 22.7512 30.7208 22.7512C30.7396 22.7512 30.7678 22.6593 30.7748 22.5155C30.7873 22.3226 30.7298 22.1316 30.6129 21.9781C30.5444 21.8942 30.4577 21.8273 30.3594 21.7824C30.276 21.7446 30.1873 21.72 30.0965 21.7094C30.0325 21.703 29.968 21.703 29.904 21.7094C29.8806 21.7074 29.8571 21.7074 29.8336 21.7094C29.7481 21.7215 29.664 21.742 29.5825 21.7706C29.4057 21.8311 29.24 21.9203 29.0919 22.0346C28.9427 22.1451 28.818 22.2856 28.7258 22.4472C28.653 22.5532 28.6343 22.6522 28.6483 22.6569Z" fill="#FC9595"/>
<g style="mix-blend-mode:multiply" opacity="0.2">
<g style="mix-blend-mode:multiply" opacity="0.2">
<path d="M23.4402 24.0073C23.4402 24.6325 23.6875 25.232 24.1277 25.6741C24.5678 26.1161 25.1648 26.3645 25.7873 26.3645C26.4098 26.3645 27.0068 26.1161 27.447 25.6741C27.8871 25.232 28.1344 24.6325 28.1344 24.0073C28.1344 23.3822 27.8871 22.7826 27.447 22.3405C27.0068 21.8985 26.4098 21.6501 25.7873 21.6501C25.1648 21.6501 24.5678 21.8985 24.1277 22.3405C23.6875 22.7826 23.4402 23.3822 23.4402 24.0073Z" fill="#C87568"/>
</g>
</g>
<g style="mix-blend-mode:multiply" opacity="0.2">
<g style="mix-blend-mode:multiply" opacity="0.2">
<path d="M31.5962 23.8542C31.5962 24.4794 31.8435 25.0789 32.2837 25.521C32.7238 25.963 33.3208 26.2114 33.9433 26.2114C33.9926 26.2114 34.0395 26.2114 34.0865 26.2114C34.2726 25.9426 34.4152 25.6458 34.5089 25.3322C34.9784 23.734 34.0395 21.8341 33.8682 21.5159C33.262 21.5353 32.6869 21.7897 32.2634 22.2256C31.8399 22.6615 31.6008 23.2451 31.5962 23.8542Z" fill="#C87568"/>
</g>
</g>
<g style="mix-blend-mode:screen">
<g style="mix-blend-mode:screen">
<g style="mix-blend-mode:screen">
<path d="M24.1303 22.7959C24.1303 22.9185 24.2945 23.0198 24.5081 23.0316C24.7217 23.0434 24.9001 22.9467 24.9024 22.8265C24.9048 22.7063 24.7358 22.5908 24.5222 22.5908C24.3086 22.5908 24.1326 22.6757 24.1303 22.7959Z" fill="#FAC198"/>
</g>
</g>
</g>
<path d="M25.7827 20.8656C25.7827 21.4572 26.0995 21.9334 26.4727 21.9287C26.8459 21.924 27.1463 21.4431 27.1393 20.8514C27.1322 20.2598 26.8224 19.7837 26.4492 19.7884C26.0761 19.7931 25.7756 20.2739 25.7827 20.8656Z" fill="#310808"/>
<path d="M26.5665 20.0875C26.5783 20.0757 26.6229 20.0875 26.6862 20.1134C26.7628 20.1334 26.842 20.1414 26.9209 20.137C26.9943 20.1303 27.0659 20.1103 27.1322 20.078C27.1614 20.0644 27.1897 20.0486 27.2167 20.0309L27.2401 20.0167C27.2618 20.0074 27.2823 19.9956 27.3012 19.9814C27.3612 19.941 27.4116 19.8879 27.449 19.8258C27.4875 19.7591 27.5122 19.6854 27.5218 19.6089C27.5218 19.5453 27.5218 19.4958 27.5476 19.4911C27.5734 19.4864 27.5875 19.5288 27.611 19.6042C27.6328 19.6996 27.6279 19.7991 27.5969 19.8918C27.5638 19.9871 27.5091 20.0734 27.4373 20.144C27.4138 20.1671 27.3887 20.1883 27.3622 20.2077L27.3317 20.2313C27.2906 20.2498 27.2482 20.2656 27.2049 20.2784C27.1102 20.304 27.0114 20.3112 26.9139 20.2996C26.8189 20.2851 26.7288 20.2479 26.651 20.1912C26.5853 20.1417 26.5571 20.0992 26.5665 20.0875Z" fill="#310808"/>
<path d="M26.9491 19.8518C26.9013 19.9213 26.8344 19.9753 26.7566 20.0074C26.6932 20.0286 26.6486 20.0239 26.6439 20.0074C26.6392 19.9909 26.6721 19.9673 26.7097 19.9272C26.7527 19.8817 26.7862 19.828 26.8082 19.7693C26.8304 19.7103 26.8438 19.6484 26.8481 19.5854C26.8481 19.5336 26.8481 19.4982 26.8481 19.4982C26.8626 19.4053 26.8626 19.3107 26.8481 19.2177C26.8384 19.1512 26.8203 19.0863 26.7942 19.0244C26.773 18.9726 26.7519 18.9396 26.7613 18.9254C26.7707 18.9113 26.8153 18.9254 26.8646 18.9702C26.9253 19.0246 26.9727 19.0924 27.003 19.1682C27.0484 19.2782 27.0731 19.3957 27.0758 19.5147C27.0758 19.5147 27.0758 19.5595 27.0523 19.6255C27.0308 19.7062 26.9959 19.7827 26.9491 19.8518Z" fill="#310808"/>
<path d="M31.5025 20.8372C31.5025 21.4289 31.8194 21.905 32.1949 21.9003C32.5704 21.8956 32.8662 21.4124 32.8591 20.8207C32.8521 20.229 32.5446 19.7529 32.1691 19.7576C31.7936 19.7623 31.4955 20.2455 31.5025 20.8372Z" fill="#310808"/>
<path d="M32.2887 20.0593C32.2887 20.0451 32.345 20.0593 32.406 20.0828C32.4821 20.1052 32.5617 20.1132 32.6407 20.1064C32.7141 20.0997 32.7857 20.0798 32.8519 20.0475C32.8818 20.0334 32.9108 20.0177 32.9388 20.0003L32.9599 19.9886C32.9814 19.9779 33.0018 19.9652 33.0209 19.9508C33.0815 19.9111 33.1321 19.8579 33.1688 19.7953C33.2075 19.7296 33.2323 19.6565 33.2416 19.5808C33.2416 19.5148 33.2416 19.4653 33.2674 19.4606C33.2932 19.4558 33.3073 19.4983 33.3308 19.5737C33.3534 19.6688 33.3494 19.7684 33.319 19.8613C33.2862 19.9573 33.2307 20.0439 33.1571 20.1135C33.1348 20.1377 33.1095 20.1591 33.082 20.1771L33.0515 20.2007C33.0103 20.2193 32.968 20.235 32.9247 20.2478C32.8301 20.2747 32.7311 20.2819 32.6337 20.2691C32.539 20.2561 32.4492 20.2187 32.3731 20.1606C32.3051 20.1135 32.2722 20.0687 32.2887 20.0593Z" fill="#310808"/>
<path d="M32.6713 19.8234C32.6221 19.8919 32.5546 19.945 32.4765 19.9766C32.4132 19.9978 32.3686 19.9954 32.3662 19.9766C32.3639 19.9577 32.392 19.9341 32.4296 19.8964C32.4733 19.8501 32.5075 19.7956 32.5305 19.7361C32.552 19.6771 32.5646 19.6151 32.5681 19.5523C32.5701 19.524 32.5701 19.4957 32.5681 19.4674C32.5825 19.3737 32.5825 19.2783 32.5681 19.1846C32.557 19.119 32.5365 19.0555 32.507 18.996C32.4859 18.9441 32.4648 18.9088 32.4765 18.8946C32.4883 18.8805 32.5282 18.8946 32.5775 18.9418C32.6382 18.9962 32.6856 19.0639 32.7159 19.1398C32.7626 19.2494 32.7873 19.3671 32.7887 19.4863C32.7887 19.4863 32.7887 19.5311 32.7652 19.5947C32.7468 19.6757 32.7151 19.7529 32.6713 19.8234Z" fill="#310808"/>
<path d="M31.2888 23.9299C31.2602 24.0273 31.2123 24.1179 31.148 24.1962C31.0168 24.3768 30.8584 24.5359 30.6786 24.6677C30.4966 24.8053 30.2915 24.9091 30.073 24.9741C30.0003 24.997 29.9257 25.0136 29.8501 25.0236L29.7656 25.0377H29.6905C29.6119 25.0409 29.5331 25.0354 29.4557 25.0212C29.2298 24.9907 29.0133 24.9102 28.822 24.7855C28.6373 24.6596 28.478 24.4996 28.3526 24.3141C28.2909 24.2339 28.2447 24.1427 28.2165 24.0454C28.2306 24.0454 28.3104 24.1279 28.423 24.2575C28.5649 24.4103 28.7296 24.54 28.9112 24.6417C29.088 24.7407 29.2844 24.7994 29.4863 24.8138C29.5526 24.8206 29.6194 24.8206 29.6858 24.8138H29.7585H29.8336C29.9001 24.8092 29.9661 24.799 30.0308 24.7831C30.2321 24.7376 30.4242 24.6579 30.5988 24.5474C30.7772 24.4344 30.9412 24.2998 31.087 24.1467C31.1973 24.0124 31.2747 23.9204 31.2888 23.9299Z" fill="#FC9595"/>
<path d="M31.716 17.4711C31.7371 17.5159 31.9178 17.4711 32.0868 17.4876C32.127 17.4904 32.167 17.496 32.2065 17.5041C32.2405 17.506 32.2739 17.514 32.3051 17.5277L32.3943 17.5583C32.4926 17.5779 32.586 17.6172 32.6689 17.6738C32.7956 17.7657 32.8825 17.9284 32.9341 17.9095C32.9858 17.8907 32.967 17.6927 32.8379 17.5088C32.7749 17.4246 32.6949 17.3548 32.6032 17.3037C32.563 17.2786 32.5215 17.2558 32.4788 17.2354C32.3361 17.2115 32.1901 17.2163 32.0493 17.2495C31.8568 17.3084 31.6972 17.4334 31.716 17.4711Z" fill="#310808"/>
<path d="M26.0948 17.8037C26.1183 17.8037 26.1512 17.773 26.1934 17.7259C26.2427 17.676 26.2997 17.6345 26.3624 17.6033C26.4515 17.5731 26.5467 17.5658 26.6394 17.5821C26.7437 17.5675 26.8495 17.5675 26.9539 17.5821C27.1182 17.6057 27.2848 17.674 27.3106 17.6363C27.3364 17.5986 27.2097 17.4548 27.0313 17.3605C26.9483 17.3168 26.8599 17.2843 26.7684 17.2639C26.7254 17.2528 26.6814 17.2457 26.637 17.2427C26.5912 17.2477 26.5457 17.2556 26.5009 17.2662C26.4005 17.2941 26.3075 17.344 26.2286 17.4124C26.1546 17.4814 26.1024 17.5707 26.0784 17.6693C26.0667 17.7471 26.0737 17.7966 26.0948 17.8037Z" fill="#310808"/>
<path d="M21.2573 19.8777C21.8488 19.8212 23.4964 19.6656 23.5739 19.6868L23.1044 20.4623L21.5037 20.1936C21.4378 20.0765 21.3547 19.97 21.2573 19.8777Z" fill="#E35757"/>
<path d="M22.9871 21.1436C22.9135 21.0354 22.8856 20.9023 22.9096 20.7735C23.0056 20.3477 23.2392 19.9656 23.5738 19.6869C24.3099 19.0756 25.2357 18.742 26.1908 18.744C26.5615 18.7359 26.9301 18.8013 27.2755 18.9366C27.6209 19.0719 27.9364 19.2743 28.2037 19.5323C28.4711 19.7903 28.6851 20.0987 28.8334 20.44C28.9818 20.7812 29.0616 21.1485 29.0684 21.5208C29.2836 21.3499 29.5438 21.2458 29.8171 21.2214C30.0888 21.208 30.3572 21.286 30.5799 21.443C30.581 21.4352 30.581 21.4272 30.5799 21.4194C30.5799 21.3864 30.5799 21.3511 30.5799 21.3181C30.5994 20.9466 30.6916 20.5827 30.8514 20.2471C31.0111 19.9115 31.2351 19.6109 31.5107 19.3624C31.7863 19.1139 32.1079 18.9224 32.4573 18.7989C32.8066 18.6754 33.1768 18.6223 33.5466 18.6427C34.326 18.6533 35.0942 18.8309 35.7998 19.1636C36.2551 19.3993 36.8043 19.8708 36.8348 20.4341C36.8654 20.9975 36.2457 21.2568 36.2011 21.7258C36.1359 22.4562 35.7909 23.1325 35.2387 23.6123C34.6866 24.092 33.9705 24.3377 33.2415 24.2975C32.5833 24.262 31.9584 23.9959 31.4755 23.5454C30.9926 23.0948 30.6823 22.4885 30.5986 21.8319C30.5001 21.7291 30.3815 21.6478 30.2502 21.5931C30.119 21.5383 29.9779 21.5113 29.8358 21.5137C29.5293 21.5535 29.2475 21.7034 29.0425 21.9356C28.9597 22.6107 28.6375 23.2331 28.1349 23.689C27.6323 24.1448 26.9829 24.4036 26.3058 24.4177C25.5757 24.4329 24.8682 24.1626 24.3326 23.6639C23.7971 23.1652 23.4754 22.4771 23.4354 21.7447C23.4189 21.4571 23.1326 21.3534 22.9871 21.1436ZM33.2626 23.9722C33.9211 24.0082 34.5669 23.7802 35.0581 23.3382C35.5493 22.8962 35.8456 22.2764 35.8819 21.6151C35.9178 20.9537 35.6907 20.3051 35.2506 19.8118C34.8105 19.3186 34.1933 19.021 33.5348 18.9845C33.2089 18.9666 32.8826 19.0135 32.5747 19.1223C32.2668 19.2311 31.9832 19.3998 31.7402 19.6187C31.4972 19.8376 31.2995 20.1024 31.1584 20.398C31.0173 20.6936 30.9356 21.0143 30.9179 21.3416C30.8998 21.669 30.9461 21.9967 31.0542 22.3061C31.1622 22.6154 31.3299 22.9004 31.5477 23.1447C31.7654 23.389 32.0289 23.5878 32.3232 23.7298C32.6174 23.8718 32.9366 23.9541 33.2626 23.9722ZM26.2988 24.0807C26.6255 24.0742 26.9478 24.0032 27.2472 23.8716C27.5466 23.7401 27.8173 23.5506 28.0437 23.314C28.2702 23.0773 28.448 22.7982 28.567 22.4926C28.6861 22.1869 28.7439 21.8607 28.7374 21.5326C28.7239 20.8696 28.4487 20.2392 27.9725 19.78C27.4963 19.3207 26.858 19.0702 26.1979 19.0835C25.5382 19.0977 24.9111 19.3743 24.4543 19.8525C23.9975 20.3307 23.7484 20.9714 23.7616 21.6339C23.7752 22.2962 24.05 22.926 24.5258 23.3848C25.0016 23.8436 25.6393 24.0939 26.2988 24.0807Z" fill="#E35757"/>
<g style="mix-blend-mode:multiply" opacity="0.6">
<path d="M36.7106 20.8962C36.5369 21.1885 36.2412 21.4101 36.2036 21.733C36.1384 22.4634 35.7933 23.1397 35.2412 23.6195C34.689 24.0993 33.973 24.345 33.2439 24.3048C32.5858 24.2693 31.9608 24.0031 31.4779 23.5526C30.995 23.1021 30.6848 22.4957 30.6011 21.8391C30.5025 21.7363 30.3839 21.655 30.2527 21.6003C30.1215 21.5455 29.9804 21.5185 29.8383 21.5209C29.5318 21.5607 29.25 21.7106 29.045 21.9428C28.9606 22.617 28.6373 23.2381 28.1344 23.6926C27.6314 24.1471 26.9824 24.4045 26.3059 24.4179C25.5758 24.4331 24.8683 24.1628 24.3327 23.6641C23.7972 23.1653 23.4755 22.4772 23.4355 21.7448C23.4214 21.5091 23.2336 21.403 23.0834 21.2569L23.7875 21.238C23.7684 21.3699 23.7597 21.5031 23.7617 21.6364C23.7753 22.2987 24.0502 22.9285 24.5259 23.3873C25.0017 23.8462 25.6394 24.0964 26.2989 24.0832C26.6256 24.0767 26.9479 24.0057 27.2473 23.8742C27.5467 23.7426 27.8174 23.5531 28.0438 23.3165C28.2703 23.0799 28.4481 22.8007 28.5671 22.4951C28.6862 22.1894 28.7441 21.8632 28.7375 21.535C28.734 21.3925 28.7183 21.2506 28.6906 21.1107H29.0239C29.0507 21.2522 29.0656 21.3958 29.0685 21.5398C29.2837 21.3689 29.5439 21.2648 29.8172 21.2404C30.0889 21.227 30.3573 21.3049 30.58 21.462C30.5811 21.4542 30.5811 21.4462 30.58 21.4384C30.58 21.4054 30.58 21.37 30.58 21.337C30.58 21.2451 30.5941 21.1579 30.6058 21.0683H30.9461C30.9284 21.1665 30.9166 21.2657 30.9109 21.3653C30.8932 21.6927 30.9398 22.0203 31.0482 22.3296C31.1565 22.6388 31.3245 22.9236 31.5424 23.1677C31.7604 23.4118 32.0241 23.6103 32.3184 23.752C32.6128 23.8937 32.9321 23.9758 33.258 23.9936C33.9165 24.0296 34.5624 23.8015 35.0535 23.3595C35.5447 22.9175 35.841 22.2977 35.8774 21.6364C35.8881 21.4037 35.8676 21.1706 35.8163 20.9434L36.7106 20.8962Z" fill="#E35757"/>
</g>
<g style="mix-blend-mode:screen">
<path d="M23.2055 20.7663C23.2055 20.8288 23.2302 20.8887 23.2743 20.933C23.3183 20.9772 23.378 21.002 23.4402 21.002C23.5025 21.002 23.5622 20.9772 23.6062 20.933C23.6502 20.8887 23.6749 20.8288 23.6749 20.7663C23.6749 20.7037 23.6502 20.6438 23.6062 20.5996C23.5622 20.5554 23.5025 20.5305 23.4402 20.5305C23.378 20.5305 23.3183 20.5554 23.2743 20.5996C23.2302 20.6438 23.2055 20.7037 23.2055 20.7663Z" fill="#FAC198"/>
</g>
<g style="mix-blend-mode:screen">
<path d="M36.0463 20.38C36.0463 20.4425 36.0711 20.5025 36.1151 20.5467C36.1591 20.5909 36.2188 20.6157 36.281 20.6157C36.3433 20.6157 36.403 20.5909 36.447 20.5467C36.491 20.5025 36.5157 20.4425 36.5157 20.38C36.5157 20.3175 36.491 20.2575 36.447 20.2133C36.403 20.1691 36.3433 20.1443 36.281 20.1443C36.2188 20.1443 36.1591 20.1691 36.1151 20.2133C36.0711 20.2575 36.0463 20.3175 36.0463 20.38Z" fill="#FAC198"/>
</g>
<g style="mix-blend-mode:multiply" opacity="0.2">
<path d="M20.0393 20.0662C20.0393 20.0662 19.2695 10.9958 28.1461 11.1514C28.1461 11.1514 32.1479 12.0259 33.1736 14.6541C33.4947 15.5423 33.6999 16.4685 33.7838 17.4097C33.4458 15.8587 32.507 13.386 30.113 13.0088C30.113 13.0088 30.2233 16.8958 26.6839 18.006C23.1445 19.1163 22.039 18.6731 22.039 18.6731C22.039 18.6731 22.4826 22.0062 21.3771 21.7822C20.2717 21.5583 19.9384 20.7828 19.9384 20.7828C19.9384 20.7828 18.3588 21.4499 17.434 20.8299C17.7603 19.9389 18.6264 19.4368 20.0393 20.0662Z" fill="#C87568"/>
</g>
<path d="M29.836 12.3418C29.836 12.3418 29.9463 16.2288 26.4046 17.3461C22.8628 18.4634 21.7597 18.0108 21.7597 18.0108C21.7597 18.0108 22.2009 21.3439 21.0955 21.1223C19.99 20.9007 19.6567 20.1229 19.6567 20.1229C19.6567 20.1229 17.5561 21.0115 16.7815 19.7882C16.007 18.5648 16.1173 12.5705 18.3306 10.6824C20.5439 8.7943 26.9561 9.34824 29.5004 10.2369C29.5004 10.2369 34.1523 9.90217 34.8165 12.1226C35.4807 14.3431 35.2507 16.7875 33.7016 18.0156C33.7063 18.0061 33.3754 12.8981 29.836 12.3418Z" fill="#310808"/>
<g style="mix-blend-mode:multiply" opacity="0.6">
<path d="M20.1966 17.2919C20.8004 16.5688 21.2947 15.7603 21.6635 14.8923C22.0683 15.4445 22.6474 15.8425 23.3065 16.0214C24.649 16.3915 26.022 15.8187 26.9585 14.8428L27.0149 14.7815C27.0854 14.7265 27.1528 14.6675 27.2167 14.6047C27.9983 13.8387 28.6414 12.8651 28.6531 11.7313C28.666 11.0328 28.4192 10.3546 27.9607 9.8291C28.4814 9.92967 28.9949 10.0643 29.4981 10.2322C30.4019 10.1371 31.314 10.1545 32.2137 10.284C32.0909 10.5832 32.0271 10.9034 32.0259 11.2269V11.3377C32.0314 12.0176 32.3026 12.6682 32.7812 13.1492C33.2597 13.6302 33.9072 13.9032 34.5842 13.9094C34.7418 13.9092 34.8991 13.8934 35.0536 13.8622C35.1733 15.5123 34.8048 17.1293 33.697 18.0014C33.697 18.0014 33.3661 12.8934 29.8267 12.3442C29.8267 12.3442 29.937 16.2312 26.3999 17.3438C22.8629 18.4564 21.7551 18.0085 21.7551 18.0085C21.7551 18.0085 22.1963 21.3416 21.0908 21.12C19.9853 20.8984 19.6521 20.1205 19.6521 20.1205C19.6521 20.1205 17.5514 21.0092 16.7769 19.7858C16.6146 19.4783 16.5096 19.1436 16.4671 18.7982C17.7721 19.041 19.2132 18.4682 20.1966 17.2919Z" fill="#310808"/>
</g>
<path d="M22.4144 18.0061C22.7133 17.9976 23.0113 17.9685 23.3062 17.9189C23.839 17.8552 24.5526 17.7869 25.2637 17.6525C25.9239 17.5385 26.5647 17.3314 27.1672 17.0373L27.4958 16.8511C27.592 16.7898 27.6718 16.7332 27.7305 16.6884C27.8035 16.6442 27.8726 16.5937 27.937 16.5376L28.1295 16.3726C28.2917 16.2194 28.4446 16.0564 28.5872 15.8846C29.0058 15.3601 29.3343 14.7689 29.5589 14.1356C29.7912 13.5092 29.9065 12.8452 29.8992 12.1768C29.8963 11.9584 29.8743 11.7407 29.8335 11.5262C29.8223 11.4445 29.7986 11.3649 29.7631 11.2905C29.7349 11.2905 29.8006 11.6488 29.7631 12.1768C29.7255 12.8253 29.5795 13.4628 29.3312 14.0626C29.0935 14.6581 28.7605 15.2107 28.3454 15.6984C28.2081 15.8549 28.0616 16.0029 27.9065 16.1416L27.7211 16.2901C27.663 16.3443 27.6001 16.3932 27.5333 16.4362C27.4723 16.481 27.3996 16.5352 27.3104 16.5942L27.0076 16.778C26.4373 17.0795 25.8284 17.3008 25.198 17.4357C24.508 17.596 23.7897 17.702 23.271 17.8034C22.9791 17.8403 22.692 17.9083 22.4144 18.0061Z" fill="#5A543C"/>
<path d="M31.0166 10.1947C31.0166 10.223 31.3569 10.2324 31.8568 10.3078C32.4638 10.3847 33.0503 10.5783 33.5843 10.8783C34.1041 11.1778 34.5152 11.6361 34.7578 12.1865C34.8334 12.3677 34.8923 12.5555 34.9338 12.7475C34.9503 12.8182 34.9644 12.8724 34.9737 12.9078C34.9759 12.9274 34.9759 12.9471 34.9737 12.9667C34.9737 12.9667 34.9737 13.0469 35.009 13.1883C35.0382 13.385 35.0547 13.5834 35.0582 13.7823C35.0582 13.846 35.0582 13.9096 35.0582 13.9756C35.0582 14.0416 35.0582 14.1123 35.0582 14.183C35.0582 14.3245 35.0418 14.4753 35.0324 14.6285C35.023 14.7817 34.9808 14.9397 34.9526 15.1C34.9208 15.2593 34.8801 15.4167 34.8306 15.5714C34.6554 16.1605 34.4103 16.7264 34.1006 17.2568C33.9463 17.4937 33.8083 17.741 33.6875 17.9969C33.8872 17.7946 34.0622 17.5691 34.2086 17.3251C34.5646 16.805 34.8488 16.2388 35.0535 15.6421C35.1131 15.4804 35.1625 15.3151 35.2014 15.1471C35.2343 14.9798 35.2695 14.8171 35.3023 14.6568C35.3352 14.4965 35.3329 14.3386 35.3469 14.1854C35.3469 14.1123 35.3657 14.0392 35.3657 13.9685C35.3657 13.8978 35.3657 13.8318 35.3657 13.7658C35.3683 13.5547 35.3574 13.3437 35.3329 13.1341C35.3141 12.9809 35.3023 12.8984 35.3023 12.8984C35.3012 12.8775 35.2972 12.8569 35.2906 12.8371C35.2789 12.797 35.2624 12.7381 35.2437 12.6626C35.1896 12.4532 35.1174 12.2489 35.0277 12.0521C34.7439 11.4585 34.2773 10.9725 33.6969 10.6661C33.1278 10.3768 32.5054 10.2083 31.8686 10.1711C31.5848 10.1405 31.2982 10.1484 31.0166 10.1947Z" fill="#5A543C"/>
<path d="M19.4034 19.2321C19.4174 19.4259 19.4777 19.6135 19.5794 19.7789C19.7711 20.1643 20.0443 20.5029 20.3798 20.7713C20.5721 20.9322 20.8106 21.0272 21.0604 21.0424C21.1809 21.0392 21.2986 21.005 21.4021 20.9431C21.5057 20.8812 21.5917 20.7936 21.6519 20.6888C21.7318 20.5589 21.7912 20.4174 21.8279 20.2692C21.8561 20.1655 21.8655 20.1066 21.8655 20.1066C21.8655 20.1066 21.8655 20.0476 21.8866 19.9463C21.9077 19.8449 21.9101 19.7106 21.9265 19.5338C21.9557 19.1147 21.9557 18.6941 21.9265 18.275C21.8963 17.8563 21.8175 17.4426 21.6918 17.0422C21.6509 16.9101 21.5974 16.7822 21.5322 16.6604C21.4876 16.5732 21.4594 16.5237 21.4477 16.5284C21.436 16.5331 21.4477 16.5897 21.4712 16.6863C21.5102 16.8149 21.5423 16.9455 21.5674 17.0776C21.6507 17.4755 21.6963 17.8803 21.7035 18.2868C21.7078 18.694 21.6866 19.101 21.6402 19.5055C21.6167 19.6681 21.5979 19.8072 21.5838 19.9015L21.558 20.0476C21.558 20.0476 21.558 20.0995 21.5322 20.1891C21.5074 20.3074 21.4663 20.4216 21.4101 20.5285C21.3779 20.594 21.3294 20.65 21.2694 20.6913C21.2094 20.7326 21.1399 20.7577 21.0675 20.7642C20.8736 20.7565 20.6864 20.6909 20.53 20.5757C20.2023 20.3425 19.9226 20.0479 19.7062 19.7082C19.5067 19.4348 19.4292 19.2321 19.4034 19.2321Z" fill="#5A543C"/>
<g style="mix-blend-mode:screen">
<g style="mix-blend-mode:screen">
<path d="M33.7252 12.0144C33.6102 12.0804 33.6172 12.309 33.7393 12.5306C33.8613 12.7522 34.0561 12.8748 34.1688 12.8088C34.2814 12.7428 34.2767 12.5141 34.1547 12.2949C34.0326 12.0757 33.8402 11.9508 33.7252 12.0144Z" fill="#5A543C"/>
</g>
<g style="mix-blend-mode:screen">
<path d="M33.0751 11.2176C32.9976 11.2718 33.0188 11.4369 33.122 11.5877C33.2253 11.7386 33.3732 11.8234 33.4506 11.7598C33.5281 11.6961 33.507 11.5406 33.4037 11.3897C33.3004 11.2388 33.1549 11.1516 33.0751 11.2176Z" fill="#5A543C"/>
</g>
</g>
</g>
</svg>
