<svg width="49" height="49" viewBox="0 0 49 49" fill="none" xmlns="http://www.w3.org/2000/svg">
<rect x="0.230103" y="0.125244" width="48" height="48" rx="9" fill="#F8D7D7"/>
<mask id="mask0" mask-type="alpha" maskUnits="userSpaceOnUse" x="0" y="0" width="49" height="49">
<rect x="0.230103" y="0.125244" width="48" height="48" rx="9" fill="#F8D7D7"/>
</mask>
<g mask="url(#mask0)">
<path d="M30.5923 92.6512C30.5923 92.6512 27.902 93.9036 25.4889 92.7264L23.9969 64.6879L21.4851 92.6488C21.4851 92.6488 18.6655 94.2936 16.4615 92.9472C16.4615 92.9472 15.484 74.6458 16.7998 63.9595C17.5577 57.6905 18.636 51.4643 20.0306 45.3056L20.1904 28.4538C20.1904 28.4538 26.988 27.3612 28.426 29.2198C29.864 31.0784 30.7921 35.242 30.9424 36.4756C31.0928 37.7091 29.0839 44.9343 29.0839 44.9343C29.0839 44.9343 32.3193 79.0537 30.5923 92.6512Z" fill="#5789E3"/>
<g style="mix-blend-mode:multiply" opacity="0.3">
<path d="M30.9424 36.4758C30.7921 35.2423 29.864 31.0716 28.426 29.2201C26.988 27.3686 20.1904 28.4564 20.1904 28.4564L20.0306 45.3082C18.636 51.467 17.5577 57.6931 16.7998 63.9621C15.484 74.6484 16.4615 92.9499 16.4615 92.9499C17.0343 93.294 17.6895 93.4766 18.3577 93.4786C18.0609 91.658 18.0033 89.8065 18.1861 87.971C18.3013 86.6176 18.4493 85.2618 18.6326 83.9155C18.555 84.4794 18.6561 83.6664 18.6702 83.5466C18.7054 83.2293 18.7407 82.9121 18.7806 82.5949C19.0978 80.0573 19.4996 75.21 22.7022 74.6061C22.836 74.5796 22.9723 74.5678 23.1087 74.5709L23.9969 64.6882L24.5702 75.4684C24.7303 75.7237 24.8227 76.0156 24.8387 76.3165C24.8548 76.6175 24.7939 76.9175 24.6618 77.1884L25.4889 92.7267C26.1032 93.0211 26.7704 93.1889 27.4509 93.2201C26.7671 88.9907 26.2549 84.6697 26.9809 80.4051C27.2605 78.7861 27.6294 76.9934 28.5928 75.6188C28.6487 75.5372 28.7091 75.4588 28.7737 75.3838C29.2648 74.4933 29.9485 73.7908 30.9401 73.4736C30.4702 59.5518 29.0815 44.9229 29.0815 44.9229C29.0815 44.9229 31.0928 37.7 30.9424 36.4758Z" fill="#5789E3"/>
</g>
<path d="M17.6387 51.6428L20.1904 28.4564C20.1904 28.4564 26.988 27.3614 28.426 29.22C29.8639 31.0786 30.7921 35.2422 30.9424 36.4757C31.0928 37.7093 29.0839 44.9345 29.0839 44.9345C29.0839 44.9345 31.1281 50.4092 31.1798 50.9778C29.5326 53.6235 22.6505 53.8303 17.6387 51.6428Z" fill="#1E57B0"/>
<g style="mix-blend-mode:multiply" opacity="0.4">
<path d="M30.5477 39.1096C30.0137 39.2888 29.4625 39.4117 28.9029 39.4761C28.1696 39.6734 27.3971 39.6734 26.6637 39.4761C25.1211 39.3092 23.6314 38.8166 22.2933 38.0311C21.1448 37.3708 20.1652 36.4531 19.4315 35.3501L17.6387 51.6426C22.6505 53.8302 29.5326 53.6234 31.1798 50.9683C31.1281 50.3997 29.0839 44.925 29.0839 44.925C29.0839 44.925 29.9979 41.6354 30.5477 39.1096Z" fill="#1E57B0"/>
</g>
<path d="M27.5542 34.1752C27.4861 34.5183 27.4438 34.7462 27.4438 34.7462L27.277 35.3078C27.1853 35.6461 27.0232 36.0855 26.8658 36.5272C26.5298 37.4013 26.0927 38.2354 26.0504 38.2166C26.0081 38.1978 26.3512 37.3332 26.6238 36.452C26.7483 36.0056 26.8846 35.5662 26.955 35.2279L27.0913 34.6687C27.0913 34.6687 27.1454 34.4337 27.2276 34.1118C27.3098 33.7899 27.3944 33.3293 27.4861 32.8806C27.6435 31.9783 27.6928 31.0619 27.7469 31.0596C27.8009 31.0572 27.8338 31.9853 27.7469 32.9111C27.6787 33.3763 27.6294 33.8392 27.5542 34.1752Z" fill="#78A3FB"/>
<path d="M22.8291 33.1367C23.1392 33.5103 23.4564 33.8815 23.6726 34.1752L24.0391 34.6569C24.0391 34.6569 24.1731 34.859 24.3681 35.1621C24.5631 35.4652 24.8169 35.867 25.0612 36.2852C25.5476 37.1146 25.9729 37.9699 25.9306 37.9911C25.8883 38.0122 25.3808 37.2016 24.8427 36.4097C24.5702 36.0174 24.3047 35.6226 24.0908 35.3336L23.7407 34.8496L23.3977 34.3561C23.2003 34.0554 22.9066 33.6747 22.627 33.2847C22.0466 32.5164 21.4075 31.7927 21.4522 31.7574C21.4968 31.7222 22.1923 32.3989 22.8291 33.1367Z" fill="#78A3FB"/>
<path d="M29.1966 29.0767C29.1966 29.0767 31.3489 31.3018 32.7516 35.9518C34.1544 40.6017 34.7441 43.7738 34.4481 45.1037C34.152 46.4336 32.0138 53.0009 32.0138 53.0009C32.0138 53.0009 30.2422 50.6395 29.8733 50.4915C29.5044 50.3434 29.1449 29.3445 29.1449 29.3445" fill="white"/>
<g style="mix-blend-mode:multiply" opacity="0.1">
<path d="M29.1966 29.0767C29.1966 29.0767 31.3489 31.3018 32.7516 35.9518C34.1544 40.6017 34.7441 43.7738 34.4481 45.1037C34.152 46.4336 32.0138 53.0009 32.0138 53.0009C32.0138 53.0009 30.2422 50.6395 29.8733 50.4915C29.5044 50.3434 29.1449 29.3445 29.1449 29.3445" fill="#5789E3"/>
</g>
<g style="mix-blend-mode:multiply" opacity="0.1">
<path d="M32.3922 44.0437C31.5252 42.9205 31.2902 41.5413 31.1962 40.1526C31.1023 38.764 31.0506 37.373 30.9049 35.9749C30.7451 34.45 30.6159 32.8828 30.8015 31.3555C30.354 30.5376 29.8165 29.7724 29.199 29.074L29.1473 29.3512C29.1473 29.3512 29.5068 50.3407 29.8757 50.4982C30.2446 50.6556 32.0163 53.0076 32.0163 53.0076C32.0163 53.0076 34.1568 46.4286 34.4505 45.1104C34.4505 45.1104 34.4505 45.0963 34.4505 45.0893C34.0503 45.0841 33.6566 44.9872 33.2997 44.8059C32.9429 44.6246 32.6324 44.3638 32.3922 44.0437Z" fill="#5789E3"/>
</g>
<path d="M21.6801 24.6592L21.9009 28.4233L25.8859 33.2942L26.2572 29.0131L25.5546 24.6592H21.6801Z" fill="#FFE2D6"/>
<path opacity="0.2" d="M24.9907 28.0662C25.3616 28.0908 25.7336 28.0908 26.1045 28.0662L25.5546 24.6592H21.6801L21.8234 27.0864C22.8408 27.5375 23.8629 27.9698 24.9907 28.0662Z" fill="#FA9E9E"/>
<path d="M22.9348 30.7849C22.9066 30.7849 22.6811 30.2351 22.4367 29.6853C22.1923 29.1354 21.9668 28.5692 21.9668 28.5692L21.8493 28.2097C21.7717 27.9959 21.6965 27.7021 21.6143 27.4084C21.5111 27.0166 21.4589 26.613 21.4592 26.2078C21.4921 26.2078 21.5791 26.7999 21.7576 27.3708C21.854 27.6528 21.9409 27.9395 22.0279 28.1462L22.1594 28.4963L22.573 29.6289C22.7263 30.0032 22.8474 30.3899 22.9348 30.7849Z" fill="#D2E4FF"/>
<path d="M25.7803 25.3759C25.7685 25.6108 27.1901 26.6964 27.3992 26.9032C28.809 28.3623 29.7888 29.9742 30.2423 31.962C31.0553 35.5076 31.1821 39.065 31.45 42.66C31.7555 46.6896 32.0868 49.3494 32.4557 52.7048C32.8175 55.9755 33.2522 59.2697 33.7268 62.5216C33.9359 63.9314 34.225 65.36 34.3659 66.7769C34.4012 67.1411 34.8006 69.5753 34.5234 69.8314C33.7601 70.4968 32.8851 71.0219 31.9387 71.3822C28.8983 72.4442 27.5449 71.0485 27.5449 71.0485C27.5449 71.0485 27.6788 33.0428 27.2982 31.1443C27.0557 29.988 26.4741 28.9303 25.6276 28.1062C25.6276 28.1062 25.7732 25.5286 25.7803 25.3759ZM11.8633 54.1075C10.2678 51.0694 8.01921 43.1416 8.24713 42.0773C9.05882 38.1978 10.7368 34.552 13.1556 31.4122C16.8022 26.7786 19.1707 27.7584 19.1707 27.7584C20.2351 24.7955 21.901 25.101 21.901 25.101L21.8188 27.9793C21.8188 27.9793 24.1003 33.2684 24.4809 39.0415C24.8616 44.8146 25.3714 71.3 25.3714 71.3C19.5396 73.6637 13.4469 70.9569 13.5973 70.0452C13.7477 69.1336 14.9648 52.9233 14.9648 52.9233C13.1415 53.5342 11.8633 54.1075 11.8633 54.1075ZM15.813 37.1688C15.813 37.1688 14.0837 41.1115 13.9122 41.854C13.7406 42.5965 15.7096 47.9091 15.7096 47.9091L15.813 37.1688Z" fill="white"/>
<path d="M15.813 37.8338C15.8457 37.7597 15.8867 37.6895 15.9352 37.6247C16.0151 37.4978 16.1302 37.3122 16.2712 37.0913C16.5461 36.6472 16.8985 36.0457 17.2251 35.4325C17.5517 34.8192 17.8478 34.1918 18.0499 33.7125C18.2519 33.2332 18.3671 32.9066 18.3671 32.9066C18.3671 32.9066 18.4963 32.587 18.642 32.0912C18.8315 31.491 18.9235 30.8643 18.9145 30.235C18.9035 29.9041 18.8235 29.5792 18.6796 29.281C18.6102 29.1455 18.5242 29.0192 18.4235 28.9051C18.3292 28.8056 18.2244 28.7165 18.111 28.6396C18.0569 28.6067 18.0099 28.5667 17.9582 28.5386L17.8078 28.4681L17.6763 28.4023L17.5588 28.3623C17.4774 28.3423 17.3986 28.3132 17.3238 28.2754C17.4038 28.2814 17.4827 28.2972 17.5588 28.3224L17.6833 28.3529L17.8219 28.4093L17.9794 28.4751C18.0362 28.5045 18.0912 28.5375 18.1438 28.5738C18.2671 28.6482 18.3814 28.7365 18.4845 28.837C18.595 28.9544 18.6913 29.0846 18.7712 29.2247C18.9367 29.5342 19.0345 29.8754 19.0579 30.2256C19.0866 30.8733 19.0072 31.5213 18.8229 32.1429C18.6843 32.6505 18.5574 32.9794 18.5574 32.9794C18.5574 32.9794 18.4376 33.3084 18.2214 33.79C18.0052 34.2717 17.6951 34.8967 17.3497 35.5053C17.0043 36.1139 16.6307 36.7036 16.3323 37.136C16.1866 37.3521 16.0574 37.5283 15.9634 37.6505C15.9194 37.7164 15.869 37.7778 15.813 37.8338Z" fill="#D2E4FF"/>
<path d="M17.0301 50.5643C16.9821 50.5059 16.9426 50.441 16.9126 50.3716L16.633 49.8453C16.3981 49.4129 16.1232 48.8185 15.8388 48.2264C15.5545 47.6342 15.2984 47.028 15.1339 46.5652L14.8332 45.7992C14.8332 45.7992 14.805 45.7216 14.7627 45.5853C14.7204 45.4491 14.657 45.2517 14.5818 45.0191C14.4173 44.5491 14.2669 43.9124 14.1118 43.2756C14.0437 42.9561 13.9967 42.6295 13.9403 42.3358C13.9168 42.1854 13.8863 42.0397 13.8698 41.8987C13.8534 41.7578 13.8487 41.6262 13.8393 41.5016C13.8228 41.2667 13.8087 41.0529 13.8017 40.9095C13.7912 40.8316 13.7912 40.7525 13.8017 40.6746C13.8263 40.7506 13.8405 40.8297 13.844 40.9095C13.8628 41.0505 13.891 41.2526 13.9215 41.4969C13.9356 41.6168 13.9521 41.7484 13.9709 41.887C13.9897 42.0256 14.0273 42.1689 14.0578 42.3193C14.1236 42.6177 14.18 42.9396 14.2575 43.2592C14.4361 43.8865 14.6006 44.5163 14.7721 44.9744C14.852 45.2094 14.9178 45.3997 14.9648 45.5337C15.0118 45.6676 15.0376 45.7451 15.0376 45.7451L15.3243 46.5111C15.484 46.981 15.7472 47.5755 15.9916 48.1817C16.2359 48.7879 16.5155 49.3824 16.7247 49.8265L16.9596 50.3693C16.99 50.4315 17.0137 50.4969 17.0301 50.5643Z" fill="#D2E4FF"/>
<path d="M21.7905 34.622C21.743 34.6836 21.6886 34.7395 21.6284 34.7888L21.5368 34.8734L21.4169 34.9533C21.3232 35.0212 21.2233 35.0802 21.1185 35.1295L20.9376 35.2164C20.8742 35.2446 20.806 35.2634 20.7355 35.2869L20.604 35.3316L20.564 35.3456C20.5499 35.3456 20.5335 35.3574 20.5335 35.3456L20.5076 35.2634C20.4818 35.1859 20.4559 35.106 20.4277 35.0284C20.3314 34.7277 20.2304 34.4058 20.134 34.0886C19.9414 33.4424 19.7722 32.7892 19.6641 32.2958C19.556 31.8024 19.4879 31.4711 19.4879 31.4711C19.4879 31.4711 19.4244 31.1398 19.3563 30.6369C19.271 30.0242 19.227 29.4064 19.2247 28.7878C19.2148 28.1651 19.3077 27.5451 19.4996 26.9527C19.5672 26.7592 19.6579 26.5745 19.7698 26.4028C19.8111 26.337 19.86 26.2763 19.9155 26.2219C19.7762 26.4614 19.6628 26.715 19.5772 26.9785C19.416 27.5674 19.347 28.1777 19.3727 28.7878C19.391 29.3987 19.4491 30.0077 19.5466 30.6111C19.6242 31.1045 19.6923 31.4311 19.6923 31.4311C19.6923 31.4311 19.7487 31.7624 19.8521 32.2535C19.9555 32.7446 20.1082 33.4001 20.2821 34.0486C20.369 34.3729 20.4606 34.6948 20.5476 34.9885C20.5664 35.0566 20.5875 35.1271 20.6063 35.1929V35.2211C20.6063 35.2211 20.6228 35.2211 20.6298 35.2211L20.7073 35.2L20.9047 35.1412L21.0833 35.0637C21.3324 34.9391 21.5692 34.7912 21.7905 34.622Z" fill="#D2E4FF"/>
<path d="M24.3375 49.3471C24.3004 49.2431 24.2721 49.1362 24.2529 49.0275C24.1988 48.8254 24.1495 48.5294 24.0532 48.184C23.8793 47.4791 23.602 46.5721 23.2989 45.6651C22.9958 44.7582 22.6716 43.8559 22.4342 43.1769L22.0536 42.042C22.0536 42.042 22.0184 41.9268 21.9479 41.7365C21.8774 41.5462 21.7622 41.2666 21.6213 40.9376C21.4803 40.6087 21.3135 40.2327 21.1513 39.8051C20.9737 39.3656 20.8422 38.9089 20.7589 38.4423C20.7394 38.3211 20.7292 38.1985 20.7284 38.0758C20.7425 37.9395 20.7754 37.8408 20.7965 37.7092C20.8581 37.4843 20.9367 37.2644 21.0315 37.0513C21.2077 36.6354 21.4051 36.2665 21.5578 35.9423C21.6867 35.6853 21.802 35.4218 21.9032 35.1528C21.9312 35.0469 21.969 34.9439 22.016 34.845C21.9995 34.9539 21.9752 35.0615 21.9432 35.1669C21.8565 35.4432 21.753 35.7139 21.633 35.9775C21.4897 36.3065 21.3017 36.6824 21.1396 37.0959C21.0529 37.3059 20.9814 37.5219 20.9258 37.7421C20.907 37.8502 20.8788 37.9771 20.8694 38.0734C20.873 38.1892 20.8847 38.3046 20.9046 38.4188C20.9945 38.8725 21.1307 39.3158 21.3111 39.7417C21.4803 40.1528 21.6518 40.5335 21.7975 40.8624C21.9432 41.1914 22.063 41.464 22.1382 41.6637C22.2134 41.8634 22.251 41.9762 22.251 41.9762L23.4423 45.6205C23.7266 46.5345 23.9827 47.4626 24.1331 48.1652C24.2176 48.5153 24.2576 48.8137 24.2952 49.0205C24.3182 49.128 24.3323 49.2372 24.3375 49.3471Z" fill="#D2E4FF"/>
<path d="M29.7629 34.0697C29.7213 33.8368 29.6962 33.6012 29.6877 33.3648C29.6736 33.1533 29.6501 32.909 29.6243 32.6458C29.5984 32.3826 29.5726 32.1054 29.535 31.8258L29.4856 31.4099C29.4645 31.2736 29.441 31.1397 29.4198 31.0104C29.3846 30.752 29.3306 30.5123 29.2883 30.3055C29.246 30.0988 29.1943 29.9343 29.1661 29.8168C29.1379 29.6993 29.1167 29.6312 29.1167 29.6312C29.1167 29.6312 29.0979 29.5654 29.0603 29.4503C29.0132 29.2907 28.9575 29.1339 28.8935 28.9803C28.7087 28.5082 28.4545 28.0663 28.1393 27.6692C27.7962 27.2298 27.4038 26.8281 27.1219 26.5155C26.9785 26.3605 26.8611 26.2289 26.7812 26.1349C26.7013 26.0409 26.6566 25.9869 26.6637 25.9822C26.8451 26.1276 27.017 26.2846 27.1783 26.4521C27.5548 26.8058 27.9132 27.1783 28.2521 27.5682C28.5912 27.9682 28.8677 28.4174 29.0721 28.9005C29.1414 29.0575 29.2018 29.2183 29.253 29.3821C29.2953 29.4996 29.3165 29.5678 29.3165 29.5678C29.3165 29.5678 29.3329 29.6382 29.3634 29.7581C29.394 29.8779 29.441 30.0518 29.4762 30.2609C29.5115 30.47 29.5632 30.7144 29.5914 30.9776C29.6102 31.1091 29.6266 31.2454 29.6454 31.384C29.6642 31.5227 29.6689 31.6637 29.683 31.8046C29.7112 32.0842 29.7276 32.3662 29.7394 32.6317C29.7511 32.8972 29.7676 33.1416 29.7676 33.3531C29.783 33.5917 29.7814 33.8312 29.7629 34.0697Z" fill="#D2E4FF"/>
<path d="M30.2046 37.0584C30.1764 37.0584 30.0026 36.6425 29.7723 36.2431L29.4551 35.6932L29.3141 35.4371C29.3141 35.4371 29.2648 35.3314 29.1966 35.1693C29.1538 35.0788 29.1177 34.9854 29.0885 34.8896C29.0479 34.7823 29.0141 34.6724 28.9875 34.5607L28.9382 34.3586C28.9264 34.3163 28.917 34.274 28.9053 34.2317C28.9491 34.2294 28.993 34.2294 29.0369 34.2317H29.2248H29.3635C29.4613 34.2289 29.559 34.2424 29.6525 34.2717C29.559 34.301 29.4613 34.3145 29.3635 34.3116H29.2248H29.1003H29.0697L29.0838 34.3445C29.0838 34.3445 29.112 34.4291 29.1285 34.4761C29.2289 34.7772 29.3539 35.0695 29.5021 35.3502L29.6266 35.6086C29.7018 35.7661 29.8052 35.9728 29.9039 36.1843C30.0479 36.4587 30.1493 36.7535 30.2046 37.0584Z" fill="#D2E4FF"/>
<path d="M27.7704 48.9055C27.7779 48.8187 27.7945 48.7329 27.8197 48.6494L27.9842 47.9868C28.1416 47.4441 28.2709 46.7016 28.4306 45.9661C28.5505 45.2236 28.6868 44.4835 28.7572 43.9243L28.8865 42.9844L29.3188 40.0097C29.441 39.2672 29.5538 38.5224 29.6713 37.9702L29.8075 37.3029C29.8204 37.217 29.8424 37.1327 29.8733 37.0515C29.8741 37.1382 29.8662 37.2248 29.8498 37.31C29.8263 37.4721 29.7911 37.7047 29.7512 37.9843C29.6572 38.5388 29.5679 39.286 29.4645 40.0285L29.1026 43.022L28.9546 43.9619C28.8747 44.5234 28.7197 45.2636 28.5834 46.0061C28.4471 46.7486 28.2544 47.4793 28.0735 48.0174L27.8691 48.6706C27.8436 48.7518 27.8106 48.8305 27.7704 48.9055Z" fill="#D2E4FF"/>
<g style="mix-blend-mode:multiply" opacity="0.1">
<path d="M33.9852 64.1314C33.6351 66.4434 32.9091 68.6098 31.4241 68.5746C28.2497 68.5017 28.6914 50.2707 28.9875 48.1325C29.2835 45.9944 30.6863 37.5027 30.6863 37.5027L29.9461 35.3504L30.2422 34.6878L29.4198 31.0059L29.6548 34.2813L28.9499 34.3494L30.2164 37.0492L27.8925 47.4558C27.8925 47.4558 28.1134 42.9539 28.2614 41.6263C28.4095 40.2988 28.1134 32.989 28.0406 31.5862C27.9677 30.1835 27.2276 29.2248 26.6308 27.9701C26.3958 27.4461 26.5509 26.8822 26.8282 26.4029C26.3582 26.0105 25.7779 25.5171 25.7849 25.3667C25.7849 25.5194 25.6345 28.0947 25.6345 28.0947C26.481 28.9188 27.0627 29.9765 27.3051 31.1328C27.6858 33.0313 27.5518 71.037 27.5518 71.037C27.5518 71.037 28.9053 72.4327 31.9457 71.3707C32.892 71.0103 33.7671 70.4853 34.5303 69.8199C34.8076 69.5661 34.4081 67.1319 34.3729 66.7653C34.2719 65.896 34.1332 65.0125 33.9852 64.1314Z" fill="#5789E3"/>
</g>
<g style="mix-blend-mode:multiply" opacity="0.1">
<path d="M20.2045 44.2177C21.7553 44.3657 23.01 48.4987 24.1167 51.3771C24.4151 52.1525 24.7393 54.1215 25.0565 56.5863C24.8874 49.4504 24.6759 41.8304 24.4926 39.0414C24.1096 33.2683 21.8187 27.9792 21.8187 27.9792L21.8915 25.1008C21.6928 25.0792 21.4918 25.1 21.3018 25.1619C21.2783 25.3147 21.2524 25.4674 21.2289 25.6178C21.0809 26.5036 22.4038 29.3772 22.9254 31.2264C23.447 33.0756 24.7722 43.7007 24.1002 44.2177C23.4282 44.7346 20.8788 38.0733 20.8788 38.0733L22.5776 34.0319L21.4028 34.1799C21.4028 34.1799 20.665 33.1461 20.228 29.6028C20.0475 28.3935 20.0293 27.1655 20.1739 25.9514C19.7331 26.4866 19.3961 27.0994 19.18 27.7583C19.18 27.7583 18.0545 27.2884 16.1584 28.5219C16.5735 29.0893 16.873 29.7328 17.0395 30.4158C17.7044 32.9252 13.28 39.8637 10.4605 40.7543C9.52059 41.048 9.02481 40.6767 8.75695 40.0494C8.47029 41.0221 8.31756 41.7411 8.24707 42.0748C8.01211 43.1392 10.2678 51.0669 11.8632 54.105C11.8632 54.105 13.1414 53.5317 14.9647 52.9302C14.9647 52.9302 13.75 69.1428 13.5972 70.0522C13.4445 70.9615 19.5395 73.6706 25.3714 71.3069C25.3714 71.3069 25.2797 66.4384 25.1364 60.4233C23.7266 70.273 18.8652 70.4187 16.9502 67.6908C15.0352 64.9628 18.6537 44.0696 20.2045 44.2177ZM15.7096 47.909C15.7096 47.909 13.7476 42.594 13.9191 41.8539C14.0907 41.1138 15.82 37.1687 15.82 37.1687L15.7096 47.909Z" fill="#5789E3"/>
</g>
<path d="M30.8813 30.8858C29.9837 28.9497 28.783 28.0662 28.1298 27.702L28.0264 27.6879L27.8314 27.6738L27.9372 28.1109C28.5293 28.4492 29.6407 29.2857 30.4724 31.0761C31.6637 33.6467 31.5556 35.1927 31.5556 35.2092L32.0044 35.2468C32.0091 35.1857 32.1266 33.5856 30.8813 30.8858Z" fill="#1B205E"/>
<g style="mix-blend-mode:multiply" opacity="0.6">
<path d="M30.6651 31.0033C29.7675 29.0648 28.5645 28.1837 27.9136 27.8171H27.8619L27.9371 28.1249C28.5292 28.4633 29.6406 29.2998 30.4724 31.0902C31.6637 33.6607 31.5556 35.2068 31.5556 35.2233L31.7906 35.2421C31.8 34.8074 31.7318 33.3083 30.6651 31.0033Z" fill="#1B205E"/>
</g>
<path d="M33.7409 37.2134C33.8114 38.4259 33.0759 39.455 32.0961 39.5138C31.1163 39.5725 30.2634 38.635 30.1929 37.4226C30.1224 36.2101 30.8555 35.181 31.8377 35.1222C32.8198 35.0635 33.6681 36.001 33.7409 37.2134Z" fill="#79A2FC"/>
<g style="mix-blend-mode:screen" opacity="0.5">
<path d="M33.741 37.2135C33.6681 36.0011 32.8176 35.0659 31.8377 35.1223C31.581 35.1369 31.3325 35.2179 31.1164 35.3573C30.9154 35.7594 30.8253 36.208 30.8556 36.6566C30.9284 37.869 31.779 38.8042 32.7588 38.7455C33.0158 38.7325 33.2648 38.6514 33.4802 38.5105C33.6802 38.1088 33.7702 37.6613 33.741 37.2135Z" fill="#5789E3"/>
</g>
<g style="mix-blend-mode:multiply" opacity="0.3">
<path d="M32.9866 39.1473C32.738 39.3623 32.4264 39.4909 32.0985 39.5138C31.1187 39.5702 30.2657 38.6351 30.1952 37.4226C30.1247 36.2102 30.8578 35.1811 31.84 35.1223C32.0172 35.1133 32.1945 35.1355 32.364 35.1881H32.2324C31.3184 35.2422 30.6323 36.2008 30.7004 37.3334C30.7686 38.4659 31.5627 39.3376 32.4768 39.2836C32.6539 39.2713 32.827 39.2251 32.9866 39.1473Z" fill="#5789E3"/>
</g>
<path d="M33.3861 37.1196C33.4284 37.8245 33.0031 38.4166 32.4462 38.4495C31.8893 38.4824 31.3771 37.9349 31.3348 37.23C31.2925 36.5251 31.7178 35.933 32.2747 35.9001C32.8315 35.8672 33.3438 36.417 33.3861 37.1196Z" fill="white"/>
<g style="mix-blend-mode:multiply" opacity="0.3">
<g style="mix-blend-mode:multiply" opacity="0.3">
<path d="M33.2993 37.0558C33.3298 37.561 33.0243 37.9957 32.6155 38.0145C32.2067 38.0333 31.8495 37.6479 31.819 37.1427C31.7884 36.6376 32.0986 36.2029 32.5051 36.1817C32.9116 36.1606 33.2711 36.5483 33.2993 37.0558Z" fill="#5789E3"/>
</g>
</g>
<g style="mix-blend-mode:multiply" opacity="0.3">
<g style="mix-blend-mode:multiply" opacity="0.3">
<path d="M32.9302 36.5907C32.9225 36.6397 32.9012 36.6855 32.8687 36.7229C32.8361 36.7603 32.7937 36.7878 32.7462 36.8021C32.6987 36.8165 32.6482 36.8171 32.6004 36.8039C32.5526 36.7908 32.5094 36.7644 32.476 36.7278C32.4425 36.6912 32.42 36.6459 32.4112 36.5971C32.4024 36.5484 32.4075 36.4981 32.426 36.452C32.4445 36.406 32.4756 36.3662 32.5157 36.3371C32.5559 36.308 32.6034 36.2908 32.6529 36.2876C32.7296 36.2919 32.8015 36.326 32.8533 36.3826C32.9052 36.4393 32.9327 36.514 32.9302 36.5907Z" fill="#5789E3"/>
</g>
</g>
<g style="mix-blend-mode:multiply" opacity="0.3">
<g style="mix-blend-mode:multiply" opacity="0.3">
<path d="M33.0664 37.1641C33.0539 37.2474 33.018 37.3254 32.9629 37.3892C32.9079 37.4529 32.8359 37.4998 32.7553 37.5244C32.6748 37.549 32.5889 37.5503 32.5076 37.5281C32.4263 37.5059 32.353 37.4613 32.2961 37.3992C32.2391 37.3371 32.2009 37.2602 32.1858 37.1773C32.1707 37.0945 32.1794 37.009 32.2108 36.9308C32.2422 36.8527 32.2951 36.785 32.3634 36.7357C32.4316 36.6863 32.5125 36.6572 32.5965 36.6519C32.7266 36.658 32.849 36.7152 32.937 36.8112C33.025 36.9071 33.0716 37.034 33.0664 37.1641Z" fill="#5789E3"/>
</g>
</g>
<g style="mix-blend-mode:multiply" opacity="0.3">
<g style="mix-blend-mode:multiply" opacity="0.3">
<path d="M32.754 38.3318C32.1854 38.3647 31.6943 37.822 31.652 37.1218C31.6298 36.8923 31.6682 36.6611 31.7635 36.4512C31.8588 36.2413 32.0075 36.0601 32.1948 35.9258C31.6732 36.0151 31.2949 36.5766 31.3348 37.2392C31.3771 37.9441 31.8682 38.4822 32.4368 38.4493C32.5823 38.4388 32.7229 38.392 32.8456 38.313C32.8156 38.3215 32.785 38.3278 32.754 38.3318Z" fill="#5789E3"/>
</g>
</g>
<g style="mix-blend-mode:screen" opacity="0.5">
<path d="M31.074 37.0702C31.0881 37.2064 31.0435 37.3216 30.9777 37.3286C30.9119 37.3357 30.8414 37.2323 30.8273 37.0937C30.8132 36.955 30.8579 36.8399 30.926 36.8328C30.9941 36.8258 31.0599 36.9339 31.074 37.0702ZM31.074 37.6129C30.9589 37.6411 30.9143 37.8479 30.9706 38.0829C31.027 38.3178 31.1704 38.4776 31.2878 38.4494C31.4053 38.4212 31.4476 38.2144 31.3889 37.9795C31.3301 37.7445 31.1868 37.5824 31.0717 37.6129H31.074Z" fill="#5789E3"/>
</g>
<path d="M18.9262 29.1919C19.0975 28.4691 19.3101 27.7568 19.563 27.0584L19.4737 27.0278C17.1076 29.9931 17.829 34.8169 17.829 34.8757C17.8395 34.9341 17.8677 34.988 17.9097 35.03C17.9517 35.0719 18.0055 35.1001 18.0639 35.1107C18.0959 35.1154 18.1283 35.1154 18.1603 35.1107C18.2349 35.098 18.3016 35.0563 18.3456 34.9947C18.3896 34.933 18.4075 34.8565 18.3952 34.7817C18.4023 34.7418 17.9605 31.7835 18.9262 29.1919Z" fill="#1B205E"/>
<g style="mix-blend-mode:multiply" opacity="0.6">
<g style="mix-blend-mode:multiply" opacity="0.6">
<path d="M19.3398 27.7045C19.4079 27.486 19.4831 27.2722 19.5607 27.0607L19.4737 27.0278C17.1076 29.9931 17.829 34.8169 17.829 34.8757C17.8395 34.9341 17.8677 34.988 17.9097 35.03C17.9517 35.0719 18.0055 35.1001 18.0639 35.1107C18.0959 35.1154 18.1283 35.1154 18.1603 35.1107C18.19 35.1054 18.2186 35.0951 18.2448 35.0801C18.1889 35.0356 18.1512 34.972 18.1391 34.9015C18.1368 34.8522 17.5165 30.6722 19.3398 27.7045Z" fill="#1B205E"/>
</g>
</g>
<path d="M15.3971 42.7139C15.3304 42.7017 15.2701 42.6662 15.2271 42.6137C15.184 42.5612 15.161 42.4952 15.1621 42.4273C15.1621 42.1923 15.2702 36.7341 17.0231 35.087C17.1858 34.9225 17.381 34.7938 17.5962 34.7088C17.8114 34.6239 18.0419 34.5846 18.2731 34.5935C21.1467 34.7275 21.4216 41.6918 21.4428 42.486C21.4387 42.5583 21.4076 42.6264 21.3557 42.6768C21.3038 42.7273 21.2348 42.7564 21.1625 42.7585C21.0902 42.7605 21.0197 42.7354 20.965 42.688C20.9103 42.6406 20.8754 42.5744 20.8671 42.5025C20.8131 40.4935 20.2257 35.2561 18.2473 35.1715C18.0932 35.1664 17.9398 35.1937 17.7969 35.2516C17.654 35.3094 17.5249 35.3966 17.4178 35.5075C15.8412 36.9902 15.7402 42.3803 15.7378 42.4343C15.7366 42.5106 15.7053 42.5832 15.6507 42.6365C15.5961 42.6897 15.5227 42.7193 15.4465 42.7186L15.3971 42.7139Z" fill="#1B205E"/>
<g style="mix-blend-mode:multiply" opacity="0.6">
<path d="M20.8131 39.5372C20.4371 36.7552 19.2623 34.7462 18.0922 34.9365C16.922 35.1269 16.3135 36.9596 16.001 38.4798C15.6885 40.0001 15.7801 42.2158 15.4723 42.3051C15.3313 42.3474 15.2373 42.2205 15.1715 42.0701C15.1715 42.2675 15.1715 42.3944 15.1715 42.4273C15.1704 42.4951 15.1934 42.5612 15.2365 42.6137C15.2795 42.6662 15.3398 42.7017 15.4065 42.7139H15.4559C15.5321 42.7145 15.6055 42.685 15.6601 42.6318C15.7147 42.5785 15.746 42.5058 15.7472 42.4296C15.7472 42.3756 15.8506 36.9854 17.4272 35.5028C17.5343 35.3919 17.6634 35.3047 17.8063 35.2468C17.9492 35.1889 18.1026 35.1617 18.2566 35.1668C20.2351 35.2514 20.8225 40.4888 20.8765 42.4977C20.8848 42.5696 20.9197 42.6358 20.9744 42.6832C21.0291 42.7306 21.0996 42.7558 21.1719 42.7537C21.2442 42.7517 21.3132 42.7225 21.3651 42.6721C21.417 42.6216 21.4481 42.5536 21.4522 42.4813C21.4522 42.4179 21.4522 42.3098 21.4522 42.1711C21.2149 41.9432 21.0198 41.0645 20.8131 39.5372Z" fill="#1B205E"/>
</g>
<path d="M15.3618 42.6154C15.3618 42.6154 15.3783 44.5421 17.2415 45.1741C19.1048 45.8062 20.0447 45.4655 20.0447 45.4655C20.0447 45.4655 21.0973 45.7709 21.196 45.3292C21.3253 44.7559 20.5593 44.7371 20.047 45.207C20.047 45.207 19.3092 45.637 17.3238 44.9321C15.6226 44.3306 15.5474 42.5331 15.5474 42.5331C15.5474 42.5331 15.3665 42.5143 15.3618 42.6154Z" fill="#79A2FC"/>
<g style="mix-blend-mode:multiply" opacity="0.3">
<path d="M20.1505 45.2892C20.1505 45.2892 19.2106 45.6299 17.3473 44.9978C16.8257 44.8192 16.3687 44.4899 16.0341 44.0516C15.6996 43.6133 15.5024 43.0857 15.4676 42.5354C15.4183 42.5354 15.3595 42.5589 15.3572 42.6153C15.3572 42.6153 15.3736 44.542 17.2369 45.1741C19.1002 45.8061 20.04 45.4654 20.04 45.4654C20.04 45.4654 21.0927 45.7709 21.1914 45.3291C21.1914 45.3291 21.1914 45.3103 21.1914 45.3009C20.9141 45.5101 20.1505 45.2892 20.1505 45.2892Z" fill="#5789E3"/>
</g>
<path d="M21.269 42.5943C21.269 42.5943 21.3771 44.5187 19.5584 45.2682C17.7398 46.0177 16.7788 45.7381 16.7788 45.7381C16.7788 45.7381 15.7473 46.1117 15.6204 45.677C15.4559 45.1108 16.2196 45.045 16.76 45.4797C16.76 45.4797 17.5236 45.8603 19.4621 45.0309C21.1068 44.326 21.0787 42.5214 21.0787 42.5214C21.0787 42.5214 21.2549 42.4932 21.269 42.5943Z" fill="#79A2FC"/>
<g style="mix-blend-mode:multiply" opacity="0.3">
<path d="M16.6635 45.5714C16.6635 45.5714 17.6198 45.851 19.4408 45.1015C21.0198 44.4506 21.1466 42.9163 21.1537 42.5168C21.203 42.5168 21.2618 42.5356 21.2688 42.592C21.2688 42.592 21.3769 44.5164 19.5583 45.2659C17.7396 46.0155 16.7786 45.7359 16.7786 45.7359C16.7786 45.7359 15.7471 46.1095 15.6202 45.6748C15.6216 45.6662 15.6216 45.6575 15.6202 45.6489C15.9139 45.8416 16.6635 45.5714 16.6635 45.5714Z" fill="#5789E3"/>
</g>
<path d="M30.5382 9.67546C30.5382 9.67546 32.3099 10.1172 32.6788 12.3329C33.0477 14.5487 30.9071 18.3105 30.9071 18.3105C30.9071 18.3105 28.3225 15.653 27.8807 12.6266C27.439 9.60027 30.5382 9.67546 30.5382 9.67546Z" fill="#AE5041"/>
<g style="mix-blend-mode:multiply" opacity="0.4">
<path d="M30.5382 9.67546C30.5382 9.67546 32.3099 10.1172 32.6788 12.3329C33.0477 14.5487 30.9071 18.3105 30.9071 18.3105C30.9071 18.3105 28.3225 15.653 27.8807 12.6266C27.439 9.60027 30.5382 9.67546 30.5382 9.67546Z" fill="#AE5041"/>
</g>
<g style="mix-blend-mode:multiply" opacity="0.4">
<path d="M31.0787 9.91043C30.9087 9.81055 30.7272 9.73165 30.5383 9.67546C30.5383 9.67546 27.4367 9.60027 27.8808 12.6266C28.3249 15.653 30.9072 18.3105 30.9072 18.3105C31.5481 17.1492 32.0633 15.9227 32.4438 14.652C31.3771 13.3033 30.6581 11.2944 31.0787 9.91043Z" fill="#AE5041"/>
</g>
<path d="M25.3432 8.5452C25.3432 8.5452 29.4528 9.44042 30.5125 12.1284C31.5722 14.8164 31.1986 19.0834 31.1986 19.0834C31.1986 19.0834 32.411 21.2428 31.8823 23.0332C31.3536 24.8236 28.769 26.4825 24.8333 26.1418C23.5449 26.0365 22.2971 25.6405 21.1836 24.9837C20.0702 24.3268 19.1201 23.4262 18.4047 22.3494C18.4047 22.3494 15.9822 23.2447 14.7697 21.2944C13.5573 19.3442 14.2998 16.4494 17.0348 17.6595C17.0066 17.6595 16.2171 8.38777 25.3432 8.5452Z" fill="#FFE2D6"/>
<g opacity="0.2">
<path opacity="0.2" d="M28.0147 19.8424C27.9486 20.0225 27.8182 20.1718 27.6486 20.2616C27.479 20.3514 27.2822 20.3753 27.096 20.3287C27.0039 20.3231 26.9141 20.2982 26.8322 20.2555C26.7504 20.2129 26.6785 20.1535 26.6211 20.0813C26.5637 20.0091 26.5222 19.9256 26.4991 19.8362C26.4761 19.7469 26.4721 19.6537 26.4875 19.5627C26.4875 19.5627 25.8296 20.1032 25.846 20.3804C25.8625 20.6577 28.5364 21.5717 28.0147 19.8424Z" fill="#FA9E9E"/>
</g>
<path d="M25.846 20.3123C25.8648 20.3123 25.9118 20.2324 26.0058 20.1243C26.1183 19.9923 26.2516 19.8795 26.4005 19.7907C26.5466 19.7027 26.705 19.6369 26.8705 19.5956C26.9472 19.5748 27.026 19.5622 27.1054 19.558H27.1665C27.2189 19.5538 27.2716 19.5538 27.324 19.558C27.4803 19.5614 27.6303 19.6206 27.7469 19.7249C27.8594 19.8469 27.9302 20.0016 27.949 20.1666C27.9701 20.3076 27.9678 20.4016 27.9889 20.4016C28.0271 20.3293 28.0457 20.2483 28.043 20.1666C28.0561 19.9684 27.9968 19.7722 27.8761 19.6144C27.8057 19.5297 27.7174 19.4615 27.6177 19.4147C27.5307 19.3773 27.439 19.352 27.3451 19.3395C27.2802 19.3344 27.215 19.3344 27.1501 19.3395H27.0749C26.9868 19.3519 26.9002 19.3732 26.8164 19.403C26.6351 19.4647 26.4652 19.556 26.3136 19.6732C26.1612 19.7866 26.0334 19.9297 25.9377 20.0938C25.8507 20.2042 25.8319 20.3123 25.846 20.3123Z" fill="#FA9E9E"/>
<g opacity="0.2">
<path opacity="0.2" d="M20.4983 21.6915C20.4978 22.168 20.6387 22.634 20.9032 23.0304C21.1677 23.4268 21.5438 23.7358 21.984 23.9184C22.4241 24.101 22.9086 24.1489 23.376 24.056C23.8434 23.9632 24.2727 23.7338 24.6097 23.3968C24.9466 23.0598 25.1761 22.6305 25.2689 22.1631C25.3618 21.6957 25.3139 21.2112 25.1313 20.7711C24.9487 20.3309 24.6397 19.9548 24.2433 19.6903C23.8468 19.4259 23.3809 19.2849 22.9043 19.2854C22.2662 19.2854 21.6542 19.5389 21.203 19.9901C20.7518 20.4413 20.4983 21.0533 20.4983 21.6915Z" fill="#FA9E9E"/>
</g>
<g opacity="0.2">
<path opacity="0.2" d="M28.8677 21.5341C28.8683 22.1724 29.1223 22.7844 29.5739 23.2356C30.0255 23.6867 30.6377 23.9402 31.2761 23.9402C31.3254 23.9402 31.3724 23.9402 31.4218 23.9402C31.6125 23.6646 31.7592 23.361 31.8564 23.0402C32.3381 21.3955 31.3701 19.4641 31.1985 19.1375C30.5754 19.1575 29.9842 19.4185 29.5495 19.8655C29.1148 20.3125 28.8704 20.9106 28.8677 21.5341Z" fill="#FA9E9E"/>
</g>
<g style="mix-blend-mode:screen">
<g style="mix-blend-mode:screen">
<g style="mix-blend-mode:screen">
<path d="M21.2078 20.4535C21.2078 20.5757 21.3769 20.6885 21.5955 20.6885C21.814 20.6885 21.9973 20.6015 22.0019 20.4794C22.0066 20.3572 21.8304 20.2444 21.6119 20.2444C21.3934 20.2444 21.2101 20.3313 21.2078 20.4535Z" fill="#FAC198"/>
</g>
</g>
</g>
<path d="M22.9042 18.4796C22.9042 19.0835 23.2284 19.5699 23.6091 19.5675C23.9897 19.5652 24.2999 19.067 24.2928 18.4632C24.2858 17.8593 23.9686 17.3706 23.5879 17.3753C23.2073 17.38 22.8971 17.8734 22.9042 18.4796Z" fill="#1B205E"/>
<path d="M28.7784 18.4493C28.7784 19.0532 29.1027 19.5396 29.4833 19.5349C29.864 19.5302 30.1741 19.0368 30.1671 18.4329C30.16 17.829 29.8428 17.3403 29.4622 17.345C29.0815 17.3497 28.7714 17.8431 28.7784 18.4493Z" fill="#1B205E"/>
<path d="M28.5576 21.6117C28.5717 21.6117 28.5176 21.7292 28.4142 21.8843C28.2837 22.0705 28.1252 22.2353 27.9443 22.373C27.7577 22.5145 27.5466 22.6204 27.3216 22.6855C27.2452 22.7104 27.1665 22.7277 27.0867 22.7372L26.9974 22.7513H26.9081C26.8294 22.7541 26.7507 22.7486 26.6731 22.7349C26.44 22.7014 26.2174 22.6154 26.0223 22.4835C25.8314 22.3588 25.6656 22.1994 25.5335 22.0135C25.4349 21.8561 25.3808 21.748 25.3949 21.7386C25.409 21.7292 25.4889 21.8232 25.6064 21.9571C25.7525 22.1124 25.9212 22.2447 26.1069 22.3495C26.2896 22.4495 26.4914 22.5095 26.699 22.5258C26.7661 22.5327 26.8339 22.5327 26.901 22.5258H26.988H27.0655C27.1337 22.5225 27.2015 22.5122 27.2676 22.4952C27.4736 22.4501 27.6706 22.3707 27.8503 22.2602C28.0334 22.1443 28.2015 22.0062 28.3508 21.8491C28.4636 21.694 28.5435 21.6023 28.5576 21.6117Z" fill="#FA9E9E"/>
<g opacity="0.2">
<path opacity="0.2" d="M17.2439 19.5651C17.6997 20.3781 17.5611 21.325 16.9337 21.6798C16.3064 22.0346 15.8317 21.6117 15.3736 20.7987C14.9154 19.9857 14.6499 19.0811 15.2796 18.7287C15.9093 18.3762 16.7857 18.7498 17.2439 19.5651Z" fill="#FA9E9E"/>
</g>
<path d="M17.3802 19.8025C17.3325 19.6931 17.2759 19.5878 17.211 19.4876C17.1437 19.3912 17.0691 19.3 16.9878 19.2151C16.8119 19.0253 16.6054 18.8664 16.3769 18.7451C16.1499 18.6182 15.8944 18.5511 15.6344 18.5501C15.5167 18.5417 15.3991 18.5679 15.296 18.6253C15.296 18.6441 15.4346 18.6253 15.6297 18.6418C15.8661 18.6693 16.0934 18.7496 16.2946 18.8767C16.5843 19.0682 16.8301 19.3189 17.016 19.6122C17.0799 19.6997 17.1365 19.7925 17.1851 19.8894C17.1969 19.9129 17.2086 19.9411 17.2227 19.967C17.1052 19.9004 16.9724 19.8656 16.8374 19.8659C16.6987 19.8685 16.5626 19.9039 16.4403 19.9693C16.4002 19.9907 16.3617 20.0151 16.3252 20.0422L16.2829 20.0751L16.2476 20.115C16.2156 20.1481 16.1879 20.1852 16.1654 20.2254C16.0885 20.3425 16.0439 20.4779 16.0362 20.6178C16.0297 20.7536 16.0606 20.8885 16.1254 21.0079C16.1842 21.0995 16.2312 21.1488 16.2429 21.1418C16.2547 21.1347 16.2429 21.0666 16.21 20.975C16.1862 20.8642 16.1862 20.7497 16.21 20.639C16.2327 20.5333 16.2811 20.4348 16.351 20.3523C16.3826 20.3151 16.4163 20.2798 16.4521 20.2466L16.4802 20.2207C16.5864 20.1228 16.7186 20.0576 16.8609 20.0328C16.972 20.0141 17.0858 20.0197 17.1945 20.0492L17.2815 20.0774C17.3452 20.233 17.3871 20.3967 17.406 20.5638C17.4214 20.6902 17.4214 20.818 17.406 20.9444C17.3866 21.0544 17.3542 21.1616 17.3097 21.264C17.2535 21.3607 17.2025 21.4603 17.1569 21.5624C17.1569 21.5624 17.2791 21.4872 17.3919 21.3063C17.4556 21.2018 17.5039 21.0886 17.5352 20.9703C17.569 20.8343 17.5848 20.6945 17.5822 20.5544C17.5647 20.2929 17.4961 20.0375 17.3802 19.8025Z" fill="#FA9E9E"/>
<path d="M24.1425 15.674C24.1167 15.714 23.8723 15.5988 23.6303 15.6035C23.4727 15.6055 23.3174 15.6407 23.1744 15.7069C23.0191 15.7544 22.8718 15.8249 22.7374 15.916C22.5259 16.0547 22.3427 16.2497 22.3051 16.2238C22.2675 16.198 22.385 15.9466 22.5847 15.7375C22.6772 15.6411 22.7814 15.5566 22.8948 15.4861C22.9395 15.4555 22.9841 15.4367 23.0123 15.4203L23.0593 15.3991C23.1202 15.3809 23.1822 15.3668 23.2449 15.3568C23.3826 15.337 23.5228 15.3426 23.6585 15.3733C23.9569 15.4367 24.1683 15.6411 24.1425 15.674Z" fill="#AC5046"/>
<path d="M30.6112 15.5802C30.5924 15.5802 30.536 15.5473 30.4561 15.4862C30.3623 15.4127 30.2597 15.3511 30.1506 15.3029C30.0458 15.2573 29.9351 15.2264 29.8217 15.2113C29.7849 15.2086 29.748 15.2086 29.7112 15.2113H29.6713C29.6212 15.2085 29.571 15.2085 29.5209 15.2113C29.4069 15.2069 29.2929 15.2196 29.1826 15.2489C29.0694 15.2813 28.9606 15.327 28.8583 15.3852C28.7714 15.4345 28.7103 15.4721 28.6915 15.4557C28.6727 15.4392 28.7056 15.3734 28.7761 15.2865C28.8646 15.1719 28.9758 15.0767 29.1027 15.0069C29.2298 14.9442 29.3663 14.9029 29.5068 14.8847C29.5715 14.8764 29.6366 14.8717 29.7018 14.8706H29.7535C29.8007 14.8769 29.8472 14.8879 29.8922 14.9035C30.0284 14.9439 30.1571 15.0067 30.2728 15.0891C30.3853 15.1701 30.4817 15.2713 30.5571 15.3875C30.6088 15.498 30.63 15.5685 30.6112 15.5802Z" fill="#AC5046"/>
<path opacity="0.2" d="M28.5458 13.4395C31.1304 11.447 29.3564 10.9301 29.3564 10.9301C29.47 10.9178 29.583 10.8998 29.6948 10.8761C28.1228 9.15611 25.3432 8.5452 25.3432 8.5452C16.2289 8.38777 17.0183 17.6595 17.0183 17.6595C16.6923 17.5081 16.3425 17.4143 15.9845 17.3823C16.225 17.6805 16.5067 17.9432 16.821 18.1623C16.8999 18.1653 16.9785 18.1747 17.0559 18.1905C17.3565 18.2446 17.6394 18.371 17.8801 18.5589C18.1209 18.7468 18.3122 18.9906 18.4375 19.269C18.4375 19.269 21.243 17.7935 20.8741 13.5124C20.8788 13.5124 25.9612 15.432 28.5458 13.4395Z" fill="#FA9E9E"/>
<path d="M16.5883 17.5724C16.6673 17.5754 16.7459 17.5848 16.8233 17.6006C17.1239 17.6547 17.4068 17.7811 17.6475 17.969C17.8882 18.1569 18.0796 18.4007 18.2049 18.6791C18.2049 18.6791 21.0104 17.2036 20.6392 12.9225C20.6392 12.9225 25.7332 14.8421 28.3155 12.8496C30.8978 10.8571 29.1285 10.3402 29.1285 10.3402C29.1285 10.3402 31.6379 10.1052 31.8588 8.05163C32.0797 5.99803 22.7797 5.02527 19.0155 8.86226C19.0155 8.86226 16.7293 7.75558 15.1057 10.1922C13.4821 12.6288 14.7415 16.3177 16.5883 17.5724Z" fill="#AE5041"/>
<g style="mix-blend-mode:multiply" opacity="0.4">
<path d="M31.8423 7.79109C30.511 8.5535 29.0414 9.04388 27.519 9.23378C25.2868 9.51339 22.6317 9.62148 20.9188 7.92737C20.8271 7.83844 20.7416 7.74346 20.6627 7.64307C20.0578 7.96708 19.5037 8.37793 19.0179 8.86254C18.6807 8.71724 18.3202 8.63368 17.9535 8.61583C18.0803 8.70325 18.2012 8.79902 18.3154 8.90248C18.4452 9.0359 18.561 9.18235 18.6608 9.33952C18.9122 9.68257 18.9263 10.0444 18.9803 10.4509C18.9946 10.9208 18.8713 11.3847 18.6255 11.7855C18.3685 12.2055 18.0128 12.5564 17.5893 12.8076C17.2068 13.0301 16.7615 13.1201 16.3226 13.0636C15.8837 13.0071 15.4758 12.8073 15.1621 12.4951C14.8911 12.2089 14.6781 11.873 14.5348 11.5059C13.9332 13.7968 15.0587 16.5271 16.5954 17.5727C16.6744 17.5756 16.753 17.5851 16.8304 17.6009C17.1309 17.6549 17.4138 17.7814 17.6546 17.9693C17.8953 18.1572 18.0866 18.4009 18.212 18.6794C18.212 18.6794 21.0175 17.2038 20.6462 12.9228C20.6462 12.9228 25.7403 14.8424 28.3225 12.8499C30.9048 10.8574 29.1355 10.3405 29.1355 10.3405C29.1355 10.3405 31.645 10.1055 31.8658 8.05191C31.8744 7.96426 31.8664 7.8758 31.8423 7.79109ZM28.3437 12.0698C27.7019 12.4446 26.9884 12.6802 26.2496 12.7612C25.5109 12.8421 24.7633 12.7667 24.0556 12.5398C23.8783 12.4874 23.7175 12.3902 23.5887 12.2575C23.4598 12.1249 23.3674 11.9614 23.3202 11.7826C23.2729 11.6039 23.2725 11.416 23.319 11.2371C23.3655 11.0581 23.4574 10.8942 23.5856 10.7611C24.4362 9.80475 26.2478 9.68727 27.4367 9.78361C27.7162 9.79976 27.978 9.92558 28.1651 10.1337C28.8677 10.4439 29.1919 11.5505 28.3437 12.0698Z" fill="#AE5041"/>
</g>
<path d="M20.3525 12.1284C20.342 12.3054 20.3538 12.483 20.3877 12.6571C20.4243 13.0373 20.4369 13.4195 20.4253 13.8014C20.4074 14.1796 20.3603 14.5559 20.2843 14.9269C20.2162 15.2276 20.1598 15.425 20.1598 15.425C20.1598 15.425 20.1457 15.4743 20.1222 15.5636C20.0987 15.6529 20.0681 15.7751 20.0141 15.9208C19.8897 16.2814 19.7323 16.6298 19.5442 16.9617C19.3552 17.2923 19.1391 17.6067 18.898 17.9015C18.7728 18.0282 18.6631 18.1694 18.5714 18.3221C18.7288 18.2345 18.8709 18.1218 18.992 17.9885C19.274 17.7119 19.5261 17.4063 19.7439 17.0768C19.9607 16.7436 20.1433 16.3893 20.289 16.0195C20.3548 15.8691 20.39 15.7375 20.4206 15.6482L20.4676 15.5049C20.4676 15.5049 20.5193 15.2934 20.5733 14.9739C20.6322 14.5851 20.6573 14.1921 20.6485 13.799C20.6363 13.4039 20.5883 13.0107 20.5052 12.6242C20.4808 12.4519 20.4293 12.2846 20.3525 12.1284Z" fill="#AC5046"/>
<path d="M31.9481 7.83796C31.8761 7.63999 31.7614 7.4603 31.6121 7.31163C31.3538 7.06913 31.0558 6.87282 30.731 6.73127C30.6605 6.69837 30.5947 6.66548 30.5313 6.63963L30.3456 6.57149C30.2282 6.5292 30.1271 6.4916 30.0425 6.47046L29.7747 6.39527L29.7042 6.37882L29.5021 6.33887C29.3282 6.30128 29.0792 6.26369 28.7808 6.22374C28.0518 6.13806 27.3173 6.10821 26.5838 6.13445C25.8517 6.15096 25.1222 6.22957 24.4033 6.36942C24.2577 6.39762 24.1237 6.43051 24.0063 6.46341C23.9045 6.48865 23.8041 6.51924 23.7055 6.55504C23.6159 6.57785 23.5303 6.61431 23.4517 6.66313C23.4517 6.68897 23.8394 6.57619 24.4268 6.4963C25.8593 6.30985 27.3104 6.31776 28.7408 6.5198C29.0298 6.56679 29.2695 6.60909 29.4457 6.65138L29.6384 6.69367L29.7042 6.71012L29.9626 6.77591C30.0449 6.79471 30.1412 6.8276 30.2516 6.8652L30.4279 6.92159C30.4866 6.94509 30.5501 6.97563 30.6135 7.00383C30.912 7.12144 31.1879 7.28998 31.4288 7.50196C31.5616 7.61225 31.6615 7.75699 31.7174 7.9203C31.7734 8.0836 31.7833 8.25916 31.746 8.42772C31.6378 8.7793 31.4355 9.09457 31.161 9.33939C30.9214 9.56753 30.6593 9.77065 30.3785 9.9456C30.1511 10.0838 29.9157 10.2085 29.6736 10.3192C29.6506 10.2732 29.6239 10.2292 29.5937 10.1876C29.5184 10.0902 29.4289 10.0047 29.3282 9.93385C29.2318 9.86498 29.1277 9.80742 29.0181 9.76233C28.9128 9.72453 28.8053 9.69315 28.6962 9.66834C28.3086 9.59843 27.9151 9.56617 27.5213 9.57201C27.183 9.57201 26.9034 9.57201 26.7084 9.54616C26.6068 9.52822 26.5037 9.52035 26.4006 9.52266C26.494 9.56963 26.595 9.59985 26.699 9.61195C26.9695 9.65787 27.2425 9.68691 27.5166 9.69889C27.8962 9.71505 28.2736 9.76458 28.6445 9.84691C28.8453 9.8795 29.0336 9.96567 29.1895 10.0964C29.3454 10.227 29.4631 10.3974 29.5303 10.5894C29.5907 10.7841 29.6094 10.9894 29.5851 11.1919C29.5608 11.3943 29.4941 11.5893 29.3893 11.7642C29.1853 12.065 28.9142 12.3143 28.5975 12.4926C28.3711 12.6273 28.1356 12.7458 27.8926 12.8474C27.7164 12.9226 27.6106 12.9602 27.6106 12.9602L27.3263 13.073C27.1454 13.1411 26.8799 13.2445 26.5744 13.3432C26.2137 13.4409 25.8449 13.5054 25.4724 13.5359C25.0406 13.5654 24.6073 13.5654 24.1754 13.5359C23.3605 13.4861 22.5519 13.361 21.76 13.1623C21.1115 12.9978 20.6932 12.8333 20.6838 12.8568C20.7679 12.9184 20.8605 12.9675 20.9587 13.0025C21.1397 13.08 21.4028 13.1811 21.7247 13.2845C22.52 13.5331 23.3389 13.6985 24.1684 13.7779C24.6113 13.8183 25.0564 13.8285 25.5006 13.8084C25.8969 13.7877 26.2902 13.7295 26.6755 13.6346C27.0138 13.5359 27.2723 13.4419 27.4579 13.3761L27.7516 13.268C27.7516 13.268 27.8573 13.2257 28.0406 13.1435C28.2966 13.0301 28.544 12.8982 28.7808 12.7487C29.1331 12.5399 29.4304 12.2499 29.6478 11.9029C29.7057 11.8017 29.7545 11.6955 29.7935 11.5857C29.8285 11.471 29.8505 11.3528 29.8593 11.2332C29.8628 11.173 29.8628 11.1125 29.8593 11.0523L29.8428 10.8761C29.8338 10.755 29.8085 10.6356 29.7676 10.5213C29.7552 10.469 29.7346 10.419 29.7065 10.3732L29.7817 10.3497C30.01 10.2713 30.2315 10.1747 30.4443 10.0607C30.7473 9.89893 31.0311 9.70346 31.2902 9.47802C31.6065 9.21906 31.8435 8.87623 31.9739 8.48881C32.0314 8.27425 32.0224 8.04729 31.9481 7.83796Z" fill="#AC5046"/>
<path d="M18.8581 9.71306C18.7439 9.6623 18.6182 9.64284 18.4939 9.65667C18.221 9.66205 17.9513 9.71616 17.6974 9.81645C17.444 9.92321 17.2068 10.0648 16.9925 10.237C16.9203 10.2926 16.852 10.3531 16.7881 10.418L16.7129 10.4885C16.6293 10.5853 16.5509 10.6865 16.4779 10.7916C16.328 11.0221 16.208 11.2708 16.1208 11.5317C16.0393 11.7932 16.0012 12.0662 16.008 12.34C16.0009 12.4648 16.026 12.5894 16.0808 12.7018C16.1067 12.7018 16.109 12.5538 16.1372 12.347C16.1728 12.095 16.2407 11.8486 16.3393 11.6139C16.442 11.3837 16.5722 11.1667 16.727 10.9678C16.8539 10.808 16.9479 10.7093 16.9479 10.7093L17.0113 10.6412C17.0652 10.5793 17.1225 10.5205 17.1828 10.465C17.3654 10.2951 17.5682 10.1483 17.7867 10.0279C18.01 9.91816 18.2471 9.83913 18.4916 9.79295C18.7125 9.73891 18.8558 9.73891 18.8581 9.71306Z" fill="#AC5046"/>
<path d="M16.7505 8.87897C17.1382 8.72624 17.4225 8.69099 17.4178 8.66045C17.1787 8.64384 16.9388 8.67663 16.7129 8.75679C16.4732 8.82675 16.244 8.92871 16.0315 9.05989C15.7887 9.21393 15.5681 9.4005 15.376 9.61441C15.0237 10.0267 14.7591 10.5064 14.5982 11.0242C14.5409 11.1911 14.4939 11.3614 14.4573 11.5341L14.4173 11.7315C14.3813 11.9727 14.3601 12.216 14.3539 12.4598C14.3392 12.9937 14.3913 13.5273 14.5089 14.0482C14.621 14.5698 14.8154 15.0703 15.0846 15.5309C15.1977 15.7425 15.3509 15.93 15.5357 16.083C15.5569 16.0642 15.3783 15.8481 15.1927 15.4627C14.9684 14.9991 14.8102 14.5064 14.7228 13.9989C14.6362 13.4939 14.6094 12.9805 14.6429 12.4692C14.6584 12.2384 14.6866 12.0085 14.7275 11.7808C14.7275 11.7808 14.7275 11.7127 14.758 11.5952C14.7886 11.4777 14.8144 11.3062 14.8731 11.1088C15.0059 10.623 15.2326 10.168 15.5404 9.76949C15.7088 9.56075 15.904 9.3751 16.1208 9.21732C16.3153 9.07792 16.5269 8.9642 16.7505 8.87897Z" fill="#AC5046"/>
<g style="mix-blend-mode:screen">
<path d="M27.613 7.49019C27.613 7.63822 27.378 7.7604 27.1078 7.76275C26.8376 7.7651 26.6003 7.64996 26.5979 7.50429C26.5956 7.35861 26.8329 7.23407 27.1031 7.23172C27.3733 7.22938 27.613 7.34451 27.613 7.49019Z" fill="#FAC198"/>
</g>
<g style="mix-blend-mode:screen">
<path d="M28.7595 7.66882C28.7595 7.77456 28.5786 7.8474 28.3765 7.83095C28.1745 7.8145 28.0147 7.71582 28.0241 7.61008C28.0335 7.50435 28.205 7.42916 28.4071 7.44795C28.6091 7.46675 28.7689 7.56309 28.7595 7.66882Z" fill="#FAC198"/>
</g>
</g>
</svg>
