<svg width="210" height="210" viewBox="0 0 210 210" fill="none" xmlns="http://www.w3.org/2000/svg">
<ellipse cx="104.5" cy="145" rx="104.5" ry="64" fill="#F5F5F5"/>
<g clip-path="url(#clip0)">
<path d="M119.45 156.097L116.615 169.229L49.1792 129.267L52.0136 116.135L119.45 156.097Z" fill="#B3B3B3"/>
<path d="M55.3002 114.382L52.0137 116.135L119.45 156.097L122.736 154.343L55.3002 114.382Z" fill="#666666"/>
<path d="M122.736 154.343L119.902 167.476L116.615 169.229L119.45 156.097L122.736 154.343Z" fill="#D1D2D3"/>
<path d="M149.71 74.3021L146.859 88.3592L73.2251 46.0491L76.0774 31.992L149.71 74.3021Z" fill="#2E373A"/>
<path d="M79.6047 30.0978L76.0767 31.992L149.711 74.3021L153.239 72.4078L79.6047 30.0978Z" fill="#344A54"/>
<path d="M153.239 72.4078L150.386 86.4649L146.859 88.3592L149.711 74.3021L153.239 72.4078Z" fill="#D1D2D3"/>
<path d="M153.239 123.215L150.386 137.273L76.7534 94.9621L79.6048 80.905L153.239 123.215Z" fill="#2E373A"/>
<path d="M83.133 79.0107L79.605 80.905L153.239 123.215L156.767 121.322L83.133 79.0107Z" fill="#344A54"/>
<path d="M156.767 121.322L153.914 135.379L150.386 137.273L153.239 123.215L156.767 121.322Z" fill="#EDA11B"/>
<path d="M40.0732 112.647V123.486L79.7954 100.553V89.7125L40.0732 112.647Z" fill="#808080"/>
<path d="M77.4497 88.3592L79.7951 89.7125L40.0729 112.647L37.7275 111.293L77.4497 88.3592Z" fill="#B3B3B3"/>
<path d="M37.7275 111.293V122.132L40.0729 123.486V112.647L37.7275 111.293Z" fill="#6D6D6D"/>
<path d="M154.366 68.8299L165.083 161.168L152.617 153.948L141.928 61.4446L154.366 68.8299Z" fill="#666666"/>
<path d="M157.138 67.6702L167.792 159.57L165.083 161.168L154.366 68.8299L157.138 67.6702Z" fill="#D1D2D3"/>
<path d="M144.848 60.3488L157.139 67.6702L154.366 68.8299L141.928 61.4446L144.848 60.3488Z" fill="#E8E8E8"/>
<path d="M79.7063 25.4739L90.3562 117.333L77.8959 110.065L67.293 18.1165L79.7063 25.4739Z" fill="#666666"/>
<path d="M82.478 24.3133L93.081 115.771L90.3564 117.333L79.7065 25.474L82.478 24.3133Z" fill="#D1D2D3"/>
<path d="M70.2581 17.0337L82.4778 24.3143L79.7064 25.474L67.293 18.1175L70.2581 17.0337Z" fill="#E8E8E8"/>
<path d="M154.716 68.6583L129.288 181.912L125.201 184.273L150.846 70.0475L154.716 68.6583Z" fill="#6D6D6D"/>
<path d="M150.846 70.0475L125.201 184.273L112.562 177.153L138.242 62.771L150.846 70.0475Z" fill="#D1D2D3"/>
<path d="M142.111 61.3807L154.715 68.6583L150.846 70.0475L138.243 62.771L142.111 61.3807Z" fill="#E8E8E8"/>
<path d="M76.0327 26.7833L50.209 141.806L37.606 134.521L63.4287 19.5058L76.0327 26.7833Z" fill="#D1D2D3"/>
<path d="M79.9011 25.3941L54.2969 139.438L50.209 141.806L76.0327 26.7833L79.9011 25.3941Z" fill="#6D6D6D"/>
<path d="M67.298 18.1176L79.901 25.3941L76.0327 26.7834L63.4287 19.5058L67.298 18.1176Z" fill="#E8E8E8"/>
<g style="mix-blend-mode:multiply" opacity="0.56">
<path d="M79.7773 25.944L81.2634 38.9033L77.3701 36.6658L79.7773 25.944Z" fill="#AAAAAA"/>
</g>
<path d="M129.648 164.153V174.992L169.371 152.058V141.219L129.648 164.153Z" fill="#B3B3B3"/>
<path d="M167.025 139.865L169.37 141.219L129.648 164.153L127.303 162.798L167.025 139.865Z" fill="#808080"/>
<path d="M127.303 162.798V173.637L129.648 174.992V164.153L127.303 162.798Z" fill="#6D6D6D"/>
<g style="mix-blend-mode:multiply" opacity="0.56">
<path d="M154.472 69.7431L155.878 81.7822L152.239 79.6904L154.472 69.7431Z" fill="#AAAAAA"/>
</g>
<g style="mix-blend-mode:multiply" opacity="0.5">
<g style="mix-blend-mode:multiply" opacity="0.5">
<path d="M132.42 152.159L135.586 153.964L135.289 155.191L132.031 153.861L119.422 146.609L119.806 144.895L132.42 152.159Z" fill="#E6E6E6"/>
</g>
<g style="mix-blend-mode:multiply" opacity="0.5">
<path d="M129.167 103.194L141.782 110.456L144.948 112.263L144.651 113.488L141.393 112.16L128.783 104.907L129.167 103.194Z" fill="#E6E6E6"/>
</g>
<g style="mix-blend-mode:multiply" opacity="0.5">
<path d="M54.3009 60.1661L66.9178 67.4157L70.0606 69.2231L69.7861 70.4457L66.5266 69.1273L53.9106 61.9057L54.3009 60.1661Z" fill="#E6E6E6"/>
</g>
<g style="mix-blend-mode:multiply" opacity="0.5">
<path d="M44.9374 101.87L57.5554 109.118L60.6991 110.929L60.4237 112.149L57.1651 110.821L44.5562 103.568L44.9374 101.87Z" fill="#E6E6E6"/>
</g>
</g>
<path d="M54.6823 23.6655L160.108 84.2503L156.695 86.2763L51.2681 25.6915L54.6823 23.6655Z" fill="#344A54"/>
<path d="M160.108 84.2503L155.568 114.379L152.155 116.404L156.695 86.2763L160.108 84.2503Z" fill="#34474F"/>
<path d="M51.269 25.6915L156.695 86.2763L152.155 116.404L46.729 55.8197L51.269 25.6915Z" fill="#455A64"/>
<path d="M151.934 116.277L139.068 108.882L135.575 74.1384L148.441 81.5327L151.934 116.277Z" fill="white"/>
<path d="M124.379 100.441L111.512 93.0479L108.02 58.3028L120.886 65.6971L124.379 100.441Z" fill="white"/>
<path d="M96.8244 84.6066L83.9579 77.2123L80.4658 42.4682L93.3313 49.8636L96.8244 84.6066Z" fill="white"/>
<path d="M65.7781 34.028L69.2692 68.772L56.4037 61.3777L52.9116 26.6346L65.7781 34.028Z" fill="white"/>
<path d="M108.02 58.3028L116.2 59.0174L128.701 66.2011L120.886 65.6971L108.02 58.3028Z" fill="white"/>
<path d="M135.575 74.1384L143.754 74.853L156.256 82.0357L148.441 81.5327L135.575 74.1384Z" fill="white"/>
<path d="M80.4658 42.4682L88.6446 43.1828L101.146 50.3666L93.3313 49.8636L80.4658 42.4682Z" fill="white"/>
<path d="M52.9116 26.6346L61.0904 27.3482L73.5916 34.532L65.7781 34.028L52.9116 26.6346Z" fill="white"/>
<path d="M47.0622 66.3758L152.488 126.96L149.075 128.986L43.6489 68.4008L47.0622 66.3758Z" fill="#2A3D45"/>
<path d="M152.488 126.96L147.948 157.089L144.535 159.114L149.075 128.986L152.488 126.96Z" fill="#34474F"/>
<path d="M43.6489 68.4008L149.075 128.986L144.535 159.114L39.1089 98.529L43.6489 68.4008Z" fill="#455A64"/>
<path d="M144.314 158.986L131.448 151.592L127.956 116.849L140.822 124.242L144.314 158.986Z" fill="white"/>
<path d="M116.76 143.151L103.893 135.757L100.401 101.013L113.268 108.407L116.76 143.151Z" fill="white"/>
<path d="M89.2047 127.317L76.3393 119.923L72.8462 85.1785L85.7127 92.5728L89.2047 127.317Z" fill="white"/>
<path d="M58.1585 76.7382L61.6505 111.482L48.7851 104.088L45.292 69.3439L58.1585 76.7382Z" fill="white"/>
<path d="M100.401 101.013L108.58 101.728L121.081 108.911L113.268 108.407L100.401 101.013Z" fill="white"/>
<path d="M127.956 116.849L136.135 117.562L148.647 124.753L140.822 124.242L127.956 116.849Z" fill="white"/>
<path d="M72.8462 85.1785L81.026 85.8931L93.5272 93.0768L85.7127 92.5728L72.8462 85.1785Z" fill="white"/>
<path d="M45.292 69.3439L53.4718 70.0585L65.972 77.2422L58.1585 76.7382L45.292 69.3439Z" fill="white"/>
<path d="M165.822 147.582C166.315 147.297 166.714 147.528 166.714 148.097C166.714 148.665 166.314 149.356 165.822 149.64C165.33 149.923 164.931 149.693 164.931 149.125C164.931 148.556 165.33 147.865 165.822 147.582Z" fill="#6D6D6D"/>
<path d="M131.975 166.918C132.468 166.634 132.866 166.864 132.866 167.433C132.866 168.002 132.467 168.693 131.975 168.976C131.483 169.26 131.083 169.031 131.083 168.462C131.083 167.893 131.483 167.203 131.975 166.918Z" fill="#6D6D6D"/>
<g style="mix-blend-mode:multiply">
<path d="M150.203 65.0045L149.66 69.3619L139.958 63.761L150.205 64.4356L150.203 65.0045Z" fill="#CCCCCC"/>
</g>
<path d="M142.346 50.3746C143.054 50.3097 145.861 50.3316 146.575 50.3596C147.273 50.3865 148.049 50.6251 148.87 51.0981C151.879 52.8357 154.318 57.0613 154.318 60.5354C154.318 62.9117 153.175 64.3169 151.492 64.4127C151.252 64.4267 150.765 64.4327 150.205 64.4356V65.0045C150.203 65.1245 150.168 65.2415 150.106 65.3439C149.961 65.565 149.767 65.749 149.538 65.8811C149.309 66.0133 149.053 66.0897 148.789 66.1044C148.453 66.1044 148.255 65.9397 148.247 65.6992V64.4307C147.905 64.4307 147.62 64.4257 147.456 64.4227C146.738 64.4107 145.934 64.1732 145.082 63.6812C142.073 61.9436 139.634 57.718 139.634 54.2439C139.627 51.9185 140.72 50.5223 142.346 50.3746Z" fill="#CECECE"/>
<path d="M150.48 63.9296C151.634 63.5165 152.376 62.2709 152.376 60.3827C152.376 57.0733 150.108 53.0482 147.308 51.3935C146.546 50.9424 146.14 50.672 146.575 50.6889C147.222 50.7149 147.944 50.9424 148.708 51.3935C151.502 53.0482 153.774 57.0733 153.774 60.3827C153.774 62.6472 152.713 63.9855 151.146 64.0754C150.748 64.1003 150.249 64.0115 150.48 63.9296Z" fill="#EAEAEA"/>
<path d="M144.762 51.8756C147.397 53.3965 149.534 57.0962 149.534 60.1382C149.534 63.1801 147.397 64.4137 144.762 62.8927C142.127 61.3717 139.993 57.6721 139.993 54.6301C139.993 51.5881 142.128 50.3546 144.762 51.8756Z" fill="#E98989"/>
<path d="M144.263 54.3147C145.849 55.2309 147.137 57.4605 147.137 59.2939C147.137 61.1272 145.849 61.8707 144.263 60.9536C142.676 60.0364 141.387 57.8078 141.387 55.9744C141.387 54.1411 142.675 53.3936 144.263 54.3147Z" fill="#F9B7B7"/>
<path d="M144.762 51.8756C142.128 50.3546 139.993 51.5881 139.993 54.6301C139.993 57.6721 142.128 61.3717 144.762 62.8927C147.396 64.4137 149.534 63.1811 149.534 60.1382C149.534 57.0952 147.397 53.3935 144.762 51.8756ZM144.762 62.5334C142.3 61.1112 140.304 57.6541 140.304 54.8097C140.304 51.9654 142.3 50.8177 144.762 52.2348C147.224 53.652 149.222 57.1152 149.222 59.9585C149.222 62.8019 147.225 63.9546 144.762 62.5334Z" fill="#808080"/>
<g style="mix-blend-mode:multiply">
<path d="M75.0957 21.5717L74.5518 25.9281L64.8511 20.3262L75.0967 21.0018L75.0957 21.5717Z" fill="#CCCCCC"/>
</g>
<path d="M67.239 6.94074C67.9466 6.87587 70.754 6.89782 71.4676 6.92577C72.1662 6.95271 72.9407 7.19124 73.7631 7.6653C76.7721 9.40186 79.2112 13.6275 79.2112 17.1016C79.2112 19.4779 78.0695 20.8841 76.3849 20.9789C76.1453 20.9928 75.6583 20.9998 75.0984 21.0018V21.5707C75.095 21.6902 75.0606 21.8068 74.9986 21.909C74.8544 22.1303 74.66 22.3145 74.4313 22.4466C74.2026 22.5788 73.946 22.6551 73.6822 22.6695C73.3459 22.6695 73.1483 22.5048 73.1403 22.2643V20.9958C72.796 20.9958 72.5125 20.9909 72.3479 20.9889C71.6303 20.9769 70.8269 20.7374 69.9756 20.2463C66.9656 18.5088 64.5264 14.2832 64.5264 10.8091C64.5204 8.48268 65.6132 7.08545 67.239 6.94074Z" fill="#CECECE"/>
<path d="M75.373 20.4958C76.5267 20.0816 77.2692 18.8371 77.2692 16.9489C77.2692 13.6394 75.0007 9.61442 72.2013 7.9597C71.4388 7.5086 71.0326 7.23813 71.4667 7.25509C72.1144 7.28104 72.837 7.5086 73.5995 7.9597C76.3939 9.61442 78.6674 13.6394 78.6674 16.9489C78.6674 19.2134 77.6055 20.5517 76.0387 20.6415C75.6424 20.6655 75.1424 20.5787 75.373 20.4958Z" fill="#EAEAEA"/>
<path d="M69.6563 8.44174C72.2911 9.96372 74.4268 13.6624 74.4268 16.7043C74.4268 19.7463 72.2911 20.9799 69.6563 19.4599C67.0215 17.9399 64.8848 14.2382 64.8848 11.1963C64.8848 8.15431 67.0205 6.92076 69.6563 8.44174Z" fill="#E98989"/>
<path d="M69.1555 10.8779C70.7434 11.7941 72.0308 14.0237 72.0308 15.857C72.0308 17.6904 70.7434 18.4329 69.1555 17.5167C67.5677 16.6006 66.2803 14.37 66.2803 12.5366C66.2803 10.7033 67.5677 9.96373 69.1555 10.8779Z" fill="#F9B7B7"/>
<path d="M69.6563 8.44174C67.0205 6.92076 64.8848 8.15431 64.8848 11.1963C64.8848 14.2382 67.0205 17.9379 69.6563 19.4599C72.2921 20.9819 74.4268 19.7463 74.4268 16.7043C74.4268 13.6624 72.2911 9.96372 69.6563 8.44174ZM69.6563 19.0996C67.1932 17.6774 65.1971 14.2193 65.1971 11.3759C65.1971 8.53256 67.1932 7.38383 69.6563 8.80102C72.1194 10.2182 74.1155 13.6813 74.1155 16.5247C74.1155 19.3681 72.1194 20.5208 69.6563 19.0996Z" fill="#808080"/>
<g style="mix-blend-mode:multiply" opacity="0.25">
<path d="M147.232 165.756L144.745 188.203L136.491 194.034L133.631 192.423L134.404 141.938L147.232 165.756Z" fill="#5D1B43"/>
</g>
<path d="M110.089 131.119L131.988 143.658L142.33 167.915L140.049 188.203L125.771 198.362L103.872 185.822L93.5308 161.564L95.8102 141.278L110.089 131.119Z" fill="#E98989"/>
<path d="M97.5789 143.134L95.4771 161.834L105.002 184.175L125.13 195.701L138.28 186.346L140.382 167.646L130.858 145.305L110.73 133.779L97.5789 143.134ZM98.5849 144.24L111.06 135.366L130.23 146.344L139.265 167.534L137.269 185.241L124.794 194.116L105.624 183.138L96.5889 161.947L98.5849 144.24Z" fill="white"/>
<path d="M112.506 129.398L110.089 131.119L131.989 143.658L134.404 141.938L112.506 129.398Z" fill="#FC9A9A"/>
<path d="M134.404 141.938L131.989 143.658L142.33 167.915L144.745 166.196L134.404 141.938Z" fill="#D97B7B"/>
<path d="M144.745 166.196L142.466 186.482L140.05 188.203L142.33 167.915L144.745 166.196Z" fill="#C66E6E"/>
<g style="mix-blend-mode:multiply" opacity="0.56">
<path d="M157.875 99.0659L159.742 115.142L149.229 124.985L148.002 114.016L152.155 116.404L155.568 114.379L157.875 99.0659Z" fill="#AAAAAA"/>
</g>
<g style="mix-blend-mode:multiply" opacity="0.56">
<path d="M162.888 142.254L151.369 143.151L151.993 148.545L162.888 142.254Z" fill="#AAAAAA"/>
</g>
<g style="mix-blend-mode:multiply" opacity="0.56">
<path d="M85.829 78.2882L86.3301 82.6086L73.9346 75.7143L73.4087 71.1513L85.829 78.2882Z" fill="#AAAAAA"/>
</g>
<path d="M117.301 170.449L115.791 169.579C115.468 165.415 115.094 161.08 114.669 156.574C114.244 152.067 114.031 149.442 114.03 148.697C114.03 147.832 114.263 147.248 114.729 146.943C115.195 146.638 115.788 146.694 116.509 147.111C117.232 147.528 117.825 148.16 118.289 149.007C118.754 149.857 118.987 150.703 118.987 151.555C118.987 152.299 118.778 154.681 118.359 158.699C117.939 162.717 117.587 166.634 117.301 170.449Z" fill="white"/>
<path d="M114.638 173.841C115.161 173.539 115.784 173.597 116.507 174.013C117.23 174.43 117.853 175.091 118.374 175.996C118.896 176.902 119.158 177.772 119.158 178.606C119.158 179.44 118.896 180 118.374 180.286C117.851 180.573 117.229 180.507 116.507 180.086C115.785 179.666 115.162 179.012 114.638 178.126C114.116 177.236 113.854 176.375 113.854 175.541C113.854 174.707 114.116 174.141 114.638 173.841Z" fill="white"/>
</g>
<defs>
<clipPath id="clip0">
<rect width="175.763" height="196.575" fill="white" transform="translate(16.7354 6.89781)"/>
</clipPath>
</defs>
</svg>
