<svg width="138" height="27" viewBox="0 0 138 27" fill="none" xmlns="http://www.w3.org/2000/svg">
<path d="M73.7013 15.7139C73.6783 15.6395 73.6236 15.6236 73.5688 15.6023C72.3854 15.1631 71.753 14.2475 71.4068 13.084C71.2142 12.4394 71.2513 11.7806 71.2849 11.1253C71.324 10.5954 71.4139 10.0706 71.5534 9.55798C71.5976 9.38088 71.6647 9.29588 71.8766 9.29942C73.1431 9.31182 74.4096 9.29942 75.6761 9.29942H75.7097C75.9605 9.29942 75.9605 9.29942 75.9146 9.54735C75.8422 9.93342 75.7768 10.3177 75.738 10.7091C75.6938 11.182 75.685 11.653 75.6797 12.1259C75.6738 12.593 75.8486 13.0442 76.1672 13.3851C76.4064 13.6597 76.7 13.8814 77.0293 14.036C77.3587 14.1906 77.7166 14.2747 78.0802 14.2829C78.3557 14.2936 78.6331 14.2829 78.9086 14.2829C79.0658 14.2829 79.1383 14.3254 79.1383 14.4972C79.1383 15.2818 79.1383 16.0663 79.1383 16.8508C79.1383 17.0014 79.087 17.0545 78.9386 17.0545C78.5362 17.0362 78.1329 17.0552 77.734 17.1112C77.2807 17.1956 76.8467 17.3625 76.4533 17.6035C75.7715 18.0215 75.4341 18.6271 75.5013 19.4276C75.5701 20.2635 75.9711 20.8869 76.7554 21.2287C77.3269 21.4465 77.9379 21.5407 78.5483 21.5049C78.8448 21.5061 79.1406 21.4776 79.4315 21.4199C79.8093 21.3559 80.1628 21.1903 80.4542 20.9408C80.7457 20.6913 80.9642 20.3673 81.0866 20.0032C81.2949 19.3909 81.3919 18.746 81.3727 18.0994V9.73507C81.3727 9.22149 81.3621 9.30827 81.7949 9.3065C82.9572 9.3065 84.1195 9.3065 85.2817 9.3065C85.363 9.3065 85.4442 9.3065 85.5237 9.3065C85.6421 9.3065 85.6898 9.36494 85.688 9.4836C85.688 9.56506 85.688 9.64476 85.688 9.72622C85.688 12.8301 85.688 15.9347 85.688 19.0398C85.694 19.7332 85.5975 20.4237 85.4019 21.0888C84.9055 22.7252 83.7997 23.7665 82.2224 24.3438C81.3537 24.6532 80.4442 24.8322 79.5233 24.8751C78.1102 24.9566 76.6971 24.9123 75.307 24.5546C74.2002 24.3022 73.1896 23.7353 72.396 22.9217C71.9557 22.4627 71.6171 21.9155 71.4025 21.3161C71.1879 20.7167 71.1021 20.0785 71.1507 19.4435C71.2337 17.7558 72.055 16.5551 73.5547 15.806C73.6095 15.7705 73.6572 15.7387 73.7013 15.7139Z" fill="#001740"/>
<path d="M137.002 19.5463V24.2199C137.002 24.3014 137.002 24.3828 137.002 24.4625C137.017 24.6272 136.954 24.6857 136.786 24.6821C136.371 24.6715 135.956 24.6821 135.55 24.6821H133.022C132.7 24.6821 132.699 24.6821 132.699 24.3669C132.699 23.5345 132.699 22.7034 132.699 21.8734C132.699 19.7045 132.699 17.5345 132.699 15.3633C132.709 15.0982 132.69 14.8328 132.644 14.5716C132.591 14.2625 132.464 13.9708 132.274 13.7213C132.084 13.4719 131.837 13.2721 131.554 13.1389C131.047 12.8874 130.493 12.7437 129.928 12.7169C129.363 12.6901 128.799 12.7807 128.27 12.9831C127.677 13.22 127.185 13.6589 126.882 14.2228C126.514 14.8752 126.293 15.6006 126.235 16.3479C126.118 17.3623 126.225 18.3901 126.548 19.3586C126.748 19.9874 127.129 20.5423 127.645 20.9524C128.062 21.2847 128.577 21.4713 129.109 21.4837C129.463 21.4926 129.816 21.5032 130.169 21.4979C130.346 21.4979 130.406 21.5599 130.404 21.7405C130.404 22.6402 130.404 23.5416 130.404 24.4413C130.404 24.5705 130.39 24.6591 130.227 24.6609C128.95 24.6715 127.673 24.675 126.419 24.3669C124.28 23.8356 122.862 22.5304 122.249 20.4141C121.636 18.3657 121.628 16.1831 122.227 14.1307C122.9 11.8284 124.439 10.2965 126.726 9.60052C128.88 8.93416 131.195 9.02031 133.294 9.8449C134.825 10.4276 135.963 11.46 136.595 12.999C136.89 13.7781 137.028 14.6082 137.002 15.4412C137 16.8166 137 18.185 137.002 19.5463Z" fill="#001740"/>
<path d="M57.5743 11.7683C57.6696 11.7559 57.6679 11.6851 57.6891 11.639C58.0627 10.8327 58.7228 10.1949 59.5403 9.85034C60.9004 9.23582 62.3329 9.09945 63.7955 9.25175C64.6948 9.34637 65.554 9.6748 66.2878 10.2045C66.8015 10.5692 67.2377 11.0325 67.5713 11.5676C67.9048 12.1026 68.129 12.6988 68.2309 13.3214C68.2934 13.6721 68.323 14.0278 68.3192 14.384C68.3192 17.6898 68.3192 20.9909 68.3192 24.2873C68.3192 24.7371 68.351 24.6751 67.9323 24.6769H64.1629C64.0622 24.6769 64.0145 24.6309 64.0163 24.5299V24.2537C64.0163 21.3894 64.0163 18.5269 64.0163 15.6662C64.0216 15.2621 63.9741 14.859 63.875 14.4673C63.804 14.1565 63.6616 13.8665 63.4593 13.6206C63.2569 13.3746 63 13.1794 62.7091 13.0505C62.2016 12.8129 61.6501 12.6844 61.0901 12.6731C60.5301 12.6618 59.9739 12.7681 59.4572 12.985C58.7966 13.2542 58.3638 13.7748 58.0689 14.4141C57.7913 15.0397 57.6532 15.7184 57.6644 16.4029C57.6555 18.5281 57.6644 20.6533 57.6555 22.7784C57.6555 23.3327 57.6555 23.8871 57.6555 24.4414C57.6555 24.6822 57.6555 24.6875 57.4047 24.6875C56.1506 24.6875 54.8958 24.6875 53.6405 24.6875C53.3915 24.6875 53.3915 24.6875 53.3844 24.4396C53.3844 24.3705 53.3844 24.3015 53.3844 24.2324V9.74762C53.3844 9.69981 53.3844 9.65377 53.3844 9.60772C53.3844 9.30843 53.3844 9.30665 53.69 9.30665H57.2828C57.5425 9.30665 57.5478 9.30666 57.5495 9.57407C57.5495 10.1975 57.5495 10.8138 57.5495 11.4442C57.5338 11.5528 57.5422 11.6634 57.5743 11.7683Z" fill="#001740"/>
<path d="M119.135 17.1112C119.165 17.965 119.125 18.8198 119.013 19.6667C118.822 20.9064 118.416 22.0345 117.541 22.959C116.766 23.7807 115.794 24.2571 114.715 24.5529C113.366 24.9177 111.988 24.962 110.605 24.8752C109.788 24.8294 108.98 24.6813 108.201 24.4342C106.03 23.7258 104.788 22.2311 104.362 20.0068C104.15 18.8981 104.2 17.7771 104.186 16.6596C104.186 16.4436 104.315 16.4595 104.458 16.4595H107.704C107.881 16.4595 108.073 16.4595 108.257 16.4595C108.441 16.4595 108.503 16.5126 108.499 16.6951C108.49 17.1927 108.499 17.6886 108.499 18.1844C108.498 18.5886 108.548 18.9914 108.646 19.3834C108.93 20.5363 109.624 21.2677 110.82 21.459C111.479 21.5749 112.156 21.552 112.806 21.3917C113.2 21.2979 113.564 21.1064 113.865 20.8347C114.166 20.563 114.394 20.2199 114.528 19.8368C114.721 19.3169 114.818 18.7658 114.812 18.211C114.812 17.391 114.83 16.5711 114.795 15.7529C114.722 14.0917 113.71 13.0061 112.067 12.7865C111.21 12.6415 110.329 12.7652 109.545 13.1407C109.015 13.3851 108.6 13.8247 108.386 14.368C108.367 14.4384 108.323 14.4993 108.262 14.5389C108.201 14.5785 108.128 14.594 108.056 14.5823C106.848 14.5823 105.638 14.5823 104.429 14.5823C104.141 14.5823 104.143 14.5823 104.191 14.2901C104.444 12.7511 105.314 11.6124 106.514 10.6932C107.463 9.97151 108.583 9.5079 109.764 9.34729C111.568 9.05926 113.415 9.22106 115.143 9.81837C115.996 10.1098 116.774 10.589 117.419 11.221C118.34 12.1348 118.799 13.2718 119.009 14.5309C119.125 15.3858 119.167 16.2491 119.135 17.1112Z" fill="#001740"/>
<path d="M90.3037 19.927C90.8459 19.927 91.3864 19.927 91.927 19.927C92.0047 19.9118 92.0852 19.9263 92.1528 19.9676C92.2205 20.0089 92.2703 20.0739 92.2926 20.1501C92.4544 20.5382 92.7487 20.8558 93.1228 21.0462C94.3381 21.7103 95.571 21.6466 96.8092 21.1153C96.9036 21.0696 96.9906 21.0099 97.0671 20.9382C97.184 20.8434 97.277 20.7224 97.3386 20.5849C97.4002 20.4474 97.4286 20.2973 97.4215 20.1468C97.4144 19.9962 97.3721 19.8494 97.298 19.7183C97.2238 19.5872 97.12 19.4755 96.9947 19.3921C96.7843 19.2509 96.5538 19.1422 96.3111 19.0698C95.3578 18.766 94.389 18.513 93.409 18.3118C92.7697 18.1677 92.1402 17.9831 91.5242 17.7593C91.0583 17.5918 90.6141 17.3688 90.2012 17.0952C88.9453 16.2575 88.4631 15.0586 88.5655 13.5851C88.6609 12.2409 89.3498 11.2474 90.4114 10.4859C91.3266 9.85667 92.3786 9.45591 93.4796 9.31705C94.8948 9.09173 96.3421 9.18121 97.7189 9.57915C98.9342 9.93335 99.9658 10.5674 100.709 11.6246C101.177 12.3172 101.432 13.1315 101.444 13.9676C101.444 14.0969 101.414 14.1678 101.268 14.1607H101.165C100.059 14.1607 98.9536 14.1607 97.8479 14.1607C97.6712 14.1607 97.5865 14.1164 97.537 13.9375C97.4796 13.7126 97.3696 13.5046 97.216 13.3309C97.0624 13.1572 96.8697 13.0227 96.6538 12.9387C96.1352 12.7124 95.5748 12.5985 95.0093 12.6043C94.4437 12.6101 93.8857 12.7355 93.3719 12.9723C93.1894 13.0505 93.0288 13.1721 92.9038 13.3265C92.8319 13.4098 92.7779 13.507 92.7453 13.6121C92.7127 13.7173 92.7021 13.828 92.7142 13.9374C92.7263 14.0469 92.7609 14.1526 92.8157 14.248C92.8705 14.3434 92.9444 14.4264 93.0327 14.4918C93.2904 14.6873 93.583 14.8316 93.8947 14.9169C94.8433 15.1949 95.7953 15.4659 96.7421 15.7457C97.272 15.9015 97.802 16.0574 98.3319 16.2398C99.1808 16.5081 99.9439 16.9969 100.543 17.6566C101.131 18.306 101.461 19.1491 101.471 20.0261C101.488 20.4871 101.454 20.9486 101.37 21.4022C101.195 22.1729 100.763 22.8604 100.144 23.3502C99.4287 23.9402 98.5835 24.3512 97.6783 24.5492C95.8695 24.9884 94.0572 25.0415 92.252 24.5315C91.0367 24.1897 89.9892 23.5734 89.2173 22.5427C88.7147 21.8646 88.4294 21.0493 88.3995 20.205C88.3854 19.9358 88.3907 19.9305 88.6556 19.9287C89.1979 19.9252 89.7508 19.927 90.3037 19.927Z" fill="#001740"/>
<path d="M47.4705 5.77685H42.3091C42.0035 5.77685 42.0018 5.77686 42 5.47933C42 4.96044 42 4.43977 42 3.92087C42 3.69065 42 3.45865 42 3.22842C42 3.0708 42.0477 2.98757 42.2173 3.00351C42.2867 3.00705 42.3563 3.00705 42.4257 3.00351H52.0931C52.5171 3.00351 52.5047 2.93444 52.5047 3.40906C52.5047 4.02005 52.5047 4.63103 52.5047 5.24379C52.5107 5.27945 52.5095 5.31597 52.5011 5.35115C52.4927 5.38632 52.4774 5.41945 52.4559 5.44854C52.4345 5.47763 52.4074 5.5021 52.3764 5.52047C52.3453 5.53885 52.3108 5.55075 52.2751 5.55548C51.7748 5.6969 51.308 5.93781 50.9026 6.26387C50.1572 6.87132 49.788 7.68065 49.6432 8.61395C49.5805 9.05915 49.5521 9.50854 49.5584 9.95812C49.5584 14.7232 49.5584 19.4895 49.5584 24.257C49.5584 24.7139 49.5919 24.6731 49.1556 24.6731H45.395C45.2784 24.6731 45.229 24.6165 45.2307 24.496C45.2307 24.4146 45.2307 24.3349 45.2307 24.2534C45.2307 19.9736 45.2307 15.6925 45.2307 11.4103C45.2307 10.4044 45.2978 9.40558 45.614 8.43863C45.9184 7.4624 46.5117 6.60204 47.3151 5.97166C47.368 5.93093 47.4157 5.88134 47.467 5.83529C47.4699 5.81596 47.4711 5.7964 47.4705 5.77685Z" fill="#001740"/>
<path d="M31.5135 8.1363C31.4789 7.69857 31.4106 7.26418 31.3091 6.83703C31.2534 6.57117 31.1787 6.3097 31.0854 6.05467C31.0747 5.98457 31.0541 5.91635 31.0242 5.85209C30.5871 4.64554 29.8828 3.55407 28.9642 2.65979C28.397 2.10361 27.7562 1.6283 27.0598 1.24719C25.863 0.586591 24.5344 0.201857 23.1706 0.120999C22.5107 0.0719651 21.8474 0.0980026 21.1934 0.198614C20.3322 0.344412 19.499 0.624088 18.7239 1.02754C17.6935 1.56622 16.7532 2.26278 15.937 3.0921C15.9184 3.11151 15.8998 3.1278 15.8828 3.14721C15.8426 3.19145 15.8054 3.20154 15.7566 3.15342C15.6893 3.08589 15.6134 3.02458 15.5484 2.95705C14.9296 2.32439 14.2366 1.76927 13.4845 1.30385C12.7858 0.867429 12.0303 0.529726 11.2395 0.300291C10.5694 0.112957 9.87819 0.0122762 9.18263 0.000697186C8.82516 -0.0035971 8.46774 0.011949 8.11199 0.0472655C7.63508 0.0847301 7.1622 0.162623 6.69841 0.28011C5.85007 0.48783 5.03661 0.818871 4.28387 1.26272C3.45813 1.74395 2.71759 2.35896 2.09228 3.08279C1.51713 3.74445 1.04855 4.49209 0.70347 5.2987C0.541134 5.66308 0.411595 6.04127 0.3164 6.42877C0.142011 7.04609 0.0396562 7.6816 0.0113884 8.32258C-0.0150785 8.8428 0.00460882 9.36435 0.0702214 9.88108C0.182287 10.7423 0.396432 11.587 0.708114 12.3974C0.941972 12.9999 1.21452 13.5866 1.52406 14.1538C1.71527 14.5015 1.92351 14.8415 2.13795 15.1744C3.08705 16.6491 4.21419 17.9787 5.42185 19.2446C6.04116 19.8934 6.69376 20.512 7.36262 21.1127C7.52593 21.2691 7.69725 21.4167 7.87588 21.5552C8.08025 21.7562 8.30088 21.9394 8.51996 22.1248C8.97825 22.515 9.44429 22.8966 9.91806 23.2697C11.0917 24.1956 12.2954 25.0789 13.5403 25.9039C14.0117 26.2144 14.487 26.5248 14.9747 26.8081C15.2345 26.9679 15.542 27.0308 15.8433 26.9859C16.0464 26.9482 16.24 26.8707 16.4131 26.7577C17.7291 25.9753 19.015 25.1549 20.225 24.2166C20.4038 24.08 20.5842 23.9449 20.7669 23.8184C20.9836 23.6709 21.1733 23.4893 21.4001 23.3566C21.4489 23.3287 21.5093 23.3015 21.5286 23.2363C21.5302 23.2299 21.5341 23.2242 21.5395 23.2204C21.5449 23.2166 21.5514 23.2148 21.558 23.2153C21.7129 23.1455 21.829 23.0229 21.9552 22.9181C21.956 22.9132 21.956 22.9082 21.9552 22.9033C21.9319 22.7869 21.9296 22.7892 22.0372 22.8141C22.0508 22.8186 22.0648 22.8215 22.079 22.8226C22.1483 22.782 22.2114 22.7315 22.2664 22.6728C22.3041 22.6583 22.3381 22.6352 22.3655 22.6053C22.7099 22.3212 23.0622 22.0488 23.3912 21.7391C23.5832 21.5575 23.8015 21.4061 24.0012 21.2331C24.403 20.883 24.7986 20.5221 25.188 20.155C26.1336 19.2615 27.0255 18.3124 27.8588 17.3127C27.9137 17.2491 27.9362 17.1653 28.0136 17.1164C28.0433 17.0959 28.0683 17.0695 28.0871 17.0387C28.4022 16.6445 28.7119 16.2463 28.9998 15.8303C30.0062 14.3835 30.8446 12.8568 31.2448 11.1214C31.2952 10.9002 31.3563 10.6828 31.3997 10.4593C31.4684 10.088 31.5098 9.71209 31.5235 9.33467C31.543 8.93535 31.5397 8.53524 31.5135 8.1363ZM29.0022 9.36572C28.919 10.2828 28.681 11.1791 28.2985 12.0163C27.8084 13.1238 27.1543 14.1297 26.4142 15.0828C25.9389 15.6921 25.4341 16.2781 24.9077 16.8455C24.8616 16.8848 24.8226 16.9318 24.7924 16.9844C24.6345 17.1474 24.476 17.3091 24.3171 17.4695C23.93 17.8684 23.5323 18.2552 23.1241 18.6298C23.1022 18.65 23.0792 18.6689 23.0552 18.6865C22.7819 18.9543 22.4916 19.2034 22.2037 19.4541C21.8352 19.7723 21.469 20.0975 21.0804 20.3925C20.8133 20.6308 20.5269 20.8442 20.2451 21.0654C19.6056 21.5668 18.9492 22.0519 18.2873 22.5246C18.2506 22.5427 18.2188 22.5693 18.1944 22.6022C17.9567 22.7628 17.7191 22.9251 17.4837 23.0873C16.9658 23.442 16.4425 23.7812 15.9084 24.1102C15.8309 24.1607 15.7535 24.2453 15.6599 24.2453C15.5662 24.2453 15.4934 24.1591 15.4137 24.1079C14.6713 23.636 13.9583 23.1238 13.2391 22.6216C12.852 22.3515 12.4735 22.0783 12.105 21.7927C11.9873 21.7003 11.889 21.5839 11.7559 21.5125C11.5399 21.3161 11.2999 21.15 11.0785 20.9622C10.9361 20.8419 10.782 20.7363 10.6519 20.6036C10.4375 20.4484 10.2393 20.266 10.0326 20.0952C9.5906 19.7219 9.1594 19.3385 8.73285 18.9481C8.70642 18.9241 8.68184 18.8981 8.65931 18.8705C8.3961 18.6516 8.15457 18.4048 7.90839 18.1719C6.79462 17.0861 5.76923 15.9127 4.84202 14.6629C4.73413 14.5003 4.61596 14.3448 4.48824 14.1973C4.02376 13.425 3.53992 12.662 3.19233 11.823C2.86799 11.0653 2.65345 10.265 2.55521 9.44644C2.45668 8.57039 2.54481 7.68336 2.81377 6.84401C2.86874 6.67326 2.9299 6.50406 2.99492 6.33796C3.1064 6.13306 3.19233 5.91806 3.30458 5.71316C3.86345 4.69658 4.70251 3.86289 5.72144 3.31175C6.35241 2.97007 7.03667 2.73833 7.74505 2.62641C8.09333 2.57391 8.44434 2.54152 8.79633 2.52939C9.51207 2.49028 10.2285 2.59341 10.9043 2.83287C11.6298 3.10013 12.3074 3.48332 12.9109 3.9676C13.6184 4.5232 14.2455 5.17466 14.7742 5.90332C14.9048 6.09112 15.0865 6.2374 15.2976 6.32477C15.7419 6.5025 16.2505 6.48 16.6608 6.07407C16.8691 5.86761 17.0293 5.6208 17.2228 5.3996C17.7406 4.80528 18.3266 4.27434 18.9685 3.8178C19.5058 3.43122 20.0958 3.12433 20.7204 2.9066C21.28 2.71698 21.8669 2.62151 22.4576 2.62408C23.3001 2.61253 24.1383 2.74751 24.9348 3.02302C26.3228 3.50213 27.4877 4.47429 28.2094 5.75585C28.2659 5.87364 28.3297 5.98771 28.4007 6.09735C28.4889 6.34805 28.6089 6.58866 28.6956 6.84168C28.9704 7.65282 29.0747 8.51218 29.0022 9.36572Z" fill="url(#paint0_linear)"/>
<path d="M4.4882 14.1941C4.01985 13.4226 3.53833 12.6589 3.19152 11.8206C2.8671 11.063 2.6523 10.2627 2.55363 9.44408C2.45556 8.56766 2.54422 7.68036 2.81374 6.84087C2.8687 6.66934 2.92986 6.50169 2.99411 6.33404C3.10559 6.13069 3.19152 5.91492 3.30377 5.71312C3.86285 4.69671 4.70185 3.86307 5.72063 3.31172C6.35125 2.96925 7.03566 2.73746 7.74424 2.62638C8.09271 2.5732 8.444 2.54055 8.79629 2.52858C9.51197 2.48953 10.2283 2.59239 10.9043 2.83128C11.6297 3.09893 12.3071 3.48267 12.9101 3.96757C13.618 4.52267 14.2454 5.1739 14.7742 5.90251C14.9048 6.09054 15.0864 6.23707 15.2975 6.32473C15.7419 6.50169 16.2513 6.47996 16.6608 6.07326C16.8698 5.8668 17.0285 5.61921 17.222 5.39956C17.7397 4.80474 18.3257 4.27328 18.9677 3.81622C19.5058 3.43055 20.0963 3.12422 20.7211 2.90657C21.2801 2.71665 21.8666 2.62093 22.4568 2.62327C23.2993 2.61133 24.1375 2.74605 24.934 3.02144C26.3223 3.50048 27.4873 4.473 28.2086 5.75504C28.2652 5.87293 28.3293 5.98701 28.4006 6.09654C28.4896 6.34879 28.6089 6.58707 28.6948 6.84009C28.9706 7.65182 29.076 8.51194 29.0044 9.36646C28.9203 10.2831 28.6815 11.1789 28.2984 12.0155C27.8099 13.1238 27.1542 14.1289 26.4142 15.082C25.9396 15.6929 25.4349 16.2781 24.9077 16.8447C24.8625 16.8848 24.8241 16.932 24.7939 16.9844L24.3186 17.4702C23.931 17.8676 23.5333 18.2541 23.1256 18.6298C23.1032 18.65 23.0784 18.6678 23.0552 18.6865C23.0552 18.0236 23.0552 17.3608 23.0552 16.698C23.0552 16.6918 23.0676 16.6855 23.0807 16.6731C23.1721 16.7632 23.2611 16.8594 23.3594 16.9448C23.6791 17.2219 24.0414 17.2878 24.4285 17.1194C24.8156 16.951 25.0052 16.6413 25.0184 16.2237C25.0211 16.0813 24.9932 15.94 24.9367 15.8093C24.8802 15.6786 24.7964 15.5616 24.6909 15.4662C21.9923 12.7642 19.2944 10.0606 16.5973 7.35546C16.5725 7.33062 16.5485 7.30423 16.5199 7.28172C16.3417 7.12086 16.1109 7.0311 15.8712 7.02947C15.7297 7.02825 15.5896 7.05668 15.4597 7.11295C15.3299 7.16922 15.2132 7.25209 15.1171 7.35623C12.4221 10.0619 9.72578 12.7668 7.02816 15.4709C6.99255 15.5066 6.95694 15.5431 6.92442 15.5819C6.78988 15.7414 6.71104 15.9406 6.69992 16.1492C6.68741 16.3462 6.73361 16.5425 6.83264 16.713C6.93168 16.8836 7.07907 17.0208 7.25609 17.1072C7.43311 17.1936 7.63174 17.2252 7.82674 17.1981C8.02174 17.1709 8.20428 17.0863 8.35116 16.9549C8.42858 16.885 8.50212 16.8059 8.57954 16.7329C8.60199 16.7119 8.61437 16.6677 8.66624 16.6871C8.66624 17.0853 8.66624 17.485 8.66624 17.8847C8.66624 18.2128 8.66443 18.5413 8.66082 18.8704C8.39761 18.6508 8.15531 18.4047 7.91068 18.168C6.79631 17.0831 5.77015 15.9108 4.84199 14.6621C4.73486 14.4982 4.61666 14.3418 4.4882 14.1941Z" fill="white"/>
<path d="M21.0788 20.3916C20.8117 20.6299 20.5261 20.8449 20.2443 21.0653C19.6033 21.5675 18.9484 22.0518 18.285 22.5245C18.2489 22.5428 18.2176 22.5694 18.1936 22.6021C17.9559 22.7643 17.7183 22.925 17.4814 23.088C16.9653 23.4424 16.4407 23.7836 15.9076 24.1117C15.8263 24.1621 15.7527 24.2467 15.6591 24.2452C15.5654 24.2436 15.4919 24.159 15.4114 24.1078C14.6705 23.6359 13.9567 23.1244 13.2376 22.6215C12.8505 22.3529 12.4719 22.0782 12.1034 21.7926C11.9858 21.7002 11.8875 21.5846 11.7535 21.5124C11.5383 21.316 11.2991 21.1499 11.0769 20.9621C10.9345 20.8426 10.782 20.7362 10.6504 20.6035C10.6504 20.543 10.6558 20.4824 10.6558 20.4219C10.6558 18.5498 10.6558 16.678 10.6558 14.8064C10.6538 14.7547 10.6631 14.7031 10.6832 14.6553C10.7032 14.6076 10.7335 14.5648 10.7719 14.5301C12.4291 12.8743 14.0855 11.2152 15.7411 9.55268C15.7761 9.50747 15.8195 9.46951 15.8689 9.44092C15.9037 9.47507 15.9409 9.50844 15.9765 9.54415C17.6393 11.2113 19.3027 12.878 20.9666 14.5441C21.0028 14.5775 21.0314 14.6184 21.0502 14.664C21.0691 14.7095 21.0778 14.7587 21.0757 14.808C21.0726 16.6087 21.0726 18.4096 21.0757 20.2108C21.0711 20.2705 21.0765 20.3311 21.0788 20.3916ZM15.1443 15.2892C15.1505 15.2636 15.1327 15.2574 15.1141 15.2512C15.0894 15.185 15.0436 15.1288 14.9838 15.0914C14.9241 15.0539 14.8537 15.0372 14.7835 15.0439C14.7542 15.0163 14.7186 14.9963 14.6798 14.9857C14.2021 14.7785 13.7168 14.7917 13.236 14.9617C12.8491 15.0952 12.5163 15.3518 12.2881 15.6924C12.0599 16.0329 11.9489 16.4389 11.9718 16.8485C12.002 17.4919 12.2916 18.0368 12.6825 18.5335C12.7141 18.6229 12.775 18.6989 12.8551 18.7493C12.8782 18.8 12.9117 18.8452 12.9535 18.882C13.7013 19.742 14.5869 20.4343 15.5383 21.0552C15.5747 21.0841 15.6197 21.0997 15.666 21.0997C15.7124 21.0997 15.7574 21.0841 15.7938 21.0552C16.5715 20.5772 17.2979 20.0198 17.9614 19.3919C18.1729 19.1976 18.3672 18.9852 18.542 18.757C18.7912 18.757 18.9089 18.5638 18.8416 18.369C19.0396 18.1074 19.1941 17.8154 19.2991 17.5043C19.3815 17.2706 19.4226 17.0242 19.4206 16.7763C19.4036 15.2318 17.7825 14.5014 16.6585 15.0416C16.3182 15.21 16.0182 15.4501 15.7791 15.7456C15.7551 15.7743 15.7365 15.81 15.7017 15.8232C15.6126 15.7223 15.5337 15.6229 15.4439 15.5352C15.3541 15.4475 15.2735 15.3373 15.1458 15.2915L15.1443 15.2892Z" fill="white"/>
<path d="M21.0789 20.3915C21.0789 20.331 21.0711 20.2705 21.0711 20.2099C21.0711 18.4093 21.0711 16.6083 21.0711 14.8071C21.0732 14.7578 21.0645 14.7087 21.0456 14.6631C21.0268 14.6175 20.9982 14.5766 20.962 14.5432C19.2986 12.8776 17.636 11.211 15.9742 9.54329C15.9386 9.50758 15.9014 9.47421 15.8666 9.44006C15.8172 9.46865 15.7738 9.50661 15.7389 9.55182C14.0827 11.2112 12.4263 12.8704 10.7697 14.5293C10.7313 14.564 10.701 14.6067 10.6809 14.6545C10.6608 14.7022 10.6515 14.7538 10.6535 14.8056C10.6572 16.6777 10.6572 18.5495 10.6535 20.421C10.6535 20.4816 10.6535 20.5421 10.6481 20.6027C10.4329 20.4474 10.2355 20.2658 10.0288 20.0943C9.58678 19.7217 9.15481 19.3368 8.72826 18.9471C8.70194 18.9238 8.67949 18.8959 8.65549 18.8695C8.65549 18.5409 8.6573 18.2124 8.66091 17.8838C8.66091 17.4841 8.66091 17.0844 8.66091 16.6862C8.60904 16.6668 8.59666 16.711 8.57421 16.732C8.49679 16.8049 8.42557 16.8872 8.34584 16.954C8.19881 17.0835 8.01688 17.1665 7.82292 17.1926C7.62896 17.2187 7.43162 17.1868 7.25572 17.1008C7.07983 17.0147 6.93323 16.8785 6.83435 16.7092C6.73547 16.5398 6.68874 16.345 6.70001 16.1491C6.71113 15.9405 6.78997 15.7412 6.92452 15.5817C6.95703 15.5429 6.99264 15.5041 7.02825 15.4707C9.72535 12.7656 12.4225 10.0607 15.1196 7.35609C15.2156 7.25195 15.3323 7.16909 15.4621 7.11281C15.592 7.05654 15.7321 7.02811 15.8736 7.02933C16.1133 7.03096 16.3441 7.12072 16.5223 7.28158C16.5486 7.30409 16.5726 7.33048 16.5997 7.35532C19.2963 10.0605 21.9934 12.7641 24.691 15.4661C24.7959 15.5614 24.8793 15.6781 24.9355 15.8083C24.9917 15.9386 25.0195 16.0794 25.0169 16.2213C25.0038 16.6389 24.8102 16.9493 24.427 17.117C24.0438 17.2846 23.6777 17.2194 23.358 16.9423C23.2596 16.857 23.1706 16.7607 23.0793 16.6707C23.0661 16.6831 23.0537 16.6893 23.0537 16.6955C23.0537 17.3583 23.0537 18.0212 23.0537 18.684C22.7797 18.9518 22.4901 19.2009 22.2022 19.4516C21.8337 19.7729 21.4675 20.0958 21.0789 20.3915Z" fill="#001740"/>
<path d="M15.1435 15.2877C15.2712 15.3335 15.3502 15.4429 15.4416 15.5314C15.5329 15.6199 15.6103 15.7185 15.6993 15.8194C15.7365 15.8062 15.7551 15.7705 15.7768 15.7417C16.0159 15.4463 16.3158 15.2061 16.6562 15.0378C17.7802 14.4945 19.4013 15.2279 19.4183 16.7725C19.4203 17.0204 19.3792 17.2668 19.2968 17.5005C19.1918 17.8116 19.0373 18.1036 18.8392 18.3651C18.8048 18.3123 18.7566 18.2699 18.6998 18.2425C18.6431 18.2151 18.5799 18.2039 18.5172 18.2099C18.2199 18.2153 17.9227 18.2099 17.6246 18.2138C17.5904 18.219 17.5555 18.2105 17.5274 18.1902C17.4993 18.1699 17.4803 18.1393 17.4744 18.1051C17.3668 17.7846 17.253 17.4664 17.1408 17.1474C17.1266 17.0989 17.1079 17.0519 17.0851 17.0069C17.062 16.9614 17.0259 16.9239 16.9812 16.8994C16.9366 16.8749 16.8856 16.8645 16.835 16.8695C16.7867 16.8708 16.7398 16.8861 16.7001 16.9137C16.6603 16.9413 16.6295 16.9798 16.6113 17.0247C16.5932 17.0664 16.5785 17.1095 16.5672 17.1536C16.3932 17.7445 16.219 18.3351 16.0446 18.9255C16.033 18.9659 16.0175 19.0031 16.0028 19.0458C15.9902 19.0388 15.9797 19.0288 15.9721 19.0165C15.9645 19.0043 15.9602 18.9903 15.9595 18.976C15.6885 17.8004 15.4181 16.6245 15.1482 15.4484C15.1381 15.3964 15.1048 15.342 15.1435 15.2877Z" fill="#FF1D14"/>
<path d="M15.1435 15.2877C15.1048 15.342 15.1396 15.3964 15.1505 15.4429C15.4199 16.6196 15.6903 17.7954 15.9618 18.9705C15.9625 18.9849 15.9668 18.9989 15.9744 19.0111C15.982 19.0233 15.9926 19.0334 16.0051 19.0404C16.0198 18.9992 16.0353 18.9628 16.0469 18.9201C16.2219 18.3292 16.3961 17.7385 16.5695 17.1481C16.5808 17.1041 16.5955 17.061 16.6136 17.0193C16.6318 16.9744 16.6627 16.9358 16.7024 16.9082C16.7421 16.8807 16.789 16.8653 16.8373 16.8641C16.888 16.859 16.9389 16.8694 16.9836 16.8939C17.0282 16.9185 17.0644 16.9559 17.0874 17.0014C17.1103 17.0464 17.1289 17.0935 17.1431 17.1419C17.2554 17.4609 17.3692 17.7791 17.4768 18.0997C17.4827 18.1339 17.5017 18.1644 17.5297 18.1847C17.5578 18.205 17.5927 18.2135 17.627 18.2083C17.925 18.2029 18.2223 18.2083 18.5195 18.2045C18.5822 18.1984 18.6454 18.2097 18.7021 18.2371C18.7589 18.2644 18.8071 18.3068 18.8416 18.3597C18.9089 18.5584 18.7913 18.7478 18.542 18.7478C18.4862 18.7478 18.4313 18.7416 18.3755 18.7416H17.3769C17.1865 18.7416 17.1183 18.6903 17.0525 18.5087C17.0192 18.4179 16.9906 18.3263 16.9558 18.2371C16.9399 18.1725 16.9137 18.1109 16.8784 18.0547C16.8443 18.0733 16.8427 18.0997 16.8358 18.1237C16.715 18.5304 16.5945 18.9374 16.4743 19.3446C16.3883 19.6349 16.3055 19.9267 16.2165 20.2162C16.2023 20.2768 16.1686 20.3309 16.1206 20.3702C16.0726 20.4095 16.0129 20.4318 15.9509 20.4336C15.89 20.4287 15.8323 20.4044 15.7861 20.3644C15.7398 20.3243 15.7076 20.2705 15.6939 20.2108C15.6885 20.1914 15.687 20.1712 15.6823 20.151C15.4119 18.9801 15.1417 17.8086 14.8718 16.6366C14.8681 16.5907 14.8493 16.5473 14.8184 16.5132L14.326 18.4784C14.2734 18.6903 14.2037 18.747 13.99 18.7478C13.6123 18.7478 13.2337 18.7478 12.8552 18.7478C12.775 18.6974 12.7142 18.6214 12.6825 18.532C12.6791 18.4664 12.6925 18.4009 12.7212 18.3418C12.7505 18.2973 12.7912 18.2613 12.8389 18.2377C12.8867 18.2141 12.9398 18.2037 12.9929 18.2076C13.2298 18.2076 13.4675 18.2076 13.7044 18.2076C13.8368 18.2076 13.8368 18.2076 13.8716 18.0725C13.8712 18.0674 13.8712 18.0622 13.8716 18.057C14.1038 17.1458 14.3361 16.2354 14.5575 15.3226C14.5669 15.2604 14.5924 15.2018 14.6315 15.1526C14.6707 15.1034 14.722 15.0654 14.7804 15.0424C14.8507 15.0358 14.9211 15.0525 14.981 15.09C15.0409 15.1274 15.0868 15.1835 15.1118 15.2497C15.1118 15.2683 15.1056 15.2955 15.1412 15.2877H15.1435Z" fill="#001740"/>
<path d="M12.8551 18.7494C13.2337 18.7494 13.6122 18.7494 13.99 18.7494C14.2037 18.7494 14.2733 18.692 14.326 18.4801L14.8183 16.5149C14.8493 16.549 14.8681 16.5924 14.8717 16.6383C15.1411 17.8093 15.4113 18.9807 15.6823 20.1527C15.6869 20.1729 15.6885 20.1931 15.6939 20.2125C15.7078 20.2719 15.7402 20.3253 15.7864 20.3651C15.8326 20.4049 15.8902 20.4289 15.9509 20.4337C16.0121 20.4325 16.0712 20.4113 16.1192 20.3733C16.1673 20.3353 16.2017 20.2827 16.2172 20.2233C16.3062 19.9338 16.3891 19.642 16.475 19.3517C16.5957 18.945 16.7163 18.5381 16.8365 18.1308C16.8435 18.1068 16.845 18.0804 16.8791 18.0618C16.9145 18.118 16.9406 18.1796 16.9565 18.2442C16.9913 18.3334 17.02 18.425 17.0533 18.5158C17.1191 18.6967 17.1872 18.7487 17.3776 18.7487H18.3763C18.432 18.7487 18.487 18.7525 18.5427 18.7549C18.3679 18.983 18.1736 19.1954 17.9621 19.3898C17.2987 20.0176 16.5723 20.575 15.7945 21.053C15.7581 21.0819 15.7131 21.0976 15.6668 21.0976C15.6204 21.0976 15.5754 21.0819 15.539 21.053C14.5876 20.4368 13.702 19.7421 12.9542 18.8798C12.9124 18.8438 12.8787 18.7993 12.8551 18.7494Z" fill="#FF1D14"/>
<path d="M14.7836 15.044C14.7252 15.067 14.6738 15.105 14.6347 15.1542C14.5956 15.2033 14.57 15.262 14.5606 15.3242C14.3354 16.2369 14.1039 17.1474 13.8747 18.0586C13.8744 18.0637 13.8744 18.0689 13.8747 18.0741C13.8399 18.2084 13.8399 18.2091 13.7075 18.2091C13.4706 18.2091 13.233 18.2091 12.9961 18.2091C12.943 18.2053 12.8898 18.2157 12.8421 18.2393C12.7943 18.2629 12.7537 18.2988 12.7244 18.3434C12.6956 18.4025 12.6823 18.4679 12.6857 18.5336C12.2986 18.0368 12.0052 17.492 11.975 16.8485C11.952 16.4389 12.0631 16.033 12.2913 15.6924C12.5194 15.3519 12.8523 15.0953 13.2392 14.9617C13.7199 14.7918 14.2053 14.7786 14.683 14.9858C14.7206 14.9969 14.7552 15.0168 14.7836 15.044Z" fill="#FF1D14"/>
<path d="M15.1443 15.2897C15.1087 15.2975 15.1164 15.27 15.1149 15.2512C15.1327 15.2575 15.1505 15.2638 15.1443 15.2897Z" fill="#FF1D14"/>
<defs>
<linearGradient id="paint0_linear" x1="15.7682" y1="-0.00473589" x2="15.7682" y2="26.9967" gradientUnits="userSpaceOnUse">
<stop stop-color="#FE707B"/>
<stop offset="1" stop-color="#FF2219"/>
</linearGradient>
</defs>
</svg>
