<svg width="140" height="140" viewBox="0 0 140 140" fill="none" xmlns="http://www.w3.org/2000/svg">
<path d="M116.485 41.0345C116.383 39.7415 116.181 38.4583 115.881 37.1965C115.717 36.4111 115.496 35.6388 115.22 34.8854C115.189 34.6783 115.128 34.4768 115.04 34.287C113.748 30.7229 111.668 27.4987 108.954 24.857C107.279 23.214 105.386 21.81 103.329 20.6842C99.7936 18.7328 95.8687 17.5963 91.8401 17.3574C89.8908 17.2126 87.9315 17.2895 85.9996 17.5867C83.4557 18.0174 80.9944 18.8435 78.7047 20.0353C75.6609 21.6266 72.8833 23.6842 70.4722 26.134C70.4173 26.1913 70.3624 26.2395 70.3121 26.2968C70.1932 26.4275 70.0835 26.4573 69.9394 26.3151C69.7404 26.1157 69.5163 25.9346 69.3242 25.7351C67.4963 23.8662 65.4492 22.2264 63.2276 20.8516C61.1635 19.5624 58.9319 18.5648 56.5959 17.8871C54.6165 17.3337 52.5746 17.0363 50.5199 17.0021C49.464 16.9894 48.4081 17.0353 47.3573 17.1396C45.9485 17.2503 44.5516 17.4804 43.1816 17.8274C40.6756 18.441 38.2726 19.4189 36.049 20.73C33.6098 22.1516 31.4223 23.9683 29.5751 26.1065C27.8761 28.061 26.492 30.2696 25.4726 32.6523C24.9931 33.7286 24.6104 34.8458 24.3292 35.9905C23.8141 37.814 23.5117 39.6913 23.4282 41.5848C23.35 43.1215 23.4082 44.6622 23.602 46.1886C23.933 48.7326 24.5656 51.2279 25.4863 53.6216C26.1771 55.4015 26.9823 57.1346 27.8966 58.8101C28.4614 59.8372 29.0766 60.8414 29.71 61.825C32.5137 66.1812 35.8432 70.1087 39.4106 73.8481C41.2401 75.7649 43.1678 77.5922 45.1436 79.3667C45.6261 79.8285 46.1321 80.2647 46.6598 80.6736C47.2635 81.2674 47.9152 81.8085 48.5624 82.3565C49.9162 83.509 51.2928 84.6362 52.6924 85.7383C56.1591 88.4735 59.7151 91.0826 63.3923 93.5198C64.7849 94.4369 66.189 95.354 67.6297 96.1908C68.3969 96.6626 69.3053 96.8485 70.1955 96.7159C70.7954 96.6047 71.3674 96.3756 71.8786 96.0418C75.7662 93.7307 79.5645 91.3073 83.1388 88.5354C83.6671 88.1319 84.1999 87.7329 84.7396 87.3592C85.3799 86.9236 85.9401 86.3871 86.6102 85.995C86.7542 85.9125 86.9326 85.8323 86.9898 85.6397C86.9946 85.6207 87.0059 85.604 87.0219 85.5927C87.0378 85.5814 87.0572 85.5761 87.0767 85.5778C87.534 85.3714 87.877 85.0092 88.2498 84.6997C88.2522 84.6852 88.2522 84.6705 88.2498 84.6561C88.1812 84.3122 88.1743 84.3191 88.4922 84.3924C88.5322 84.4059 88.5736 84.4143 88.6157 84.4176C88.8204 84.2977 89.0069 84.1486 89.1691 83.9751C89.2807 83.9322 89.3809 83.8639 89.4618 83.7757C90.4794 82.9365 91.5199 82.1318 92.4918 81.217C93.0589 80.6805 93.7038 80.2334 94.2938 79.7221C95.4807 78.6881 96.6492 77.622 97.7995 76.5375C100.593 73.8981 103.227 71.0945 105.689 68.1415C105.851 67.9535 105.918 67.7059 106.146 67.5615C106.234 67.5012 106.308 67.4231 106.364 67.3322C107.294 66.1675 108.209 64.9913 109.06 63.7624C112.032 59.4887 114.509 54.9789 115.691 49.8524C115.84 49.1989 116.021 48.557 116.149 47.8967C116.352 46.7998 116.474 45.6894 116.515 44.5745C116.572 43.3949 116.562 42.213 116.485 41.0345ZM109.067 44.6662C108.821 47.3753 108.118 50.0228 106.988 52.4959C105.54 55.7676 103.608 58.739 101.422 61.5545C100.018 63.3543 98.5267 65.0853 96.9716 66.7613C96.8354 66.8775 96.7201 67.0163 96.6309 67.1717C96.1644 67.6532 95.6964 68.1308 95.2268 68.6046C94.0834 69.7831 92.9088 70.9257 91.7029 72.0323C91.6381 72.0918 91.5702 72.1476 91.4993 72.1997C90.6921 72.9906 89.8345 73.7266 88.9839 74.4672C87.8953 75.4072 86.8137 76.3679 85.6657 77.2391C84.8768 77.943 84.0306 78.5735 83.1982 79.2269C81.3093 80.708 79.3701 82.141 77.4149 83.5372C77.3067 83.5908 77.2126 83.6694 77.1405 83.7665C76.4385 84.2411 75.7364 84.7203 75.0412 85.1995C73.5114 86.2472 71.9655 87.2492 70.3876 88.2213C70.1589 88.3703 69.9302 88.6202 69.6535 88.6202C69.3768 88.6202 69.1619 88.3657 68.9263 88.2144C66.7333 86.8204 64.6272 85.3072 62.5027 83.8238C61.3593 83.0259 60.2411 82.2189 59.1526 81.3752C58.805 81.1023 58.5145 80.7584 58.1212 80.5475C57.4832 79.9674 56.7743 79.4768 56.1203 78.922C55.6995 78.5666 55.2444 78.2548 54.8602 77.8627C54.2268 77.4042 53.6414 76.8654 53.0308 76.361C51.725 75.2582 50.4513 74.1255 49.1913 72.9723C49.1132 72.9015 49.0406 72.8248 48.974 72.743C48.1965 72.0965 47.483 71.3674 46.7558 70.6796C43.4658 67.472 40.4368 64.0058 37.6978 60.3141C37.3791 59.8337 37.0301 59.3742 36.6528 58.9385C35.2807 56.6572 33.8514 54.4034 32.8247 51.925C31.8666 49.6868 31.2328 47.3228 30.9426 44.9046C30.6516 42.3168 30.9119 39.6965 31.7064 37.2171C31.8688 36.7127 32.0494 36.2129 32.2415 35.7222C32.5708 35.117 32.8247 34.4819 33.1562 33.8766C34.8071 30.8736 37.2857 28.4109 40.2956 26.7829C42.1595 25.7736 44.1808 25.089 46.2733 24.7584C47.3021 24.6033 48.339 24.5076 49.3788 24.4718C51.4931 24.3563 53.6093 24.6609 55.6057 25.3682C57.7489 26.1577 59.7506 27.2897 61.5331 28.7202C63.6232 30.3615 65.4757 32.2859 67.0374 34.4383C67.4233 34.9931 67.9598 35.4252 68.5833 35.6833C69.8959 36.2083 71.3984 36.1418 72.6104 34.9427C73.2255 34.3328 73.6989 33.6038 74.2706 32.9503C75.8001 31.1947 77.531 29.6263 79.4273 28.2777C81.0143 27.1358 82.7573 26.2292 84.6023 25.5861C86.2552 25.0259 87.9892 24.7439 89.7339 24.7515C92.2228 24.7174 94.6987 25.1161 97.0517 25.93C101.152 27.3452 104.593 30.217 106.725 34.0027C106.892 34.3507 107.08 34.6876 107.29 35.0115C107.55 35.752 107.905 36.4628 108.161 37.2102C108.973 39.6063 109.281 42.1449 109.067 44.6662Z" fill="url(#paint0_linear)"/>
<path d="M49.5411 111.089C49.5114 110.993 49.4405 110.972 49.3696 110.945C47.8375 110.376 47.0188 109.191 46.5706 107.684C46.3213 106.85 46.3694 105.997 46.4128 105.149C46.4634 104.463 46.5798 103.783 46.7604 103.119C46.8176 102.89 46.9045 102.78 47.1789 102.785C48.8185 102.801 50.4582 102.785 52.0978 102.785H52.1412C52.466 102.785 52.466 102.785 52.4065 103.106C52.3128 103.606 52.2281 104.103 52.1778 104.61C52.1207 105.222 52.1092 105.832 52.1024 106.444C52.0948 107.049 52.321 107.633 52.7335 108.074C53.0432 108.43 53.4233 108.717 53.8497 108.917C54.2761 109.117 54.7394 109.226 55.2101 109.236C55.5669 109.25 55.9259 109.236 56.2826 109.236C56.4862 109.236 56.5799 109.291 56.5799 109.514C56.5799 110.53 56.5799 111.545 56.5799 112.561C56.5799 112.756 56.5136 112.825 56.3215 112.825C55.8005 112.801 55.2784 112.825 54.7619 112.898C54.1751 113.007 53.6132 113.223 53.104 113.535C52.2213 114.076 51.7845 114.861 51.8714 115.897C51.9606 116.979 52.4797 117.786 53.495 118.229C54.2349 118.511 55.0259 118.632 55.8161 118.586C56.2 118.588 56.583 118.551 56.9595 118.476C57.4487 118.393 57.9063 118.179 58.2836 117.856C58.6609 117.533 58.9438 117.113 59.1022 116.642C59.372 115.849 59.4975 115.014 59.4727 114.177V103.349C59.4727 102.684 59.459 102.796 60.0193 102.794C61.524 102.794 63.0287 102.794 64.5334 102.794C64.6386 102.794 64.7438 102.794 64.8467 102.794C64.9999 102.794 65.0617 102.87 65.0594 103.023C65.0594 103.129 65.0594 103.232 65.0594 103.337C65.0594 107.356 65.0594 111.375 65.0594 115.395C65.0671 116.292 64.9422 117.186 64.6889 118.047C64.0463 120.166 62.6148 121.514 60.5727 122.261C59.4481 122.662 58.2706 122.894 57.0784 122.949C55.249 123.055 53.4196 122.997 51.6199 122.534C50.1871 122.208 48.8786 121.474 47.8512 120.42C47.2812 119.826 46.8429 119.118 46.5651 118.342C46.2872 117.566 46.1761 116.74 46.239 115.917C46.3465 113.733 47.4099 112.178 49.3514 111.208C49.4222 111.162 49.484 111.121 49.5411 111.089Z" fill="#001740"/>
<path d="M131.491 116.051V122.101C131.491 122.206 131.491 122.312 131.491 122.415C131.511 122.628 131.429 122.704 131.212 122.699C130.674 122.686 130.137 122.699 129.611 122.699H126.339C125.923 122.699 125.92 122.699 125.92 122.291C125.92 121.214 125.92 120.138 125.92 119.063C125.92 116.255 125.92 113.446 125.92 110.635C125.933 110.292 125.909 109.948 125.849 109.61C125.78 109.21 125.616 108.832 125.371 108.509C125.125 108.186 124.805 107.928 124.438 107.755C123.782 107.43 123.065 107.244 122.334 107.209C121.602 107.174 120.871 107.292 120.187 107.554C119.419 107.86 118.782 108.429 118.39 109.159C117.913 110.003 117.628 110.942 117.553 111.91C117.401 113.223 117.54 114.554 117.958 115.807C118.216 116.622 118.71 117.34 119.378 117.871C119.918 118.301 120.584 118.543 121.273 118.559C121.731 118.57 122.188 118.584 122.646 118.577C122.874 118.577 122.952 118.657 122.95 118.891C122.95 120.056 122.95 121.223 122.95 122.388C122.95 122.555 122.931 122.67 122.721 122.672C121.068 122.686 119.414 122.69 117.791 122.291C115.021 121.604 113.185 119.914 112.392 117.174C111.598 114.522 111.589 111.696 112.364 109.039C113.235 106.059 115.227 104.076 118.189 103.175C120.977 102.312 123.974 102.423 126.691 103.491C128.674 104.245 130.146 105.582 130.965 107.574C131.347 108.583 131.526 109.658 131.491 110.736C131.489 112.517 131.489 114.288 131.491 116.051Z" fill="#001740"/>
<path d="M28.6627 105.981C28.7862 105.965 28.7839 105.873 28.8113 105.813C29.2951 104.77 30.1495 103.944 31.2079 103.498C32.9687 102.702 34.8233 102.526 36.7168 102.723C37.8811 102.845 38.9934 103.271 39.9435 103.956C40.6084 104.428 41.1732 105.028 41.605 105.721C42.0368 106.414 42.3271 107.185 42.4589 107.992C42.5399 108.445 42.5782 108.906 42.5733 109.367C42.5733 113.647 42.5733 117.921 42.5733 122.188C42.5733 122.771 42.6144 122.69 42.0725 122.693H37.1924C37.0621 122.693 37.0003 122.633 37.0026 122.502V122.145C37.0026 118.436 37.0026 114.731 37.0026 111.027C37.0095 110.504 36.948 109.982 36.8197 109.475C36.7278 109.073 36.5435 108.697 36.2815 108.379C36.0195 108.06 35.687 107.808 35.3104 107.641C34.6533 107.333 33.9394 107.167 33.2144 107.152C32.4893 107.138 31.7693 107.275 31.1004 107.556C30.2452 107.904 29.6849 108.578 29.303 109.406C28.9436 110.216 28.7649 111.095 28.7793 111.981C28.7679 114.732 28.7793 117.483 28.7679 120.235C28.7679 120.952 28.7679 121.67 28.7679 122.388C28.7679 122.699 28.7679 122.706 28.4432 122.706C26.8195 122.706 25.1951 122.706 23.57 122.706C23.2476 122.706 23.2476 122.706 23.2384 122.385C23.2384 122.296 23.2384 122.206 23.2384 122.117V103.365C23.2384 103.303 23.2384 103.243 23.2384 103.184C23.2384 102.796 23.2384 102.794 23.634 102.794H28.2854C28.6215 102.794 28.6284 102.794 28.6307 103.14C28.6307 103.947 28.6307 104.745 28.6307 105.561C28.6103 105.702 28.6212 105.845 28.6627 105.981Z" fill="#001740"/>
<path d="M108.36 112.898C108.4 114.003 108.347 115.11 108.202 116.206C107.955 117.811 107.429 119.272 106.297 120.469C105.293 121.532 104.036 122.149 102.638 122.532C100.891 123.004 99.1075 123.062 97.317 122.949C96.2598 122.89 95.2142 122.698 94.2046 122.378C91.3941 121.461 89.7865 119.526 89.2354 116.647C88.961 115.211 89.025 113.76 89.0067 112.313C89.0067 112.034 89.1737 112.054 89.3589 112.054H93.562C93.7907 112.054 94.04 112.054 94.2778 112.054C94.5156 112.054 94.5957 112.123 94.5911 112.359C94.5797 113.003 94.5911 113.645 94.5911 114.287C94.5901 114.811 94.6538 115.332 94.7809 115.84C95.1491 117.332 96.0478 118.279 97.5959 118.527C98.4495 118.677 99.3248 118.647 100.166 118.44C100.676 118.318 101.148 118.07 101.538 117.718C101.927 117.367 102.222 116.922 102.396 116.426C102.646 115.753 102.771 115.04 102.764 114.322C102.764 113.26 102.787 112.199 102.741 111.139C102.647 108.989 101.337 107.583 99.2104 107.299C98.1008 107.111 96.9604 107.272 95.9449 107.758C95.2595 108.074 94.7222 108.643 94.4447 109.347C94.4204 109.438 94.3632 109.517 94.2842 109.568C94.2052 109.619 94.11 109.639 94.0171 109.624C92.4529 109.624 90.8865 109.624 89.3223 109.624C88.9496 109.624 88.9519 109.624 89.0136 109.246C89.3406 107.253 90.468 105.779 92.0207 104.589C93.2503 103.655 94.6996 103.055 96.2284 102.847C98.5643 102.474 100.956 102.683 103.192 103.456C104.297 103.834 105.304 104.454 106.139 105.272C107.331 106.455 107.925 107.927 108.198 109.557C108.347 110.664 108.401 111.782 108.36 112.898Z" fill="#001740"/>
<path d="M71.0348 116.543C71.7368 116.543 72.4366 116.543 73.1363 116.543C73.2369 116.524 73.3412 116.543 73.4288 116.596C73.5163 116.649 73.5808 116.734 73.6097 116.832C73.8192 117.335 74.2002 117.746 74.6845 117.992C76.2578 118.852 77.854 118.77 79.457 118.082C79.5792 118.023 79.6918 117.945 79.7909 117.853C79.9422 117.73 80.0626 117.573 80.1423 117.395C80.222 117.217 80.2588 117.023 80.2497 116.828C80.2405 116.633 80.1858 116.443 80.0898 116.273C79.9938 116.104 79.8593 115.959 79.6972 115.851C79.4247 115.668 79.1264 115.527 78.8122 115.434C77.5779 115.04 76.3237 114.713 75.055 114.452C74.2274 114.266 73.4124 114.027 72.6149 113.737C72.0117 113.52 71.4367 113.232 70.9021 112.877C69.2762 111.793 68.6519 110.241 68.7846 108.333C68.908 106.593 69.7999 105.307 71.1743 104.321C72.3591 103.506 73.721 102.987 75.1464 102.808C76.9786 102.516 78.8523 102.632 80.6347 103.147C82.2081 103.606 83.5436 104.426 84.5063 105.795C85.1113 106.692 85.4419 107.746 85.4576 108.828C85.4576 108.996 85.4187 109.087 85.2289 109.078H85.0963C83.6648 109.078 82.2332 109.078 80.8017 109.078C80.573 109.078 80.4632 109.021 80.3992 108.789C80.3249 108.498 80.1825 108.229 79.9836 108.004C79.7848 107.779 79.5352 107.605 79.2558 107.496C78.5844 107.203 77.8589 107.056 77.1267 107.063C76.3946 107.071 75.6722 107.233 75.0069 107.54C74.7708 107.641 74.5628 107.798 74.4009 107.998C74.3079 108.106 74.238 108.232 74.1958 108.368C74.1536 108.504 74.1399 108.648 74.1555 108.789C74.1712 108.931 74.2159 109.068 74.2869 109.191C74.3579 109.315 74.4535 109.422 74.5679 109.507C74.9015 109.76 75.2803 109.947 75.6838 110.057C76.9118 110.417 78.1444 110.768 79.3701 111.13C80.0562 111.332 80.7422 111.534 81.4283 111.77C82.5273 112.117 83.5152 112.75 84.2913 113.604C85.0526 114.445 85.4797 115.536 85.4919 116.672C85.5138 117.269 85.4701 117.866 85.3616 118.453C85.1355 119.451 84.5754 120.341 83.7745 120.975C82.8482 121.739 81.754 122.271 80.5822 122.527C78.2405 123.096 75.8942 123.165 73.5571 122.505C71.9838 122.062 70.6277 121.264 69.6284 119.93C68.9776 119.052 68.6084 117.996 68.5696 116.903C68.5513 116.555 68.5582 116.548 68.9012 116.546C69.6032 116.541 70.319 116.543 71.0348 116.543Z" fill="#001740"/>
<path d="M15.5822 98.2245H8.90019C8.50457 98.2245 8.50229 98.2245 8.5 97.8393C8.5 97.1675 8.5 96.4934 8.5 95.8217C8.5 95.5236 8.5 95.2233 8.5 94.9252C8.5 94.7212 8.56174 94.6134 8.78127 94.634C8.87116 94.6386 8.96123 94.6386 9.05112 94.634H21.5668C22.1156 94.634 22.0996 94.5446 22.0996 95.1591C22.0996 95.9501 22.0996 96.7411 22.0996 97.5343C22.1074 97.5805 22.1058 97.6278 22.0949 97.6733C22.0841 97.7189 22.0642 97.7618 22.0364 97.7994C22.0087 97.8371 21.9737 97.8688 21.9334 97.8925C21.8932 97.9163 21.8486 97.9317 21.8023 97.9379C21.1546 98.1209 20.5504 98.4328 20.0255 98.855C19.0604 99.6414 18.5825 100.689 18.395 101.897C18.3138 102.474 18.2771 103.056 18.2852 103.638C18.2852 109.807 18.2852 115.977 18.2852 122.149C18.2852 122.741 18.3287 122.688 17.7638 122.688H12.8952C12.7443 122.688 12.6803 122.615 12.6825 122.459C12.6825 122.353 12.6825 122.25 12.6825 122.145C12.6825 116.604 12.6825 111.061 12.6825 105.518C12.6825 104.215 12.7695 102.922 13.1788 101.67C13.5729 100.407 14.3409 99.2928 15.381 98.4767C15.4496 98.4239 15.5113 98.3597 15.5776 98.3001C15.5815 98.2751 15.583 98.2498 15.5822 98.2245Z" fill="#001740"/>
<path d="M88.2589 84.6973C88.26 84.6836 88.26 84.6698 88.2589 84.6561C88.1857 84.3144 88.1857 84.3167 88.4876 84.3947L88.6134 84.4176C88.5245 84.5431 88.4014 84.6402 88.2589 84.6973Z" fill="#FF3A38"/>
<path d="M86.9944 85.6328C86.9991 85.6136 87.0104 85.5967 87.0263 85.585C87.0421 85.5732 87.0616 85.5674 87.0813 85.5686L86.9944 85.6328Z" fill="#FF3A38"/>
<path d="M36.6528 58.9293C35.2693 56.6503 33.8469 54.3942 32.8224 51.9181C31.864 49.6799 31.2295 47.3159 30.9381 44.8977C30.6484 42.3088 30.9103 39.6878 31.7064 37.2079C31.8688 36.7012 32.0494 36.206 32.2393 35.7108C32.5686 35.1101 32.8224 34.4727 33.154 33.8766C34.8055 30.8741 37.2839 28.4115 40.2933 26.7828C42.1562 25.7712 44.1779 25.0865 46.271 24.7584C47.3004 24.6013 48.3382 24.5048 49.3788 24.4695C51.4929 24.3541 53.6089 24.658 55.6058 25.3636C57.7487 26.1543 59.7496 27.2878 61.5308 28.7202C63.6221 30.36 65.4754 32.2837 67.0375 34.436C67.4231 34.9914 67.9597 35.4243 68.5833 35.6832C69.896 36.206 71.4007 36.1418 72.6104 34.9404C73.2278 34.3305 73.6966 33.5991 74.2683 32.9503C75.7976 31.1932 77.5285 29.6233 79.425 28.2731C81.0146 27.1339 82.7589 26.229 84.6046 25.586C86.2558 25.025 87.9883 24.7422 89.7316 24.7492C92.2204 24.7139 94.6964 25.1119 97.0494 25.9254C101.15 27.3404 104.592 30.2133 106.723 34.0004C106.89 34.3486 107.079 34.6856 107.29 35.0092C107.553 35.7543 107.905 36.4582 108.159 37.2056C108.973 39.6034 109.285 42.1442 109.073 44.6685C108.825 47.3763 108.12 50.0223 106.988 52.4936C105.545 55.7676 103.608 58.7367 101.422 61.5522C100.02 63.3565 98.529 65.0853 96.9716 66.759C96.8382 66.8775 96.7247 67.0169 96.6355 67.1717L95.2314 68.6069C94.0865 69.7808 92.9118 70.9226 91.7074 72.0323C91.6411 72.0919 91.5679 72.1446 91.4993 72.1996C91.4993 70.2416 91.4993 68.2836 91.4993 66.3256C91.4993 66.3073 91.5359 66.2889 91.5748 66.2523C91.8446 66.5182 92.1076 66.8025 92.3981 67.0547C93.3425 67.8732 94.4127 68.0681 95.5561 67.5706C96.6995 67.0731 97.2598 66.1583 97.2987 64.9248C97.3066 64.5041 97.2243 64.0866 97.0574 63.7006C96.8905 63.3145 96.6429 62.9689 96.3314 62.6871C88.3596 54.7053 80.3901 46.7189 72.4229 38.728C72.3497 38.6546 72.2788 38.5767 72.1942 38.5102C71.6679 38.035 70.9861 37.7699 70.2778 37.765C69.86 37.7614 69.446 37.8454 69.0624 38.0116C68.6789 38.1779 68.3342 38.4226 68.0505 38.7303C60.0894 46.7228 52.1245 54.7129 44.1558 62.7008C44.0506 62.8063 43.9454 62.914 43.8493 63.0287C43.4519 63.4999 43.219 64.0884 43.1862 64.7047C43.1492 65.2865 43.2857 65.8663 43.5782 66.3702C43.8708 66.8741 44.3062 67.2793 44.8291 67.5345C45.352 67.7896 45.9387 67.883 46.5148 67.8029C47.0908 67.7228 47.63 67.4727 48.0639 67.0845C48.2926 66.8782 48.5098 66.6443 48.7385 66.4288C48.8048 66.3669 48.8414 66.2362 48.9946 66.2935C48.9946 67.4697 48.9946 68.6505 48.9946 69.8312C48.9946 70.8003 48.9893 71.7709 48.9786 72.743C48.2011 72.0942 47.4853 71.3674 46.7627 70.6681C43.4709 67.4635 40.4396 64.0004 37.6978 60.3118C37.3814 59.8276 37.0322 59.3656 36.6528 58.9293Z" fill="white"/>
<path d="M85.6611 77.2368C84.8722 77.9406 84.0284 78.5757 83.196 79.2269C81.3025 80.7103 79.3679 82.1409 77.4081 83.5372C77.3014 83.5913 77.209 83.6699 77.1382 83.7665C76.4362 84.2457 75.7341 84.7203 75.0344 85.2017C73.5099 86.2488 71.9602 87.2568 70.3853 88.2259C70.1452 88.3749 69.928 88.6248 69.6513 88.6202C69.3746 88.6156 69.1573 88.3657 68.9195 88.2144C66.731 86.8204 64.6226 85.3095 62.4982 83.8238C61.3548 83.0305 60.2365 82.2189 59.148 81.3752C58.8004 81.1023 58.51 80.7607 58.1144 80.5475C57.4786 79.9674 56.772 79.4768 56.1157 78.9219C55.6949 78.5689 55.2444 78.2547 54.8557 77.8627C54.8557 77.6839 54.8717 77.505 54.8717 77.3262C54.8717 71.7961 54.8717 66.2668 54.8717 60.7383C54.8656 60.5853 54.8932 60.4329 54.9525 60.2918C55.0118 60.1508 55.1013 60.0245 55.2147 59.922C60.11 55.0309 65.003 50.1298 69.8937 45.2187C69.9969 45.0852 70.125 44.973 70.271 44.8886C70.3739 44.9895 70.4837 45.0881 70.5888 45.1935C75.5009 50.1183 80.4144 55.0416 85.3295 59.9633C85.4366 60.0619 85.5209 60.1827 85.5766 60.3174C85.6323 60.452 85.658 60.5972 85.652 60.7428C85.6428 66.062 85.6428 71.3819 85.652 76.7026C85.6383 76.8791 85.6543 77.0579 85.6611 77.2368ZM68.1305 62.1643C68.1488 62.0887 68.0962 62.0703 68.0414 62.052C67.9684 61.8565 67.8332 61.6906 67.6566 61.5799C67.4801 61.4693 67.2721 61.42 67.0649 61.4398C66.9783 61.3583 66.8731 61.2992 66.7585 61.2679C65.3475 60.6557 63.9137 60.6947 62.4936 61.1968C61.3507 61.5914 60.3675 62.3493 59.6934 63.3553C59.0194 64.3613 58.6914 65.5604 58.7592 66.7704C58.8484 68.6711 59.7037 70.2806 60.8585 71.748C60.952 72.012 61.1317 72.2366 61.3685 72.3853C61.4367 72.5351 61.5357 72.6687 61.6589 72.7774C63.868 75.3178 66.484 77.3629 69.2945 79.1971C69.4019 79.2822 69.5349 79.3286 69.6718 79.3286C69.8088 79.3286 69.9417 79.2822 70.0492 79.1971C72.3467 77.7849 74.4924 76.1383 76.4522 74.2837C77.0771 73.7096 77.6509 73.0821 78.1673 72.4083C78.9036 72.4083 79.2512 71.8374 79.0523 71.2619C79.6372 70.4892 80.0936 69.6267 80.4038 68.7078C80.6473 68.0173 80.7688 67.2896 80.7628 66.5572C80.7125 61.9947 75.9239 59.8372 72.6035 61.433C71.5982 61.9303 70.712 62.6396 70.0057 63.5125C69.9348 63.5973 69.8799 63.7028 69.777 63.7417C69.5141 63.4437 69.2808 63.1502 69.0155 62.8911C68.7503 62.6321 68.5124 62.3065 68.1351 62.1712L68.1305 62.1643Z" fill="white"/>
<path d="M85.6611 77.2368C85.6611 77.058 85.6383 76.8791 85.6383 76.7003C85.6383 71.3812 85.6383 66.0612 85.6383 60.7406C85.6443 60.5949 85.6186 60.4497 85.5629 60.3151C85.5072 60.1805 85.4229 60.0596 85.3158 59.961C80.4022 55.0408 75.491 50.1176 70.582 45.1912C70.4768 45.0858 70.367 44.9872 70.2641 44.8863C70.1182 44.9708 69.99 45.0829 69.8868 45.2165C64.9946 50.1183 60.1016 55.0194 55.2078 59.9198C55.0944 60.0223 55.0049 60.1485 54.9456 60.2896C54.8864 60.4306 54.8588 60.583 54.8648 60.736C54.8755 66.2661 54.8755 71.7954 54.8648 77.3239C54.8648 77.5028 54.8648 77.6816 54.8488 77.8604C54.2131 77.4019 53.63 76.8654 53.0194 76.3587C51.7136 75.2582 50.4376 74.121 49.1776 72.97C49.0998 72.9012 49.0335 72.8187 48.9626 72.7408C48.9626 71.7702 48.9679 70.7996 48.9786 69.829C48.9786 68.6482 48.9786 67.4675 48.9786 66.2913C48.8254 66.234 48.7888 66.3647 48.7225 66.4266C48.4938 66.6421 48.2834 66.8851 48.0479 67.0823C47.6136 67.4648 47.0762 67.7101 46.5032 67.7872C45.9302 67.8644 45.3473 67.77 44.8277 67.5159C44.3081 67.2618 43.8751 66.8593 43.583 66.3592C43.2909 65.859 43.1528 65.2834 43.1861 64.7047C43.219 64.0885 43.4519 63.4999 43.8493 63.0287C43.9454 62.9141 44.0506 62.7994 44.1557 62.7009C52.1229 54.7099 60.0902 46.7197 68.0574 38.7303C68.341 38.4227 68.6857 38.1779 69.0693 38.0117C69.4528 37.8454 69.8668 37.7614 70.2847 37.7651C70.9929 37.7699 71.6748 38.035 72.201 38.5102C72.2788 38.5767 72.3497 38.6546 72.4297 38.728C80.3954 46.719 88.3626 54.7053 96.3313 62.6871C96.6412 62.9686 96.8874 63.3133 97.0535 63.6981C97.2195 64.0828 97.3015 64.4988 97.294 64.9179C97.2552 66.1514 96.6835 67.0685 95.5515 67.5638C94.4195 68.059 93.3379 67.8664 92.3934 67.0479C92.103 66.7957 91.84 66.5114 91.5702 66.2454C91.5313 66.2821 91.4947 66.3005 91.4947 66.3188C91.4947 68.2768 91.4947 70.2348 91.4947 72.1928C90.6852 72.9838 89.8299 73.7197 88.9793 74.4603C87.8907 75.4095 86.8091 76.3633 85.6611 77.2368Z" fill="#001740"/>
<path d="M68.1283 62.1598C68.5056 62.295 68.7388 62.6183 69.0087 62.8797C69.2785 63.141 69.5072 63.4322 69.7702 63.7303C69.88 63.6913 69.9348 63.5858 69.9989 63.501C70.7051 62.6282 71.5913 61.9188 72.5967 61.4215C75.9171 59.8166 80.7056 61.9832 80.756 66.5458C80.7619 67.2781 80.6404 68.0059 80.3969 68.6963C80.0868 69.6152 79.6304 70.4777 79.0454 71.2505C78.9437 71.0943 78.8012 70.969 78.6335 70.8882C78.4659 70.8074 78.2793 70.7741 78.0941 70.7919C77.216 70.808 76.3379 70.7919 75.4574 70.8034C75.3563 70.8187 75.2532 70.7936 75.1703 70.7336C75.0874 70.6736 75.0312 70.5834 75.0138 70.4824C74.6959 69.5355 74.3598 68.5955 74.0282 67.6532C73.9863 67.51 73.9311 67.3711 73.8636 67.2382C73.7956 67.1038 73.6887 66.9931 73.5569 66.9207C73.4251 66.8482 73.2745 66.8175 73.1249 66.8323C72.9822 66.8361 72.8437 66.8814 72.7263 66.9629C72.6089 67.0443 72.5178 67.1583 72.464 67.2909C72.4107 67.4141 72.3671 67.5414 72.3337 67.6715C71.8199 69.417 71.3054 71.1618 70.7901 72.9058C70.7558 73.025 70.7101 73.1351 70.6666 73.2612C70.6295 73.2406 70.5983 73.2108 70.5759 73.1747C70.5535 73.1386 70.5406 73.0973 70.5385 73.0548C69.7382 69.5821 68.9393 66.1086 68.142 62.6343C68.1123 62.4807 68.0139 62.3203 68.1283 62.1598Z" fill="#FF1D14"/>
<path d="M68.1283 62.1598C68.0139 62.3203 68.1168 62.4808 68.1488 62.6183C68.9446 66.0941 69.7435 69.5676 70.5454 73.0388C70.5475 73.0813 70.5603 73.1225 70.5827 73.1586C70.6051 73.1947 70.6364 73.2245 70.6735 73.2451C70.7169 73.1236 70.7626 73.0159 70.797 72.8898C71.3138 71.1442 71.8283 69.3995 72.3405 67.6555C72.374 67.5254 72.4176 67.3981 72.4709 67.2749C72.5246 67.1423 72.6158 67.0283 72.7332 66.9469C72.8506 66.8654 72.9891 66.8201 73.1318 66.8163C73.2813 66.8014 73.4319 66.8322 73.5637 66.9046C73.6955 66.977 73.8024 67.0877 73.8704 67.2221C73.938 67.355 73.9931 67.494 74.0351 67.6371C74.3666 68.5794 74.7028 69.5195 75.0207 70.4664C75.0381 70.5674 75.0942 70.6576 75.1772 70.7176C75.2601 70.7776 75.3632 70.8026 75.4643 70.7873C76.3447 70.7713 77.2229 70.7873 78.101 70.7759C78.2862 70.758 78.4727 70.7913 78.6404 70.8722C78.8081 70.953 78.9505 71.0783 79.0523 71.2344C79.2512 71.8214 78.9036 72.3808 78.1673 72.3808C78.0026 72.3808 77.8403 72.3624 77.6756 72.3624H74.7257C74.1631 72.3624 73.9619 72.2111 73.7675 71.6746C73.6692 71.4064 73.5846 71.1358 73.4816 70.8722C73.4347 70.6815 73.3575 70.4995 73.253 70.3334C73.1523 70.3884 73.1478 70.4664 73.1272 70.5374C72.7705 71.7388 72.4145 72.941 72.0593 74.1439C71.8054 75.0014 71.5607 75.8635 71.2978 76.7186C71.256 76.8974 71.1564 77.0573 71.0145 77.1734C70.8726 77.2895 70.6965 77.3553 70.5134 77.3606C70.3335 77.3462 70.1629 77.2746 70.0263 77.1562C69.8898 77.0379 69.7945 76.879 69.7542 76.7026C69.7382 76.6453 69.7336 76.5857 69.7199 76.526C68.921 73.0671 68.1229 69.6066 67.3256 66.1445C67.3147 66.0089 67.2592 65.8806 67.1678 65.78L65.7134 71.5852C65.5579 72.2111 65.3521 72.3785 64.7209 72.3808C63.605 72.3808 62.4867 72.3808 61.3685 72.3808C61.1317 72.232 60.952 72.0074 60.8585 71.7434C60.8486 71.5495 60.8879 71.3562 60.9729 71.1817C61.0594 71.05 61.1794 70.9439 61.3205 70.8742C61.4616 70.8044 61.6187 70.7737 61.7755 70.785C62.4753 70.785 63.1773 70.785 63.8771 70.785C64.2681 70.785 64.2681 70.785 64.3711 70.3861C64.37 70.3708 64.37 70.3555 64.3711 70.3403C65.0571 67.6486 65.7431 64.9592 66.3972 62.2629C66.4249 62.0792 66.5003 61.906 66.6159 61.7607C66.7315 61.6154 66.8832 61.5032 67.0558 61.4353C67.2633 61.4157 67.4714 61.465 67.6482 61.5756C67.8251 61.6862 67.9608 61.852 68.0345 62.0474C68.0345 62.1025 68.0162 62.1827 68.1214 62.1598H68.1283Z" fill="#001740"/>
<path d="M61.3685 72.3854C62.4867 72.3854 63.605 72.3854 64.7209 72.3854C65.3521 72.3854 65.5579 72.2157 65.7134 71.5898L67.1678 65.7846C67.2592 65.8852 67.3147 66.0134 67.3256 66.1491C68.1214 69.6081 68.9195 73.0686 69.7199 76.5306C69.7336 76.5902 69.7382 76.6498 69.7542 76.7072C69.7953 76.8827 69.891 77.0406 70.0275 77.158C70.1639 77.2755 70.3341 77.3464 70.5134 77.3606C70.6941 77.357 70.8687 77.2944 71.0107 77.1823C71.1527 77.0701 71.2543 76.9146 71.3001 76.7393C71.563 75.8841 71.8077 75.022 72.0616 74.1645C72.4183 72.9631 72.7743 71.761 73.1295 70.558C73.1501 70.487 73.1546 70.409 73.2553 70.354C73.3598 70.5202 73.437 70.7021 73.4839 70.8928C73.5869 71.1565 73.6715 71.427 73.7698 71.6952C73.9642 72.2295 74.1654 72.3831 74.728 72.3831H77.6779C77.8426 72.3831 78.0049 72.3945 78.1696 72.4014C77.6532 73.0752 77.0794 73.7028 76.4545 74.2769C74.4947 76.1315 72.349 77.778 70.0515 79.1902C69.944 79.2754 69.8111 79.3217 69.6741 79.3217C69.5372 79.3217 69.4042 79.2754 69.2968 79.1902C66.4863 77.3698 63.8702 75.3178 61.6612 72.7705C61.5379 72.664 61.4382 72.5328 61.3685 72.3854Z" fill="#FF1D14"/>
<path d="M67.0649 61.4398C66.8924 61.5077 66.7407 61.62 66.6251 61.7652C66.5095 61.9105 66.434 62.0837 66.4063 62.2675C65.7408 64.9638 65.0571 67.6531 64.3802 70.3448C64.3791 70.3601 64.3791 70.3754 64.3802 70.3907C64.2773 70.7873 64.2773 70.7896 63.8863 70.7896C63.1865 70.7896 62.4845 70.7896 61.7847 70.7896C61.6278 70.7782 61.4707 70.809 61.3297 70.8787C61.1886 70.9484 61.0686 71.0546 60.982 71.1862C60.8971 71.3607 60.8577 71.554 60.8677 71.7479C59.7243 70.2806 58.8576 68.6711 58.7684 66.7704C58.7005 65.5604 59.0286 64.3613 59.7026 63.3553C60.3766 62.3493 61.3598 61.5914 62.5027 61.1968C63.9228 60.6947 65.3567 60.6557 66.7676 61.2679C66.879 61.3006 66.9809 61.3595 67.0649 61.4398Z" fill="#FF1D14"/>
<path d="M68.1305 62.1643C68.0253 62.1873 68.0482 62.107 68.0436 62.052C68.0962 62.0703 68.1488 62.0887 68.1305 62.1643Z" fill="#FF1D14"/>
<defs>
<linearGradient id="paint0_linear" x1="69.9737" y1="16.986" x2="69.9737" y2="96.748" gradientUnits="userSpaceOnUse">
<stop stop-color="#FE707B"/>
<stop offset="1" stop-color="#FF2219"/>
</linearGradient>
</defs>
</svg>
