<svg width="147" height="90" viewBox="0 0 147 90" fill="none" xmlns="http://www.w3.org/2000/svg">
<rect width="147" height="90" rx="6" fill="#F4FCF0"/>
<g clip-path="url(#clip0)">
<path d="M83.6153 6.71924L112.346 20.2011L75.3789 30.9917L46.2379 16.3948L83.6153 6.71924Z" fill="#F0F4FA"/>
<path d="M112.175 52.4089L75.3119 65.2825V30.8633L112.346 20.2011L112.175 52.4089Z" fill="#E6EAEF"/>
<path d="M46.2379 16.3947L46.317 47.8946L75.3119 65.2825V30.8632L46.2379 16.3947Z" fill="white"/>
<path d="M57.0142 21.7538L94.7644 11.9499L98.7494 13.815L61.2518 23.8774L57.0142 21.7538Z" fill="#75D784"/>
<path d="M62.5045 12.1981L91.331 26.251L96.268 24.8572L67.0119 11.029L62.5045 12.1981Z" fill="#75D784"/>
<path d="M91.331 26.251L96.268 24.8572V35.9333L91.508 37.9759L91.331 26.251Z" fill="#66BF74"/>
<path d="M57.0142 21.7537L61.2518 23.8774V35.859L56.997 33.2708L57.0142 21.7537Z" fill="#66BF74"/>
<path d="M90.8842 52.7299L90.8739 52.5221L90.788 52.5491V52.7569C89.5851 53.1827 89.482 54.6812 89.482 54.6812C89.482 54.6812 90.1006 54.3045 90.3412 54.6339C90.4898 54.4856 90.6644 54.3648 90.8567 54.2774L90.9271 55.8959C90.9334 56.0028 90.9334 56.11 90.9271 56.2169C90.9117 56.3251 90.8223 56.3149 90.8086 56.2271C90.7948 56.1392 90.7467 56.1679 90.7381 56.2271C90.7295 56.2862 90.788 56.4332 90.91 56.3774C90.9441 56.3617 90.9728 56.3366 90.9926 56.3051C91.0125 56.2736 91.0226 56.2371 91.0217 56.2L91.0079 55.8622L90.9357 54.2386C91.1216 54.1675 91.3283 54.1712 91.5114 54.2487C91.5114 54.2487 92.0132 53.6625 92.338 53.823C92.3517 53.828 92.1799 52.3464 90.8842 52.7299Z" fill="#5B534D"/>
<path d="M92.9944 52.7096C92.96 51.924 92.3878 51.4628 91.7176 51.6774L89.9253 52.2568C89.2551 52.4731 88.7379 53.2874 88.7722 54.073L88.8633 56.1747C88.8977 56.9586 89.4716 57.4215 90.1418 57.2053L91.9341 56.6275C92.6043 56.4112 93.1216 55.5969 93.0872 54.8113L92.9944 52.7096ZM91.9187 56.2575L90.1246 56.8353C89.6315 57.0042 89.2087 56.6545 89.183 56.075L89.0902 53.9733C89.0661 53.3938 89.4476 52.7907 89.9494 52.6336L91.7434 52.0558C92.2366 51.8868 92.6593 52.2366 92.6851 52.8161L92.7762 54.9177C92.7933 55.4938 92.4119 56.0936 91.9187 56.2541V56.2575Z" fill="#5B534D"/>
<path d="M84.6515 57.5584L84.8732 57.4874L84.7993 55.8098L85.198 55.6814L84.6429 54.8113L84.1806 56.0091L84.5776 55.8807L84.6515 57.5584Z" fill="#5B534D"/>
<path d="M84.2666 57.93L84.2786 58.1885L86.7909 57.3776L86.7806 57.1191L84.2666 57.93Z" fill="#5B534D"/>
<path d="M85.6928 55.5209L86.0915 55.3925L86.1654 57.0701L86.3871 56.9992L86.3132 55.3215L86.7119 55.1931L86.1568 54.3231L85.6928 55.5209Z" fill="#5B534D"/>
<path d="M86.2599 53.4107L84.4659 53.9902C83.7957 54.2064 83.2785 55.0207 83.3129 55.8047L83.4056 57.9064C83.44 58.692 84.0122 59.1549 84.6824 58.9386L86.4765 58.3591C87.1449 58.1446 87.6622 57.3286 87.6278 56.5446L87.5367 54.443C87.5023 53.6574 86.9284 53.1911 86.2599 53.4107ZM86.4593 57.9858L84.6652 58.5652C84.1721 58.7241 83.7493 58.3828 83.7236 57.805L83.6325 55.7033C83.6067 55.1238 83.9882 54.5207 84.4814 54.3635L86.2754 53.7841C86.7703 53.6253 87.1913 53.9665 87.2171 54.546L87.3099 56.6477C87.3339 57.2255 86.9542 57.8269 86.4593 57.9858Z" fill="#5B534D"/>
<path d="M79.9052 56.2642L79.8382 56.2862L80.01 56.7576L80.1544 56.6174L80.3486 57.3691L80.0942 56.8116L79.9757 56.9282L79.7317 56.32L79.412 56.4214C79.412 56.4214 79.0598 57.4604 79.1904 58.0095C79.3038 58.4842 79.8176 58.3305 79.955 58.2798L80.0066 59.557C79.8136 59.6411 79.6332 59.7508 79.4705 59.8831C79.4481 59.9 79.455 59.9371 79.4705 59.9287L80.627 59.5621C80.6493 59.5621 80.6544 59.5148 80.627 59.5114C80.4426 59.4804 80.2537 59.4867 80.0719 59.53L80.0203 58.2544C80.1988 58.2124 80.3609 58.1202 80.4869 57.9891C80.6129 57.858 80.6974 57.6936 80.7301 57.5161C80.8143 56.8978 80.3864 56.1071 80.3864 56.1071L79.9052 56.2642Z" fill="#5B534D"/>
<path d="M80.7661 55.1594L78.9721 55.7287C78.3019 55.9416 77.783 56.7542 77.8139 57.5398L77.8981 59.6449C77.929 60.4305 78.4995 60.8968 79.1697 60.6839L80.9637 60.1146C81.6339 59.9017 82.1529 59.0891 82.1219 58.3035L82.0377 56.1984C82.0068 55.4128 81.4363 54.9465 80.7661 55.1594ZM81.7972 58.4048C81.8195 58.9843 81.4363 59.5875 80.938 59.7412L79.1457 60.3106C78.6508 60.466 78.2297 60.123 78.2074 59.5435L78.1232 57.4385C78.0991 56.859 78.4823 56.2559 78.9824 56.1038L80.7764 55.5328C81.2696 55.3773 81.6906 55.7203 81.7147 56.2998L81.7972 58.4048Z" fill="#5B534D"/>
<path d="M110.866 43.5713C107.857 41.8633 102.99 41.8633 99.9987 43.5713C98.5088 44.4161 97.7647 45.5379 97.7647 46.6529V46.6647L97.7149 64.1506C97.7149 65.2775 98.4676 66.4077 99.9832 67.2676C102.994 68.9757 107.857 68.9774 110.847 67.2676C112.333 66.4229 113.081 65.3079 113.081 64.1945L113.131 46.685C113.134 46.7712 112.481 44.4887 110.866 43.5713Z" fill="#F2F6F9"/>
<path d="M114.004 46.337L113.949 47.6396C113.949 48.8628 113.127 50.0843 111.495 51.0185C108.206 52.8972 102.86 52.8955 99.5519 51.0185C97.885 50.0741 97.055 48.8324 97.0567 47.594L97.1134 46.2897C97.1134 47.5298 97.9417 48.7716 99.6069 49.716C102.915 51.5946 108.263 51.5963 111.55 49.716C113.182 48.7817 114 47.5602 114.004 46.337Z" fill="#EEEEEE"/>
<path d="M111.514 42.9124C114.824 44.7911 114.841 47.8372 111.554 49.7159C108.267 51.5946 102.919 51.5912 99.611 49.7159C96.303 47.8406 96.2824 44.7945 99.5697 42.9158C102.857 41.0372 108.207 41.027 111.514 42.9124Z" fill="#E8E6E6"/>
<path d="M111.083 37.915C114.091 39.6248 114.109 42.3955 111.117 44.1052C108.125 45.8149 103.262 45.8115 100.251 44.1052C97.2406 42.3988 97.2235 39.6264 100.214 37.9167C103.204 36.207 108.075 36.207 111.083 37.915Z" fill="#E0E0E0"/>
<path d="M113.354 41.027L113.303 45.6494C113.303 46.761 112.555 47.8727 111.069 48.7208C108.077 50.4306 103.214 50.4289 100.203 48.7208C98.6875 47.8609 97.9314 46.7323 97.9349 45.6055L97.9847 40.9831C97.9847 42.11 98.7374 43.2402 100.253 44.1002C103.264 45.8082 108.129 45.8099 111.119 44.1002C112.607 43.2554 113.351 42.1455 113.354 41.027Z" fill="#EEEEEE"/>
<path d="M113.354 41.027L113.303 45.6494C113.303 46.761 112.555 47.8727 111.069 48.7208C108.077 50.4306 103.214 50.4289 100.203 48.7208C98.6875 47.8609 97.9314 46.7323 97.9349 45.6055L97.9847 40.9831C97.9847 42.11 98.7374 43.2402 100.253 44.1002C103.264 45.8082 108.129 45.8099 111.119 44.1002C112.605 43.2554 113.352 42.1404 113.352 41.027H113.354Z" fill="#EEEEEE"/>
<path d="M105.056 49.9914C105.424 50.0071 105.791 50.0071 106.158 49.9914V45.3707C105.791 45.3842 105.422 45.3842 105.056 45.3707V49.9914Z" fill="#E8E6E6"/>
<path d="M111.083 37.915C114.091 39.6248 114.109 42.3955 111.117 44.1052C108.125 45.8149 103.262 45.8115 100.251 44.1052C97.2406 42.3988 97.2235 39.6264 100.214 37.9167C103.204 36.207 108.075 36.207 111.083 37.915Z" fill="#E8E6E6"/>
<path d="M112.55 42.9648C112.498 43.0239 112.447 43.0797 112.392 43.1338C112.337 43.1878 112.292 43.2317 112.241 43.2791C112.091 43.4194 111.933 43.5513 111.768 43.6744L111.72 43.7116V48.2917C112.153 47.9804 112.526 47.596 112.822 47.1564V42.6219C112.785 42.6742 112.744 42.7249 112.703 42.7756C112.662 42.8263 112.603 42.9057 112.55 42.9648Z" fill="#E8E6E6"/>
<path d="M110.13 44.5748C109.948 44.6491 109.763 44.7167 109.574 44.7792V49.383C109.951 49.255 110.32 49.1026 110.677 48.9269V44.3315C110.505 44.4126 110.333 44.4886 110.161 44.5613L110.13 44.5748Z" fill="#E8E6E6"/>
<path d="M107.35 45.2794V49.895C107.723 49.846 108.092 49.7835 108.452 49.7041V45.0919H108.424C108.08 45.1662 107.737 45.2254 107.376 45.271L107.35 45.2794Z" fill="#E8E6E6"/>
<path d="M102.762 49.6871C103.121 49.7699 103.491 49.8324 103.863 49.8831V45.2506C103.692 45.2253 103.509 45.1982 103.332 45.1661C103.272 45.156 103.214 45.1425 103.161 45.1307C103.03 45.1053 102.898 45.08 102.769 45.0496L102.762 49.6871Z" fill="#E8E6E6"/>
<path d="M101.116 44.5158C100.932 44.438 100.757 44.3553 100.585 44.2674V48.9151C100.941 49.0927 101.309 49.2462 101.686 49.3746V44.7438C101.497 44.6779 101.313 44.6053 101.135 44.5293L101.116 44.5158Z" fill="#E8E6E6"/>
<path d="M98.4659 47.2087C98.7662 47.6347 99.1388 48.0067 99.5674 48.3086V43.6474C99.2383 43.4042 98.9426 43.1203 98.6875 42.8026L98.6772 42.7908C98.5993 42.6928 98.5289 42.5948 98.4659 42.4968V47.2087Z" fill="#E8E6E6"/>
<path d="M108.221 61.4374C107.178 60.8461 106.331 61.3209 106.331 62.5018C106.331 63.6827 107.065 65.1897 108.11 65.7827C109.154 66.3757 110.11 65.8266 110.113 64.6474C110.117 63.4682 109.266 62.0304 108.221 61.4374Z" fill="#CACBCC"/>
<path d="M108.18 61.8766L108.168 66.0817C109.051 66.4027 109.725 65.9127 109.728 64.8619C109.732 63.811 109.063 62.5575 108.18 61.8766Z" fill="#EDEEEF"/>
<path d="M106.499 61.5234C106.654 61.4446 106.825 61.4011 107 61.3961C107.174 61.3912 107.347 61.4249 107.506 61.4947L107.764 61.341C107.883 61.3836 107.998 61.4362 108.108 61.4981C108.224 61.566 108.335 61.641 108.441 61.7228L108.185 61.8765C109.068 62.5523 109.732 63.8109 109.732 64.8618C109.732 65.4463 109.52 65.8586 109.18 66.0529L109.749 65.7302C110.093 65.5359 110.299 65.1237 110.302 64.5374C110.302 63.3548 109.46 61.9221 108.412 61.3275C107.897 61.0284 107.412 61.0014 107.068 61.1974L106.499 61.5234Z" fill="#E2E2E2"/>
<path d="M107.496 65.6981L107.765 65.5376L107.759 61.341L107.506 61.4947L107.496 65.6981Z" fill="#D6D6D6"/>
<path d="M107.506 61.4948C106.623 61.1738 105.96 61.6638 105.948 62.7146C105.936 63.7655 106.613 65.0173 107.494 65.6982L107.506 61.4948Z" fill="#EDEEEF"/>
<path d="M103.109 60.9272C104.269 60.2666 105.212 60.7954 105.216 62.1098C105.219 63.4242 104.401 65.0984 103.241 65.7556C102.081 66.4128 101.018 65.8063 101.007 64.4953C100.997 63.1843 101.947 61.5844 103.109 60.9272Z" fill="#CACBCC"/>
<path d="M103.155 61.4138L103.167 66.0834C102.184 66.4416 101.437 65.8959 101.434 64.7319C101.43 63.5678 102.172 62.1706 103.155 61.4138Z" fill="#EDEEEF"/>
<path d="M104.391 60.6619C104.008 60.4423 103.478 60.4727 102.896 60.8055C101.736 61.4627 100.798 63.0593 100.801 64.3703C100.801 65.0224 101.038 65.4786 101.415 65.6948L102.047 66.053C101.669 65.8367 101.435 65.3772 101.434 64.7284C101.434 63.5627 102.172 62.1706 103.152 61.4137L102.867 61.2448C102.984 61.1531 103.108 61.0695 103.238 60.9947C103.358 60.9275 103.484 60.8709 103.614 60.8258L103.899 60.9947C104.076 60.9175 104.269 60.8802 104.462 60.8855C104.656 60.8907 104.846 60.9384 105.018 61.0252L104.391 60.6619Z" fill="#E2E2E2"/>
<path d="M103.915 65.6592L103.618 65.4802L103.623 60.8173L103.903 60.9896L103.915 65.6592Z" fill="#D6D6D6"/>
<path d="M103.903 60.9896C104.884 60.6314 105.632 61.1771 105.635 62.3412C105.639 63.5052 104.896 64.899 103.917 65.6559L103.903 60.9896Z" fill="#EDEEEF"/>
<path d="M104.075 64.4327C103.03 65.0257 103.025 65.9887 104.063 66.58C105.101 67.1713 106.786 67.173 107.831 66.58C108.876 65.987 108.881 65.0257 107.843 64.4327C106.805 63.8397 105.118 63.8347 104.075 64.4327Z" fill="#CACBCC"/>
<path d="M104.448 63.9834L104.449 64.2639L108.146 66.3757L108.144 66.0952L104.448 63.9834Z" fill="#D6D6D6"/>
<path d="M108.628 65.5038C108.628 65.2605 108.628 65.465 108.628 65.2234C108.619 65.3951 108.571 65.5626 108.488 65.7138C108.404 65.8649 108.287 65.9958 108.146 66.0968V66.3688C108.286 66.2689 108.403 66.1394 108.486 65.9897C108.57 65.8401 108.618 65.6741 108.628 65.5038Z" fill="#E2E2E2"/>
<path d="M104.448 63.9851L108.144 66.0969C108.869 65.5039 108.773 64.6862 107.85 64.1574C106.927 63.6286 105.489 63.5729 104.448 63.9851Z" fill="#EDEEEF"/>
<path d="M104.054 66.3097C104.977 66.8385 106.415 66.896 107.457 66.4787V66.7507C107.585 66.7032 107.709 66.6467 107.83 66.5817C107.941 66.5197 108.046 66.4479 108.144 66.3672V66.0985C108.285 65.9975 108.402 65.8666 108.485 65.7155C108.569 65.5643 108.616 65.3968 108.625 65.2251V65.5055C108.625 65.5444 108.625 65.791 108.625 65.791C108.625 66.1813 108.362 66.5733 107.838 66.8723C106.793 67.4636 105.106 67.4636 104.07 66.8723C103.922 66.7885 103.784 66.6876 103.661 66.5716C103.363 66.2844 103.295 66.1222 103.295 65.8063C103.295 65.7438 103.295 65.3653 103.295 65.1305C103.312 65.3735 103.39 65.6085 103.523 65.8144C103.656 66.0202 103.838 66.1904 104.054 66.3097Z" fill="#E2E2E2"/>
<path d="M103.76 64.3719C103.035 64.9632 103.131 65.7826 104.054 66.3097C104.977 66.8368 106.415 66.896 107.457 66.4787L103.76 64.3719Z" fill="#EDEEEF"/>
<path d="M111.543 52.6201C111.543 52.539 111.521 52.4594 111.479 52.3894C111.438 52.3193 111.378 52.2612 111.307 52.2208C111.235 52.1804 111.154 52.1593 111.072 52.1593C110.989 52.1594 110.908 52.1808 110.837 52.2214C107.886 53.8635 103.178 53.8736 100.183 52.2568C100.109 52.2178 100.026 52.1983 99.943 52.2002C99.8595 52.2021 99.7779 52.2253 99.7063 52.2676C99.6347 52.3098 99.5755 52.3697 99.5346 52.4413C99.4936 52.5129 99.4724 52.5937 99.4728 52.6758V56.6359C99.4638 56.8969 99.5268 57.1555 99.655 57.3842C99.7833 57.6129 99.9721 57.8033 100.201 57.9351C103.224 59.5249 107.934 59.4877 110.856 57.8185C111.077 57.6766 111.257 57.4801 111.378 57.2487C111.498 57.0172 111.555 56.7588 111.543 56.4991V52.6201Z" fill="#76B5FF"/>
<path opacity="0.2" d="M78.2418 84.9766L80.627 85.2807L101.977 76.4736L99.4282 74.6422L78.2418 84.9766Z" fill="#F5F5F5"/>
<path d="M67.6168 76.2708L77.0681 83.4189C77.9119 84.0558 79.3931 84.245 80.3795 83.8413L99.6911 75.9295C100.188 75.7268 100.463 75.4126 100.507 75.0696L100.38 76.0562C100.355 76.1992 100.299 76.335 100.215 76.4541C100.131 76.5733 100.021 76.6727 99.8938 76.7455C99.7899 76.8126 99.6793 76.8692 99.5639 76.9145L80.2523 84.8262C79.266 85.23 77.7847 85.0408 76.9409 84.4038L67.4896 77.2557C67.0721 76.9398 66.8899 76.58 66.9329 76.2421C66.9758 75.9042 67.0171 75.5832 67.06 75.2537C67.0171 75.5883 67.1992 75.9549 67.6168 76.2708Z" fill="#6A7279"/>
<path d="M67.8763 74.3871C66.8899 74.7909 66.7748 75.6356 67.6168 76.2708L77.0681 83.4189C77.9119 84.0558 79.3931 84.2451 80.3795 83.8413L99.6911 75.9295C100.677 75.5258 100.793 74.6827 99.9506 74.0458L90.4993 66.8977C89.6555 66.2625 88.1742 66.0733 87.1879 66.4771L67.8763 74.3871Z" fill="#949A9F"/>
<path d="M70.3216 74.6202C69.2631 75.0544 69.1376 75.9599 70.0432 76.6475C70.9488 77.3351 72.5418 77.5345 73.6003 77.1003C74.6589 76.6661 74.7843 75.7606 73.8787 75.073C72.9731 74.3854 71.387 74.186 70.3216 74.6202Z" fill="#CACBCC"/>
<path d="M70.7289 74.24L70.6962 74.5053L73.9217 76.9415L73.9543 76.6779L70.7289 74.24Z" fill="#D6D6D6"/>
<path d="M74.4811 76.1762C74.5103 75.9481 74.4811 76.1407 74.5138 75.9126C74.4847 76.0736 74.4191 76.226 74.3216 76.3585C74.2242 76.4911 74.0975 76.6002 73.951 76.6779L73.9182 76.9432C74.0646 76.8649 74.1912 76.7554 74.2886 76.6226C74.3861 76.4898 74.4518 76.3373 74.4811 76.1762Z" fill="#E2E2E2"/>
<path d="M70.7289 74.2401L73.9543 76.678C74.7139 76.2066 74.7242 75.4227 73.9182 74.8196C73.1123 74.2164 71.7634 73.9715 70.7289 74.2401Z" fill="#EDEEEF"/>
<path d="M70.069 76.389C70.8749 76.9972 72.2239 77.2337 73.2584 76.9617L73.2257 77.2185C73.3533 77.1867 73.4785 77.146 73.6003 77.0969C73.7126 77.0496 73.8207 76.9931 73.9234 76.928L73.9543 76.6728C74.1006 76.5952 74.2271 76.486 74.3244 76.3534C74.4217 76.2209 74.4873 76.0685 74.5163 75.9075L74.4836 76.1711C74.4836 76.2083 74.4424 76.4397 74.4424 76.4397C74.3943 76.8097 74.0987 77.1476 73.566 77.3655C72.5057 77.7997 70.9127 77.597 70.0071 76.9128C69.8792 76.8141 69.7638 76.7006 69.6634 76.5749C69.4194 76.2674 69.3747 76.1069 69.4125 75.8078C69.4125 75.7487 69.4641 75.3922 69.4933 75.1642C69.4761 75.3995 69.5199 75.6353 69.6206 75.8495C69.7212 76.0638 69.8755 76.2494 70.069 76.389Z" fill="#E2E2E2"/>
<path d="M70.0329 74.5239C69.2751 74.9953 69.2631 75.7792 70.069 76.3823C70.8749 76.9855 72.2239 77.2271 73.2584 76.9551L70.0329 74.5239Z" fill="#EDEEEF"/>
<path d="M75.8446 72.3748C74.786 72.8073 74.6606 73.7146 75.5662 74.4022C76.4718 75.0898 78.0648 75.2891 79.1233 74.8549C80.1819 74.4208 80.3073 73.5152 79.4017 72.8276C78.4961 72.14 76.9048 71.944 75.8446 72.3748Z" fill="#CACBCC"/>
<path d="M76.2519 71.9948L76.2192 72.2583L79.4464 74.6962L79.479 74.431L76.2519 71.9948Z" fill="#D6D6D6"/>
<path d="M80.0092 73.9309C80.0385 73.7029 80.0092 73.8938 80.0419 73.6657C80.0123 73.8266 79.9464 73.9791 79.849 74.1118C79.7517 74.2445 79.6253 74.3542 79.4791 74.4327L79.4464 74.6963C79.5924 74.618 79.7188 74.5086 79.8162 74.3762C79.9135 74.2438 79.9795 74.0916 80.0092 73.9309Z" fill="#E2E2E2"/>
<path d="M76.2536 71.9948L79.4791 74.4326C80.2369 73.9613 80.2489 73.1774 79.4413 72.5742C78.6336 71.9711 77.2881 71.7312 76.2536 71.9948Z" fill="#EDEEEF"/>
<path d="M75.592 74.1403C76.3996 74.7502 77.7486 74.9851 78.7814 74.7131L78.7504 74.9699C78.8776 74.9391 79.0022 74.899 79.1233 74.8499C79.2361 74.8036 79.3443 74.7471 79.4464 74.681L79.479 74.4275C79.6249 74.349 79.7512 74.2394 79.8484 74.1067C79.9456 73.9739 80.0114 73.8215 80.0409 73.6605L80.0083 73.9258C80.0083 73.9613 79.9653 74.1944 79.9653 74.1944C79.9172 74.5627 79.6216 74.9023 79.0889 75.1202C78.0304 75.5527 76.4357 75.35 75.5318 74.6675C75.4032 74.5696 75.2877 74.4561 75.1881 74.3296C74.9424 74.0221 74.8977 73.8616 74.9373 73.5625C74.9373 73.5034 74.9871 73.147 75.018 72.9189C75.0009 73.1536 75.0446 73.3887 75.1449 73.6023C75.2453 73.8159 75.3991 74.001 75.592 74.1403Z" fill="#E2E2E2"/>
<path d="M75.5559 72.282C74.7981 72.7534 74.7878 73.5373 75.592 74.1404C76.3962 74.7435 77.7486 74.9851 78.7814 74.7131L75.5559 72.282Z" fill="#EDEEEF"/>
<path d="M81.3676 70.128C80.309 70.5622 80.1853 71.4677 81.0892 72.1553C81.9931 72.8429 83.5878 73.0423 84.6481 72.6081C85.7083 72.1739 85.8303 71.2684 84.9264 70.5808C84.0225 69.8931 82.4278 69.6938 81.3676 70.128Z" fill="#CACBCC"/>
<path d="M81.7765 69.7478L81.7439 70.0131L84.9694 72.4493L85.002 72.1857L81.7765 69.7478Z" fill="#D6D6D6"/>
<path d="M85.5322 71.6838C85.5615 71.4557 85.5322 71.6483 85.5649 71.4203C85.5352 71.581 85.4692 71.7331 85.3718 71.8655C85.2745 71.998 85.1481 72.1073 85.0021 72.1856L84.9625 72.4508C85.1099 72.3731 85.2377 72.2638 85.3363 72.131C85.4349 71.9982 85.5019 71.8454 85.5322 71.6838Z" fill="#E2E2E2"/>
<path d="M81.7766 69.7478L85.002 72.1857C85.7616 71.7143 85.7719 70.9304 84.9659 70.3273C84.16 69.7242 82.811 69.4859 81.7766 69.7478Z" fill="#EDEEEF"/>
<path d="M81.1167 71.8968C81.9226 72.505 83.2716 72.7415 84.3061 72.4695L84.2734 72.7263C84.401 72.6944 84.5262 72.6538 84.648 72.6047C84.7602 72.557 84.8682 72.5005 84.9711 72.4357L85.002 72.1806C85.1478 72.1024 85.274 71.993 85.3712 71.8606C85.4684 71.7281 85.5343 71.576 85.564 71.4153L85.5313 71.6789C85.5313 71.716 85.4884 71.9475 85.4884 71.9475C85.442 72.3175 85.1447 72.6554 84.6119 72.8733C83.5534 73.3075 81.9604 73.1048 81.0548 72.4205C80.9265 72.3223 80.8111 72.2088 80.7111 72.0826C80.4654 71.7751 80.4207 71.6147 80.4603 71.3156C80.4603 71.2565 80.5118 70.8983 80.541 70.6719C80.5238 70.9073 80.5676 71.1431 80.6683 71.3573C80.7689 71.5715 80.9232 71.7571 81.1167 71.8968Z" fill="#E2E2E2"/>
<path d="M81.0789 70.0316C80.3211 70.5029 80.3108 71.2868 81.1167 71.8899C81.9226 72.4931 83.2716 72.7347 84.3061 72.4627L81.0789 70.0316Z" fill="#EDEEEF"/>
<path d="M86.8923 67.8893C85.8338 68.3218 85.7083 69.2291 86.6139 69.9167C87.5195 70.6043 89.1125 70.8036 90.1711 70.3695C91.2296 69.9353 91.3551 69.0297 90.4495 68.3421C89.5438 67.6545 87.9509 67.4484 86.8923 67.8893Z" fill="#CACBCC"/>
<path d="M87.2996 67.5025L87.2669 67.7661L90.4924 70.204L90.525 69.9387L87.2996 67.5025Z" fill="#D6D6D6"/>
<path d="M91.0552 69.4386C91.0845 69.2105 91.0552 69.4014 91.0879 69.1733C91.0587 69.3344 90.9929 69.487 90.8955 69.6198C90.7981 69.7525 90.6715 69.8621 90.5251 69.9403L90.4924 70.2039C90.6384 70.1256 90.7648 70.0163 90.8621 69.8838C90.9595 69.7514 91.0255 69.5993 91.0552 69.4386Z" fill="#E2E2E2"/>
<path d="M87.2996 67.5025L90.525 69.9404C91.2846 69.469 91.2949 68.6851 90.489 68.082C89.683 67.4789 88.3341 67.239 87.2996 67.5025Z" fill="#EDEEEF"/>
<path d="M86.6397 69.6497C87.4456 70.2596 88.7946 70.486 89.8291 70.2225L89.7964 70.4792C89.9242 70.4487 90.0495 70.4086 90.1711 70.3593C90.2837 70.3126 90.3918 70.2561 90.4941 70.1904L90.525 69.9369C90.6712 69.8587 90.7976 69.7491 90.8948 69.6163C90.9921 69.4836 91.0578 69.331 91.087 69.1699L91.0543 69.4352C91.0543 69.4706 91.0131 69.7038 91.0131 69.7038C90.965 70.0721 90.6694 70.4117 90.135 70.6296C89.0764 71.0621 87.4834 70.8594 86.5778 70.1768C86.4492 70.079 86.3337 69.9655 86.2341 69.839C85.9884 69.5315 85.9454 69.371 85.9832 69.0719C85.9832 69.0128 86.0348 68.6563 86.064 68.4282C86.0472 68.6631 86.0912 68.8983 86.1919 69.1119C86.2926 69.3254 86.4466 69.5105 86.6397 69.6497Z" fill="#E2E2E2"/>
<path d="M86.6036 67.7864C85.8441 68.2577 85.8338 69.0416 86.6397 69.6448C87.4456 70.2479 88.7946 70.4811 89.8291 70.2175L86.6036 67.7864Z" fill="#EDEEEF"/>
<path d="M76.6385 79.3423C75.58 79.7764 75.4545 80.6837 76.3601 81.3696C77.2657 82.0555 78.8587 82.2566 79.9173 81.8241C80.9758 81.3916 81.1012 80.4826 80.1956 79.7967C79.29 79.1108 77.6971 78.9098 76.6385 79.3423Z" fill="#CACBCC"/>
<path d="M77.0458 78.9621L77.0131 79.2273L80.2386 81.6652L80.2712 81.4L77.0458 78.9621Z" fill="#D6D6D6"/>
<path d="M80.8014 80.8982C80.8307 80.6718 80.8014 80.8627 80.8341 80.6346C80.8053 80.7957 80.7397 80.9482 80.6423 81.0808C80.5448 81.2133 80.4179 81.3225 80.2713 81.4L80.2386 81.6652C80.3851 81.5872 80.5118 81.4776 80.6093 81.3448C80.7067 81.212 80.7724 81.0594 80.8014 80.8982Z" fill="#E2E2E2"/>
<path d="M77.0458 78.9637L80.2712 81.405C81.0308 80.9336 81.0411 80.1497 80.2351 79.5466C79.4292 78.9434 78.0889 78.7019 77.0458 78.9637Z" fill="#EDEEEF"/>
<path d="M76.3859 81.1111C77.1918 81.7193 78.5408 81.9559 79.5753 81.6839L79.5426 81.9407C79.6702 81.9094 79.7954 81.8693 79.9172 81.8207C80.0299 81.7741 80.138 81.7175 80.2403 81.6518L80.2712 81.3967C80.4176 81.3192 80.5443 81.21 80.6416 81.0775C80.7389 80.9449 80.8044 80.7924 80.8332 80.6313L80.8005 80.8949C80.8005 80.9321 80.7593 81.1652 80.7593 81.1652C80.7112 81.5335 80.4156 81.8714 79.8812 82.091C78.8226 82.5235 77.2296 82.3208 76.324 81.6366C76.1961 81.5379 76.0807 81.4244 75.9803 81.2987C75.7346 80.9912 75.6916 80.8307 75.7294 80.5317C75.7294 80.4725 75.781 80.1161 75.8102 79.888C75.7933 80.1231 75.8372 80.3585 75.9379 80.5724C76.0386 80.7863 76.1927 80.9716 76.3859 81.1111Z" fill="#E2E2E2"/>
<path d="M76.3498 79.2459C75.5903 79.7173 75.5799 80.5029 76.3859 81.1043C77.1918 81.7058 78.5408 81.949 79.5753 81.677L76.3498 79.2459Z" fill="#EDEEEF"/>
<path d="M82.1615 77.0969C81.1029 77.5311 80.9775 78.4367 81.8831 79.1243C82.7887 79.8119 84.3817 80.0112 85.4402 79.577C86.4988 79.1429 86.6242 78.2373 85.7186 77.5497C84.813 76.8621 83.22 76.6627 82.1615 77.0969Z" fill="#CACBCC"/>
<path d="M82.5688 76.7168L82.5361 76.9803L85.7633 79.4182L85.796 79.1547L82.5688 76.7168Z" fill="#D6D6D6"/>
<path d="M86.3244 78.6529C86.3554 78.4248 86.3244 78.6158 86.3588 78.3894C86.3291 78.5501 86.2631 78.7022 86.1658 78.8346C86.0684 78.967 85.942 79.0764 85.796 79.1547L85.7633 79.4182C85.9096 79.3405 86.036 79.2312 86.1332 79.0987C86.2303 78.9661 86.2957 78.8137 86.3244 78.6529Z" fill="#E2E2E2"/>
<path d="M82.5688 76.7167L85.7959 79.1546C86.5538 78.6833 86.5641 77.8994 85.7581 77.2962C84.9522 76.6931 83.6032 76.4549 82.5688 76.7167Z" fill="#EDEEEF"/>
<path d="M81.9089 78.8709C82.7166 79.4808 84.0655 79.7156 85.0983 79.4453L85.0673 79.7004C85.1945 79.6696 85.3192 79.6295 85.4402 79.5805C85.5527 79.5335 85.6608 79.477 85.7633 79.4115L85.796 79.1564C85.9417 79.0781 86.0679 78.9688 86.1651 78.8364C86.2624 78.7039 86.3282 78.5518 86.3579 78.3911L86.3235 78.6546C86.3235 78.6918 86.2823 78.9233 86.2823 78.9233C86.2342 79.2933 85.9386 79.6312 85.4059 79.8491C84.3473 80.2833 82.7526 80.0806 81.8488 79.3963C81.7206 79.2979 81.6051 79.1845 81.5051 79.0584C81.2611 78.7509 81.2164 78.5904 81.2559 78.2914C81.2559 78.234 81.3057 77.8758 81.3367 77.6477C81.3191 77.8826 81.3623 78.1179 81.4624 78.3319C81.5625 78.5458 81.7161 78.7312 81.9089 78.8709Z" fill="#E2E2E2"/>
<path d="M81.8694 77.0007C81.1115 77.472 81.1012 78.2559 81.9054 78.859C82.7097 79.4622 84.0621 79.7038 85.0948 79.4334L81.8694 77.0007Z" fill="#EDEEEF"/>
<path d="M87.6845 74.85C86.626 75.2842 86.5022 76.1914 87.4061 76.8773C88.31 77.5633 89.9047 77.7643 90.9633 77.3318C92.0218 76.8993 92.1472 75.9904 91.2434 75.3045C90.3395 74.6185 88.7431 74.4175 87.6845 74.85Z" fill="#CACBCC"/>
<path d="M88.0935 74.4699L88.0608 74.7351L91.2863 77.173L91.3189 76.9077L88.0935 74.4699Z" fill="#D6D6D6"/>
<path d="M91.8491 76.406C91.8784 76.1796 91.8491 76.3705 91.8818 76.1424C91.8523 76.3032 91.7864 76.4554 91.689 76.5879C91.5916 76.7204 91.4652 76.8297 91.319 76.9078L91.2863 77.173C91.4326 77.0946 91.5591 76.985 91.6565 76.8523C91.7539 76.7195 91.8197 76.567 91.8491 76.406Z" fill="#E2E2E2"/>
<path d="M88.0935 74.4783L91.3189 76.9145C92.0768 76.4431 92.0888 75.6592 91.2829 75.0561C90.4769 74.4529 89.128 74.208 88.0935 74.4783Z" fill="#EDEEEF"/>
<path d="M87.4336 76.6188C88.2395 77.227 89.5885 77.455 90.6213 77.1915L90.5903 77.4483C90.7173 77.417 90.842 77.3769 90.9632 77.3283C91.0764 77.2816 91.1851 77.2251 91.288 77.1594L91.3189 76.9043C91.4649 76.8262 91.5912 76.7169 91.6884 76.5844C91.7857 76.452 91.8514 76.2997 91.8809 76.1389L91.8482 76.4025C91.8482 76.4397 91.8052 76.6728 91.8052 76.6728C91.7588 77.0411 91.4616 77.379 90.9289 77.5986C89.8703 78.0311 88.2774 77.8284 87.3717 77.1442C87.2434 77.0459 87.128 76.9324 87.0281 76.8063C86.7823 76.4988 86.7377 76.3383 86.7772 76.0393C86.7772 75.9801 86.8287 75.6237 86.8579 75.3956C86.8407 75.6307 86.8845 75.8663 86.9852 76.0802C87.0859 76.2942 87.2402 76.4795 87.4336 76.6188Z" fill="#E2E2E2"/>
<path d="M87.3958 74.7537C86.638 75.2251 86.6277 76.0107 87.4336 76.6121C88.2396 77.2136 89.5885 77.4484 90.6213 77.1848L87.3958 74.7537Z" fill="#EDEEEF"/>
<path d="M93.2109 72.6047C92.1524 73.0389 92.0269 73.9444 92.9325 74.6321C93.8381 75.3197 95.4311 75.519 96.4896 75.0848C97.5482 74.6506 97.6736 73.7451 96.768 73.0575C95.8624 72.3698 94.2677 72.1705 93.2109 72.6047Z" fill="#CACBCC"/>
<path d="M93.6165 72.2246L93.5838 72.4881L96.8093 74.926L96.8419 74.6624L93.6165 72.2246Z" fill="#D6D6D6"/>
<path d="M97.3721 74.1607C97.4013 73.9327 97.3721 74.1236 97.4048 73.8972C97.3754 74.058 97.3096 74.2103 97.2122 74.3427C97.1148 74.4752 96.9883 74.5845 96.842 74.6625L96.8093 74.926C96.9555 74.848 97.0819 74.7387 97.1794 74.6062C97.2768 74.4737 97.3426 74.3215 97.3721 74.1607Z" fill="#E2E2E2"/>
<path d="M93.6165 72.2246L96.8419 74.6624C97.6015 74.1911 97.6118 73.4072 96.8059 72.804C95.9999 72.2009 94.651 71.9627 93.6165 72.2246Z" fill="#EDEEEF"/>
<path d="M92.9566 74.3718C93.7625 74.9817 95.1115 75.2165 96.146 74.9462L96.1133 75.2013C96.2411 75.1708 96.3664 75.1307 96.4879 75.0814C96.6002 75.0341 96.7083 74.9775 96.811 74.9124L96.8419 74.6573C96.988 74.5794 97.1143 74.4701 97.2115 74.3376C97.3088 74.2051 97.3745 74.0528 97.4039 73.892L97.3712 74.1556C97.3712 74.1927 97.3282 74.4242 97.3282 74.4242C97.2818 74.7942 96.9846 75.1321 96.4519 75.35C95.3933 75.7842 93.8003 75.5815 92.8947 74.8972C92.7661 74.7994 92.6506 74.6858 92.5511 74.5593C92.3053 74.2519 92.2623 74.0913 92.3001 73.7923C92.3001 73.7349 92.3517 73.3767 92.3809 73.1486C92.3639 73.3837 92.4077 73.6193 92.5084 73.8332C92.6091 74.0471 92.7633 74.2324 92.9566 74.3718Z" fill="#E2E2E2"/>
<path d="M92.9205 72.5084C92.161 72.9797 92.1507 73.7636 92.9566 74.3668C93.7625 74.9699 95.1115 75.2115 96.146 74.9412L92.9205 72.5084Z" fill="#EDEEEF"/>
<path d="M92.594 70.9844C92.7659 71.1111 92.7418 71.2784 92.5476 71.3578L74.2654 78.886C74.1574 78.9244 74.0417 78.9369 73.9278 78.9225C73.8139 78.9081 73.7052 78.8672 73.6106 78.8032C73.5724 78.7852 73.5408 78.7558 73.5204 78.7193C73.5 78.6827 73.4917 78.6407 73.4969 78.5993C73.502 78.5579 73.5202 78.5191 73.5489 78.4884C73.5777 78.4577 73.6155 78.4366 73.657 78.4281L91.9393 70.8999C92.0475 70.8622 92.1632 70.8502 92.277 70.8649C92.3908 70.8795 92.4994 70.9205 92.594 70.9844Z" fill="#808488"/>
<path d="M106.47 81.1583L106.431 82.3578C106.419 82.743 106.151 83.1214 105.626 83.4019C104.571 83.9662 102.877 83.9205 101.846 83.2971C101.33 82.9846 101.078 82.5859 101.09 82.1939L101.128 80.9961C101.116 81.3881 101.367 81.7868 101.884 82.0993C102.915 82.721 104.601 82.7751 105.664 82.2041C106.18 81.9236 106.456 81.5452 106.47 81.1583Z" fill="#E2E2E2"/>
<path d="M105.713 80.0534C106.744 80.6768 106.72 81.6381 105.665 82.2024C104.61 82.7667 102.915 82.7194 101.884 82.0977C100.853 81.476 100.879 80.5147 101.934 79.9487C102.989 79.3827 104.685 79.4334 105.713 80.0534Z" fill="#F5F5F5"/>
<path d="M111.988 74.9615L111.949 76.161C111.938 76.5462 111.668 76.9246 111.144 77.2051C110.089 77.7693 108.395 77.722 107.364 77.1003C106.848 76.7878 106.596 76.389 106.608 75.9971L106.646 74.7993C106.634 75.1895 106.884 75.5899 107.402 75.9025C108.433 76.5242 110.118 76.5783 111.174 76.0072C111.698 75.7268 111.966 75.3483 111.979 74.9615H111.988Z" fill="#E2E2E2"/>
<path d="M111.23 73.8583C112.261 74.4817 112.237 75.443 111.182 76.0073C110.127 76.5716 108.432 76.5243 107.41 75.9025C106.387 75.2808 106.404 74.3195 107.46 73.7535C108.515 73.1876 110.202 73.2366 111.23 73.8583Z" fill="#F5F5F5"/>
<path d="M114.923 80.5602L114.885 81.758C114.873 82.1449 114.603 82.5234 114.079 82.8038C113.026 83.3681 111.33 83.3208 110.309 82.6991C109.794 82.3848 109.539 81.9861 109.553 81.5959L109.591 80.398C109.577 80.7883 109.83 81.187 110.347 81.4996C111.378 82.123 113.064 82.1754 114.117 81.6043C114.641 81.3256 114.911 80.9471 114.923 80.5602Z" fill="#E2E2E2"/>
<path d="M114.175 79.4503C115.206 80.072 115.18 81.035 114.125 81.5976C113.07 82.1602 111.376 82.1162 110.355 81.4928C109.334 80.8694 109.348 79.9098 110.403 79.3456C111.458 78.7813 113.144 78.8286 114.175 79.4503Z" fill="#F5F5F5"/>
<g opacity="0.2">
<path opacity="0.2" d="M125.894 66.1829C129.086 67.994 129.102 70.932 125.928 72.7448C122.754 74.5576 117.599 74.5576 114.414 72.7448C111.23 70.932 111.206 67.9957 114.377 66.1829C117.547 64.3702 122.699 64.3702 125.894 66.1829Z" fill="#191617"/>
</g>
<path d="M127.023 61.0928C127.023 61.7398 127.023 58.2612 127.023 56.4654C127.023 55.8876 125.57 59.5064 124.976 59.9135C124.85 59.8308 124.723 59.7446 124.588 59.6686C120.963 57.5229 114.837 57.6412 111.452 59.9507C110.077 59.0215 109.39 57.8777 109.39 56.7407C109.39 56.8759 109.405 67.5769 109.41 67.7121C109.411 67.7036 109.411 67.6952 109.41 67.6867C109.41 72.1418 118.929 74.4986 124.464 71.2346C127.646 69.3677 127.043 68.2899 127.023 61.0928Z" fill="#E2E2E2"/>
<path d="M110.618 62.8209C110.618 63.8346 111.325 64.9124 112.737 65.7487C115.65 67.472 120.47 67.5193 123.506 65.8568C125.069 65.0003 125.854 63.8565 125.85 62.7144L110.618 62.8209Z" fill="#071E2A"/>
<path d="M110.627 67.173L110.617 59.3035C110.617 59.366 110.579 58.8761 110.677 58.9318C112.15 59.7664 124.1 59.3136 125.732 58.5044C125.856 58.4436 125.849 59.3339 125.849 59.2596L125.859 67.1291C125.859 68.2711 125.077 69.4132 123.515 70.2697C120.481 71.9339 115.659 71.8866 112.748 70.1633C111.333 69.3186 110.631 68.2492 110.627 67.173Z" fill="#8DD6A2"/>
<path d="M125.184 53.529C122.85 51.7652 119.078 51.2466 116.258 51.6706C109.496 52.5897 107.134 57.4148 111.835 60.2041C115.208 62.1993 120.792 62.255 124.307 60.3274C127.564 58.5416 127.767 55.7912 125.598 53.8635L125.184 53.529ZM121.687 58.4893C119.68 59.5891 116.49 59.557 114.566 58.4183C112.641 57.2796 112.706 55.4634 114.714 54.3636C116.721 53.2638 119.908 53.2959 121.835 54.4346C123.761 55.5733 123.694 57.3827 121.687 58.4842V58.4893Z" fill="#EFEFEF"/>
<path d="M124.297 54.0139C124.28 53.6355 124.23 52.4934 122.524 51.4561C122.55 51.475 122.571 51.5007 122.584 51.5305C122.597 51.5602 122.602 51.5929 122.598 51.625C123.73 52.3008 124.294 53.1573 124.297 54.0223V54.0139Z" fill="#436663"/>
<path d="M124.297 54.5528C124.297 53.9261 124.469 52.7232 122.598 51.6166V52.1572C123.73 52.833 124.294 53.6895 124.295 54.5528H124.297Z" fill="#85CCC6"/>
<path d="M122.524 51.456C118.425 49.2023 112.184 50.7532 112.089 54.0476C112.081 50.9508 118.767 49.3493 122.598 51.6165C122.602 51.5844 122.597 51.5517 122.584 51.522C122.571 51.4922 122.55 51.4665 122.524 51.4476V51.456Z" fill="#436663"/>
<path d="M122.596 52.1572V51.6166C118.771 49.3527 112.077 50.9408 112.088 54.0477V54.5884C112.088 51.473 118.79 49.9018 122.598 52.1572H122.596Z" fill="#85CCC6"/>
<path d="M113.164 56.4349C113.701 56.4349 114.136 56.0818 114.136 55.651C114.136 57.6665 118.42 58.7224 121.01 57.3033C121.843 56.8471 122.261 56.2373 122.259 55.6274C122.259 56.0582 122.699 56.4079 123.235 56.4062C123.235 57.1614 122.72 57.9166 121.689 58.4842C119.681 59.584 116.492 59.552 114.567 58.4133C113.633 57.8591 113.167 57.1479 113.165 56.4349H113.164Z" fill="#EAEAEA"/>
<path d="M114.136 55.6509C114.177 56.5987 115.865 57.3775 117.415 57.5093C120.152 57.7458 122.226 56.6443 122.259 55.6256C122.259 56.2355 121.843 56.8453 121.01 57.3015C118.422 58.7206 114.136 57.6647 114.136 55.6492V55.6509Z" fill="#6AA29D"/>
<path d="M122.324 51.4155C124.543 52.7282 124.467 54.8215 122.153 56.0902C119.838 57.359 116.164 57.3219 113.945 56.0075C111.727 54.6931 111.801 52.6015 114.117 51.3344C116.434 50.0673 120.104 50.1028 122.324 51.4155Z" fill="#8FDCA5"/>
<path d="M124.256 54.0139C124.256 54.0139 122.642 56.7914 118.147 56.7914C113.652 56.7914 112.047 53.796 112.047 53.796V50.4526L124.309 50.7752L124.256 54.0139Z" fill="#7FD196"/>
<path d="M118.267 50.35C119.394 50.3618 121.044 50.5544 122.51 51.4075C122.48 51.3936 122.448 51.3877 122.415 51.3903C122.382 51.393 122.351 51.4042 122.324 51.4228C120.108 50.1117 116.441 50.0712 114.133 51.3417C111.825 52.6121 111.748 54.6952 113.961 56.0063C116.174 57.3173 119.843 57.3578 122.153 56.089C124.462 54.8203 124.538 52.7338 122.324 51.4228C122.351 51.4042 122.382 51.393 122.415 51.3903C122.448 51.3877 122.48 51.3936 122.51 51.4075C122.594 51.4616 122.711 51.5275 122.792 51.5866C125.082 53.2491 124.613 55.3034 122.403 56.5232C119.951 57.8748 116.057 57.8292 113.703 56.4371C109.941 54.2053 112.767 50.2959 118.267 50.35Z" fill="#6D6E71"/>
<path d="M113.96 51.3208C116.456 49.9845 120.132 50.0233 122.51 51.407C122.481 51.393 122.448 51.3871 122.415 51.3898C122.383 51.3924 122.352 51.4036 122.325 51.4222C120.108 50.1112 116.441 50.0706 114.133 51.3411C111.825 52.6116 111.748 54.6947 113.961 56.0057C116.175 57.3167 119.843 57.3573 122.153 56.0885C124.463 54.8197 124.538 52.7332 122.325 51.4222C122.352 51.4036 122.383 51.3924 122.415 51.3898C122.448 51.3871 122.481 51.393 122.51 51.407C125.071 53.0288 124.753 55.2353 122.404 56.5226C119.952 57.8742 116.058 57.8286 113.703 56.4365C111.143 54.916 111.641 52.5507 113.96 51.3208Z" fill="#7FD196"/>
<path d="M111.988 54.5596V54.0156C111.998 57.0701 118.482 58.6683 122.403 56.5193C123.666 55.8267 124.294 54.9025 124.294 53.9852C124.294 54.6119 124.486 55.9247 122.403 57.0684C119.95 58.42 116.054 58.3744 113.701 56.9823C112.559 56.3065 111.983 55.4347 111.983 54.5647L111.988 54.5596Z" fill="#E6E7E8"/>
<path d="M122.056 47.6768C119.639 46.4435 116.365 46.6074 114.272 47.7224C109.192 50.3377 113.512 55.4838 120.152 54.2015C124.964 53.2723 125.639 49.4406 122.056 47.6768Z" fill="#8FDCA5"/>
<path d="M121.776 47.9048C123.678 49.0316 123.613 50.8242 121.63 51.9105C119.647 52.9968 116.499 52.9664 114.597 51.8412C112.694 50.716 112.76 48.9218 114.743 47.8355C116.726 46.7492 119.874 46.7796 121.776 47.9048Z" fill="#8DD6A2"/>
<path d="M123.67 71.9443C123.67 71.9443 123.659 71.9303 123.67 71.9443V71.9443Z" fill="#14A797"/>
<path d="M118.235 69.5586C117.129 69.5889 116.024 69.4603 114.956 69.1767C113.857 68.9113 112.842 68.3832 112 67.6393V61.7262C113.014 62.2371 114.086 62.6289 115.193 62.8937C116.193 63.1059 117.211 63.2292 118.235 63.2619V69.5586Z" fill="#E6E7E8"/>
<path opacity="0.22" d="M56.3251 60.0875L40.141 66.9636L33.8069 66.2321L17.2568 54.1423L17.7431 49.8325L32.8412 41.4393L40.4263 42.3212L56.7272 56.4873L56.3251 60.0875Z" fill="#F0F2F3"/>
<path d="M36.5014 45.7338L21.3312 54.2115L37.95 66.3536L52.8693 60.0114L36.5014 45.7338Z" fill="#F2CAAA"/>
<path d="M18.2449 47.7494L34.8638 59.8916L37.95 66.3537L21.3312 54.2116L18.2449 47.7494Z" fill="#F7D7B5"/>
<path d="M20.5751 52.6285L21.3312 54.2115L37.95 66.3536L37.1939 64.7706L20.5751 52.6285Z" fill="#EAC5A4"/>
<path d="M31.7586 61.8293L26.0895 57.6884L23.7868 52.8684L29.4559 57.0093L31.7586 61.8293Z" fill="#F7D7B5"/>
<path d="M57.4008 54.4329L53.988 58.6363L52.8693 60.0115L37.95 66.3537L39.0687 64.9768L42.4815 60.7735L57.4008 54.4329Z" fill="#EFCCAF"/>
<path d="M57.8871 50.1044L41.5192 35.8268L33.9014 34.9449L18.7312 43.4226L18.2449 47.7493L34.8638 59.8915L42.4815 60.7733L57.3991 54.4328L57.8871 50.1044Z" fill="#4F4F4F"/>
<path d="M58.3846 49.9861L41.6145 35.4146L33.8129 34.5107L18.2818 43.1422L17.7835 47.5736L34.8044 60.0097L42.6061 60.9135L57.8862 54.4176L58.3846 49.9861Z" fill="#FCE4CA"/>
<path d="M33.8121 34.5107L19.7709 42.3143L38.0583 54.1186L40.794 54.4396L56.0742 47.9436L55.9865 45.9467L33.8121 34.5107Z" fill="#FCE4CA"/>
<path d="M17.7835 47.5737L34.8044 60.0098L39.8171 50.9408L22.7961 38.5064L17.7835 47.5737Z" fill="#FFE3C0"/>
<path d="M21.0391 41.6826L38.0583 54.1187L39.8145 50.9408L22.7953 38.5064L21.0391 41.6826Z" fill="#FFE3C0"/>
<path d="M58.3837 49.9862L41.6137 35.4146L38.0738 32.0104L55.0964 44.4465L58.3837 49.9862Z" fill="#818181"/>
<path d="M57.8854 54.4193L42.6052 60.9136L40.794 54.4396L39.8162 50.9407L55.0964 44.4464L56.0742 47.9436L57.8854 54.4193Z" fill="#F9D8B4"/>
<path d="M57.8854 54.4193L42.6052 60.9136L40.794 54.4396L56.0742 47.9436L57.8854 54.4193Z" fill="#F9D8B4"/>
<path d="M55.0964 44.4465L39.8162 50.9407L38.5085 49.9862L24.103 39.4609L22.7936 38.5063L38.0738 32.0104L39.3832 32.9649L53.7887 43.4902L55.0964 44.4465Z" fill="#FCEDDE"/>
<path d="M23.3899 38.2748L38.072 32.034L54.5706 44.0883L39.8884 50.3291L23.3899 38.2748Z" fill="#FCEDDE"/>
<path d="M38.5085 49.9862L33.4959 59.0535L30.6416 56.9688L21.9464 50.6164L19.0904 48.5299L24.103 39.4609L38.5085 49.9862Z" fill="#FFE3C0"/>
<path d="M32.5731 52.1588L30.6416 56.9686L21.9464 50.6163L25.1169 46.2829C25.2201 46.1416 25.3509 46.0219 25.5017 45.9309C25.6525 45.8399 25.8202 45.7793 25.9951 45.7527C26.1699 45.7261 26.3484 45.7341 26.5201 45.7761C26.6919 45.8181 26.8533 45.8933 26.9951 45.9973L31.8067 49.5097C32.2127 49.8071 32.5078 50.2278 32.6463 50.7066C32.7849 51.1854 32.7591 51.6958 32.5731 52.1588Z" fill="#F9E4CD"/>
<path d="M22.7944 38.5064L21.0399 41.6826V41.6843L17.7835 47.5737L18.2818 43.1423L21.2135 40.13L22.7944 38.5064Z" fill="#FCE4CA"/>
<path d="M22.7936 38.5064L21.0391 41.6826L21.2126 40.13L22.7936 38.5064Z" fill="#FCE4CA"/>
<path d="M58.3837 49.9862L55.0964 44.4464L57.8854 54.4176L58.3837 49.9862Z" fill="#FCE4CA"/>
<path d="M56.0742 47.9436L56.2495 46.3893L55.0964 44.4464L56.0742 47.9436Z" fill="#FCE4CA"/>
<path d="M26.1617 53.0965L24.4862 50.76L28.7118 53.8483L26.1617 53.0965Z" fill="#BB7959"/>
<path d="M25.5052 50.466C25.3231 50.3325 25.3162 50.1281 25.4434 49.8983L25.6444 49.5436C25.763 49.3324 25.9486 49.2445 26.1239 49.3746C26.2991 49.5047 26.3112 49.7125 26.1857 49.9406L25.9847 50.2953C25.8627 50.5116 25.6943 50.6045 25.5052 50.4643V50.466ZM26.2734 49.1144C25.964 48.888 25.6358 48.9979 25.4142 49.3966L25.2286 49.7243C24.9966 50.1348 25.0567 50.5065 25.3609 50.738C25.6651 50.9694 25.9933 50.8681 26.2201 50.4575L26.4057 50.1298C26.6308 49.7311 26.5775 49.3459 26.2716 49.1161L26.2734 49.1144Z" fill="#BB7959"/>
<path d="M26.7185 50.5031L26.9745 50.0504L27.2219 50.2311C27.2753 50.2731 27.3105 50.3334 27.3204 50.3999C27.3303 50.4664 27.3141 50.5341 27.2752 50.5893C27.1979 50.7278 27.0742 50.7583 26.9659 50.6856L26.7185 50.5031ZM27.4058 49.9794L26.9075 49.6162L26.0276 51.1722L26.2545 51.3411L26.5758 50.7734L26.8473 50.9711C27.0707 51.1401 27.3457 51.0573 27.5141 50.7599C27.5976 50.6404 27.6328 50.4945 27.6128 50.3508C27.5928 50.2071 27.519 50.0759 27.4058 49.9828V49.9794Z" fill="#BB7959"/>
<path d="M28.7032 50.934L27.9059 50.3512L27.026 51.9071L27.832 52.4968L27.9832 52.2298L27.4041 51.8075L27.6206 51.424L28.1413 51.8041L28.2942 51.5355L27.7736 51.1553L27.9815 50.787L28.552 51.2026L28.7032 50.934Z" fill="#BB7959"/>
<path d="M29.7927 51.7297L29.5659 51.5642L28.8424 52.8431L28.8218 52.8296L29.2669 51.3462L28.8613 51.0489L27.9815 52.6049L28.2117 52.7738L28.9352 51.4932L28.9558 51.5084L28.509 52.9901L28.9129 53.2857L29.7927 51.7297Z" fill="#BB7959"/>
<path d="M53.988 58.6362L52.8693 60.0115L37.95 66.3537L39.055 64.9835L39.0687 64.9768L53.988 58.6362Z" fill="#EAC5A4"/>
<path d="M39.0687 64.9767L37.1939 64.7706L37.95 66.3536L39.0687 64.9767Z" fill="#F2CAAA"/>
<path d="M37.3847 35.7982L33.5663 37.5248L34.1936 37.9742L35.7539 37.268L36.9585 38.1314L37.5926 37.8442L36.388 36.9808L37.3744 36.5365L38.7285 37.5063L39.366 37.2174L37.3847 35.7982Z" fill="#BB7959"/>
<path d="M37.804 39.8598C37.7726 39.8422 37.7422 39.823 37.7129 39.8023C37.4998 39.6486 37.4414 39.4813 37.5411 39.2955C37.6407 39.1096 37.8847 38.9373 38.2765 38.7616L38.4638 38.6771C38.7999 38.5137 39.1655 38.4173 39.5396 38.3933C39.7844 38.3763 40.029 38.4291 40.2441 38.5454C40.2755 38.5629 40.3059 38.5821 40.3352 38.6028C40.5466 38.7548 40.605 38.9187 40.507 39.0944C40.4091 39.2701 40.1633 39.4492 39.7664 39.63L39.5791 39.7145C39.2425 39.8766 38.8772 39.9735 38.5034 40C38.2582 40.019 38.0128 39.9673 37.7971 39.8513L37.804 39.8598ZM40.7957 38.1906C40.5709 38.0656 40.3273 37.9767 40.074 37.927C39.7066 37.8553 39.3295 37.8456 38.9587 37.8983C38.5586 37.9524 38.1691 38.0664 37.804 38.2362L37.6149 38.3207C37.3071 38.4462 37.0313 38.6372 36.8073 38.8799C36.727 38.9612 36.6677 39.0602 36.6342 39.1686C36.6007 39.2771 36.5941 39.3918 36.6148 39.5033C36.6842 39.7466 36.8436 39.9557 37.0616 40.0895C37.1208 40.1328 37.1828 40.1723 37.2472 40.2078C37.4721 40.3339 37.7165 40.4229 37.9707 40.4713C38.3361 40.5444 38.7117 40.5547 39.0807 40.5017C39.4783 40.4458 39.8652 40.3319 40.2287 40.1639L40.4005 40.0878C40.714 39.9593 40.9963 39.767 41.2288 39.5235C41.3102 39.4424 41.3707 39.3434 41.4054 39.2347C41.44 39.126 41.4478 39.0107 41.4281 38.8985C41.3591 38.6545 41.1997 38.4447 40.9813 38.3105C40.9229 38.2683 40.861 38.2294 40.7974 38.1923" fill="#BB7959"/>
<path d="M40.7597 41.9765C40.7288 41.959 40.699 41.9398 40.6703 41.9191C40.4555 41.7653 40.3988 41.5981 40.4985 41.4207C40.5981 41.2433 40.8421 41.0625 41.2357 40.8868L41.4212 40.8023C41.7574 40.6391 42.1229 40.5427 42.497 40.5185C42.7424 40.5016 42.9875 40.5544 43.2032 40.6706C43.2346 40.6881 43.265 40.7073 43.2943 40.728C43.5057 40.8801 43.5641 41.0422 43.4662 41.2196C43.3682 41.397 43.1225 41.5744 42.7255 41.7552L42.5399 41.8397C42.2025 42.0015 41.8369 42.0989 41.4625 42.1269C41.2173 42.1434 40.9724 42.0913 40.7562 41.9765H40.7597ZM43.7566 40.3175C43.5322 40.1913 43.2884 40.1017 43.0348 40.0522C42.6674 39.9805 42.2903 39.9708 41.9196 40.0235C41.5194 40.0775 41.1299 40.1914 40.7648 40.3614L40.5741 40.4459C40.2665 40.5719 39.9908 40.7628 39.7664 41.0051C39.6867 41.0868 39.6278 41.1858 39.5943 41.2941C39.5609 41.4025 39.5539 41.517 39.5739 41.6285C39.643 41.8725 39.8023 42.0822 40.0207 42.2164C40.0792 42.257 40.1393 42.2958 40.2029 42.3313C40.4299 42.4572 40.6758 42.5468 40.9315 42.5965C41.297 42.6696 41.6725 42.6799 42.0416 42.627C42.4392 42.571 42.8261 42.4571 43.1895 42.2891L43.3613 42.213C43.6748 42.0854 43.9567 41.8929 44.1879 41.6488C44.2695 41.5677 44.3303 41.4688 44.3652 41.3601C44.4002 41.2514 44.4083 41.1361 44.389 41.0237C44.3199 40.7797 44.1606 40.57 43.9422 40.4357C43.8833 40.3934 43.8218 40.3544 43.7583 40.3192" fill="#BB7959"/>
<path d="M43.5108 43.8992C43.4696 43.8756 43.4284 43.8502 43.3871 43.8215L43.0847 43.6036L45.6331 42.4514L45.9424 42.6727C46.1899 42.8416 46.2861 43.0292 46.2053 43.2116C46.1245 43.3941 45.9029 43.5732 45.5179 43.7472L45.3152 43.8384C44.9838 43.9963 44.6214 44.081 44.2532 44.0868C43.9938 44.0894 43.7384 44.0247 43.5126 43.8992H43.5108ZM45.6451 41.7131L41.8302 43.4397L42.7736 44.1155C42.8372 44.1594 42.9025 44.2016 42.9712 44.2405C43.2055 44.3719 43.4587 44.4676 43.7222 44.5243C44.0939 44.6082 44.4774 44.6293 44.8563 44.5868C45.2444 44.5454 45.6232 44.4433 45.9785 44.2844L46.1503 44.205C46.4503 44.0836 46.7156 43.8922 46.9236 43.6475C46.9987 43.5593 47.0515 43.4547 47.0775 43.3425C47.1034 43.2303 47.102 43.1137 47.0731 43.0021C46.9857 42.747 46.8123 42.5289 46.5816 42.3838L45.6451 41.708" fill="#BB7959"/>
<path d="M32.7363 37.6093C32.6147 37.5393 32.4856 37.4827 32.3514 37.4403C32.1598 37.378 31.9587 37.3483 31.7569 37.3525C31.5737 37.3544 31.3929 37.3935 31.2259 37.4674C30.9234 37.6042 30.8134 37.8052 30.8994 38.0789C30.9474 38.2114 31.0133 38.337 31.0953 38.4523C31.1721 38.5518 31.2245 38.6675 31.2482 38.7902C31.2482 38.8628 31.1949 38.927 31.0764 38.9777C30.9689 39.0262 30.8487 39.0404 30.7327 39.0183C30.6372 39.0037 30.5456 38.971 30.4629 38.922C30.4337 38.9051 30.4062 38.8882 30.377 38.8679C30.0711 38.6466 30.078 38.4641 30.3993 38.3172L29.9199 37.9793C29.7617 38.0393 29.6274 38.1476 29.5367 38.2884C29.5044 38.3492 29.4876 38.4167 29.4876 38.4853C29.4876 38.5538 29.5044 38.6213 29.5367 38.6821C29.6196 38.8475 29.7459 38.988 29.9027 39.0892C29.9645 39.1332 30.0264 39.172 30.09 39.2092C30.2882 39.3224 30.5062 39.398 30.7327 39.4322C31.0121 39.4781 31.2991 39.4417 31.5575 39.3274C31.7861 39.2244 31.9132 39.0943 31.9407 38.9355C31.9682 38.7767 31.896 38.5773 31.7276 38.334C31.6512 38.2396 31.5978 38.1292 31.5713 38.0114C31.5647 37.9704 31.5736 37.9285 31.5964 37.8936C31.6193 37.8587 31.6543 37.8333 31.695 37.8221C31.8028 37.7749 31.9226 37.7608 32.0387 37.7816C32.1368 37.7961 32.2313 37.8287 32.3171 37.8779L32.4047 37.9336C32.5267 38.0215 32.5765 38.1026 32.5765 38.1871C32.5765 38.2715 32.4975 38.3391 32.3652 38.3999L32.8429 38.7378C32.9921 38.6814 33.1192 38.5796 33.2055 38.4472C33.2383 38.393 33.257 38.3316 33.2599 38.2686C33.2629 38.2055 33.2502 38.1427 33.2227 38.0857C33.1476 37.9355 33.0331 37.8078 32.891 37.7157C32.8377 37.6785 32.781 37.6431 32.7192 37.6093" fill="#BB7959"/>
<path d="M33.2519 38.8899L31.829 39.5336C31.573 39.6519 31.4269 39.7769 31.3908 39.9053C31.3547 40.0337 31.4286 40.1689 31.6142 40.3006C31.6457 40.3232 31.6784 40.3441 31.7122 40.3632C31.9066 40.4707 32.1266 40.5255 32.3497 40.522L32.1418 40.6318L32.5765 40.9426L34.7486 39.9611L34.2829 39.6232L32.7449 40.3192C32.5864 40.338 32.4259 40.3054 32.2878 40.2263C32.2633 40.2127 32.2398 40.1974 32.2174 40.1807C32.0456 40.0641 32.0833 39.9526 32.3102 39.8512L33.7141 39.216L33.2519 38.8781" fill="#BB7959"/>
<path d="M34.1626 41.5762L34.118 41.5474C33.9725 41.4438 33.9432 41.3391 34.0303 41.2332L34.9187 40.8311C35.0733 40.8084 35.2311 40.8369 35.3672 40.9122L35.4274 40.9511C35.5374 41.0288 35.5649 41.12 35.5116 41.2045C35.4134 41.329 35.281 41.4234 35.1301 41.4765C34.7074 41.6691 34.3843 41.7012 34.1626 41.5762ZM35.0974 40.2111L32.0919 41.5626L32.5542 41.9005L33.5853 41.4376C33.5406 41.5829 33.6059 41.7198 33.7794 41.8448C33.8082 41.8649 33.838 41.8835 33.8688 41.9005C34.0846 42.0155 34.3282 42.0704 34.5733 42.0593C34.9153 42.0501 35.2514 41.9701 35.5597 41.8245L35.5889 41.811C35.9326 41.6544 36.1463 41.4889 36.2299 41.3143C36.3089 41.1453 36.2436 40.9764 36.0306 40.8227C36.0039 40.8044 35.9764 40.7875 35.9481 40.772C35.7612 40.6716 35.5509 40.621 35.338 40.625L35.5357 40.5169L35.106 40.2094" fill="#BB7959"/>
<path d="M36.0099 42.8972L35.9653 42.8685C35.8192 42.7637 35.7934 42.659 35.8759 42.5542L36.7661 42.1522C36.9187 42.1298 37.0746 42.1577 37.2094 42.2316C37.2317 42.2451 37.2524 42.2569 37.273 42.2721C37.3812 42.3498 37.4104 42.4411 37.3572 42.5255C37.2583 42.6494 37.1262 42.7436 36.9757 42.7975C36.5518 42.9879 36.2299 43.0211 36.0099 42.8972ZM36.9431 41.5321L33.9358 42.8837L34.3998 43.2216L35.4308 42.757C35.3862 42.904 35.4515 43.0391 35.625 43.1658C35.6542 43.1861 35.6852 43.2047 35.7161 43.2233C35.931 43.3371 36.1733 43.3914 36.4172 43.3804C36.7591 43.3711 37.0952 43.2911 37.4036 43.1456L37.4345 43.132C37.7782 42.9749 37.9964 42.8094 38.0755 42.6354C38.1545 42.4613 38.0875 42.2975 37.8744 42.1454C37.848 42.1258 37.8205 42.1078 37.7919 42.0913C37.6054 41.9918 37.3959 41.9412 37.1836 41.9444L37.3795 41.8379L36.9516 41.5304" fill="#BB7959"/>
<path d="M37.8418 44.21L37.7919 44.1779C37.6768 44.0951 37.6425 44.009 37.6906 43.9144C37.7848 43.7847 37.9174 43.6868 38.0703 43.6339C38.2591 43.5385 38.4653 43.481 38.6769 43.465C38.8093 43.4561 38.9416 43.4842 39.0584 43.5461L39.1065 43.5765C39.22 43.6593 39.2526 43.7454 39.2045 43.8434C39.1118 43.9732 38.9803 44.0712 38.8282 44.1239C38.6384 44.2198 38.4309 44.2772 38.2181 44.2928C38.0873 44.2997 37.9571 44.2711 37.8418 44.21ZM39.4485 43.2893C39.3093 43.2108 39.1586 43.1538 39.0017 43.1203C38.78 43.0725 38.5515 43.0628 38.3264 43.0916C38.0921 43.121 37.8638 43.1853 37.6493 43.2825L37.6235 43.2926C37.2799 43.4503 37.0817 43.6272 37.029 43.8231C36.9757 44.0208 37.0754 44.2083 37.3245 44.3874C37.3666 44.4172 37.4102 44.4448 37.4551 44.4702C37.6905 44.6007 37.9549 44.6721 38.225 44.678C38.5803 44.6936 38.9341 44.624 39.256 44.4753L39.4004 44.406C39.6908 44.2539 39.8523 44.085 39.8833 43.8992C39.9142 43.7133 39.8128 43.5359 39.5808 43.3687C39.5407 43.3397 39.4988 43.3132 39.4554 43.2893" fill="#BB7959"/>
<path d="M40.6411 44.1795L38.469 45.1628L38.933 45.4922L40.3541 44.8502C40.5217 44.8257 40.6928 44.8585 40.8387 44.9431C40.8662 44.96 40.8937 44.9769 40.9194 44.9955C40.9725 45.0345 41.0231 45.0769 41.0707 45.1222L41.6343 44.8756C41.602 44.8302 41.5619 44.7908 41.5158 44.759L41.4573 44.7218C41.2641 44.6263 41.0461 44.5904 40.8318 44.6188L41.0793 44.4921L40.6411 44.1795Z" fill="#BB7959"/>
<path d="M42.5417 44.9128L42.0072 45.1544L41.7546 44.972L41.3302 45.1646L41.5828 45.3453L40.4125 45.8758C40.0087 46.0651 39.9675 46.2762 40.2922 46.5094C40.3305 46.5361 40.37 46.5609 40.4108 46.5837C40.4787 46.6235 40.55 46.6575 40.6239 46.6851L41.0638 46.4874L41.0105 46.4587C40.9796 46.4401 40.947 46.4199 40.9126 46.3962C40.8439 46.3455 40.8164 46.305 40.825 46.2712C40.8335 46.2374 40.8799 46.2036 40.9607 46.1664L42.045 45.6765L42.3406 45.8894L42.7668 45.6968L42.4695 45.4839L43.0039 45.2423L42.5417 44.9044" fill="#BB7959"/>
<path opacity="0.2" d="M46.0713 73.125L52.0531 79.0077L73.1501 70.0299L68.3248 68.0668L46.0713 73.125Z" fill="#CFD4D9"/>
<path d="M71.9713 65.1863L71.4661 68.7105C71.2461 70.2445 70.246 70.5689 70.246 70.5689L56.7633 75.8941C55.2287 76.6188 52.5789 76.2522 52.5789 76.2522C45.8324 75.6305 45.9338 71.5809 45.9338 71.5809L46.439 68.0567C46.439 68.0567 46.3359 72.1114 53.0841 72.7263C53.0841 72.7263 55.7339 73.0929 57.2685 72.3682L70.7495 67.0447C70.7495 67.0447 71.7513 66.7152 71.9713 65.1863Z" fill="#ECECEC"/>
<path d="M72.2119 63.4968L71.9713 65.1862C71.7513 66.7185 70.7495 67.0446 70.7495 67.0446L57.2685 72.3681C55.7339 73.0929 53.0841 72.7263 53.0841 72.7263C46.3359 72.1062 46.439 68.0566 46.439 68.0566L46.6951 66.2641C46.7896 65.6035 46.7827 64.7436 47.0078 64.0847C47.025 64.0323 47.0456 63.9799 47.0662 63.9309C47.0662 63.9157 47.08 63.8972 47.0886 63.882C47.6144 62.7382 49.1679 62.3969 50.235 61.9796C53.8299 60.574 57.4232 59.1075 61.0937 57.8911C61.9463 57.5976 62.8581 57.5092 63.7526 57.6332C64.6471 57.7572 65.4984 58.0902 66.2352 58.6041L71.253 62.424C72.1225 63.0153 72.2119 63.4968 72.2119 63.4968Z" fill="#EBBE73"/>
<path d="M72.2119 63.4967L71.9713 65.1862C71.7513 66.7185 70.7495 67.0446 70.7495 67.0446L57.2685 72.3681C55.7339 73.0929 53.0841 72.7262 53.0841 72.7262C46.3359 72.1062 46.439 68.0566 46.439 68.0566L46.8996 64.8365C46.8996 64.8365 46.7965 68.8912 53.5447 69.5078C53.5447 69.5078 56.1945 69.8744 57.729 69.1497L71.2152 63.8346C71.5529 63.6906 71.8356 63.4452 72.0228 63.1335C72.1089 63.2416 72.173 63.3649 72.2119 63.4967Z" fill="#F3F3F3"/>
<path d="M72.0194 63.1252C71.8322 63.4369 71.5495 63.6823 71.2117 63.8263L57.729 69.1515C56.1945 69.8763 53.5447 69.5096 53.5447 69.5096C46.7965 68.8879 46.8996 64.8383 46.8996 64.8383L47.0078 64.0865C47.025 64.0341 47.0456 63.9817 47.0662 63.9327C47.0662 63.9175 47.08 63.899 47.0886 63.8838C47.6144 62.74 49.1679 62.3987 50.235 61.9814C53.83 60.5758 57.4232 59.1093 61.0937 57.8929C61.9463 57.5994 62.8581 57.511 63.7526 57.635C64.6471 57.759 65.4984 58.092 66.2352 58.6059L71.253 62.4258C71.547 62.6145 71.8062 62.851 72.0194 63.1252Z" fill="#E8E9EA"/>
<path d="M69.4624 63.4967L56.8715 68.2863C56.5227 68.4192 56.1445 68.4596 55.7747 68.4035C55.405 68.3475 55.0567 68.197 54.7648 67.967L49.4205 63.7687C49.3501 63.7131 49.2958 63.6403 49.263 63.5576C49.2302 63.4749 49.2201 63.3852 49.2337 63.2974C49.2473 63.2097 49.284 63.127 49.3403 63.0576C49.3966 62.9882 49.4705 62.9346 49.5545 62.902L61.3222 58.4115C61.7896 58.2334 62.2952 58.175 62.7918 58.2418C63.2884 58.3086 63.7595 58.4984 64.1611 58.7933L69.5638 62.7652C69.6251 62.8103 69.673 62.8708 69.7026 62.9402C69.7321 63.0097 69.7422 63.0857 69.7319 63.1603C69.7216 63.2349 69.6911 63.3054 69.6437 63.3646C69.5963 63.4237 69.5337 63.4694 69.4624 63.4967Z" fill="#21242B"/>
<path d="M67.024 63.0914L55.923 67.337L50.9052 63.5171L61.5164 59.3594L67.024 63.0914Z" fill="#3F434C"/>
<path d="M48.3688 64.573L53.3642 68.5466C53.3642 68.5466 47.6179 67.5955 48.3688 64.573Z" fill="#21242B"/>
<path d="M46.7088 69.5012C46.7088 69.5012 46.9528 68.9099 47.8223 69.5012C48.6919 70.0925 51.431 72.0354 50.2281 72.6486C48.6248 73.4646 46.0197 71.1771 46.7088 69.5012Z" fill="#7D7E82"/>
</g>
<defs>
<clipPath id="clip0">
<rect width="111.041" height="78.5614" fill="white" transform="translate(17.2568 6.71924)"/>
</clipPath>
</defs>
</svg>
