<svg width="91" height="91" viewBox="0 0 91 91" fill="none" xmlns="http://www.w3.org/2000/svg">
<circle cx="45.5" cy="45.7812" r="45" fill="#F8D7D7"/>
<g clip-path="url(#clip0)">
<path d="M49.5533 21L76.5 33.6616L41.8287 43.7955L14.5 30.0868L49.5533 21Z" fill="#F8FAFE"/>
<path d="M76.3405 63.9096L41.7659 76V43.675L76.5 33.6615L76.3405 63.9096Z" fill="#E6EAEF"/>
<path d="M14.5 30.0868L14.5725 59.6701L41.7658 76V43.675L14.5 30.0868Z" fill="white"/>
<path d="M24.6067 35.1197L60.0113 25.9123L63.7471 27.664L28.5794 37.1141L24.6067 35.1197Z" fill="#FFD0D0"/>
<path d="M29.7559 26.1455L56.7912 39.3434L61.4215 38.0344L33.9816 25.0476L29.7559 26.1455Z" fill="#FFD0D0"/>
<path d="M56.7913 39.3434L61.4215 38.0344V48.4365L56.9573 50.3548L56.7913 39.3434Z" fill="#F9B7B7"/>
<path d="M24.6067 35.1197L28.5794 37.1141V48.3667L24.5906 45.936L24.6067 35.1197Z" fill="#F9AFAF"/>
<path d="M56.3722 64.2111L56.3626 64.016L56.282 64.0413V64.2365C55.1538 64.6363 55.0571 66.0437 55.0571 66.0437C55.0571 66.0437 55.6373 65.6899 55.863 65.9993C56.0023 65.8599 56.1661 65.7465 56.3465 65.6645L56.4125 67.1845C56.4183 67.2849 56.4183 67.3856 56.4125 67.486C56.398 67.5875 56.3142 67.578 56.3013 67.4955C56.2884 67.413 56.2433 67.44 56.2352 67.4955C56.2272 67.551 56.282 67.6891 56.3964 67.6367C56.4284 67.6219 56.4553 67.5983 56.4739 67.5687C56.4925 67.5392 56.502 67.5049 56.5012 67.4701L56.4883 67.1528L56.4206 65.628C56.5948 65.5613 56.7888 65.5647 56.9605 65.6375C56.9605 65.6375 57.4311 65.0869 57.7357 65.2377C57.7486 65.2424 57.5874 63.8509 56.3722 64.2111Z" fill="#5B534D"/>
<path d="M58.3512 64.1921C58.319 63.4543 57.7823 63.0211 57.1538 63.2226L55.4728 63.7669C54.8443 63.9699 54.3592 64.7347 54.3914 65.4725L54.4768 67.4463C54.509 68.1825 55.0473 68.6173 55.6759 68.4142L57.3568 67.8715C57.9854 67.6684 58.4705 66.9037 58.4383 66.1659L58.3512 64.1921ZM57.3423 67.5241L55.6598 68.0667C55.1972 68.2254 54.8008 67.8969 54.7766 67.3527L54.6896 65.3789C54.667 64.8347 55.0248 64.2682 55.4954 64.1207L57.1779 63.5781C57.6405 63.4194 58.0369 63.7478 58.0611 64.292L58.1465 66.2658C58.1627 66.8069 57.8049 67.3702 57.3423 67.5209V67.5241Z" fill="#5B534D"/>
<path d="M50.5267 68.7458L50.733 68.6792L50.6653 67.1036L51.0392 66.983L50.5186 66.1659L50.0835 67.2908L50.4574 67.1702L50.5267 68.7458Z" fill="#5B534D"/>
<path d="M50.1655 69.0948L50.1768 69.3376L52.533 68.576L52.5234 68.3333L50.1655 69.0948Z" fill="#5B534D"/>
<path d="M51.5034 66.8323L51.8773 66.7117L51.945 68.2873L52.1529 68.2206L52.0852 66.6451L52.4575 66.5245L51.9386 65.7073L51.5034 66.8323Z" fill="#5B534D"/>
<path d="M52.0353 64.8505L50.3527 65.3947C49.7242 65.5978 49.2391 66.3626 49.2713 67.0988L49.3583 69.0726C49.3905 69.8104 49.9272 70.2452 50.5558 70.0421L52.2383 69.4978C52.8653 69.2963 53.3504 68.53 53.3181 67.7938L53.2327 65.82C53.2005 65.0822 52.6622 64.6443 52.0353 64.8505ZM52.2222 69.1472L50.5397 69.6914C50.0771 69.8406 49.6807 69.5201 49.6565 68.9774L49.5711 67.0036C49.5469 66.4594 49.9047 65.8929 50.3672 65.7454L52.0498 65.2012C52.5139 65.052 52.9088 65.3725 52.933 65.9168L53.02 67.8906C53.0426 68.4332 52.6864 68.998 52.2222 69.1472Z" fill="#5B534D"/>
<path d="M46.0754 67.5304L46.0125 67.551L46.1737 67.9937L46.3091 67.862L46.4912 68.5681L46.2526 68.0445L46.1414 68.154L45.9126 67.5828L45.6128 67.678C45.6128 67.678 45.2824 68.6538 45.4049 69.1694C45.5113 69.6153 45.9932 69.4709 46.1221 69.4233L46.1705 70.6228C45.9894 70.7018 45.8202 70.8048 45.6676 70.929C45.6467 70.9449 45.6531 70.9798 45.6676 70.9719L46.7523 70.6276C46.7732 70.6276 46.778 70.5831 46.7523 70.58C46.5793 70.5509 46.4022 70.5568 46.2317 70.5974L46.1833 69.3995C46.3507 69.36 46.5027 69.2734 46.6209 69.1503C46.7391 69.0271 46.8183 68.8728 46.849 68.7061C46.9279 68.1254 46.5266 67.3828 46.5266 67.3828L46.0754 67.5304Z" fill="#5B534D"/>
<path d="M46.8828 66.4927L45.2003 67.0274C44.5717 67.2274 44.085 67.9905 44.114 68.7283L44.193 70.7053C44.222 71.4431 44.7571 71.881 45.3856 71.6811L47.0682 71.1464C47.6967 70.9465 48.1834 70.1833 48.1544 69.4455L48.0754 67.4685C48.0464 66.7307 47.5114 66.2928 46.8828 66.4927ZM47.8498 69.5407C47.8708 70.0849 47.5114 70.6514 47.044 70.7958L45.3631 71.3305C44.8989 71.4764 44.504 71.1543 44.4831 70.6101L44.4041 68.6331C44.3815 68.0889 44.7409 67.5225 45.2099 67.3797L46.8925 66.8434C47.355 66.6974 47.7499 67.0195 47.7725 67.5637L47.8498 69.5407Z" fill="#5B534D"/>
</g>
<defs>
<clipPath id="clip0">
<rect width="62" height="55" fill="white" transform="translate(14.5 21)"/>
</clipPath>
</defs>
</svg>
