<svg width="147" height="91" viewBox="0 0 147 91" fill="none" xmlns="http://www.w3.org/2000/svg">
<rect width="147" height="91" rx="6" fill="#F4FCF0"/>
<g clip-path="url(#clip0)">
<path d="M83.24 6L111.486 19.4819L75.1425 30.2724L46.4927 15.6755L83.24 6Z" fill="#F0F4FA"/>
<path d="M111.319 51.6897L75.0766 64.5634V30.1441L111.486 19.4819L111.319 51.6897Z" fill="#E6EAEF"/>
<path d="M46.4927 15.6755L46.5704 47.1754L75.0766 64.5633V30.144L46.4927 15.6755Z" fill="white"/>
<path d="M57.0873 21.0346L94.2012 11.2307L98.1191 13.0959L61.2535 23.1583L57.0873 21.0346Z" fill="#75D784"/>
<path d="M62.4851 11.4789L90.8257 25.5318L95.6795 24.138L66.9165 10.3098L62.4851 11.4789Z" fill="#75D784"/>
<path d="M90.8257 25.5317L95.6795 24.1379V35.214L90.9997 37.2566L90.8257 25.5317Z" fill="#66BF74"/>
<path d="M57.0873 21.0344L61.2535 23.1581V35.1397L57.0704 32.5514L57.0873 21.0344Z" fill="#66BF74"/>
<path d="M90.3864 52.0105L90.3763 51.8027L90.2918 51.8298V52.0376C89.1092 52.4633 89.0078 53.9618 89.0078 53.9618C89.0078 53.9618 89.616 53.5851 89.8526 53.9146C89.9987 53.7662 90.1704 53.6454 90.3594 53.5581L90.4287 55.1766C90.4348 55.2835 90.4348 55.3907 90.4287 55.4976C90.4135 55.6057 90.3256 55.5956 90.3121 55.5077C90.2986 55.4199 90.2513 55.4486 90.2428 55.5077C90.2344 55.5668 90.2918 55.7138 90.4118 55.6581C90.4453 55.6423 90.4735 55.6172 90.493 55.5857C90.5125 55.5542 90.5225 55.5177 90.5216 55.4807L90.5081 55.1428L90.4371 53.5192C90.6198 53.4482 90.8231 53.4518 91.0031 53.5294C91.0031 53.5294 91.4964 52.9431 91.8157 53.1036C91.8292 53.1087 91.6603 51.627 90.3864 52.0105Z" fill="#5B534D"/>
<path d="M92.4611 51.9904C92.4273 51.2048 91.8647 50.7435 91.2058 50.9581L89.4437 51.5376C88.7848 51.7538 88.2763 52.5682 88.3101 53.3538L88.3996 55.4555C88.4334 56.2394 88.9977 56.7023 89.6566 56.486L91.4187 55.9082C92.0776 55.692 92.5861 54.8776 92.5523 54.092L92.4611 51.9904ZM91.4035 55.5382L89.6397 56.116C89.1548 56.285 88.7392 55.9352 88.7139 55.3558L88.6226 53.2541C88.599 52.6746 88.974 52.0715 89.4674 51.9143L91.2312 51.3365C91.716 51.1676 92.1316 51.5173 92.157 52.0968L92.2465 54.1985C92.2634 54.7746 91.8884 55.3744 91.4035 55.5349V55.5382Z" fill="#5B534D"/>
<path d="M84.2588 56.8391L84.4767 56.7681L84.4041 55.0905L84.796 54.9621L84.2503 54.092L83.7959 55.2899L84.1861 55.1615L84.2588 56.8391Z" fill="#5B534D"/>
<path d="M83.8803 57.2108L83.8922 57.4693L86.3622 56.6584L86.352 56.3999L83.8803 57.2108Z" fill="#5B534D"/>
<path d="M85.2826 54.8016L85.6745 54.6732L85.7472 56.3508L85.9651 56.2799L85.8925 54.6022L86.2844 54.4738L85.7387 53.6038L85.2826 54.8016Z" fill="#5B534D"/>
<path d="M85.8401 52.6916L84.0763 53.271C83.4174 53.4873 82.9089 54.3016 82.9427 55.0855L83.0339 57.1872C83.0677 57.9728 83.6303 58.4357 84.2892 58.2195L86.053 57.64C86.7102 57.4254 87.2187 56.6094 87.1849 55.8255L87.0954 53.7238C87.0616 52.9382 86.4973 52.4719 85.8401 52.6916ZM86.0361 57.2666L84.2723 57.8461C83.7874 58.0049 83.3718 57.6636 83.3465 57.0858L83.2569 54.9841C83.2316 54.4047 83.6066 53.8015 84.0915 53.6444L85.8553 53.0649C86.3419 52.9061 86.7558 53.2474 86.7811 53.8269L86.8724 55.9285C86.896 56.5063 86.5226 57.1078 86.0361 57.2666Z" fill="#5B534D"/>
<path d="M79.5925 55.545L79.5266 55.567L79.6956 56.0384L79.8375 55.8982L80.0284 56.65L79.7784 56.0924L79.6618 56.209L79.4219 55.6008L79.1076 55.7022C79.1076 55.7022 78.7613 56.7412 78.8897 57.2903C79.0012 57.765 79.5063 57.6113 79.6415 57.5606L79.6922 58.8378C79.5024 58.9219 79.3251 59.0316 79.1651 59.1639C79.1431 59.1808 79.1499 59.2179 79.1651 59.2095L80.3021 58.8429C80.324 58.8429 80.3291 58.7956 80.3021 58.7922C80.1208 58.7612 79.9351 58.7675 79.7564 58.8108L79.7057 57.5352C79.8811 57.4932 80.0405 57.401 80.1644 57.2699C80.2883 57.1388 80.3714 56.9744 80.4034 56.7969C80.4862 56.1786 80.0656 55.3879 80.0656 55.3879L79.5925 55.545Z" fill="#5B534D"/>
<path d="M80.4389 54.4402L78.6751 55.0095C78.0162 55.2224 77.506 56.035 77.5364 56.8206L77.6192 58.9257C77.6496 59.7113 78.2105 60.1776 78.8694 59.9647L80.6332 59.3954C81.2921 59.1825 81.8023 58.3699 81.7719 57.5843L81.6891 55.4792C81.6587 54.6936 81.0978 54.2273 80.4389 54.4402ZM81.4526 57.6856C81.4745 58.2651 81.0978 58.8683 80.6078 59.022L78.8458 59.5913C78.3592 59.7468 77.9453 59.4038 77.9233 58.8243L77.8405 56.7193C77.8169 56.1398 78.1936 55.5366 78.6852 55.3846L80.449 54.8136C80.9339 54.6581 81.3478 55.0011 81.3715 55.5806L81.4526 57.6856Z" fill="#5B534D"/>
<path d="M110.031 42.8521C107.073 41.144 102.289 41.144 99.3473 42.8521C97.8826 43.6968 97.151 44.8186 97.151 45.9336V45.9455L97.102 63.4313C97.102 64.5582 97.842 65.6884 99.3321 66.5484C102.292 68.2564 107.073 68.2581 110.013 66.5484C111.474 65.7036 112.209 64.5886 112.209 63.4753L112.258 45.9657C112.262 46.0519 111.62 43.7694 110.031 42.8521Z" fill="#F2F6F9"/>
<path d="M113.116 45.6179L113.062 46.9204C113.062 48.1436 112.255 49.3651 110.65 50.2993C107.416 52.178 102.16 52.1763 98.9081 50.2993C97.2693 49.3549 96.4533 48.1132 96.455 46.8748L96.5107 45.5706C96.5107 46.8106 97.325 48.0524 98.9621 48.9968C102.214 50.8755 107.472 50.8771 110.704 48.9968C112.309 48.0625 113.113 46.841 113.116 45.6179Z" fill="#EEEEEE"/>
<path d="M110.67 42.1933C113.924 44.072 113.941 47.1181 110.709 48.9967C107.477 50.8754 102.219 50.872 98.9672 48.9967C95.715 47.1214 95.6947 44.0754 98.9266 42.1967C102.159 40.318 107.418 40.3079 110.67 42.1933Z" fill="#E8E6E6"/>
<path d="M110.244 37.1959C113.203 38.9056 113.219 41.6763 110.278 43.386C107.337 45.0957 102.556 45.0924 99.5957 43.386C96.6358 41.6797 96.6189 38.9073 99.5585 37.1975C102.498 35.4878 107.288 35.4878 110.244 37.1959Z" fill="#E0E0E0"/>
<path d="M112.478 40.3078L112.427 44.9302C112.427 46.0419 111.692 47.1535 110.231 48.0016C107.289 49.7114 102.508 49.7097 99.5483 48.0016C98.0582 47.1417 97.3149 46.0131 97.3183 44.8863L97.3673 40.2639C97.3673 41.3908 98.1072 42.521 99.5973 43.381C102.557 45.089 107.34 45.0907 110.28 43.381C111.743 42.5362 112.474 41.4263 112.478 40.3078Z" fill="#EEEEEE"/>
<path d="M112.478 40.3078L112.427 44.9302C112.427 46.0419 111.692 47.1535 110.231 48.0016C107.289 49.7114 102.508 49.7097 99.5483 48.0016C98.0582 47.1417 97.3149 46.0131 97.3183 44.8863L97.3673 40.2639C97.3673 41.3908 98.1072 42.521 99.5973 43.381C102.557 45.089 107.34 45.0907 110.28 43.381C111.741 42.5362 112.476 41.4212 112.476 40.3078H112.478Z" fill="#EEEEEE"/>
<path d="M104.319 49.272C104.681 49.2878 105.042 49.2878 105.402 49.272V44.6514C105.042 44.6649 104.679 44.6649 104.319 44.6514V49.272Z" fill="#E8E6E6"/>
<path d="M110.244 37.1959C113.203 38.9056 113.219 41.6763 110.278 43.386C107.337 45.0957 102.556 45.0924 99.5957 43.386C96.6358 41.6797 96.6189 38.9073 99.5585 37.1975C102.498 35.4878 107.288 35.4878 110.244 37.1959Z" fill="#E8E6E6"/>
<path d="M111.687 42.2455C111.636 42.3047 111.586 42.3604 111.532 42.4145C111.478 42.4686 111.434 42.5125 111.383 42.5598C111.236 42.7001 111.08 42.8321 110.918 42.9551L110.871 42.9923V47.5724C111.296 47.2611 111.663 46.8767 111.954 46.4371V41.9026C111.919 41.955 111.878 42.0056 111.837 42.0563C111.797 42.107 111.739 42.1864 111.687 42.2455Z" fill="#E8E6E6"/>
<path d="M109.308 43.8556C109.129 43.9299 108.947 43.9975 108.761 44.06V48.6638C109.132 48.5358 109.494 48.3834 109.846 48.2076V43.6123C109.677 43.6934 109.508 43.7694 109.339 43.8421L109.308 43.8556Z" fill="#E8E6E6"/>
<path d="M106.575 44.5601V49.1757C106.941 49.1267 107.305 49.0642 107.658 48.9848V44.3726H107.631C107.293 44.4469 106.955 44.506 106.6 44.5516L106.575 44.5601Z" fill="#E8E6E6"/>
<path d="M102.064 48.9679C102.417 49.0507 102.78 49.1132 103.147 49.1639V44.5314C102.978 44.506 102.799 44.479 102.625 44.4469C102.566 44.4368 102.508 44.4232 102.456 44.4114C102.328 44.3861 102.197 44.3607 102.071 44.3303L102.064 48.9679Z" fill="#E8E6E6"/>
<path d="M100.445 43.7965C100.265 43.7187 100.092 43.6359 99.9234 43.5481V48.1958C100.274 48.3734 100.635 48.5269 101.006 48.6553V44.0245C100.821 43.9586 100.64 43.886 100.464 43.81L100.445 43.7965Z" fill="#E8E6E6"/>
<path d="M97.8403 46.4895C98.1356 46.9155 98.5019 47.2875 98.9233 47.5893V42.9281C98.5998 42.6849 98.3091 42.401 98.0583 42.0834L98.0481 42.0716C97.9715 41.9736 97.9023 41.8756 97.8403 41.7776V46.4895Z" fill="#E8E6E6"/>
<path d="M107.431 60.7181C106.406 60.1268 105.573 60.6015 105.573 61.7825C105.573 62.9634 106.294 64.4704 107.322 65.0634C108.349 65.6564 109.288 65.1073 109.291 63.9281C109.295 62.7489 108.459 61.3111 107.431 60.7181Z" fill="#CACBCC"/>
<path d="M107.391 61.1575L107.379 65.3625C108.247 65.6835 108.91 65.1936 108.913 64.1427C108.916 63.0919 108.259 61.8383 107.391 61.1575Z" fill="#EDEEEF"/>
<path d="M105.739 60.8041C105.891 60.7253 106.059 60.6818 106.23 60.6769C106.402 60.6719 106.572 60.7056 106.729 60.7754L106.982 60.6217C107.099 60.6643 107.212 60.7169 107.32 60.7788C107.434 60.8467 107.543 60.9217 107.648 61.0035L107.396 61.1572C108.264 61.833 108.916 63.0916 108.916 64.1425C108.916 64.727 108.709 65.1393 108.374 65.3336L108.933 65.0109C109.271 64.8166 109.474 64.4044 109.477 63.8181C109.477 62.6355 108.649 61.2028 107.619 60.6082C107.112 60.3091 106.636 60.2821 106.298 60.4781L105.739 60.8041Z" fill="#E2E2E2"/>
<path d="M106.718 64.9789L106.982 64.8184L106.977 60.6218L106.729 60.7756L106.718 64.9789Z" fill="#D6D6D6"/>
<path d="M106.729 60.7756C105.86 60.4546 105.208 60.9445 105.196 61.9953C105.184 63.0462 105.85 64.2981 106.717 64.9789L106.729 60.7756Z" fill="#EDEEEF"/>
<path d="M102.405 60.2078C103.546 59.5472 104.473 60.076 104.476 61.3904C104.48 62.7048 103.676 64.3791 102.535 65.0363C101.395 65.6935 100.349 65.087 100.339 63.776C100.329 62.4649 101.263 60.865 102.405 60.2078Z" fill="#CACBCC"/>
<path d="M102.451 60.6946L102.463 65.3642C101.496 65.7224 100.761 65.1767 100.758 64.0127C100.755 62.8486 101.484 61.4515 102.451 60.6946Z" fill="#EDEEEF"/>
<path d="M103.666 59.9428C103.289 59.7232 102.768 59.7536 102.196 60.0864C101.055 60.7436 100.133 62.3401 100.136 63.6511C100.136 64.3033 100.369 64.7594 100.739 64.9757L101.361 65.3338C100.989 65.1176 100.76 64.6581 100.758 64.0093C100.758 62.8436 101.484 61.4515 102.447 60.6946L102.167 60.5257C102.283 60.4339 102.405 60.3504 102.532 60.2756C102.65 60.2083 102.774 60.1518 102.902 60.1067L103.182 60.2756C103.356 60.1984 103.545 60.1611 103.736 60.1663C103.926 60.1716 104.113 60.2193 104.282 60.306L103.666 59.9428Z" fill="#E2E2E2"/>
<path d="M103.198 64.9401L102.905 64.761L102.91 60.0981L103.186 60.2705L103.198 64.9401Z" fill="#D6D6D6"/>
<path d="M103.186 60.2704C104.15 59.9122 104.885 60.4579 104.889 61.622C104.892 62.786 104.162 64.1798 103.199 64.9367L103.186 60.2704Z" fill="#EDEEEF"/>
<path d="M103.355 63.7135C102.327 64.3065 102.322 65.2695 103.343 65.8608C104.363 66.4521 106.021 66.4538 107.048 65.8608C108.075 65.2678 108.08 64.3065 107.06 63.7135C106.039 63.1205 104.38 63.1154 103.355 63.7135Z" fill="#CACBCC"/>
<path d="M103.721 63.2642L103.723 63.5446L107.357 65.6564L107.355 65.376L103.721 63.2642Z" fill="#D6D6D6"/>
<path d="M107.83 64.7846C107.83 64.5413 107.83 64.7457 107.83 64.5042C107.821 64.6758 107.775 64.8434 107.693 64.9946C107.611 65.1457 107.496 65.2766 107.357 65.3776V65.6496C107.495 65.5497 107.609 65.4201 107.691 65.2705C107.773 65.1209 107.82 64.9549 107.83 64.7846Z" fill="#E2E2E2"/>
<path d="M103.721 63.2658L107.355 65.3776C108.068 64.7846 107.974 63.9669 107.066 63.4381C106.159 62.9093 104.745 62.8536 103.721 63.2658Z" fill="#EDEEEF"/>
<path d="M103.334 65.5904C104.242 66.1192 105.656 66.1766 106.68 65.7593V66.0313C106.806 65.9838 106.928 65.9274 107.046 65.8624C107.156 65.8004 107.259 65.7285 107.355 65.6478V65.3792C107.494 65.2782 107.609 65.1473 107.691 64.9961C107.773 64.845 107.82 64.6774 107.828 64.5057V64.7862C107.828 64.825 107.828 65.0717 107.828 65.0717C107.828 65.462 107.57 65.8539 107.055 66.1529C106.027 66.7443 104.368 66.7443 103.35 66.1529C103.204 66.0692 103.069 65.9682 102.948 65.8522C102.655 65.565 102.588 65.4028 102.588 65.0869C102.588 65.0244 102.588 64.646 102.588 64.4111C102.605 64.6542 102.682 64.8892 102.812 65.095C102.942 65.3009 103.122 65.4711 103.334 65.5904Z" fill="#E2E2E2"/>
<path d="M103.046 63.6526C102.333 64.2439 102.427 65.0633 103.334 65.5904C104.242 66.1175 105.656 66.1766 106.68 65.7593L103.046 63.6526Z" fill="#EDEEEF"/>
<path d="M110.697 51.9009C110.697 51.8198 110.675 51.7403 110.634 51.6702C110.593 51.6001 110.535 51.542 110.465 51.5016C110.394 51.4613 110.315 51.4401 110.234 51.4402C110.153 51.4403 110.073 51.4617 110.003 51.5022C107.102 53.1444 102.473 53.1545 99.5281 51.5377C99.4558 51.4987 99.3746 51.4791 99.2925 51.481C99.2105 51.4829 99.1302 51.5061 99.0598 51.5484C98.9894 51.5907 98.9313 51.6505 98.891 51.7221C98.8508 51.7937 98.8298 51.8745 98.8303 51.9567V55.9168C98.8214 56.1778 98.8833 56.4363 99.0095 56.6651C99.1356 56.8938 99.3212 57.0841 99.5467 57.2159C102.518 58.8057 107.149 58.7686 110.021 57.0994C110.239 56.9574 110.416 56.761 110.535 56.5295C110.653 56.2981 110.709 56.0397 110.697 55.7799V51.9009Z" fill="#76B5FF"/>
<path opacity="0.2" d="M77.9571 84.2573L80.3021 84.5614L101.292 75.7542L98.7864 73.9229L77.9571 84.2573Z" fill="#F5F5F5"/>
<path d="M67.5112 75.5515L76.8032 82.6996C77.6327 83.3366 79.089 83.5258 80.0588 83.122L99.0449 75.2103C99.5331 75.0075 99.8034 74.6933 99.8474 74.3503L99.7224 75.337C99.6981 75.4799 99.6427 75.6158 99.5601 75.7349C99.4774 75.854 99.3696 75.9535 99.2442 76.0263C99.142 76.0933 99.0334 76.1499 98.9199 76.1952L79.9338 84.107C78.964 84.5107 77.5077 84.3215 76.6782 83.6846L67.3862 76.5365C66.9756 76.2206 66.7965 75.8607 66.8388 75.5228C66.881 75.1849 66.9216 74.8639 66.9638 74.5345C66.9216 74.869 67.1007 75.2356 67.5112 75.5515Z" fill="#6A7279"/>
<path d="M67.7663 73.6678C66.7965 74.0716 66.6834 74.9163 67.5112 75.5516L76.8032 82.6997C77.6327 83.3366 79.089 83.5258 80.0588 83.122L99.0449 75.2103C100.015 74.8065 100.128 73.9635 99.3 73.3266L90.008 66.1785C89.1785 65.5433 87.7221 65.354 86.7524 65.7578L67.7663 73.6678Z" fill="#949A9F"/>
<path d="M70.1704 73.901C69.1297 74.3352 69.0064 75.2408 69.8967 75.9284C70.7871 76.616 72.3532 76.8153 73.3939 76.3811C74.4346 75.947 74.5579 75.0414 73.6676 74.3538C72.7772 73.6662 71.2179 73.4668 70.1704 73.901Z" fill="#CACBCC"/>
<path d="M70.5708 73.5208L70.5387 73.786L73.7098 76.2222L73.7419 75.9586L70.5708 73.5208Z" fill="#D6D6D6"/>
<path d="M74.2589 75.4569C74.2876 75.2288 74.2589 75.4214 74.291 75.1934C74.2625 75.3543 74.198 75.5068 74.1024 75.6393C74.0067 75.7718 73.8823 75.881 73.7385 75.9587L73.7064 76.2239C73.8501 76.1457 73.9744 76.0361 74.07 75.9033C74.1656 75.7706 74.2302 75.618 74.2589 75.4569Z" fill="#E2E2E2"/>
<path d="M70.5708 73.5209L73.7419 75.9588C74.4886 75.4875 74.4988 74.7036 73.7064 74.1004C72.9141 73.4973 71.5879 73.2523 70.5708 73.5209Z" fill="#EDEEEF"/>
<path d="M69.922 75.6697C70.7144 76.2779 72.0406 76.5144 73.0577 76.2424L73.0256 76.4992C73.151 76.4673 73.2741 76.4267 73.3939 76.3776C73.5043 76.3302 73.6105 76.2737 73.7115 76.2086L73.7419 75.9535C73.8857 75.8758 74.0101 75.7666 74.1058 75.6341C74.2014 75.5016 74.2659 75.3491 74.2944 75.1882L74.2623 75.4517C74.2623 75.4889 74.2217 75.7204 74.2217 75.7204C74.1744 76.0903 73.8838 76.4282 73.3601 76.6462C72.3177 77.0804 70.7516 76.8776 69.8612 76.1934C69.7355 76.0947 69.622 75.9813 69.5233 75.8555C69.2834 75.548 69.2395 75.3875 69.2767 75.0885C69.2767 75.0294 69.3274 74.6729 69.3561 74.4448C69.3392 74.6802 69.3822 74.916 69.4812 75.1302C69.5802 75.3444 69.7318 75.53 69.922 75.6697Z" fill="#E2E2E2"/>
<path d="M69.8866 73.8047C69.1415 74.276 69.1297 75.06 69.9221 75.6631C70.7144 76.2662 72.0406 76.5078 73.0577 76.2358L69.8866 73.8047Z" fill="#EDEEEF"/>
<path d="M75.6003 71.6556C74.5596 72.0881 74.4363 72.9954 75.3266 73.683C76.217 74.3706 77.7831 74.5699 78.8238 74.1357C79.8645 73.7015 79.9878 72.796 79.0975 72.1084C78.2071 71.4208 76.6427 71.2248 75.6003 71.6556Z" fill="#CACBCC"/>
<path d="M76.0007 71.2756L75.9686 71.5392L79.1414 73.9771L79.1735 73.7118L76.0007 71.2756Z" fill="#D6D6D6"/>
<path d="M79.6939 73.2118C79.7226 72.9837 79.6939 73.1746 79.726 72.9465C79.6969 73.1075 79.6322 73.2599 79.5367 73.3926C79.4411 73.5253 79.317 73.635 79.1735 73.7135L79.1414 73.9771C79.2848 73.8988 79.4088 73.7895 79.5044 73.657C79.6 73.5246 79.6647 73.3725 79.6939 73.2118Z" fill="#E2E2E2"/>
<path d="M76.0024 71.2756L79.1735 73.7134C79.9186 73.2421 79.9304 72.4582 79.1364 71.855C78.3423 71.2519 77.0195 71.012 76.0024 71.2756Z" fill="#EDEEEF"/>
<path d="M75.352 73.4212C76.146 74.0311 77.4722 74.2659 78.4876 73.9939L78.4572 74.2507C78.5822 74.2199 78.7047 74.1798 78.8238 74.1307C78.9347 74.0845 79.041 74.0279 79.1414 73.9618L79.1735 73.7084C79.317 73.6298 79.441 73.5202 79.5366 73.3875C79.6322 73.2548 79.6969 73.1023 79.726 72.9414L79.6939 73.2066C79.6939 73.2421 79.6516 73.4752 79.6516 73.4752C79.6043 73.8435 79.3137 74.1831 78.79 74.4011C77.7493 74.8336 76.1815 74.6308 75.2928 73.9483C75.1663 73.8504 75.0528 73.7369 74.9549 73.6104C74.7133 73.3029 74.6694 73.1424 74.7083 72.8434C74.7083 72.7842 74.7573 72.4278 74.7877 72.1997C74.7708 72.4344 74.8138 72.6695 74.9125 72.8831C75.0111 73.0967 75.1623 73.2819 75.352 73.4212Z" fill="#E2E2E2"/>
<path d="M75.3165 71.5627C74.5714 72.0341 74.5613 72.818 75.352 73.4211C76.1426 74.0243 77.4723 74.2659 78.4876 73.9939L75.3165 71.5627Z" fill="#EDEEEF"/>
<path d="M81.0302 69.4088C79.9895 69.843 79.8679 70.7486 80.7565 71.4362C81.6452 72.1238 83.213 72.3232 84.2554 71.889C85.2978 71.4548 85.4177 70.5492 84.5291 69.8616C83.6404 69.174 82.0726 68.9746 81.0302 69.4088Z" fill="#CACBCC"/>
<path d="M81.4323 69.0286L81.4002 69.2938L84.5713 71.73L84.6034 71.4664L81.4323 69.0286Z" fill="#D6D6D6"/>
<path d="M85.1238 70.9645C85.1525 70.7364 85.1238 70.929 85.1559 70.7009C85.1267 70.8616 85.062 71.0138 84.9664 71.1462C84.8708 71.2786 84.7468 71.388 84.6034 71.4663L84.5646 71.7315C84.7093 71.6537 84.8347 71.5444 84.9315 71.4116C85.0283 71.2789 85.094 71.126 85.1238 70.9645Z" fill="#E2E2E2"/>
<path d="M81.4323 69.0285L84.6034 71.4664C85.3502 70.995 85.3603 70.2111 84.568 69.608C83.7756 69.0049 82.4494 68.7666 81.4323 69.0285Z" fill="#EDEEEF"/>
<path d="M80.7836 71.1775C81.5759 71.7857 82.9022 72.0222 83.9192 71.7502L83.8871 72.007C84.0126 71.9751 84.1356 71.9345 84.2554 71.8854C84.3656 71.8377 84.4719 71.7812 84.573 71.7164L84.6034 71.4613C84.7468 71.3831 84.8708 71.2737 84.9664 71.1413C85.062 71.0088 85.1267 70.8567 85.1559 70.696L85.1238 70.9596C85.1238 70.9967 85.0815 71.2282 85.0815 71.2282C85.0359 71.5982 84.7436 71.9361 84.2199 72.154C83.1792 72.5882 81.6131 72.3855 80.7227 71.7012C80.5966 71.603 80.4831 71.4895 80.3849 71.3633C80.1433 71.0559 80.0993 70.8954 80.1382 70.5963C80.1382 70.5372 80.1889 70.179 80.2176 69.9526C80.2007 70.188 80.2437 70.4238 80.3427 70.638C80.4417 70.8522 80.5934 71.0378 80.7836 71.1775Z" fill="#E2E2E2"/>
<path d="M80.7464 69.3123C80.0014 69.7836 79.9912 70.5675 80.7836 71.1707C81.5759 71.7738 82.9022 72.0154 83.9192 71.7434L80.7464 69.3123Z" fill="#EDEEEF"/>
<path d="M86.4618 67.1701C85.4211 67.6026 85.2978 68.5099 86.1881 69.1975C87.0785 69.8851 88.6446 70.0844 89.6853 69.6503C90.726 69.2161 90.8494 68.3105 89.959 67.6229C89.0687 66.9353 87.5025 66.7292 86.4618 67.1701Z" fill="#CACBCC"/>
<path d="M86.8622 66.7832L86.8301 67.0468L90.0012 69.4846L90.0333 69.2194L86.8622 66.7832Z" fill="#D6D6D6"/>
<path d="M90.5537 68.7194C90.5824 68.4913 90.5537 68.6822 90.5858 68.4541C90.5571 68.6152 90.4925 68.7678 90.3969 68.9005C90.3013 69.0333 90.177 69.1429 90.0333 69.2211L90.0013 69.4847C90.1446 69.4064 90.2686 69.297 90.3642 69.1646C90.4598 69.0322 90.5245 68.8801 90.5537 68.7194Z" fill="#E2E2E2"/>
<path d="M86.8622 66.7834L90.0333 69.2213C90.7801 68.7499 90.7902 67.966 89.9979 67.3629C89.2055 66.7597 87.8793 66.5198 86.8622 66.7834Z" fill="#EDEEEF"/>
<path d="M86.2135 68.9305C87.0058 69.5404 88.332 69.7668 89.3491 69.5032L89.317 69.76C89.4427 69.7295 89.5658 69.6894 89.6853 69.64C89.7961 69.5934 89.9023 69.5368 90.0029 69.4711L90.0333 69.2177C90.177 69.1394 90.3013 69.0299 90.3969 68.8971C90.4925 68.7643 90.5571 68.6117 90.5858 68.4507L90.5537 68.7159C90.5537 68.7514 90.5131 68.9845 90.5131 68.9845C90.4658 69.3528 90.1752 69.6924 89.6498 69.9104C88.6091 70.3429 87.043 70.1401 86.1527 69.4576C86.0261 69.3597 85.9126 69.2462 85.8148 69.1197C85.5732 68.8122 85.5309 68.6517 85.5681 68.3527C85.5681 68.2935 85.6188 67.9371 85.6475 67.709C85.631 67.9438 85.6743 68.179 85.7732 68.3926C85.8722 68.6062 86.0237 68.7912 86.2135 68.9305Z" fill="#E2E2E2"/>
<path d="M86.178 67.0671C85.4313 67.5385 85.4211 68.3224 86.2135 68.9255C87.0058 69.5287 88.3321 69.7618 89.3491 69.4983L86.178 67.0671Z" fill="#EDEEEF"/>
<path d="M76.3809 78.623C75.3402 79.0572 75.2168 79.9644 76.1072 80.6504C76.9975 81.3363 78.5636 81.5373 79.6043 81.1048C80.645 80.6723 80.7684 79.7634 79.878 79.0775C78.9877 78.3915 77.4216 78.1905 76.3809 78.623Z" fill="#CACBCC"/>
<path d="M76.7812 78.2429L76.7491 78.5082L79.9203 80.946L79.9524 80.6808L76.7812 78.2429Z" fill="#D6D6D6"/>
<path d="M80.4727 80.1788C80.5014 79.9525 80.4727 80.1434 80.5048 79.9153C80.4766 80.0763 80.4122 80.2289 80.3165 80.3614C80.2208 80.494 80.0963 80.6031 79.9523 80.6806L79.9203 80.9459C80.0641 80.8678 80.1885 80.7583 80.2841 80.6255C80.3798 80.4927 80.4442 80.34 80.4727 80.1788Z" fill="#E2E2E2"/>
<path d="M76.7812 78.2444L79.9523 80.6857C80.6991 80.2144 80.7092 79.4304 79.9169 78.8273C79.1245 78.2242 77.8067 77.9826 76.7812 78.2444Z" fill="#EDEEEF"/>
<path d="M76.1325 80.3919C76.9248 81.0001 78.2511 81.2366 79.2681 80.9646L79.236 81.2214C79.3614 81.1901 79.4845 81.15 79.6043 81.1014C79.7151 81.0548 79.8214 80.9982 79.922 80.9325L79.9524 80.6774C80.0963 80.5999 80.2208 80.4907 80.3165 80.3582C80.4122 80.2256 80.4766 80.0731 80.5048 79.9121L80.4727 80.1756C80.4727 80.2128 80.4322 80.4459 80.4322 80.4459C80.3849 80.8142 80.0943 81.1521 79.5689 81.3718C78.5282 81.8043 76.962 81.6015 76.0717 80.9173C75.9459 80.8186 75.8325 80.7051 75.7338 80.5794C75.4922 80.2719 75.4499 80.1114 75.4871 79.8124C75.4871 79.7532 75.5378 79.3968 75.5665 79.1687C75.5499 79.4038 75.5931 79.6393 75.692 79.8531C75.791 80.067 75.9425 80.2524 76.1325 80.3919Z" fill="#E2E2E2"/>
<path d="M76.097 78.5266C75.3503 78.998 75.3401 79.7836 76.1325 80.385C76.9248 80.9865 78.2511 81.2297 79.2681 80.9577L76.097 78.5266Z" fill="#EDEEEF"/>
<path d="M81.8108 76.3776C80.77 76.8118 80.6467 77.7173 81.5371 78.4049C82.4274 79.0926 83.9935 79.2919 85.0342 78.8577C86.075 78.4235 86.1983 77.518 85.3079 76.8304C84.4176 76.1428 82.8515 75.9434 81.8108 76.3776Z" fill="#CACBCC"/>
<path d="M82.2112 75.9976L82.1791 76.2611L85.3519 78.699L85.384 78.4355L82.2112 75.9976Z" fill="#D6D6D6"/>
<path d="M85.9026 77.9337C85.933 77.7056 85.9026 77.8966 85.9364 77.6702C85.9072 77.8309 85.8425 77.983 85.7469 78.1154C85.6513 78.2478 85.5273 78.3572 85.384 78.4355L85.3519 78.699C85.4954 78.6213 85.6195 78.512 85.7149 78.3795C85.8103 78.2469 85.8745 78.0945 85.9026 77.9337Z" fill="#E2E2E2"/>
<path d="M82.2112 75.9975L85.384 78.4354C86.129 77.964 86.1391 77.1801 85.3468 76.577C84.5544 75.9739 83.2282 75.7356 82.2112 75.9975Z" fill="#EDEEEF"/>
<path d="M81.5624 78.1516C82.3565 78.7615 83.6827 78.9964 84.6981 78.7261L84.6676 78.9812C84.7927 78.9504 84.9152 78.9103 85.0343 78.8612C85.1448 78.8142 85.2511 78.7577 85.3519 78.6923L85.384 78.4371C85.5273 78.3589 85.6513 78.2495 85.7469 78.1171C85.8425 77.9847 85.9073 77.8325 85.9364 77.6718L85.9026 77.9354C85.9026 77.9725 85.8621 78.204 85.8621 78.204C85.8148 78.574 85.5242 78.9119 85.0005 79.1298C83.9597 79.564 82.3919 79.3613 81.5033 78.6771C81.3773 78.5787 81.2638 78.4652 81.1654 78.3392C80.9255 78.0317 80.8816 77.8712 80.9204 77.5721C80.9204 77.5147 80.9694 77.1565 80.9998 76.9285C80.9825 77.1633 81.025 77.3987 81.1234 77.6126C81.2218 77.8265 81.3728 78.012 81.5624 78.1516Z" fill="#E2E2E2"/>
<path d="M81.5236 76.2815C80.7785 76.7528 80.7684 77.5368 81.559 78.1399C82.3497 78.743 83.6793 78.9846 84.6947 78.7143L81.5236 76.2815Z" fill="#EDEEEF"/>
<path d="M87.2407 74.1308C86.2 74.565 86.0783 75.4722 86.967 76.1582C87.8556 76.8441 89.4235 77.0451 90.4642 76.6126C91.5049 76.1801 91.6282 75.2712 90.7396 74.5853C89.8509 73.8994 88.2814 73.6983 87.2407 74.1308Z" fill="#CACBCC"/>
<path d="M87.6428 73.7507L87.6107 74.016L90.7818 76.4539L90.8139 76.1886L87.6428 73.7507Z" fill="#D6D6D6"/>
<path d="M91.3342 75.6867C91.3629 75.4603 91.3342 75.6512 91.3663 75.4231C91.3374 75.5839 91.2727 75.7361 91.1771 75.8686C91.0815 76.001 90.9573 76.1103 90.8139 76.1884L90.7818 76.4537C90.9254 76.3753 91.0496 76.2657 91.1452 76.133C91.2408 76.0002 91.3054 75.8477 91.3342 75.6867Z" fill="#E2E2E2"/>
<path d="M87.6428 73.759L90.8139 76.1952C91.5589 75.7239 91.5707 74.94 90.7784 74.3368C89.986 73.7337 88.6598 73.4887 87.6428 73.759Z" fill="#EDEEEF"/>
<path d="M86.994 75.8994C87.7864 76.5076 89.1126 76.7357 90.128 76.4722L90.0975 76.7289C90.2224 76.6976 90.3449 76.6575 90.4642 76.609C90.5754 76.5623 90.6823 76.5058 90.7835 76.4401L90.8139 76.1849C90.9574 76.1069 91.0815 75.9976 91.1771 75.8651C91.2727 75.7326 91.3374 75.5804 91.3663 75.4196L91.3342 75.6832C91.3342 75.7203 91.292 75.9535 91.292 75.9535C91.2464 76.3218 90.9541 76.6597 90.4304 76.8793C89.3896 77.3118 87.8235 77.1091 86.9332 76.4249C86.807 76.3266 86.6936 76.2131 86.5953 76.087C86.3537 75.7795 86.3098 75.619 86.3486 75.3199C86.3486 75.2608 86.3993 74.9043 86.428 74.6763C86.4111 74.9114 86.4541 75.147 86.5531 75.3609C86.6521 75.5748 86.8038 75.7601 86.994 75.8994Z" fill="#E2E2E2"/>
<path d="M86.9569 74.0344C86.2118 74.5058 86.2017 75.2914 86.994 75.8928C87.7864 76.4943 89.1126 76.7291 90.128 76.4656L86.9569 74.0344Z" fill="#EDEEEF"/>
<path d="M92.674 71.8854C91.6333 72.3196 91.5099 73.2252 92.4003 73.9128C93.2906 74.6004 94.8567 74.7997 95.8974 74.3655C96.9381 73.9313 97.0615 73.0258 96.1711 72.3382C95.2808 71.6506 93.713 71.4512 92.674 71.8854Z" fill="#CACBCC"/>
<path d="M93.0727 71.5054L93.0406 71.7689L96.2117 74.2068L96.2438 73.9433L93.0727 71.5054Z" fill="#D6D6D6"/>
<path d="M96.7641 73.4415C96.7929 73.2134 96.7641 73.4044 96.7962 73.178C96.7674 73.3388 96.7028 73.4911 96.6072 73.6235C96.5116 73.756 96.3874 73.8653 96.2438 73.9433L96.2117 74.2068C96.3552 74.1288 96.4793 74.0195 96.5749 73.887C96.6706 73.7545 96.7352 73.6023 96.7641 73.4415Z" fill="#E2E2E2"/>
<path d="M93.0727 71.5053L96.2438 73.9432C96.9905 73.4718 97.0007 72.6879 96.2083 72.0848C95.416 71.4816 94.0897 71.2434 93.0727 71.5053Z" fill="#EDEEEF"/>
<path d="M92.4239 73.6526C93.2163 74.2625 94.5425 74.4974 95.5595 74.227L95.5275 74.4822C95.6531 74.4516 95.7762 74.4115 95.8957 74.3622C96.0062 74.3149 96.1124 74.2583 96.2134 74.1932L96.2438 73.9381C96.3873 73.8602 96.5115 73.7509 96.6072 73.6184C96.7028 73.4859 96.7674 73.3336 96.7962 73.1728L96.7641 73.4364C96.7641 73.4735 96.7219 73.705 96.7219 73.705C96.6763 74.075 96.384 74.4129 95.8603 74.6308C94.8196 75.065 93.2534 74.8623 92.3631 74.178C92.2366 74.0802 92.1231 73.9667 92.0252 73.8401C91.7836 73.5327 91.7414 73.3722 91.7785 73.0731C91.7785 73.0157 91.8292 72.6575 91.858 72.4294C91.8412 72.6646 91.8843 72.9001 91.9833 73.114C92.0822 73.3279 92.2339 73.5132 92.4239 73.6526Z" fill="#E2E2E2"/>
<path d="M92.3884 71.7891C91.6417 72.2604 91.6316 73.0443 92.4239 73.6475C93.2163 74.2506 94.5425 74.4922 95.5595 74.2219L92.3884 71.7891Z" fill="#EDEEEF"/>
<path d="M92.0674 70.2653C92.2364 70.392 92.2127 70.5592 92.0218 70.6386L74.0477 78.1668C73.9416 78.2052 73.8278 78.2178 73.7158 78.2034C73.6039 78.189 73.497 78.1481 73.404 78.0841C73.3664 78.0661 73.3353 78.0367 73.3153 78.0001C73.2952 77.9635 73.2871 77.9216 73.2922 77.8802C73.2972 77.8387 73.3151 77.7999 73.3433 77.7692C73.3716 77.7385 73.4088 77.7175 73.4496 77.709L91.4238 70.1808C91.5301 70.143 91.6439 70.131 91.7557 70.1457C91.8676 70.1604 91.9744 70.2014 92.0674 70.2653Z" fill="#808488"/>
<path d="M105.71 80.4391L105.671 81.6386C105.659 82.0238 105.396 82.4022 104.88 82.6826C103.843 83.2469 102.177 83.2013 101.163 82.5779C100.657 82.2653 100.408 81.8666 100.42 81.4747L100.457 80.2769C100.445 80.6688 100.692 81.0675 101.201 81.3801C102.214 82.0018 103.872 82.0559 104.917 81.4848C105.424 81.2044 105.696 80.8259 105.71 80.4391Z" fill="#E2E2E2"/>
<path d="M104.966 79.3342C105.979 79.9576 105.956 80.9189 104.918 81.4832C103.881 82.0475 102.215 82.0002 101.202 81.3785C100.188 80.7568 100.213 79.7955 101.251 79.2295C102.288 78.6635 103.955 78.7142 104.966 79.3342Z" fill="#F5F5F5"/>
<path d="M111.135 74.2423L111.096 75.4418C111.086 75.827 110.82 76.2054 110.305 76.4859C109.268 77.0501 107.602 77.0028 106.588 76.3811C106.081 76.0686 105.833 75.6698 105.845 75.2779L105.882 74.0801C105.87 74.4703 106.117 74.8707 106.625 75.1833C107.639 75.805 109.297 75.8591 110.334 75.288C110.849 75.0076 111.113 74.6291 111.126 74.2423H111.135Z" fill="#E2E2E2"/>
<path d="M110.39 73.139C111.404 73.7624 111.38 74.7237 110.343 75.288C109.305 75.8523 107.64 75.805 106.634 75.1833C105.629 74.5616 105.646 73.6002 106.683 73.0343C107.721 72.4683 109.38 72.5173 110.39 73.139Z" fill="#F5F5F5"/>
<path d="M114.02 79.8411L113.983 81.039C113.971 81.4258 113.706 81.8043 113.191 82.0847C112.155 82.649 110.488 82.6017 109.484 81.98C108.977 81.6658 108.727 81.267 108.741 80.8768L108.778 79.679C108.764 80.0692 109.013 80.4679 109.521 80.7805C110.535 81.4039 112.192 81.4563 113.228 80.8852C113.743 80.6065 114.008 80.228 114.02 79.8411Z" fill="#E2E2E2"/>
<path d="M113.286 78.7311C114.299 79.3528 114.274 80.3158 113.237 80.8784C112.199 81.441 110.534 81.3971 109.53 80.7737C108.526 80.1503 108.54 79.1907 109.577 78.6264C110.615 78.0621 112.272 78.1094 113.286 78.7311Z" fill="#F5F5F5"/>
<g opacity="0.2">
<path opacity="0.2" d="M124.806 65.4636C127.945 67.2747 127.96 70.2127 124.84 72.0254C121.719 73.8382 116.651 73.8382 113.52 72.0254C110.39 70.2127 110.366 67.2764 113.483 65.4636C116.6 63.6508 121.665 63.6508 124.806 65.4636Z" fill="#191617"/>
</g>
<path d="M125.916 60.3736C125.916 61.0207 125.916 57.5421 125.916 55.7462C125.916 55.1684 124.488 58.7872 123.904 59.1944C123.78 59.1116 123.655 59.0254 123.522 58.9494C119.959 56.8038 113.936 56.922 110.608 59.2315C109.256 58.3023 108.58 57.1586 108.58 56.0216C108.58 56.1567 108.595 66.8577 108.6 66.9929C108.601 66.9844 108.601 66.976 108.6 66.9675C108.6 71.4226 117.958 73.7794 123.4 70.5154C126.529 68.6486 125.936 67.5707 125.916 60.3736Z" fill="#E2E2E2"/>
<path d="M109.788 62.1018C109.788 63.1155 110.482 64.1933 111.871 65.0296C114.735 66.7529 119.474 66.8002 122.459 65.1378C123.995 64.2812 124.767 63.1374 124.763 61.9954L109.788 62.1018Z" fill="#071E2A"/>
<path d="M109.797 66.4538L109.786 58.5843C109.786 58.6468 109.749 58.1569 109.846 58.2126C111.293 59.0472 123.042 58.5945 124.647 57.7852C124.769 57.7244 124.762 58.6147 124.762 58.5404L124.772 66.4099C124.772 67.552 124.003 68.694 122.468 69.5506C119.484 71.2147 114.743 71.1674 111.881 69.4441C110.491 68.5994 109.8 67.53 109.797 66.4538Z" fill="#8DD6A2"/>
<path d="M124.108 52.8097C121.814 51.0459 118.105 50.5273 115.333 50.9513C108.685 51.8704 106.362 56.6955 110.984 59.4847C114.301 61.48 119.79 61.5357 123.246 59.6081C126.448 57.8223 126.647 55.0719 124.515 53.1442L124.108 52.8097ZM120.67 57.7699C118.697 58.8698 115.561 58.8377 113.669 57.699C111.777 56.5603 111.841 54.7441 113.814 53.6443C115.787 52.5445 118.921 52.5766 120.815 53.7153C122.709 54.854 122.643 56.6634 120.67 57.7649V57.7699Z" fill="#EFEFEF"/>
<path d="M123.236 53.2946C123.219 52.9162 123.17 51.7741 121.493 50.7368C121.519 50.7558 121.54 50.7815 121.552 50.8112C121.565 50.841 121.57 50.8737 121.565 50.9058C122.679 51.5815 123.233 52.4381 123.236 53.3031V53.2946Z" fill="#436663"/>
<path d="M123.236 53.8335C123.236 53.2067 123.405 52.0038 121.565 50.8972V51.4378C122.679 52.1136 123.233 52.9702 123.235 53.8335H123.236Z" fill="#85CCC6"/>
<path d="M121.493 50.7369C117.463 48.4831 111.327 50.034 111.234 53.3285C111.226 50.2317 117.8 48.6301 121.565 50.8974C121.57 50.8653 121.565 50.8326 121.552 50.8029C121.54 50.7731 121.519 50.7474 121.493 50.7284V50.7369Z" fill="#436663"/>
<path d="M121.564 51.438V50.8974C117.803 48.6335 111.223 50.2216 111.233 53.3285V53.8691C111.233 50.7537 117.822 49.1826 121.565 51.438H121.564Z" fill="#85CCC6"/>
<path d="M112.29 55.7157C112.819 55.7157 113.246 55.3627 113.246 54.9319C113.246 56.9474 117.458 58.0033 120.004 56.5841C120.824 56.128 121.234 55.5181 121.233 54.9082C121.233 55.339 121.665 55.6887 122.192 55.687C122.192 56.4422 121.685 57.1974 120.672 57.7651C118.698 58.8649 115.563 58.8328 113.671 57.6941C112.751 57.14 112.294 56.4287 112.292 55.7157H112.29Z" fill="#EAEAEA"/>
<path d="M113.246 54.9316C113.287 55.8794 114.946 56.6582 116.47 56.79C119.161 57.0265 121.2 55.925 121.233 54.9062C121.233 55.5161 120.824 56.126 120.004 56.5822C117.46 58.0013 113.246 56.9454 113.246 54.9299V54.9316Z" fill="#6AA29D"/>
<path d="M121.297 50.6962C123.478 52.0089 123.403 54.1022 121.128 55.3709C118.852 56.6397 115.24 56.6026 113.059 55.2882C110.878 53.9738 110.95 51.8822 113.228 50.6151C115.505 49.348 119.114 49.3835 121.297 50.6962Z" fill="#8FDCA5"/>
<path d="M123.196 53.2948C123.196 53.2948 121.609 56.0722 117.19 56.0722C112.77 56.0722 111.192 53.0768 111.192 53.0768V49.7334L123.248 50.0561L123.196 53.2948Z" fill="#7FD196"/>
<path d="M117.308 49.6307C118.416 49.6425 120.038 49.8351 121.479 50.6883C121.45 50.6743 121.418 50.6684 121.386 50.6711C121.354 50.6737 121.323 50.6849 121.297 50.7035C119.117 49.3925 115.512 49.3519 113.243 50.6224C110.974 51.8929 110.898 53.976 113.074 55.287C115.25 56.598 118.857 56.6385 121.128 55.3698C123.398 54.101 123.473 52.0145 121.297 50.7035C121.323 50.6849 121.354 50.6737 121.386 50.6711C121.418 50.6684 121.45 50.6743 121.479 50.6883C121.562 50.7423 121.677 50.8082 121.756 50.8674C124.008 52.5298 123.547 54.5842 121.374 55.8039C118.964 57.1555 115.135 57.1099 112.821 55.7178C109.123 53.486 111.9 49.5766 117.308 49.6307Z" fill="#6D6E71"/>
<path d="M113.073 50.6015C115.528 49.2651 119.142 49.304 121.48 50.6876C121.451 50.6737 121.418 50.6678 121.386 50.6704C121.354 50.6731 121.324 50.6843 121.297 50.7029C119.118 49.3918 115.513 49.3513 113.244 50.6218C110.975 51.8922 110.899 53.9753 113.075 55.2864C115.251 56.5974 118.858 56.6379 121.128 55.3691C123.399 54.1004 123.473 52.0139 121.297 50.7029C121.324 50.6843 121.354 50.6731 121.386 50.6704C121.418 50.6678 121.451 50.6737 121.48 50.6876C123.997 52.3095 123.684 54.516 121.375 55.8033C118.964 57.1549 115.136 57.1093 112.821 55.7172C110.304 54.1967 110.794 51.8314 113.073 50.6015Z" fill="#7FD196"/>
<path d="M111.135 53.8403V53.2963C111.145 56.3508 117.519 57.949 121.374 55.8001C122.616 55.1074 123.233 54.1832 123.233 53.2659C123.233 53.8927 123.422 55.2054 121.374 56.3491C118.962 57.7007 115.132 57.6551 112.819 56.263C111.696 55.5872 111.13 54.7154 111.13 53.8454L111.135 53.8403Z" fill="#E6E7E8"/>
<path d="M121.033 46.9575C118.656 45.7242 115.438 45.888 113.38 47.0031C108.386 49.6184 112.633 54.7644 119.161 53.4821C123.892 52.5529 124.556 48.7213 121.033 46.9575Z" fill="#8FDCA5"/>
<path d="M120.758 47.1857C122.628 48.3125 122.564 50.105 120.614 51.1914C118.665 52.2777 115.569 52.2473 113.699 51.1221C111.829 49.9969 111.893 48.2027 113.843 47.1164C115.792 46.0301 118.888 46.0605 120.758 47.1857Z" fill="#8DD6A2"/>
<path d="M122.62 71.225C122.62 71.225 122.609 71.211 122.62 71.225V71.225Z" fill="#14A797"/>
<path d="M117.276 68.8394C116.188 68.8698 115.103 68.7411 114.052 68.4576C112.972 68.1921 111.974 67.664 111.146 66.9202V61.0071C112.143 61.5179 113.197 61.9097 114.285 62.1745C115.269 62.3868 116.27 62.51 117.276 62.5428V68.8394Z" fill="#E6E7E8"/>
<path opacity="0.22" d="M56.4098 59.3682L40.4985 66.2443L34.2712 65.5127L18 53.423L18.4781 49.1132L33.3217 40.72L40.7789 41.6019L56.8051 55.768L56.4098 59.3682Z" fill="#F0F2F3"/>
<path d="M36.9202 45.0146L22.0057 53.4923L38.3444 65.6345L53.0123 59.2922L36.9202 45.0146Z" fill="#F2CAAA"/>
<path d="M18.9714 47.0303L35.3102 59.1724L38.3444 65.6346L22.0057 53.4924L18.9714 47.0303Z" fill="#F7D7B5"/>
<path d="M21.2623 51.9092L22.0057 53.4922L38.3444 65.6343L37.6011 64.0513L21.2623 51.9092Z" fill="#EAC5A4"/>
<path d="M32.2573 61.11L26.6838 56.9692L24.4199 52.1492L29.9935 56.29L32.2573 61.11Z" fill="#F7D7B5"/>
<path d="M57.4674 53.7136L54.1121 57.917L53.0123 59.2922L38.3444 65.6344L39.4443 64.2575L42.7995 60.0541L57.4674 53.7136Z" fill="#EFCCAF"/>
<path d="M57.9455 49.3851L41.8534 35.1075L34.3641 34.2256L19.4496 42.7033L18.9714 47.03L35.3102 59.1721L42.7995 60.054L57.4657 53.7135L57.9455 49.3851Z" fill="#4F4F4F"/>
<path d="M58.4338 49.2669L41.9463 34.6954L34.2762 33.7915L19.0069 42.4229L18.517 46.8544L35.251 59.2905L42.9212 60.1943L57.9438 53.6984L58.4338 49.2669Z" fill="#FCE4CA"/>
<path d="M34.2762 33.7915L20.4717 41.5951L38.4509 53.3993L41.1405 53.7203L56.1631 47.2244L56.077 45.2274L34.2762 33.7915Z" fill="#FCE4CA"/>
<path d="M18.517 46.8544L35.251 59.2905L40.1792 50.2215L23.4451 37.7871L18.517 46.8544Z" fill="#FFE3C0"/>
<path d="M21.7185 40.9633L38.4509 53.3994L40.1775 50.2215L23.4451 37.7871L21.7185 40.9633Z" fill="#FFE3C0"/>
<path d="M58.4338 49.2671L41.9464 34.6955L38.4661 31.2913L55.2018 43.7273L58.4338 49.2671Z" fill="#818181"/>
<path d="M57.9438 53.7001L42.9212 60.1944L41.1405 53.7204L40.1792 50.2216L55.2018 43.7273L56.1631 47.2245L57.9438 53.7001Z" fill="#F9D8B4"/>
<path d="M57.9438 53.7L42.9212 60.1943L41.1405 53.7203L56.1631 47.2244L57.9438 53.7Z" fill="#F9D8B4"/>
<path d="M55.2018 43.7273L40.1792 50.2216L38.8935 49.2671L24.7308 38.7418L23.4434 37.7872L38.4661 31.2913L39.7534 32.2458L53.9162 42.7711L55.2018 43.7273Z" fill="#FCEDDE"/>
<path d="M24.0297 37.5555L38.4644 31.3147L54.6849 43.369L40.2501 49.6098L24.0297 37.5555Z" fill="#FCEDDE"/>
<path d="M38.8935 49.267L33.9654 58.3343L31.1592 56.2495L22.6105 49.8972L19.8027 47.8107L24.7308 38.7417L38.8935 49.267Z" fill="#FFE3C0"/>
<path d="M33.0581 51.4395L31.1592 56.2494L22.6105 49.897L25.7276 45.5636C25.8291 45.4223 25.9577 45.3027 26.1059 45.2116C26.2541 45.1206 26.4191 45.06 26.591 45.0334C26.7629 45.0069 26.9384 45.0148 27.1072 45.0568C27.276 45.0988 27.4347 45.174 27.5742 45.2781L32.3046 48.7904C32.7038 49.0879 32.9939 49.5085 33.1301 49.9873C33.2663 50.4662 33.241 50.9765 33.0581 51.4395Z" fill="#F9E4CD"/>
<path d="M23.4434 37.7871L21.7185 40.9633V40.965L18.517 46.8544L19.0069 42.423L21.8891 39.4107L23.4434 37.7871Z" fill="#FCE4CA"/>
<path d="M23.4434 37.7871L21.7185 40.9633L21.8891 39.4107L23.4434 37.7871Z" fill="#FCE4CA"/>
<path d="M58.4338 49.267L55.2018 43.7273L57.9438 53.6985L58.4338 49.267Z" fill="#FCE4CA"/>
<path d="M56.1631 47.2245L56.3355 45.6702L55.2018 43.7273L56.1631 47.2245Z" fill="#FCE4CA"/>
<path d="M26.7548 52.3773L25.1075 50.0408L29.2619 53.1291L26.7548 52.3773Z" fill="#BB7959"/>
<path d="M26.1094 49.7468C25.9303 49.6133 25.9235 49.4089 26.0486 49.1792L26.2462 48.8244C26.3628 48.6132 26.5453 48.5253 26.7176 48.6554C26.8899 48.7855 26.9017 48.9933 26.7784 49.2214L26.5807 49.5762C26.4608 49.7924 26.2952 49.8853 26.1094 49.7451V49.7468ZM26.8646 48.3953C26.5605 48.1689 26.2378 48.2787 26.0198 48.6774L25.8374 49.0051C25.6093 49.4157 25.6684 49.7874 25.9675 50.0188C26.2665 50.2503 26.5892 50.1489 26.8122 49.7384L26.9947 49.4106C27.216 49.0119 27.1636 48.6267 26.8629 48.3969L26.8646 48.3953Z" fill="#BB7959"/>
<path d="M27.3022 49.7839L27.5539 49.3312L27.7971 49.5119C27.8496 49.5539 27.8842 49.6142 27.8939 49.6807C27.9037 49.7472 27.8878 49.8149 27.8495 49.8701C27.7735 50.0086 27.6519 50.0391 27.5454 49.9664L27.3022 49.7839ZM27.9779 49.2602L27.488 48.897L26.623 50.453L26.846 50.6219L27.1619 50.0542L27.4289 50.2519C27.6485 50.4209 27.9188 50.3381 28.0843 50.0407C28.1665 49.9212 28.2011 49.7753 28.1814 49.6316C28.1617 49.4879 28.0892 49.3567 27.9779 49.2636V49.2602Z" fill="#BB7959"/>
<path d="M29.2535 50.2149L28.4696 49.6321L27.6046 51.1881L28.3969 51.7777L28.5456 51.5107L27.9762 51.0884L28.1891 50.7049L28.701 51.085L28.8514 50.8164L28.3395 50.4363L28.5439 50.068L29.1048 50.4836L29.2535 50.2149Z" fill="#BB7959"/>
<path d="M30.3246 51.0104L30.1016 50.8449L29.3903 52.1238L29.37 52.1103L29.8076 50.6269L29.4089 50.3296L28.5439 51.8856L28.7703 52.0545L29.4815 50.7739L29.5018 50.7891L29.0625 52.2708L29.4596 52.5664L30.3246 51.0104Z" fill="#BB7959"/>
<path d="M54.1121 57.917L53.0123 59.2922L38.3444 65.6344L39.4307 64.2643L39.4443 64.2575L54.1121 57.917Z" fill="#EAC5A4"/>
<path d="M39.4443 64.2574L37.6011 64.0513L38.3444 65.6343L39.4443 64.2574Z" fill="#F2CAAA"/>
<path d="M37.7886 35.0789L34.0346 36.8055L34.6513 37.2549L36.1853 36.5487L37.3696 37.412L37.993 37.1248L36.8087 36.2615L37.7785 35.8172L39.1098 36.7869L39.7365 36.498L37.7886 35.0789Z" fill="#BB7959"/>
<path d="M38.2008 39.1404C38.17 39.1228 38.1401 39.1036 38.1113 39.0829C37.9018 38.9292 37.8444 38.7619 37.9423 38.5761C38.0403 38.3903 38.2802 38.2179 38.6654 38.0422L38.8496 37.9578C39.18 37.7944 39.5394 37.6979 39.9072 37.6739C40.1479 37.657 40.3884 37.7098 40.5999 37.826C40.6307 37.8435 40.6606 37.8627 40.6894 37.8834C40.8972 38.0355 40.9546 38.1993 40.8583 38.375C40.762 38.5508 40.5204 38.7298 40.1302 38.9106L39.946 38.9951C39.6151 39.1572 39.256 39.2542 38.8884 39.2806C38.6474 39.2996 38.4062 39.2479 38.1941 39.1319L38.2008 39.1404ZM41.1422 37.4712C40.9211 37.3463 40.6816 37.2573 40.4326 37.2076C40.0714 37.1359 39.7006 37.1262 39.3361 37.1789C38.9427 37.2331 38.5598 37.347 38.2008 37.5168L38.015 37.6013C37.7123 37.7268 37.4411 37.9178 37.2209 38.1605C37.142 38.2418 37.0837 38.3408 37.0508 38.4493C37.0178 38.5577 37.0113 38.6724 37.0317 38.7839C37.0999 39.0272 37.2566 39.2363 37.471 39.3701C37.5292 39.4134 37.5901 39.4529 37.6534 39.4884C37.8745 39.6145 38.1148 39.7035 38.3647 39.752C38.724 39.825 39.0933 39.8353 39.4561 39.7824C39.847 39.7264 40.2273 39.6125 40.5847 39.4445L40.7536 39.3685C41.0618 39.24 41.3393 39.0476 41.5679 38.8042C41.6479 38.7231 41.7074 38.6241 41.7415 38.5153C41.7756 38.4066 41.7833 38.2913 41.7639 38.1791C41.696 37.9351 41.5393 37.7254 41.3246 37.5911C41.2672 37.5489 41.2064 37.51 41.1439 37.4729" fill="#BB7959"/>
<path d="M41.1067 41.2571C41.0764 41.2396 41.0471 41.2204 41.0188 41.1997C40.8077 41.046 40.7519 40.8787 40.8499 40.7013C40.9479 40.5239 41.1878 40.3431 41.5747 40.1674L41.7571 40.083C42.0876 39.9197 42.447 39.8233 42.8147 39.7991C43.056 39.7823 43.297 39.835 43.5091 39.9512C43.5399 39.9688 43.5698 39.9879 43.5986 40.0086C43.8064 40.1607 43.8639 40.3229 43.7676 40.5003C43.6713 40.6777 43.4297 40.8551 43.0394 41.0358L42.857 41.1203C42.5252 41.2821 42.1658 41.3796 41.7977 41.4075C41.5567 41.4241 41.3159 41.3719 41.1033 41.2571H41.1067ZM44.0531 39.5981C43.8325 39.4719 43.5928 39.3823 43.3435 39.3329C42.9823 39.2612 42.6116 39.2515 42.2471 39.3041C41.8536 39.3581 41.4707 39.472 41.1118 39.642L40.9242 39.7265C40.6218 39.8525 40.3508 40.0434 40.1302 40.2857C40.0518 40.3674 39.9939 40.4665 39.961 40.5748C39.9281 40.6831 39.9213 40.7976 39.941 40.9091C40.0088 41.1531 40.1655 41.3628 40.3802 41.497C40.4377 41.5376 40.4968 41.5765 40.5593 41.6119C40.7825 41.7378 41.0243 41.8274 41.2756 41.8772C41.635 41.9503 42.0042 41.9606 42.367 41.9076C42.7579 41.8516 43.1383 41.7377 43.4956 41.5697L43.6645 41.4937C43.9727 41.366 44.2499 41.1736 44.4772 40.9294C44.5574 40.8484 44.6171 40.7494 44.6515 40.6407C44.6859 40.532 44.6939 40.4167 44.6748 40.3043C44.607 40.0603 44.4503 39.8506 44.2356 39.7164C44.1777 39.674 44.1173 39.6351 44.0548 39.5998" fill="#BB7959"/>
<path d="M43.8115 43.18C43.771 43.1563 43.7304 43.131 43.6899 43.1023L43.3925 42.8843L45.898 41.7321L46.2021 41.9534C46.4454 42.1224 46.54 42.3099 46.4606 42.4924C46.3812 42.6748 46.1632 42.8539 45.7848 43.0279L45.5854 43.1192C45.2596 43.277 44.9033 43.3618 44.5413 43.3675C44.2864 43.3701 44.0352 43.3055 43.8132 43.18H43.8115ZM45.9098 40.9938L42.1592 42.7205L43.0867 43.3963C43.1492 43.4402 43.2134 43.4824 43.281 43.5213C43.5113 43.6527 43.7603 43.7484 44.0193 43.8051C44.3848 43.8889 44.7618 43.91 45.1343 43.8676C45.5158 43.8262 45.8883 43.7241 46.2376 43.5652L46.4065 43.4858C46.7014 43.3643 46.9623 43.173 47.1668 42.9283C47.2406 42.84 47.2925 42.7355 47.318 42.6233C47.3436 42.5111 47.3421 42.3944 47.3137 42.2829C47.2278 42.0278 47.0573 41.8097 46.8306 41.6646L45.9098 40.9888" fill="#BB7959"/>
<path d="M33.2186 36.89C33.099 36.8201 32.9721 36.7634 32.8402 36.7211C32.6517 36.6587 32.4541 36.629 32.2556 36.6332C32.0756 36.6351 31.8978 36.6742 31.7336 36.7481C31.4362 36.8849 31.3281 37.086 31.4126 37.3597C31.4598 37.4922 31.5246 37.6177 31.6052 37.733C31.6808 37.8325 31.7322 37.9482 31.7556 38.0709C31.7556 38.1436 31.7032 38.2078 31.5866 38.2585C31.481 38.307 31.3628 38.3212 31.2487 38.299C31.1549 38.2845 31.0648 38.2518 30.9835 38.2027C30.9547 38.1858 30.9277 38.1689 30.899 38.1486C30.5983 37.9273 30.605 37.7449 30.921 37.5979L30.4496 37.26C30.2941 37.32 30.162 37.4284 30.0728 37.5692C30.0412 37.6299 30.0246 37.6975 30.0246 37.766C30.0246 37.8345 30.0412 37.902 30.0728 37.9628C30.1543 38.1282 30.2786 38.2688 30.4327 38.37C30.4935 38.4139 30.5544 38.4527 30.6169 38.4899C30.8117 38.6031 31.026 38.6787 31.2487 38.7129C31.5234 38.7588 31.8056 38.7224 32.0596 38.6082C32.2843 38.5051 32.4094 38.375 32.4364 38.2162C32.4634 38.0574 32.3925 37.8581 32.2269 37.6148C32.1518 37.5203 32.0992 37.4099 32.0732 37.2921C32.0667 37.2511 32.0755 37.2092 32.0979 37.1743C32.1204 37.1394 32.1548 37.114 32.1948 37.1029C32.3008 37.0556 32.4186 37.0415 32.5327 37.0623C32.6292 37.0768 32.7221 37.1095 32.8064 37.1586L32.8926 37.2144C33.0125 37.3022 33.0615 37.3833 33.0615 37.4678C33.0615 37.5523 32.9838 37.6198 32.8537 37.6807L33.3234 38.0186C33.4701 37.9621 33.595 37.8603 33.6798 37.728C33.7121 37.6737 33.7304 37.6124 33.7334 37.5493C33.7363 37.4863 33.7238 37.4235 33.6967 37.3664C33.6229 37.2163 33.5104 37.0885 33.3707 36.9964C33.3183 36.9593 33.2625 36.9238 33.2017 36.89" fill="#BB7959"/>
<path d="M33.7254 38.1708L32.3266 38.8144C32.0749 38.9327 31.9313 39.0577 31.8958 39.1861C31.8603 39.3145 31.933 39.4497 32.1154 39.5815C32.1463 39.6041 32.1785 39.6249 32.2117 39.644C32.4029 39.7515 32.6192 39.8063 32.8385 39.8028L32.6341 39.9126L33.0615 40.2234L35.197 39.2419L34.7391 38.904L33.2271 39.6C33.0711 39.6188 32.9134 39.5862 32.7777 39.5071C32.7536 39.4935 32.7304 39.4783 32.7084 39.4615C32.5395 39.3449 32.5766 39.2334 32.7996 39.1321L34.1799 38.4968L33.7254 38.1589" fill="#BB7959"/>
<path d="M34.6209 40.857L34.5769 40.8283C34.4339 40.7247 34.4052 40.6199 34.4908 40.514L35.3642 40.112C35.5161 40.0892 35.6713 40.1178 35.8052 40.1931L35.8643 40.2319C35.9724 40.3096 35.9995 40.4009 35.9471 40.4853C35.8505 40.6098 35.7204 40.7042 35.572 40.7573C35.1564 40.9499 34.8388 40.982 34.6209 40.857ZM35.5399 39.4919L32.5851 40.8435L33.0395 41.1814L34.0532 40.7185C34.0093 40.8638 34.0735 41.0006 34.2441 41.1256C34.2724 41.1458 34.3017 41.1644 34.332 41.1814C34.5441 41.2963 34.7836 41.3513 35.0247 41.3402C35.3608 41.3309 35.6912 41.2509 35.9944 41.1054L36.0231 41.0918C36.361 40.9353 36.5711 40.7697 36.6533 40.5951C36.731 40.4262 36.6668 40.2572 36.4573 40.1035C36.4311 40.0853 36.4041 40.0683 36.3762 40.0528C36.1925 39.9525 35.9858 39.9018 35.7765 39.9058L35.9707 39.7977L35.5484 39.4902" fill="#BB7959"/>
<path d="M36.437 42.1781L36.3931 42.1493C36.2495 42.0446 36.2242 41.9398 36.3053 41.8351L37.1804 41.433C37.3305 41.4106 37.4837 41.4386 37.6163 41.5124C37.6382 41.5259 37.6585 41.5377 37.6788 41.553C37.7852 41.6307 37.8139 41.7219 37.7616 41.8064C37.6643 41.9302 37.5344 42.0244 37.3865 42.0784C36.9698 42.2687 36.6533 42.3019 36.437 42.1781ZM37.3544 40.813L34.3979 42.1645L34.854 42.5024L35.8677 42.0378C35.8238 42.1848 35.888 42.32 36.0586 42.4467C36.0873 42.4669 36.1177 42.4855 36.1481 42.5041C36.3595 42.6179 36.5977 42.6722 36.8374 42.6612C37.1736 42.652 37.504 42.572 37.8072 42.4264L37.8376 42.4129C38.1755 42.2558 38.3901 42.0902 38.4678 41.9162C38.5455 41.7422 38.4796 41.5783 38.2701 41.4262C38.2441 41.4067 38.2171 41.3886 38.189 41.3722C38.0056 41.2726 37.7996 41.222 37.5909 41.2252L37.7835 41.1188L37.3629 40.8113" fill="#BB7959"/>
<path d="M38.238 43.4908L38.189 43.4587C38.0758 43.3759 38.042 43.2898 38.0893 43.1951C38.182 43.0655 38.3124 42.9676 38.4627 42.9147C38.6483 42.8192 38.851 42.7618 39.0591 42.7457C39.1892 42.7369 39.3192 42.765 39.4341 42.8268L39.4814 42.8573C39.5929 42.94 39.625 43.0262 39.5777 43.1242C39.4867 43.254 39.3573 43.352 39.2077 43.4046C39.0212 43.5006 38.8172 43.558 38.608 43.5736C38.4794 43.5805 38.3514 43.5518 38.238 43.4908ZM39.8176 42.57C39.6807 42.4915 39.5326 42.4346 39.3784 42.4011C39.1604 42.3533 38.9357 42.3436 38.7144 42.3724C38.4841 42.4017 38.2596 42.4661 38.0488 42.5633L38.0234 42.5734C37.6855 42.7311 37.4907 42.9079 37.4389 43.1039C37.3865 43.3016 37.4845 43.4891 37.7295 43.6682C37.7708 43.6979 37.8137 43.7256 37.8579 43.751C38.0892 43.8815 38.3492 43.9529 38.6147 43.9588C38.9641 43.9743 39.3119 43.9048 39.6284 43.756L39.7703 43.6868C40.0558 43.5347 40.2147 43.3658 40.2451 43.1799C40.2755 42.9941 40.1758 42.8167 39.9477 42.6494C39.9083 42.6205 39.8671 42.5939 39.8244 42.57" fill="#BB7959"/>
<path d="M40.9901 43.4602L38.8546 44.4435L39.3108 44.7729L40.708 44.1309C40.8727 44.1064 41.0409 44.1392 41.1844 44.2238C41.2114 44.2407 41.2385 44.2576 41.2638 44.2762C41.316 44.3152 41.3657 44.3576 41.4125 44.4029L41.9666 44.1563C41.9349 44.1109 41.8954 44.0715 41.8501 44.0397L41.7926 44.0025C41.6027 43.907 41.3883 43.8711 41.1776 43.8995L41.4209 43.7728L40.9901 43.4602Z" fill="#BB7959"/>
<path d="M42.8587 44.1935L42.3332 44.4351L42.0849 44.2526L41.6676 44.4452L41.916 44.626L40.7654 45.1565C40.3684 45.3457 40.3279 45.5569 40.6472 45.79C40.6847 45.8168 40.7236 45.8416 40.7637 45.8644C40.8305 45.9042 40.9006 45.9381 40.9732 45.9657L41.4057 45.7681L41.3533 45.7394C41.3229 45.7208 41.2908 45.7005 41.2571 45.6769C41.1895 45.6262 41.1624 45.5856 41.1709 45.5518C41.1793 45.518 41.2249 45.4842 41.3043 45.4471L42.3704 44.9571L42.661 45.17L43.08 44.9774L42.7877 44.7645L43.3131 44.523L42.8587 44.1851" fill="#BB7959"/>
<path opacity="0.2" d="M46.3288 72.4059L52.2098 78.2886L72.9513 69.3108L68.2073 67.3477L46.3288 72.4059Z" fill="#CFD4D9"/>
<path d="M71.7923 64.467L71.2956 67.9912C71.0793 69.5253 70.0961 69.8496 70.0961 69.8496L56.8406 75.1748C55.3319 75.8996 52.7268 75.533 52.7268 75.533C46.094 74.9113 46.1936 70.8616 46.1936 70.8616L46.6903 67.3374C46.6903 67.3374 46.589 71.3921 53.2235 72.0071C53.2235 72.0071 55.8286 72.3737 57.3373 71.6489L70.5911 66.3254C70.5911 66.3254 71.576 65.996 71.7923 64.467Z" fill="#ECECEC"/>
<path d="M72.0288 62.7774L71.7923 64.4669C71.5761 65.9992 70.5911 66.3253 70.5911 66.3253L57.3373 71.6488C55.8286 72.3735 53.2235 72.0069 53.2235 72.0069C46.589 71.3869 46.6903 67.3373 46.6903 67.3373L46.9421 65.5448C47.035 64.8842 47.0282 64.0242 47.2496 63.3654C47.2665 63.313 47.2867 63.2606 47.307 63.2116C47.307 63.1964 47.3205 63.1778 47.329 63.1626C47.8459 62.0189 49.3732 61.6776 50.4224 61.2603C53.9567 59.8547 57.4894 58.3882 61.098 57.1718C61.9363 56.8783 62.8327 56.7898 63.7121 56.9139C64.5916 57.0379 65.4285 57.3708 66.1529 57.8848L71.0861 61.7046C71.941 62.2959 72.0288 62.7774 72.0288 62.7774Z" fill="#EBBE73"/>
<path d="M72.0288 62.7775L71.7923 64.467C71.5761 65.9993 70.5911 66.3254 70.5911 66.3254L57.3373 71.6489C55.8286 72.3737 53.2235 72.007 53.2235 72.007C46.589 71.387 46.6903 67.3374 46.6903 67.3374L47.1431 64.1173C47.1431 64.1173 47.0418 68.172 53.6763 68.7886C53.6763 68.7886 56.2814 69.1552 57.7901 68.4305L71.0489 63.1154C71.381 62.9714 71.6589 62.726 71.843 62.4143C71.9276 62.5224 71.9907 62.6457 72.0288 62.7775Z" fill="#F3F3F3"/>
<path d="M71.8396 62.406C71.6555 62.7177 71.3776 62.9631 71.0455 63.1071L57.7901 68.4323C56.2814 69.1571 53.6763 68.7905 53.6763 68.7905C47.0418 68.1687 47.1431 64.1191 47.1431 64.1191L47.2496 63.3673C47.2665 63.3149 47.2867 63.2626 47.307 63.2136C47.307 63.1984 47.3205 63.1798 47.329 63.1646C47.8459 62.0208 49.3732 61.6795 50.4224 61.2623C53.9567 59.8566 57.4893 58.3902 61.098 57.1738C61.9363 56.8802 62.8327 56.7918 63.7121 56.9158C64.5916 57.0399 65.4285 57.3728 66.1529 57.8867L71.0861 61.7066C71.3751 61.8953 71.6299 62.1318 71.8396 62.406Z" fill="#E8E9EA"/>
<path d="M69.3257 62.7774L56.947 67.567C56.6041 67.6998 56.2322 67.7402 55.8687 67.6842C55.5052 67.6281 55.1628 67.4776 54.8758 67.2477L49.6216 63.0494C49.5524 62.9938 49.499 62.921 49.4668 62.8383C49.4345 62.7556 49.4246 62.6658 49.4379 62.5781C49.4513 62.4903 49.4874 62.4076 49.5428 62.3382C49.5981 62.2688 49.6707 62.2152 49.7533 62.1827L61.3227 57.6921C61.7822 57.514 62.2793 57.4556 62.7675 57.5224C63.2557 57.5892 63.719 57.779 64.1137 58.0739L69.4254 62.0458C69.4856 62.091 69.5327 62.1514 69.5618 62.2209C69.5909 62.2903 69.6008 62.3663 69.5907 62.4409C69.5805 62.5155 69.5506 62.5861 69.504 62.6452C69.4574 62.7044 69.3958 62.75 69.3257 62.7774Z" fill="#21242B"/>
<path d="M66.9283 62.3721L56.0144 66.6177L51.0812 62.7979L61.5136 58.6401L66.9283 62.3721Z" fill="#3F434C"/>
<path d="M48.5876 63.8538L53.4989 67.8274C53.4989 67.8274 47.8493 66.8762 48.5876 63.8538Z" fill="#21242B"/>
<path d="M46.9556 68.7818C46.9556 68.7818 47.1955 68.1905 48.0503 68.7818C48.9052 69.3732 51.5982 71.316 50.4156 71.9293C48.8393 72.7453 46.2781 70.4578 46.9556 68.7818Z" fill="#7D7E82"/>
</g>
<defs>
<clipPath id="clip0">
<rect width="109.169" height="78.5614" fill="white" transform="translate(18 6)"/>
</clipPath>
</defs>
</svg>
