<svg id="Layer_1" data-name="Layer 1" xmlns="http://www.w3.org/2000/svg" viewBox="0 0 200 200"><defs><style>.cls-1{fill:#f4f6ff;}.cls-2{fill:#fff;}.cls-3{fill:#546fe2;}.cls-4,.cls-7{fill:#eaeeff;}.cls-5{fill:#98acff;}.cls-6{fill:#fef7db;}.cls-7{opacity:0.24;isolation:isolate;}</style></defs><g id="Group_15846" data-name="Group 15846"><g id="Group_15842" data-name="Group 15842"><g id="Group_15693" data-name="Group 15693"><rect id="Rectangle_2078" data-name="Rectangle 2078" class="cls-1" width="200" height="200" rx="11"/></g></g><g id="Group_15843" data-name="Group 15843"><rect id="Rectangle_2383" data-name="Rectangle 2383" class="cls-2" x="21.84" y="30.37" width="158.07" height="112.91" transform="translate(-5.83 7.27) rotate(-4.01)"/><rect id="Rectangle_2384" data-name="Rectangle 2384" class="cls-3" x="18.4" y="30.49" width="158.07" height="14.7" transform="translate(-2.41 6.91) rotate(-4.01)"/><circle id="Ellipse_527" data-name="Ellipse 527" class="cls-2" cx="26.81" cy="42.79" r="2.41"/><circle id="Ellipse_528" data-name="Ellipse 528" class="cls-2" cx="36.42" cy="42.12" r="2.41"/><circle id="Ellipse_529" data-name="Ellipse 529" class="cls-2" cx="46.66" cy="41.4" r="2.41"/><path id="Rectangle_2385" data-name="Rectangle 2385" class="cls-2" d="M117.65,34l50.23-3.52a2.41,2.41,0,0,1,2.57,2.24h0a2.41,2.41,0,0,1-2.24,2.57L118,38.81a2.4,2.4,0,0,1-2.57-2.23h0A2.42,2.42,0,0,1,117.65,34Z"/><rect id="Rectangle_2386" data-name="Rectangle 2386" class="cls-4" x="30.71" y="58.71" width="41.83" height="77.87" transform="translate(-6.71 3.85) rotate(-4.01)"/><rect id="Rectangle_2387" data-name="Rectangle 2387" class="cls-4" x="130.25" y="51.72" width="41.83" height="77.87" transform="translate(-5.97 10.8) rotate(-4.01)"/><rect id="Rectangle_2388" data-name="Rectangle 2388" class="cls-4" x="80.48" y="55.22" width="41.83" height="77.87" transform="translate(-6.34 7.33) rotate(-4.01)"/><g id="Group_15784" data-name="Group 15784"><rect id="Rectangle_2389-2" data-name="Rectangle 2389-2" class="cls-2" x="28.77" y="55.63" width="101.43" height="58.24" transform="translate(-5.74 5.77) rotate(-4.01)"/><path id="Path_5457" data-name="Path 5457" class="cls-4" d="M35.08,66l46.47-3.26,3.11,44.41L38.2,110.44Z"/><path id="Path_5455" data-name="Path 5455" class="cls-5" d="M83.29,87.58l1.37,19.61-46.47,3.26L36.6,87.71l6.73-8.44a7.29,7.29,0,0,1,10.25-1.15,7.07,7.07,0,0,1,1.16,1.16L67.09,94.82a1.64,1.64,0,0,0,2.3.27,1.54,1.54,0,0,0,.25-.26l4.42-5.46A7.3,7.3,0,0,1,83.29,87.58Z"/><circle id="Ellipse_530" data-name="Ellipse 530" class="cls-6" cx="68.76" cy="75.12" r="5.2"/><rect id="Rectangle_2391" data-name="Rectangle 2391" class="cls-4" x="86.83" y="61.72" width="19.64" height="2.17" rx="1.08" transform="matrix(1, -0.07, 0.07, 1, -4.16, 6.92)"/><rect id="Rectangle_2392" data-name="Rectangle 2392" class="cls-4" x="87.18" y="66.39" width="32.5" height="2.17" rx="1.08" transform="translate(-4.47 7.4) rotate(-4.01)"/><rect id="Rectangle_2393" data-name="Rectangle 2393" class="cls-4" x="87.53" y="71.36" width="36.71" height="2.17" rx="1.08" transform="translate(-4.81 7.59) rotate(-4.01)"/><rect id="Rectangle_2394" data-name="Rectangle 2394" class="cls-4" x="89.42" y="98.4" width="32.5" height="2.17" rx="1.08" transform="translate(-6.7 7.64) rotate(-4.01)"/><rect id="Rectangle_2395" data-name="Rectangle 2395" class="cls-4" x="89.78" y="103.37" width="36.71" height="2.17" rx="1.08" transform="matrix(1, -0.07, 0.07, 1, -7.04, 7.82)"/><rect id="Rectangle_2396" data-name="Rectangle 2396" class="cls-4" x="87.89" y="76.48" width="36.71" height="2.17" rx="1.08" transform="translate(-5.17 7.62) rotate(-4.01)"/><rect id="Rectangle_2397" data-name="Rectangle 2397" class="cls-4" x="88.25" y="81.6" width="36.71" height="2.17" rx="1.08" transform="translate(-5.52 7.66) rotate(-4.01)"/><rect id="Rectangle_2398" data-name="Rectangle 2398" class="cls-4" x="88.62" y="86.95" width="30.1" height="2.17" rx="1.08" transform="translate(-5.91 7.47) rotate(-4.01)"/></g><g id="Group_15785" data-name="Group 15785"><rect id="Rectangle_2399-2" data-name="Rectangle 2399-2" class="cls-2" x="104.73" y="25.35" width="56.49" height="52.18" transform="matrix(1, -0.07, 0.07, 1, -3.27, 9.43)"/><rect id="Rectangle_2400" data-name="Rectangle 2400" class="cls-7" x="111.49" y="32.02" width="41.73" height="39.88" transform="translate(-3.31 9.39) rotate(-4.01)"/><path id="Path_5456" data-name="Path 5456" class="cls-5" d="M153.33,52.82l1.23,17.57-41.63,2.92L111.5,52.93l6-7.56a6.53,6.53,0,0,1,9.18-1,6.89,6.89,0,0,1,1,1L138.82,59.3a1.46,1.46,0,0,0,2.06.24,1.58,1.58,0,0,0,.23-.22l3.95-4.9A6.54,6.54,0,0,1,153.33,52.82Z"/><circle id="Ellipse_531" data-name="Ellipse 531" class="cls-6" cx="140.31" cy="41.66" r="4.66"/></g></g></g></svg>