<svg width="16" height="16" viewBox="0 0 16 16" fill="none" xmlns="http://www.w3.org/2000/svg">
<path d="M6.923 1.37894C7.61624 1.11229 8.38376 1.11229 9.077 1.37894L14.039 3.28694C14.618 3.50994 15 4.06694 15 4.68694V11.3129C15 11.6161 14.9082 11.9121 14.7367 12.162C14.5651 12.4119 14.3219 12.604 14.039 12.7129L9.077 14.6219C8.38376 14.8886 7.61624 14.8886 6.923 14.6219L1.962 12.7129C1.67893 12.6042 1.43547 12.4122 1.26373 12.1622C1.09199 11.9123 1.00004 11.6162 1 11.3129V4.68694C1.00004 4.38369 1.09199 4.08758 1.26373 3.83765C1.43547 3.58772 1.67893 3.39571 1.962 3.28694L6.923 1.37894ZM8.718 2.31194C8.25584 2.13418 7.74416 2.13418 7.282 2.31194L5.898 2.84494L11.488 4.96094L13.436 4.12694L8.718 2.31194ZM14 4.97194L8.5 7.32994V13.7579C8.574 13.7389 8.646 13.7159 8.718 13.6879L13.68 11.7799C13.7743 11.7436 13.8553 11.6795 13.9125 11.5961C13.9696 11.5127 14.0001 11.414 14 11.3129V4.97294V4.97194ZM7.5 13.7579V7.32994L2 4.97294V11.3129C1.99989 11.414 2.03042 11.5127 2.08754 11.5961C2.14467 11.6795 2.22571 11.7436 2.32 11.7799L7.282 13.6879C7.354 13.7159 7.426 13.7389 7.5 13.7579ZM2.564 4.12694L8 6.45694L10.164 5.52894L4.497 3.38294L2.564 4.12694Z" fill="#01173E"/>
</svg>
