<svg width="18" height="18" viewBox="0 0 18 18" fill="none" xmlns="http://www.w3.org/2000/svg">
<path fill-rule="evenodd" clip-rule="evenodd" d="M18 9C18 13.9706 13.9706 18 9 18C4.02944 18 0 13.9706 0 9C0 4.02944 4.02944 0 9 0C13.9706 0 18 4.02944 18 9ZM13.6192 7.22591C13.995 6.8212 13.9715 6.18847 13.5668 5.81266C13.1621 5.43686 12.5294 5.4603 12.1536 5.86501L7.54151 10.8318L5.82074 9.11108C5.43022 8.72055 4.79705 8.72055 4.40653 9.11108C4.016 9.5016 4.016 10.1348 4.40653 10.5253L6.86107 12.9798C7.05315 13.1719 7.3151 13.2776 7.58669 13.2726C7.85828 13.2675 8.11614 13.1522 8.30097 12.9532L13.6192 7.22591Z" fill="#99E276"/>
</svg>
