<svg width="24" height="25" viewBox="0 0 24 25" fill="none" xmlns="http://www.w3.org/2000/svg">
<path d="M5.0042 18.8422L5.00362 18.8422C4.88518 18.8429 4.76776 18.8202 4.65811 18.7754C4.54852 18.7307 4.44885 18.6647 4.36478 18.5814C4.271 18.488 4.19899 18.375 4.15388 18.2505C4.10883 18.1263 4.09171 17.9936 4.10373 17.8619C4.10375 17.8618 4.10377 17.8616 4.10378 17.8614L4.53368 13.6925L4.53371 13.6922C4.57693 13.2583 4.76806 12.8525 5.07502 12.5428C5.07508 12.5428 5.07515 12.5427 5.07521 12.5427L14.0719 3.54596C14.4275 3.24689 14.8804 3.08843 15.3449 3.10066C15.8103 3.11291 16.255 3.29561 16.5946 3.61407L19.3335 6.35295L19.3335 6.35297L19.3352 6.35464C19.684 6.68689 19.8868 7.14384 19.8992 7.62536C19.9116 8.10642 19.733 8.57281 19.4025 8.92251L10.4038 17.9212C10.4037 17.9213 10.4037 17.9213 10.4036 17.9214C10.0941 18.2283 9.68844 18.4194 9.25473 18.4627C9.25459 18.4627 9.25444 18.4627 9.25429 18.4627L5.08966 18.8422L5.0042 18.8422ZM15.3449 4.87153L15.2733 4.79992L15.2026 4.87243L13.2526 6.87243L13.1837 6.94313L13.2535 7.01295L15.9335 9.69295L16.0033 9.76277L16.074 9.69384L18.074 7.74384L18.1465 7.67314L18.0749 7.60153L15.3449 4.87153ZM6.30374 13.7813L6.27789 13.807L6.27461 13.8432L6.00461 16.8332L5.9938 16.953L6.1135 16.9418L9.1135 16.6618L9.14941 16.6585L9.17491 16.633L14.7749 11.033L14.8456 10.9622L14.7749 10.8915L12.0749 8.19153L12.0045 8.12107L11.9337 8.19128L6.30374 13.7813ZM4.36781 21.3058C4.53659 21.1371 4.76551 21.0422 5.0042 21.0422H19.0042C19.2429 21.0422 19.4718 21.1371 19.6406 21.3058C19.8094 21.4746 19.9042 21.7035 19.9042 21.9422C19.9042 22.1809 19.8094 22.4099 19.6406 22.5786C19.4718 22.7474 19.2429 22.8422 19.0042 22.8422H5.0042C4.76551 22.8422 4.53659 22.7474 4.36781 22.5786C4.19902 22.4099 4.1042 22.1809 4.1042 21.9422C4.1042 21.7035 4.19902 21.4746 4.36781 21.3058Z" fill="#01173E" stroke="#FBF1F1" stroke-width="0.2"/>
</svg>
