<svg width="25" height="25" viewBox="0 0 25 25" fill="none" xmlns="http://www.w3.org/2000/svg">
<path d="M21.3921 6.09453L18.896 3.60078C18.5913 3.29609 18.1835 3.125 17.7522 3.125C17.321 3.125 16.9131 3.29375 16.6085 3.60078L13.9202 6.28437C13.6155 6.58906 13.4444 6.99922 13.4444 7.43047C13.4444 7.86406 13.6131 8.26953 13.9202 8.57656L16.0202 10.6789C15.5418 11.7936 14.8544 12.8063 13.9952 13.6625C13.135 14.5273 12.1296 15.2094 11.0139 15.6922L8.91393 13.5898C8.60924 13.2852 8.20143 13.1141 7.77018 13.1141C7.55747 13.1133 7.34674 13.155 7.15034 13.2366C6.95394 13.3183 6.77583 13.4384 6.62643 13.5898L3.9358 16.2734C3.63112 16.5781 3.46002 16.9883 3.46002 17.4195C3.46002 17.8531 3.62877 18.2586 3.9358 18.5656L6.42955 21.0594C6.94987 21.5797 7.66705 21.8773 8.40299 21.8773C8.55533 21.8773 8.70299 21.8656 8.85299 21.8398C11.9561 21.3289 15.0358 19.6766 17.5225 17.1922C20.0069 14.7031 21.6569 11.6234 22.1725 8.51797C22.3202 7.63672 22.0249 6.72969 21.3921 6.09453ZM20.5108 8.23906C20.0538 11.0023 18.5678 13.7586 16.3296 15.9969C14.0913 18.2352 11.3374 19.7211 8.57408 20.1781C8.22721 20.2367 7.87096 20.1195 7.61783 19.8687L5.16862 17.4195L7.76549 14.8203L10.5733 17.6328L10.5944 17.6539L11.1006 17.4664C12.6356 16.902 14.0295 16.0107 15.1858 14.854C16.342 13.6974 17.2329 12.3032 17.7967 10.768L17.9842 10.2617L15.153 7.43281L17.7499 4.83359L20.1991 7.28281C20.4522 7.53594 20.5694 7.89219 20.5108 8.23906Z" fill="#01173E"/>
</svg>
