<svg width="25" height="25" viewBox="0 0 25 25" fill="none" xmlns="http://www.w3.org/2000/svg">
<path d="M21.4195 9.68984L15.6445 3.91484C15.4922 3.7625 15.2929 3.6875 15.0937 3.6875C14.8945 3.6875 14.6953 3.7625 14.5429 3.91484L10.7671 7.69297C10.4812 7.66016 10.1929 7.64609 9.90465 7.64609C8.18902 7.64609 6.4734 8.21094 5.06481 9.34063C4.97951 9.40912 4.90959 9.49481 4.85962 9.59212C4.80964 9.68943 4.78073 9.79618 4.77476 9.90541C4.76879 10.0146 4.7859 10.1239 4.82497 10.2261C4.86404 10.3283 4.9242 10.4211 5.00152 10.4984L9.26012 14.757L4.21168 19.8008C4.14982 19.8623 4.11164 19.9436 4.10387 20.0305L4.02418 20.9023C4.00309 21.1227 4.17887 21.3102 4.39684 21.3102C4.40856 21.3102 4.42027 21.3102 4.43199 21.3078L5.30387 21.2281C5.39059 21.2211 5.47262 21.1813 5.53356 21.1203L10.582 16.0719L14.8406 20.3305C14.9929 20.4828 15.1921 20.5578 15.3914 20.5578C15.6187 20.5578 15.8437 20.4594 15.9984 20.2672C17.3179 18.6195 17.8664 16.557 17.6437 14.5625L21.4195 10.7867C21.7218 10.4867 21.7218 9.99453 21.4195 9.68984ZM16.4484 13.3742L15.8742 13.9484L15.9632 14.7547C16.1029 16.0017 15.8541 17.2615 15.2507 18.3617L6.97496 10.0813C7.27731 9.91484 7.59137 9.77422 7.91949 9.66172C8.55699 9.44141 9.22496 9.33125 9.90465 9.33125C10.1296 9.33125 10.357 9.34297 10.582 9.36875L11.3882 9.45781L11.9625 8.88359L15.0961 5.75L19.5843 10.2383L16.4484 13.3742Z" fill="#01173E"/>
</svg>
