<svg width="22" height="19" viewBox="0 0 22 19" fill="none" xmlns="http://www.w3.org/2000/svg">
<path d="M4.85714 2.30357C4.85714 1.69263 5.09984 1.1067 5.53184 0.6747C5.96385 0.242697 6.54977 0 7.16071 0H14.8393C15.4502 0 16.0362 0.242697 16.4682 0.6747C16.9002 1.1067 17.1429 1.69263 17.1429 2.30357V3.07143H18.6786C19.4932 3.07143 20.2744 3.39502 20.8504 3.97103C21.4264 4.54703 21.75 5.32826 21.75 6.14286V13.0536C21.75 13.6645 21.5073 14.2504 21.0753 14.6824C20.6433 15.1144 20.0574 15.3571 19.4464 15.3571H17.2964V16.125C17.2964 16.7359 17.0537 17.3219 16.6217 17.7539C16.1897 18.1859 15.6038 18.4286 14.9929 18.4286H7.16071C6.54977 18.4286 5.96385 18.1859 5.53184 17.7539C5.09984 17.3219 4.85714 16.7359 4.85714 16.125V15.3571H2.55357C1.94263 15.3571 1.3567 15.1144 0.9247 14.6824C0.492697 14.2504 0.25 13.6645 0.25 13.0536V6.14286C0.25 5.32826 0.573596 4.54703 1.1496 3.97103C1.72561 3.39502 2.50683 3.07143 3.32143 3.07143H4.85714V2.30357ZM15.6071 3.07143V2.30357C15.6071 2.09992 15.5262 1.90462 15.3822 1.76061C15.2382 1.61661 15.0429 1.53571 14.8393 1.53571H7.16071C6.95707 1.53571 6.76176 1.61661 6.61776 1.76061C6.47376 1.90462 6.39286 2.09992 6.39286 2.30357V3.07143H15.6071ZM4.85714 4.60714H3.32143C2.91413 4.60714 2.52352 4.76894 2.23551 5.05694C1.94751 5.34495 1.78571 5.73556 1.78571 6.14286V13.0536C1.78571 13.2572 1.86661 13.4525 2.01061 13.5965C2.15462 13.7405 2.34992 13.8214 2.55357 13.8214H4.85714V13.0536C4.85714 12.4426 5.09984 11.8567 5.53184 11.4247C5.96385 10.9927 6.54977 10.75 7.16071 10.75H14.9929C15.6038 10.75 16.1897 10.9927 16.6217 11.4247C17.0537 11.8567 17.2964 12.4426 17.2964 13.0536V13.8214H19.4464C19.6501 13.8214 19.8454 13.7405 19.9894 13.5965C20.1334 13.4525 20.2143 13.2572 20.2143 13.0536V6.14286C20.2143 5.73556 20.0525 5.34495 19.7645 5.05694C19.4765 4.76894 19.0859 4.60714 18.6786 4.60714H4.85714ZM7.16071 12.2857C6.95707 12.2857 6.76176 12.3666 6.61776 12.5106C6.47376 12.6546 6.39286 12.8499 6.39286 13.0536V16.125C6.39286 16.3286 6.47376 16.524 6.61776 16.668C6.76176 16.812 6.95707 16.8929 7.16071 16.8929H14.9929C15.1965 16.8929 15.3918 16.812 15.5358 16.668C15.6798 16.524 15.7607 16.3286 15.7607 16.125V13.0536C15.7607 12.8499 15.6798 12.6546 15.5358 12.5106C15.3918 12.3666 15.1965 12.2857 14.9929 12.2857H7.16071Z" fill="#001740"/>
</svg>
