<svg width="22" height="17" viewBox="0 0 22 17" fill="none" xmlns="http://www.w3.org/2000/svg">
<path fill-rule="evenodd" clip-rule="evenodd" d="M2.75 14.1667H0.916667C0.410667 14.1667 0 13.7436 0 13.2222V0.944444C0 0.423111 0.410667 0 0.916667 0H12.8333C13.3393 0 13.75 0.423111 13.75 0.944444V2.83333H18.0281C19.052 2.83333 19.4948 3.37733 19.8028 3.87883C20.3473 4.76661 21.2108 6.17572 21.736 7.06917C21.9083 7.36383 22 7.70194 22 8.04667V12.2778C22 13.3063 21.3189 14.1667 20.1667 14.1667H19.25C19.25 15.7307 18.018 17 16.5 17C14.982 17 13.75 15.7307 13.75 14.1667H8.25C8.25 15.7307 7.018 17 5.5 17C3.982 17 2.75 15.7307 2.75 14.1667ZM5.5 13.0333C6.10683 13.0333 6.6 13.5414 6.6 14.1667C6.6 14.7919 6.10683 15.3 5.5 15.3C4.89317 15.3 4.4 14.7919 4.4 14.1667C4.4 13.5414 4.89317 13.0333 5.5 13.0333ZM16.5 13.0333C17.1068 13.0333 17.6 13.5414 17.6 14.1667C17.6 14.7919 17.1068 15.3 16.5 15.3C15.8932 15.3 15.4 14.7919 15.4 14.1667C15.4 13.5414 15.8932 13.0333 16.5 13.0333ZM13.75 10.3889H1.83333V12.2778H3.45125C3.9545 11.6979 4.686 11.3333 5.5 11.3333C6.314 11.3333 7.0455 11.6979 7.54875 12.2778H14.4513C14.9545 11.6979 15.686 11.3333 16.5 11.3333C17.314 11.3333 18.0455 11.6979 18.5488 12.2778H20.1667V7.95694L18.5982 5.19067C18.4342 4.90072 18.1326 4.72222 17.8072 4.72222H13.75V10.3889ZM11.9167 1.88889H1.83333V8.5H11.9167V1.88889ZM14.6667 5.66667V8.5H19.25L17.9419 6.14267C17.7787 5.848 17.4753 5.66667 17.1462 5.66667H14.6667Z" fill="#001740"/>
</svg>
