<svg width="25" height="25" viewBox="0 0 25 25" fill="none" xmlns="http://www.w3.org/2000/svg">
<path d="M20.9556 18.3969C20.5134 17.3496 19.8718 16.3984 19.0665 15.5961C18.2636 14.7915 17.3125 14.15 16.2657 13.707C16.2563 13.7023 16.247 13.7 16.2376 13.6953C17.6978 12.6406 18.647 10.9227 18.647 8.98438C18.647 5.77344 16.0454 3.17188 12.8345 3.17188C9.62353 3.17188 7.02197 5.77344 7.02197 8.98438C7.02197 10.9227 7.97119 12.6406 9.43135 13.6977C9.42197 13.7023 9.4126 13.7047 9.40322 13.7094C8.35322 14.1523 7.41103 14.7875 6.60244 15.5984C5.79785 16.4013 5.15636 17.3524 4.71338 18.3992C4.27819 19.424 4.04349 20.5228 4.02197 21.6359C4.02134 21.661 4.02573 21.6858 4.03487 21.7091C4.04402 21.7324 4.05773 21.7537 4.0752 21.7716C4.09268 21.7895 4.11356 21.8037 4.13662 21.8134C4.15968 21.8231 4.18445 21.8281 4.20947 21.8281H5.61572C5.71885 21.8281 5.80088 21.7461 5.80322 21.6453C5.8501 19.8359 6.57666 18.1414 7.86103 16.857C9.18994 15.5281 10.9548 14.7969 12.8345 14.7969C14.7142 14.7969 16.479 15.5281 17.8079 16.857C19.0923 18.1414 19.8188 19.8359 19.8657 21.6453C19.8681 21.7484 19.9501 21.8281 20.0532 21.8281H21.4595C21.4845 21.8281 21.5093 21.8231 21.5323 21.8134C21.5554 21.8037 21.5763 21.7895 21.5937 21.7716C21.6112 21.7537 21.6249 21.7324 21.6341 21.7091C21.6432 21.6858 21.6476 21.661 21.647 21.6359C21.6235 20.5156 21.3915 19.4258 20.9556 18.3969ZM12.8345 13.0156C11.7587 13.0156 10.7462 12.5961 9.98447 11.8344C9.22275 11.0727 8.80322 10.0602 8.80322 8.98438C8.80322 7.90859 9.22275 6.89609 9.98447 6.13437C10.7462 5.37266 11.7587 4.95312 12.8345 4.95312C13.9103 4.95312 14.9228 5.37266 15.6845 6.13437C16.4462 6.89609 16.8657 7.90859 16.8657 8.98438C16.8657 10.0602 16.4462 11.0727 15.6845 11.8344C14.9228 12.5961 13.9103 13.0156 12.8345 13.0156Z" fill="#01173E"/>
</svg>
