<svg width="48" height="48" viewBox="0 0 48 48" fill="none" xmlns="http://www.w3.org/2000/svg">
<rect width="48" height="48" rx="9" fill="#F8D7D7"/>
<mask id="mask0" mask-type="alpha" maskUnits="userSpaceOnUse" x="0" y="0" width="48" height="48">
<rect width="48" height="48" rx="9" fill="#F9B7B7"/>
</mask>
<g mask="url(#mask0)">
<path d="M13.9545 18.5639C13.9545 18.5639 13.6612 24.6787 12.2543 28.522C10.8473 32.3653 9.20915 39.0041 16.0053 39.5849C22.8015 40.1657 34.7457 40.2844 35.7997 35.2769C36.8537 30.2694 31.9343 28.8705 30.9971 25.262C30.06 21.6534 18.6974 14.7799 13.9545 18.5639Z" fill="#74342D"/>
<g style="mix-blend-mode:multiply" opacity="0.4">
<path d="M29.5355 25.2616C28.8966 22.2117 22.2645 16.8359 17.9169 17.5206C17.9455 17.8264 17.9082 18.1348 17.8075 18.4252C17.1165 20.531 17.6907 22.7332 17.8871 24.8736C18.0972 26.9879 18.0747 29.1186 17.8199 31.2281C17.5001 33.9246 16.7031 36.5436 15.4659 38.9642C16.075 39.3134 16.7539 39.5252 17.4545 39.5846C22.9233 40.1679 32.5557 40.284 33.4059 35.2766C34.256 30.2691 30.2912 28.8702 29.5355 25.2616Z" fill="#680C0C"/>
</g>
<path d="M16.3931 35.7808C16.4223 35.6929 16.4641 35.6097 16.5174 35.5337L16.679 35.2717L16.7784 35.1135C16.8107 35.0567 16.8405 34.9924 16.8728 34.9281C17.2068 34.3005 17.4679 33.6372 17.6509 32.9509C17.8207 32.2715 17.9354 31.5797 17.9939 30.8821C18.0238 30.5954 18.0263 30.3532 18.0387 30.1851C18.0511 30.0171 18.0387 29.9207 18.0387 29.9207V29.6587C18.0387 29.4906 18.0611 29.2509 18.0586 28.9617C18.0586 28.3858 18.0586 27.6147 18.0238 26.8411C17.989 26.0674 17.9517 25.2938 17.9243 24.7155C17.897 24.3923 17.897 24.0674 17.9243 23.7441C17.9959 24.0604 18.0408 24.382 18.0586 24.7056C18.1207 25.2815 18.2003 26.0526 18.2674 26.8262C18.3345 27.5998 18.3743 28.3759 18.3792 28.9617C18.3792 29.2533 18.3792 29.498 18.3792 29.6686C18.3792 29.8391 18.3792 29.9355 18.3792 29.9355C18.3792 29.9355 18.3792 30.0344 18.3593 30.2049C18.3395 30.3755 18.332 30.6226 18.2947 30.9143C18.2122 31.6322 18.0675 32.3417 17.8622 33.0349C17.6499 33.7292 17.3492 34.3937 16.9673 35.0122C16.9275 35.074 16.8927 35.1358 16.8554 35.1901L16.7411 35.3434L16.5497 35.5905C16.4677 35.7141 16.403 35.7883 16.3931 35.7808Z" fill="#680C0C"/>
<path d="M35.0565 36.4803C35.0266 36.4605 35.2503 36.1368 35.4318 35.593C35.6403 34.9247 35.6905 34.2175 35.5785 33.5268C35.4718 32.8392 35.2588 32.1723 34.9471 31.5495C34.8253 31.3023 34.6985 31.0873 34.6214 30.9415L34.4847 30.719C34.4847 30.719 34.4375 30.635 34.348 30.4966C34.2585 30.3582 34.1293 30.158 33.9552 29.9355C33.6122 29.4807 33.0753 28.9246 32.5657 28.3315C32.0766 27.7996 31.6944 27.1796 31.4396 26.5049C31.396 26.3776 31.3628 26.247 31.3402 26.1144C31.3179 26.0136 31.3046 25.9111 31.3004 25.8079C31.2845 25.7197 31.2845 25.6293 31.3004 25.541C31.3669 25.8508 31.4498 26.1569 31.549 26.458C31.8397 27.0939 32.2411 27.6737 32.7347 28.1708C33.2567 28.7319 33.816 29.2756 34.1889 29.7353C34.3778 29.9652 34.5195 30.1679 34.6165 30.3112C34.7134 30.4546 34.7656 30.5386 34.7656 30.5386L34.9023 30.7734C34.9819 30.9266 35.1037 31.1417 35.2205 31.416C35.5266 32.0767 35.7246 32.7817 35.8072 33.5045C35.896 34.2297 35.8047 34.9655 35.5412 35.6474C35.4928 35.7724 35.4355 35.8939 35.3697 36.0107C35.3239 36.1035 35.2698 36.192 35.2081 36.2752C35.1672 36.3502 35.1162 36.4192 35.0565 36.4803Z" fill="#680C0C"/>
<path d="M29.7468 93.055C29.7468 93.055 28.1857 93.6087 26.6992 92.9018C26.6992 92.9018 26.6569 80.0124 26.3114 75.734C26.038 72.3603 24.4371 62.3256 24.4371 62.3256L21.0018 93.0699C20.5394 93.2843 20.0323 93.3858 19.5225 93.366C19.0128 93.3462 18.5151 93.2057 18.071 92.9562C18.071 92.9562 15.0557 68.6653 16.6292 57.7507C17.8721 49.0753 19.908 47.973 19.908 47.973L18.8143 29.9896C18.8143 29.9896 26.5202 28.5437 27.9197 30.432C29.3192 32.3203 30.2738 36.5814 30.4329 37.8468C30.592 39.1123 28.653 48.2918 28.653 48.2918C28.653 48.2918 38.1786 65.7957 29.7468 93.055Z" fill="#94CAFB"/>
<g style="mix-blend-mode:multiply" opacity="0.3">
<path d="M30.5696 65.2054C30.9797 63.5642 31.3551 62.0294 32.3991 60.6749C31.0792 52.751 28.653 48.2872 28.653 48.2872C28.653 48.2872 30.5895 39.1052 30.4329 37.8422C30.2763 36.5793 29.3292 32.3232 27.9197 30.4274C26.5103 28.5317 18.8143 29.985 18.8143 29.985L19.908 47.9684C19.908 47.9684 17.8771 49.0707 16.6292 57.7461C15.0557 68.6607 18.071 92.9516 18.071 92.9516C18.5151 93.2011 19.0128 93.3416 19.5225 93.3614C20.0323 93.3812 20.5394 93.2797 21.0018 93.0653L21.0838 92.3238C20.1248 88.3258 19.6302 84.2316 19.6097 80.1215C19.5799 77.3657 19.8011 74.6271 19.8359 71.8762C19.8633 69.7655 19.7812 67.4273 20.9794 65.5761C21.7748 64.3403 23.1868 64.3576 24.1413 64.978L24.4371 62.3235C24.4371 62.3235 24.6857 63.9028 25.0089 66.016C25.101 66.258 25.14 66.5167 25.1232 66.7748C25.593 69.9039 26.1573 73.851 26.3114 75.7319C26.6569 80.0103 26.6992 92.8997 26.6992 92.8997C28.1907 93.6066 29.7468 93.0529 29.7468 93.0529C29.8189 92.8206 29.886 92.5907 29.9556 92.3609C29.0035 89.6767 29.1353 86.1052 28.9613 83.7819C28.6331 79.558 28.6282 75.287 29.3143 71.0977C29.6349 69.1154 30.0799 67.1555 30.5696 65.2054Z" fill="#94CAFB"/>
</g>
<path d="M19.9826 46.9082L19.9528 29.7379C19.9528 29.7379 26.5103 28.5441 27.9073 30.4325C29.3043 32.3208 30.2614 36.5818 30.4205 37.8473C30.5795 39.1127 28.7177 46.5275 28.7177 46.5275C28.7177 46.5275 28.75 46.8464 28.8072 47.4272C27.44 48.4801 24.8498 49.098 19.9826 46.9082Z" fill="#94CAFB"/>
<path d="M27.1318 35.5263L27.0323 36.1121L26.8782 36.6904C26.7937 37.0389 26.6296 37.4912 26.4929 37.9436C26.1772 38.8457 25.7646 39.7033 25.7248 39.686C25.685 39.6687 26.0057 38.7765 26.2592 37.8694C26.3736 37.4122 26.5078 36.9574 26.5675 36.6114L26.6918 36.0355L26.8161 35.4645C26.9006 35.1234 26.9677 34.6613 27.0646 34.1991C27.2038 33.2747 27.2436 32.333 27.2958 32.333C27.348 32.333 27.3878 33.2796 27.3082 34.2287C27.2436 34.7008 27.1914 35.1754 27.1318 35.5263Z" fill="#5A92E6"/>
<path d="M22.5554 34.5078C22.8587 34.8884 23.1694 35.2641 23.3807 35.5631L23.7411 36.0575C23.7411 36.0575 23.8729 36.2626 24.0643 36.5715C24.2557 36.8805 24.5067 37.2957 24.7479 37.7159C25.2251 38.5587 25.6477 39.4312 25.6055 39.446C25.5632 39.4608 25.0661 38.6427 24.5391 37.8395C24.2706 37.4391 24.0071 37.0362 23.7933 36.7421L23.4503 36.2478L23.1147 35.7535C22.9183 35.4494 22.6325 35.0614 22.3565 34.6635C21.7898 33.8824 21.1609 33.1484 21.1982 33.1113C21.2354 33.0742 21.9315 33.7564 22.5554 34.5078Z" fill="#5A92E6"/>
<path d="M34.8029 39.1499L34.4474 38.5073C33.6346 39.496 32.8342 40.4846 31.9418 41.3917L32.9212 42.2098L27.44 43.1169L25.1729 44.0857L28.3572 45.9592C28.3572 45.9592 35.0913 45.9048 36.1925 45.1881C37.2937 44.4713 37.1669 43.8905 36.8537 42.7906C36.5405 41.6907 34.8029 39.1499 34.8029 39.1499Z" fill="#FFD7C0"/>
<g style="mix-blend-mode:multiply" opacity="0.2">
<path d="M36.8537 42.7853C36.7473 42.4533 36.6091 42.1322 36.4411 41.8264C35.8357 41.655 35.2717 41.3634 34.7829 40.9692C34.2941 40.575 33.8908 40.0863 33.5973 39.5327C33.0653 40.1704 32.5234 40.8006 31.9418 41.3938L32.598 41.9425L33.57 41.8165C34.4599 41.6978 35.0366 41.5693 35.7749 42.1724C36.5877 42.8298 35.9663 43.7765 35.146 43.9322C34.3256 44.0879 33.2443 44.1126 32.4339 44.2115C31.5812 44.3194 30.7231 44.3804 29.8636 44.3944C28.9588 44.4067 28.6207 43.5441 28.8395 42.8867L27.43 43.119L25.163 44.0879L28.3572 45.9589C28.3572 45.9589 35.0913 45.9045 36.1925 45.1877C37.2937 44.471 37.1669 43.8852 36.8537 42.7853Z" fill="#680C0C"/>
</g>
<path d="M36.0707 42.6125C36.0408 42.6298 35.8792 42.3406 35.6431 42.1354C35.5384 42.0407 35.4193 41.9632 35.2901 41.9056C35.2339 41.8804 35.1757 41.8597 35.1161 41.8438L35.0664 41.829C35.0236 41.8142 34.9795 41.8034 34.9346 41.7968C34.7963 41.77 34.6545 41.765 34.5145 41.782C34.2013 41.8117 33.8981 41.9451 33.8856 41.9155C34.0568 41.7668 34.2658 41.6676 34.4897 41.6288C34.6442 41.5921 34.8038 41.5812 34.962 41.5966C35.0157 41.6001 35.0689 41.6084 35.1211 41.6214L35.1807 41.6337L35.2379 41.656C35.2875 41.6758 35.3356 41.6989 35.3821 41.7252C35.5221 41.8037 35.6474 41.9057 35.7525 42.0267C35.9126 42.1878 36.023 42.391 36.0707 42.6125Z" fill="#C95B4C"/>
<path d="M27.0124 29.5103C27.0124 29.5103 28.8867 28.9294 30.5273 31.7347C32.168 34.54 33.9826 37.847 33.9826 37.847L30.4105 41.8015C30.4105 41.8015 24.4446 32.9038 26.8384 29.8068" fill="#94CAFB"/>
<g style="mix-blend-mode:multiply" opacity="0.3">
<path d="M27.2709 29.4683C27.1871 29.4754 27.1039 29.4894 27.0224 29.5103L26.8484 29.8019C24.4371 32.889 30.4229 41.7966 30.4229 41.7966L33.381 38.5168C30.0873 36.8287 27.5817 32.931 27.2709 29.4683Z" fill="#94CAFB"/>
</g>
<path d="M15.3789 56.2014C15.3789 56.2014 25.8416 61.325 33.4954 56.0457L30.2141 46.2631C30.2141 46.2631 32.0884 41.4484 31.9318 38.1883C31.7752 34.9283 28.3398 29.3375 26.6222 29.0261C24.9045 28.7147 18.9709 27.9386 17.7205 31.0454C16.4702 34.1522 18.0337 44.3921 18.0337 44.3921C18.0337 44.3921 15.5355 54.9582 15.3789 56.2014Z" fill="#94CAFB"/>
<g style="mix-blend-mode:multiply" opacity="0.5">
<path d="M15.3789 56.2014C15.3789 56.2014 25.8416 61.325 33.4954 56.0457L30.2141 46.2631C30.2141 46.2631 32.0884 41.4484 31.9318 38.1883C31.7752 34.9283 28.3398 29.3375 26.6222 29.0261C24.9045 28.7147 18.9709 27.9386 17.7205 31.0454C16.4702 34.1522 18.0337 44.3921 18.0337 44.3921C18.0337 44.3921 15.5355 54.9582 15.3789 56.2014Z" fill="#94CAFB"/>
</g>
<g style="mix-blend-mode:multiply" opacity="0.3">
<path d="M19.734 57.714C19.4282 54.0066 20.4002 50.2992 23.5746 47.9215C25.414 46.5349 28.0067 45.482 30.3831 45.7934C30.843 44.5057 32.0536 40.8354 31.9268 38.1883C31.8812 37.5161 31.7527 36.852 31.544 36.211C31.3742 36.4862 31.1658 36.7359 30.9251 36.9525C30.4031 37.6931 29.6918 38.2817 28.8646 38.6576C28.0373 39.0334 27.1242 39.1829 26.2194 39.0904C23.6367 38.7543 20.7507 37.0266 19.2095 34.7033C18.0287 33.4675 17.3302 31.8956 18.1729 30.341C18.1729 30.3088 18.1854 30.2792 18.1928 30.2495C17.9912 30.4826 17.8299 30.7474 17.7155 31.033C16.4726 34.1373 18.0287 44.3797 18.0287 44.3797C18.0287 44.3797 15.543 54.9384 15.3739 56.1816C16.775 56.8289 18.235 57.342 19.734 57.714Z" fill="#94CAFB"/>
</g>
<path d="M26.7787 38.769C26.7787 38.769 26.7141 38.7221 26.6122 38.6257L26.1971 38.2154L24.9691 36.9549L23.3036 35.0147L21.7425 33.0028L20.6836 31.6236L20.3405 31.1614C20.2921 31.1056 20.2519 31.0432 20.2212 30.9761C20.2775 31.0231 20.3283 31.0761 20.3729 31.1343L20.7507 31.5717L21.8743 32.9163L23.4826 34.8936L25.0934 36.8708L26.2667 38.1758L26.6445 38.6108C26.6949 38.6585 26.74 38.7116 26.7787 38.769Z" fill="#5A92E6"/>
<path d="M27.2486 38.2451C27.2456 38.1761 27.2522 38.107 27.2684 38.0399C27.2908 37.9114 27.3182 37.726 27.3629 37.506L27.691 35.897C27.8029 35.3113 27.8949 34.7255 27.9396 34.2831C27.967 34.0631 27.967 33.8777 27.9769 33.7492C27.9868 33.6207 27.9769 33.5465 27.9769 33.5465C27.9769 33.5465 27.9769 33.4724 27.9769 33.3439C27.9864 33.1669 27.9864 32.9895 27.9769 32.8125C27.9534 32.2759 27.8487 31.746 27.6662 31.2405C27.4695 30.7377 27.1851 30.2733 26.826 29.8688C26.5177 29.55 26.2915 29.3522 26.3064 29.3374C26.3673 29.3689 26.4234 29.4088 26.473 29.456C26.6178 29.5662 26.7564 29.6842 26.8881 29.8095C27.2798 30.2053 27.5934 30.6706 27.8128 31.1812C28.0177 31.6991 28.1418 32.245 28.1807 32.8001C28.197 32.9817 28.2036 33.164 28.2006 33.3463V33.554C28.2006 33.554 28.2006 33.6281 28.1857 33.7616C28.1708 33.895 28.1683 34.0829 28.1335 34.3053C28.0788 34.7552 27.9694 35.3459 27.8377 35.9292C27.7059 36.5125 27.5543 37.0908 27.4425 37.5258C27.3919 37.7691 27.3271 38.0092 27.2486 38.2451Z" fill="#5A92E6"/>
<path d="M17.6111 41.154C17.6111 41.154 19.4034 48.1907 22.528 48.5145C25.6527 48.8383 33.6321 44.12 33.913 42.7631C34.1939 41.4062 33.4158 40.5164 34.6165 39.3671C35.8171 38.2178 33.903 37.7259 32.8466 38.1189C31.7901 38.5119 30.3111 39.9652 31.3178 42.1279L23.9822 44.6563L21.4343 37.8569C21.4343 37.8569 17.8895 39.6439 17.6111 41.154Z" fill="#FFD7C0"/>
<g style="mix-blend-mode:multiply" opacity="0.4">
<path d="M22.6772 41.1738L21.4343 37.8569C21.4343 37.8569 17.8895 39.6439 17.6111 41.154C18.0057 42.6265 18.5504 44.0551 19.2368 45.4176C20.1516 43.8184 21.2106 42.1723 22.6772 41.1738Z" fill="#680C0C"/>
</g>
<g style="mix-blend-mode:multiply" opacity="0.2">
<path d="M33.7564 37.9878L33.5277 38.314C33.627 38.4714 33.6796 38.6535 33.6796 38.8393C33.6796 39.025 33.627 39.2071 33.5277 39.3645C32.9021 40.4728 32.1397 41.4991 31.2582 42.4194C30.5859 43.5601 29.6578 44.5311 28.5462 45.2568C26.9702 46.322 25.1555 47.6542 23.2788 48.1634C22.9674 48.3033 22.6414 48.4086 22.3068 48.4773C22.379 48.4934 22.452 48.5058 22.5256 48.5143C25.6477 48.8406 33.6296 44.1198 33.9105 42.7629C34.1914 41.406 33.4133 40.5162 34.614 39.3669C35.5064 38.5142 34.6761 38.0199 33.7564 37.9878Z" fill="#680C0C"/>
</g>
<path d="M32.8466 38.119C31.7876 38.512 30.3111 39.9653 31.3178 42.128L28.4368 43.1166C28.8494 43.9125 29.4783 45.0642 29.9283 45.9021C32.0561 44.6861 33.7763 43.3737 33.9055 42.7582C34.1864 41.3989 33.4084 40.5115 34.609 39.3622C35.8096 38.213 33.903 37.726 32.8466 38.119Z" fill="white"/>
<g style="mix-blend-mode:multiply" opacity="0.1">
<path d="M34.1889 38.0498C34.2531 38.423 34.218 38.8065 34.087 39.162C33.7614 40.0345 33.2344 41.038 32.3047 41.3865C32.0899 41.4555 31.862 41.4738 31.6389 41.4399C31.4158 41.406 31.2037 41.3208 31.0195 41.1912C31.0735 41.5184 31.174 41.8363 31.3178 42.1354L31.1935 42.1774C31.2173 42.2079 31.2389 42.2402 31.2582 42.2738C31.3667 42.4545 31.4368 42.6554 31.4642 42.8642C31.4915 43.0729 31.4756 43.285 31.4172 43.4873C31.3286 43.8015 31.1186 44.068 30.8331 44.2288C30.6496 44.3347 30.4412 44.3901 30.229 44.3895C30.0132 44.3884 29.8011 44.3332 29.6126 44.2288C29.4493 44.1522 29.307 44.0378 29.1974 43.8951C29.0359 43.7023 28.8959 43.4926 28.7798 43.2698C28.7403 43.1907 28.7086 43.1079 28.6854 43.0227L28.4368 43.1092C28.8494 43.905 29.4783 45.0568 29.9283 45.8947C32.0561 44.6786 33.7763 43.3662 33.9055 42.7508C34.1864 41.3914 33.4084 40.5041 34.609 39.3548C35.3622 38.6504 34.8974 38.1882 34.1889 38.0498Z" fill="#94CAFB"/>
</g>
<path d="M33.99 40.319C34.0359 40.198 34.0986 40.084 34.1765 39.9804C34.3306 39.7461 34.4717 39.5035 34.5991 39.2537C34.6264 39.1845 34.6562 39.1153 34.6861 39.0486L34.7134 38.9596V38.9423H34.6985H34.6736L34.5841 38.9126L34.4126 38.8904C34.329 38.8879 34.2455 38.8962 34.164 38.9151L34.0721 38.9374L33.9801 38.972C33.9005 39.0038 33.824 39.0427 33.7514 39.0881C33.5288 39.2453 33.3403 39.4453 33.1971 39.6764C33.0461 39.9086 32.9227 40.1574 32.8292 40.4179C32.7959 40.5419 32.7536 40.6633 32.7024 40.7812C32.6935 40.651 32.7087 40.5203 32.7471 40.3956C32.8164 40.116 32.9244 39.8474 33.0678 39.5973C33.2091 39.3381 33.403 39.1109 33.6371 38.9299C33.7195 38.8709 33.8078 38.8204 33.9006 38.7792L34.0074 38.7347L34.1243 38.7124C34.2257 38.6925 34.3295 38.6867 34.4325 38.6951L34.6339 38.7322C34.6687 38.7322 34.701 38.7569 34.7358 38.7693L34.8998 38.8336C34.8998 38.8336 34.9371 38.8336 34.9421 38.8533L34.9247 38.9003L34.8899 38.9942C34.875 39.0362 34.8601 39.0758 34.8427 39.1178C34.8253 39.1598 34.7756 39.2611 34.7383 39.3303C34.5932 39.5797 34.4268 39.8162 34.2411 40.0372C34.1686 40.1405 34.0844 40.235 33.99 40.319Z" fill="#D2E4FF"/>
<path d="M34.8974 38.89C34.8657 38.7764 34.8416 38.6608 34.8253 38.544C34.7972 38.4317 34.7474 38.3259 34.6786 38.2326C34.6406 38.1837 34.593 38.143 34.5387 38.1129C34.4845 38.0827 34.4247 38.0637 34.3629 38.0571C34.1138 38.0514 33.8679 38.1138 33.652 38.2375C33.4656 38.3339 33.3487 38.4105 33.3487 38.4105C33.3487 38.4105 33.2269 38.4822 33.0529 38.6008C32.8396 38.7526 32.6361 38.9177 32.4439 39.0951C32.2517 39.2695 32.0739 39.4587 31.9119 39.6611C31.8474 39.7611 31.7777 39.8576 31.7031 39.9503C31.722 39.8289 31.7697 39.7136 31.8423 39.6142C31.986 39.3893 32.1526 39.1798 32.3395 38.9889C32.5253 38.7945 32.7255 38.6144 32.9386 38.4501C33.0352 38.3751 33.1356 38.305 33.2393 38.24C33.3451 38.1743 33.4556 38.1164 33.57 38.067C33.8234 37.9402 34.108 37.8879 34.3903 37.9162C34.4684 37.9291 34.543 37.9577 34.6097 38.0002C34.6764 38.0427 34.7336 38.0982 34.7781 38.1634C34.8478 38.2736 34.8928 38.3975 34.9098 38.5267C34.9314 38.6473 34.9272 38.7711 34.8974 38.89Z" fill="#D2E4FF"/>
<path d="M33.5327 38.0644C33.439 38.0793 33.3441 38.0851 33.2493 38.0817C33.0458 38.0973 32.8462 38.1449 32.6577 38.2226C32.4706 38.3 32.2937 38.3996 32.1307 38.5191C32.0014 38.6205 31.9194 38.6922 31.9194 38.6922C31.9194 38.6922 31.8324 38.7614 31.7155 38.8751C31.5723 39.017 31.4456 39.1746 31.3377 39.3447C31.2276 39.515 31.1439 39.7008 31.0891 39.8958C31.0444 40.0565 31.0369 40.1702 31.017 40.1702C30.9949 40.075 30.9949 39.9761 31.017 39.881C31.0447 39.668 31.1095 39.4614 31.2084 39.2705C31.3075 39.0797 31.4302 38.902 31.5739 38.7416C31.6932 38.6106 31.7802 38.5315 31.7802 38.5315C31.7802 38.5315 31.8746 38.4574 32.0288 38.3585C32.212 38.2417 32.409 38.1479 32.6154 38.0792C32.8233 38.0138 33.0414 37.9862 33.2592 37.9976C33.3543 37.9985 33.4479 38.0214 33.5327 38.0644Z" fill="#D2E4FF"/>
<path d="M32.0138 43.1016C31.8527 43.0303 31.7081 42.9268 31.5888 42.7976C31.4635 42.6728 31.3495 42.5371 31.2482 42.3923C31.1663 42.2361 31.1053 42.0699 31.0668 41.898C31.0256 41.7246 31.0377 41.5429 31.1016 41.3765C31.1339 41.3765 31.1339 41.6236 31.2134 41.8708C31.2717 42.021 31.345 42.1651 31.4322 42.3008C31.5128 42.4437 31.6033 42.5808 31.7031 42.7111C31.8548 42.894 32.0337 43.0769 32.0138 43.1016Z" fill="#D2E4FF"/>
<path d="M23.0103 41.6759C23.0103 41.6759 21.5834 41.6042 21.6257 44.0486C21.668 46.493 22.1577 46.8143 23.5572 46.3843C24.9567 45.9542 25.511 44.1969 25.511 44.1969L27.7233 43.4035C27.7233 43.4035 25.2351 41.6388 23.0103 41.6759Z" fill="white"/>
<g style="mix-blend-mode:multiply" opacity="0.1">
<path d="M26.5178 42.6841C25.9535 43.7543 24.5838 44.6762 23.3508 44.6243C23.0059 44.6346 22.6645 44.5529 22.362 44.3877C22.0596 44.2226 21.8071 43.98 21.6307 43.6851C21.6307 43.8012 21.6307 43.9199 21.6307 44.0484C21.6729 46.4953 22.1626 46.8141 23.5621 46.3841C24.9616 45.954 25.516 44.1967 25.516 44.1967L27.7283 43.4033C27.3403 43.1387 26.936 42.8985 26.5178 42.6841Z" fill="#94CAFB"/>
</g>
<path d="M25.6079 43.5441C25.5774 43.6877 25.5393 43.8296 25.4936 43.9692C25.424 44.2164 25.3345 44.56 25.2202 44.8961C25.1263 45.2168 24.9738 45.5176 24.7702 45.7834C24.6872 45.8864 24.57 45.9565 24.4396 45.9811C24.4001 45.9881 24.3598 45.9881 24.3203 45.9811H24.278C24.2642 45.978 24.2508 45.973 24.2383 45.9663C24.2003 45.9514 24.1651 45.9306 24.1339 45.9045C24.0383 45.8183 23.9729 45.704 23.9474 45.5783C23.8852 45.2516 23.8852 44.9163 23.9474 44.5896C23.9931 44.269 24.0672 43.9531 24.1687 43.6455C24.2028 43.5004 24.27 43.3651 24.365 43.25C24.365 43.25 24.3079 43.4131 24.2532 43.6677C24.181 43.9769 24.1304 44.2908 24.1015 44.6069C24.063 44.9138 24.079 45.225 24.1488 45.5263C24.1678 45.6092 24.2131 45.6837 24.278 45.7389C24.2977 45.755 24.3206 45.7668 24.3452 45.7735C24.3452 45.7735 24.4595 45.8402 24.6285 45.6623C24.8244 45.4213 24.9774 45.1488 25.081 44.8565C25.2127 44.5352 25.3295 44.2016 25.4215 43.9569C25.4567 43.8088 25.52 43.6687 25.6079 43.5441Z" fill="#D2E4FF"/>
<path d="M23.8903 46.0283C23.7943 46.0546 23.6929 46.0546 23.5969 46.0283C23.3793 45.9751 23.1885 45.8451 23.06 45.6625C22.935 45.482 22.8448 45.2801 22.794 45.0668C22.7791 44.9803 22.7642 44.9087 22.7542 44.8568C22.7487 44.8306 22.7446 44.8042 22.7418 44.7777C22.7418 44.7777 22.7418 44.748 22.7418 44.6986C22.7376 44.6286 22.7376 44.5585 22.7418 44.4885C22.7442 44.2771 22.7642 44.0663 22.8015 43.8582C22.8336 43.647 22.8886 43.4398 22.9655 43.2403C22.993 43.1476 23.0424 43.0629 23.1097 42.9932C23.1271 42.9932 23.0824 43.1069 23.0476 43.27C22.9987 43.4673 22.9655 43.6681 22.9481 43.8706C22.9296 44.0719 22.9254 44.2742 22.9357 44.4761C22.9357 44.5577 22.9506 44.6269 22.9531 44.6739V44.748C22.9514 44.7727 22.9514 44.7975 22.9531 44.8221C22.9531 44.8691 22.968 44.9358 22.978 45.0174C23.011 45.211 23.0775 45.3975 23.1743 45.5686C23.2722 45.7373 23.4246 45.868 23.6069 45.9393C23.7734 45.9986 23.8903 46.0085 23.8903 46.0283Z" fill="#D2E4FF"/>
<path d="M23.577 46.2628C23.577 46.2628 23.5472 46.2999 23.4801 46.3518C23.3878 46.4248 23.2846 46.4832 23.1743 46.5248C23.0177 46.5912 22.8452 46.6118 22.6772 46.5841C22.4785 46.5468 22.2968 46.4482 22.1577 46.3024C21.9148 46.0331 21.7378 45.7117 21.6406 45.3631C21.5929 45.2083 21.5547 45.0506 21.5263 44.8911C21.5263 44.8911 21.4964 44.6983 21.484 44.3968C21.4698 44.0437 21.4982 43.6902 21.5685 43.3439C21.6331 42.9949 21.7703 42.6632 21.9712 42.37C22.0602 42.2327 22.187 42.1237 22.3366 42.0562C22.2298 42.1689 22.1318 42.2895 22.0433 42.417C21.8738 42.7116 21.7648 43.0367 21.7226 43.3735C21.6727 43.7089 21.661 44.0489 21.6878 44.3869C21.7102 44.6612 21.745 44.8441 21.745 44.8441C21.7666 44.9958 21.7973 45.146 21.837 45.2939C21.9122 45.619 22.0601 45.9231 22.2695 46.1837C22.3837 46.3142 22.5342 46.4079 22.702 46.4531C22.8519 46.4868 23.0081 46.48 23.1545 46.4334C23.4105 46.3617 23.5646 46.243 23.577 46.2628Z" fill="#D2E4FF"/>
<path d="M23.4403 40.1086C23.4403 40.1086 20.8427 30.9315 19.1896 30.2988C17.5366 29.666 15.0682 31.2701 15.1949 35.2914C15.3217 39.3127 16.8828 43.2524 16.8828 43.2524L23.4403 40.1086Z" fill="#94CAFB"/>
<g style="mix-blend-mode:multiply" opacity="0.3">
<path d="M16.6541 30.9243C15.7816 31.7276 15.1278 33.1735 15.1949 35.2916C15.3217 39.3129 16.8828 43.2527 16.8828 43.2527L20.0025 41.7574C17.1761 39.565 15.6623 34.6045 16.6541 30.9243Z" fill="#94CAFB"/>
</g>
<g style="mix-blend-mode:multiply" opacity="0.3">
<g style="mix-blend-mode:multiply" opacity="0.3">
<path d="M22.4833 38.9644C22.3354 39.0486 22.1787 39.1166 22.016 39.167L20.9769 39.5724C20.6016 39.7281 20.2312 39.8764 19.9503 40.0049L19.4879 40.2125L19.0305 40.4251C18.7521 40.5437 18.4041 40.7464 18.0362 40.9342C17.3377 41.3371 16.7237 41.8636 16.6989 41.8364C16.807 41.7055 16.9277 41.5855 17.0593 41.478L17.2432 41.3124C17.3128 41.258 17.3899 41.2061 17.4645 41.1493C17.6211 41.038 17.7851 40.9145 17.9616 40.8008C18.3146 40.5931 18.6601 40.3756 18.9386 40.2447L19.3935 40.0148L19.8682 39.8195C20.1491 39.6984 20.5344 39.5724 20.9197 39.4265C21.305 39.2807 21.6928 39.1794 21.9886 39.0855C22.1491 39.0288 22.3148 38.9883 22.4833 38.9644Z" fill="#94CAFB"/>
</g>
</g>
<path d="M25.7571 25.9243L25.8341 29.6515C25.8341 29.6515 26.6719 30.7983 26.6893 31.6139C26.7067 32.4296 26.0951 35.702 26.0951 35.702L21.4989 29.8542L21.397 24.9653L25.7571 25.9243Z" fill="#FFD7C0"/>
<g style="mix-blend-mode:multiply" opacity="0.4">
<path d="M21.2802 27.0138L21.2155 25.002L25.7944 26.2378L25.8615 28.2768C24.2325 28.405 22.6102 27.9578 21.2802 27.0138Z" fill="#680C0C"/>
</g>
<path d="M25.2326 8.93952C25.2326 8.93952 29.4584 9.85895 30.5572 12.6148C31.6559 15.3706 31.2631 19.7454 31.2631 19.7454C31.2631 19.7454 32.506 21.9698 31.9691 23.7988C31.4322 25.6278 28.7574 27.3332 24.6882 26.9847C23.3592 26.8769 22.0721 26.4708 20.9238 25.7969C19.7755 25.1231 18.7959 24.1991 18.0586 23.0944C18.0586 23.0944 15.5604 24.0138 14.31 22.0143C13.0596 20.0148 13.8128 17.0439 16.6466 18.2871C16.6466 18.2772 15.8313 8.77886 25.2326 8.93952Z" fill="#FFD7C0"/>
<g style="mix-blend-mode:multiply" opacity="0.2">
<g style="mix-blend-mode:multiply" opacity="0.2">
<path d="M28.0018 20.5187C27.9325 20.7029 27.7973 20.8552 27.6221 20.9464C27.4468 21.0377 27.2439 21.0614 27.0522 21.013C26.9573 21.0078 26.8645 20.9826 26.78 20.9392C26.6956 20.8957 26.6213 20.835 26.5621 20.761C26.503 20.687 26.4602 20.6014 26.4367 20.5098C26.4132 20.4182 26.4095 20.3226 26.4258 20.2295C26.4258 20.2295 25.7447 20.7807 25.7621 21.0649C25.7795 21.3491 28.5387 22.2982 28.0018 20.5187Z" fill="#680C0C"/>
</g>
</g>
<path d="M25.7621 20.9957C25.7819 20.9957 25.8317 20.9142 25.9261 20.803C26.0431 20.6686 26.1807 20.5535 26.3338 20.4619C26.4884 20.3699 26.656 20.3016 26.831 20.2592C26.9069 20.2408 26.9842 20.2285 27.0621 20.2221H27.1243C27.1789 20.218 27.2337 20.218 27.2883 20.2221C27.4502 20.2243 27.6057 20.2849 27.7258 20.3927C27.8405 20.5183 27.9127 20.6765 27.9322 20.845C27.9545 20.9883 27.952 21.0921 27.9719 21.0921C27.9918 21.0921 28.0216 20.9957 28.0291 20.845C28.0428 20.6419 27.9818 20.4408 27.8576 20.279C27.7851 20.191 27.6932 20.1208 27.5891 20.0738C27.5003 20.0357 27.4066 20.0099 27.3107 19.9972C27.2429 19.9918 27.1747 19.9918 27.1069 19.9972C27.0821 19.9952 27.0571 19.9952 27.0323 19.9972C26.9417 20.01 26.8527 20.0315 26.7663 20.0615C26.5791 20.1249 26.4036 20.2184 26.2468 20.3383C26.0892 20.4547 25.9573 20.6019 25.859 20.7708C25.7695 20.8944 25.7496 20.9957 25.7621 20.9957Z" fill="#C95B4C"/>
<g style="mix-blend-mode:multiply" opacity="0.2">
<g style="mix-blend-mode:multiply" opacity="0.2">
<path d="M20.2486 22.4194C20.2486 22.9082 20.3944 23.3861 20.6675 23.7925C20.9406 24.199 21.3289 24.5157 21.7831 24.7028C22.2373 24.8899 22.7371 24.9388 23.2193 24.8435C23.7015 24.7481 24.1444 24.5127 24.4921 24.167C24.8397 23.8214 25.0765 23.381 25.1724 22.9015C25.2683 22.4221 25.2191 21.9251 25.0309 21.4735C24.8428 21.0219 24.5242 20.6359 24.1154 20.3643C23.7066 20.0927 23.226 19.9478 22.7344 19.9478C22.0751 19.9478 21.4428 20.2082 20.9766 20.6717C20.5105 21.1352 20.2486 21.7638 20.2486 22.4194Z" fill="#680C0C"/>
</g>
</g>
<g style="mix-blend-mode:multiply" opacity="0.2">
<g style="mix-blend-mode:multiply" opacity="0.2">
<path d="M28.8867 22.2585C28.8867 22.583 28.951 22.9044 29.0759 23.2043C29.2008 23.5042 29.3839 23.7766 29.6148 24.0062C29.8456 24.2357 30.1196 24.4177 30.4212 24.5419C30.7228 24.6661 31.0461 24.7301 31.3725 24.7301H31.5241C31.7198 24.4482 31.8708 24.1381 31.9716 23.8106C32.4687 22.1324 31.4744 20.1403 31.2929 19.8066C30.651 19.8271 30.0419 20.0938 29.5933 20.5508C29.1447 21.0079 28.8915 21.6199 28.8867 22.2585Z" fill="#680C0C"/>
</g>
</g>
<g style="mix-blend-mode:screen">
<g style="mix-blend-mode:screen">
<g style="mix-blend-mode:screen">
<path d="M20.9769 21.1515C20.9769 21.2776 21.1509 21.3987 21.3771 21.3987C21.6033 21.3987 21.7922 21.3097 21.7947 21.1837C21.7972 21.0576 21.6182 20.9365 21.392 20.9365C21.1658 20.9365 20.9769 21.0255 20.9769 21.1515Z" fill="#FAC198"/>
</g>
</g>
</g>
<path d="M22.7294 19.1271C22.7294 19.7475 23.065 20.2468 23.4602 20.2418C23.8555 20.2369 24.1736 19.7302 24.1662 19.1098C24.1587 18.4895 23.8306 17.9902 23.4204 17.9952C23.0103 18.0001 22.717 18.5068 22.7294 19.1271Z" fill="#363636"/>
<path d="M23.5597 18.3116C23.5597 18.2968 23.6193 18.3116 23.6864 18.3363C23.7673 18.3584 23.8513 18.3668 23.935 18.361C24.0127 18.354 24.0885 18.3331 24.1587 18.2992C24.1897 18.2849 24.2196 18.2684 24.2482 18.2498H24.2731C24.2955 18.238 24.3171 18.2248 24.3377 18.2103C24.4012 18.1679 24.4547 18.1122 24.4943 18.0471C24.535 17.9772 24.5612 17.8999 24.5714 17.8198C24.5714 17.753 24.5714 17.7011 24.5987 17.6962C24.6261 17.6912 24.641 17.7357 24.6658 17.8148C24.6889 17.9148 24.6838 18.0191 24.6509 18.1163C24.6165 18.2166 24.5585 18.3072 24.4819 18.3808C24.4521 18.4129 24.4197 18.4302 24.4023 18.4475L24.37 18.4723C24.3265 18.4917 24.2816 18.5083 24.2358 18.5217C24.1354 18.5486 24.0308 18.5562 23.9276 18.5439C23.8266 18.5298 23.7309 18.4907 23.6491 18.4302C23.5795 18.3684 23.5497 18.3215 23.5597 18.3116Z" fill="#363636"/>
<path d="M23.9599 18.0618C23.9086 18.1341 23.838 18.1906 23.756 18.2249C23.6889 18.2472 23.6417 18.2422 23.6367 18.2249C23.6317 18.2076 23.6666 18.1805 23.7063 18.1384C23.7519 18.0907 23.7874 18.0344 23.8107 17.9728C23.8342 17.911 23.8484 17.846 23.853 17.7801C23.853 17.7257 23.853 17.6911 23.853 17.6911C23.8683 17.5928 23.8683 17.4928 23.853 17.3945C23.8427 17.3256 23.8235 17.2583 23.7958 17.1943C23.7734 17.1399 23.7511 17.1028 23.761 17.088C23.771 17.0732 23.8182 17.088 23.8704 17.1374C23.9353 17.194 23.9856 17.2652 24.017 17.3451C24.0651 17.4604 24.0913 17.5836 24.0941 17.7084C24.0869 17.7467 24.0778 17.7847 24.0668 17.8221C24.0468 17.908 24.0105 17.9894 23.9599 18.0618Z" fill="#363636"/>
<path d="M28.7873 19.0949C28.7873 19.7153 29.1228 20.2146 29.533 20.2096C29.9432 20.2047 30.2439 19.698 30.2365 19.0776C30.229 18.4572 29.9009 17.958 29.5057 17.9629C29.1104 17.9679 28.7798 18.4745 28.7873 19.0949Z" fill="#363636"/>
<path d="M29.62 18.2771C29.62 18.2622 29.6797 18.2771 29.7443 18.3018C29.8249 18.3252 29.9092 18.3336 29.9929 18.3265C30.0702 18.319 30.1458 18.299 30.2166 18.2672C30.2738 18.2375 30.3086 18.2153 30.3086 18.2153L30.331 18.2029C30.3537 18.1927 30.3753 18.1803 30.3956 18.1658C30.4585 18.1228 30.5119 18.0672 30.5522 18.0027C30.5929 17.9328 30.6191 17.8555 30.6292 17.7753C30.6292 17.7061 30.6292 17.6542 30.6566 17.6493C30.6839 17.6443 30.6989 17.6913 30.7237 17.7679C30.748 17.8678 30.7428 17.9725 30.7088 18.0695C30.675 18.17 30.617 18.2608 30.5398 18.3339C30.5168 18.3601 30.49 18.3826 30.4602 18.4006L30.4279 18.4254C30.3849 18.4461 30.3399 18.4626 30.2937 18.4748C30.1937 18.5039 30.0888 18.5123 29.9854 18.4995C29.8854 18.4848 29.7907 18.4457 29.7095 18.3858C29.6374 18.3364 29.6101 18.2919 29.62 18.2771Z" fill="#363636"/>
<path d="M30.0252 18.0296C29.973 18.1015 29.9015 18.1572 29.8189 18.1903C29.7518 18.2125 29.7045 18.2101 29.6996 18.1903C29.6946 18.1705 29.7294 18.1458 29.7692 18.1062C29.8159 18.058 29.8522 18.0008 29.8761 17.9382C29.8985 17.877 29.9119 17.8129 29.9158 17.7479C29.918 17.7174 29.918 17.6869 29.9158 17.6564C29.9311 17.5581 29.9311 17.4581 29.9158 17.3598C29.9056 17.2909 29.8864 17.2236 29.8586 17.1596C29.8363 17.1052 29.8139 17.0706 29.8263 17.0558C29.8388 17.041 29.881 17.0558 29.9332 17.1028C29.9975 17.1598 30.0477 17.2309 30.0799 17.3104C30.1293 17.4253 30.1555 17.5488 30.1569 17.6737C30.1569 17.6737 30.1569 17.7207 30.1321 17.7874C30.1095 17.8732 30.0734 17.955 30.0252 18.0296Z" fill="#363636"/>
<path d="M28.5611 22.3381C28.5311 22.4411 28.4803 22.537 28.4119 22.6199C28.2717 22.8081 28.1041 22.9747 27.9148 23.1142C27.7219 23.2578 27.5047 23.3658 27.2734 23.433C27.1964 23.4571 27.1173 23.4745 27.0373 23.4849L26.9478 23.4998H26.8558C26.7726 23.5032 26.6892 23.4974 26.6072 23.4825C26.3678 23.4509 26.1384 23.3665 25.9361 23.2353C25.7404 23.1032 25.5717 22.9355 25.4389 22.741C25.373 22.6572 25.324 22.5615 25.2947 22.4592C25.3096 22.4592 25.3942 22.5457 25.511 22.6817C25.6626 22.8413 25.8378 22.9772 26.0305 23.0845C26.2181 23.1878 26.4258 23.2502 26.6395 23.2674C26.7098 23.2735 26.7805 23.2735 26.8508 23.2674H26.9428H27.0224C27.0928 23.2628 27.1626 23.2521 27.2312 23.2353C27.4447 23.1886 27.6483 23.105 27.8327 22.9881C28.0217 22.8696 28.1953 22.7285 28.3498 22.568C28.4641 22.4246 28.5461 22.3282 28.5611 22.3381Z" fill="#C95B4C"/>
<g style="mix-blend-mode:multiply" opacity="0.2">
<g style="mix-blend-mode:multiply" opacity="0.2">
<path d="M16.8903 20.2396C17.3626 21.075 17.2184 22.0439 16.5721 22.4072C15.9258 22.7705 15.4336 22.3355 14.9613 21.5026C14.489 20.6697 14.2155 19.7404 14.8643 19.3795C15.5131 19.0186 16.418 19.4042 16.8903 20.2396Z" fill="#680C0C"/>
</g>
</g>
<path d="M17.032 20.4839C16.9835 20.3711 16.9253 20.2628 16.8579 20.1601C16.7875 20.061 16.7103 19.9669 16.6268 19.8783C16.446 19.6802 16.2335 19.5132 15.9979 19.384C15.7627 19.2544 15.4986 19.1856 15.2298 19.1838C15.1087 19.1749 14.9877 19.2015 14.8817 19.2604C14.8817 19.2802 15.0259 19.2604 15.2273 19.2777C15.4711 19.3074 15.7049 19.3919 15.9109 19.5249C16.1192 19.6596 16.3047 19.8265 16.4602 20.0192C16.5311 20.105 16.5967 20.195 16.6566 20.2886C16.7209 20.3786 16.779 20.4727 16.8306 20.5704L16.8679 20.6495C16.7469 20.5808 16.6095 20.5458 16.4702 20.5481C16.3276 20.5503 16.1878 20.5868 16.0625 20.6544C16.0197 20.675 15.9797 20.7008 15.9432 20.731L15.8984 20.7607L15.8636 20.8027C15.8318 20.8384 15.8027 20.8764 15.7766 20.9164C15.699 21.0374 15.6537 21.1761 15.6449 21.3193C15.6384 21.4586 15.6702 21.597 15.7369 21.7197C15.7965 21.8136 15.8462 21.8655 15.8587 21.8556C15.8711 21.8457 15.8587 21.779 15.8239 21.6851C15.7987 21.5719 15.7987 21.4547 15.8239 21.3415C15.8462 21.2322 15.8958 21.1303 15.968 21.0449C16.0009 21.0077 16.0358 20.9722 16.0724 20.9387L16.1023 20.9115C16.1283 20.8867 16.1566 20.8643 16.1868 20.8447C16.2774 20.7796 16.3821 20.7365 16.4925 20.7187C16.6077 20.7015 16.7252 20.7073 16.8381 20.736L16.9251 20.7632C16.9916 20.9212 17.0359 21.0875 17.0568 21.2575C17.0731 21.3863 17.0731 21.5167 17.0568 21.6455C17.039 21.7588 17.0064 21.8693 16.9599 21.9743C16.8753 22.1596 16.7859 22.2684 16.8008 22.2807C16.8157 22.2931 16.9276 22.2016 17.0494 22.0163C17.1155 21.9104 17.1658 21.7955 17.1985 21.6752C17.2321 21.5352 17.2479 21.3915 17.2457 21.2476C17.2252 20.9816 17.1525 20.7222 17.032 20.4839Z" fill="#C95B4C"/>
<path d="M24.1438 16.1834C24.1165 16.2254 23.8679 16.1043 23.6193 16.1092C23.458 16.1118 23.2993 16.1498 23.1545 16.2205C22.9956 16.2693 22.8454 16.3427 22.7095 16.438C22.4933 16.5838 22.3068 16.7889 22.2695 16.7618C22.2322 16.7346 22.3516 16.4701 22.5554 16.2526C22.6484 16.1509 22.7546 16.062 22.8711 15.9881C22.9083 15.9609 22.9483 15.9377 22.9904 15.9189L23.0376 15.8942C23.0998 15.8768 23.1629 15.8628 23.2266 15.8522C23.3672 15.8317 23.5103 15.8367 23.6491 15.867C23.9599 15.9362 24.1687 16.1488 24.1438 16.1834Z" fill="#74342D"/>
<path d="M30.7386 16.0845C30.7162 16.0994 30.6591 16.0524 30.5795 15.9857C30.4832 15.9106 30.379 15.8459 30.2688 15.7929C30.1622 15.7454 30.0491 15.7138 29.9332 15.699C29.896 15.6962 29.8586 15.6962 29.8214 15.699H29.7791C29.7791 15.699 29.717 15.699 29.625 15.6841C29.5094 15.6818 29.394 15.6951 29.2819 15.7237C29.166 15.7572 29.0549 15.8053 28.9513 15.867C28.8618 15.9189 28.7997 15.9585 28.7823 15.9412C28.7649 15.9239 28.7823 15.8571 28.8643 15.7632C28.9564 15.6541 29.0687 15.5635 29.1949 15.4963C29.3229 15.4292 29.4617 15.3849 29.6051 15.3653C29.6713 15.3607 29.7377 15.3607 29.804 15.3653H29.8586C29.8934 15.3653 29.9432 15.3801 30.0003 15.3999C30.1395 15.4433 30.2705 15.5093 30.3881 15.5951C30.5026 15.6825 30.6003 15.7897 30.6765 15.9115C30.7336 15.998 30.756 16.0722 30.7386 16.0845Z" fill="#74342D"/>
<path d="M16.6467 17.748C16.6467 17.748 20.1541 21.0526 21.7972 21.1762C23.4403 21.2997 25.5483 19.147 27.0721 19.446C28.5959 19.7451 30.234 21.018 30.761 20.7832C31.288 20.5484 31.288 19.2706 31.288 19.2706C32.0008 20.2146 32.409 21.3512 32.4588 22.5306C32.5185 24.4535 31.4645 26.2578 29.1229 26.8979C26.7812 27.5381 22.6797 27.1896 20.3952 26.0254C18.1108 24.8613 17.2905 23.2894 17.2905 23.2894C17.2905 23.2894 18.2276 23.5786 18.6378 22.7654C18.6378 22.7654 18.3469 19.97 16.6491 18.3388L16.6467 17.748Z" fill="white"/>
<g style="mix-blend-mode:multiply" opacity="0.1">
<path d="M32.0312 20.5731C31.6261 22.7456 30.49 24.5746 28.1658 25.4471C24.9964 26.6409 21.2777 24.9058 20.3033 21.6903C20.1885 21.3083 20.1439 20.909 20.1715 20.5113C18.5209 19.5227 16.6467 17.748 16.6467 17.748V18.3313C18.3469 19.9626 18.6353 22.758 18.6353 22.758C18.2251 23.5711 17.288 23.282 17.288 23.282C17.288 23.282 18.1083 24.8539 20.3927 26.018C22.6772 27.1822 26.7763 27.5307 29.1204 26.8905C31.4645 26.2504 32.516 24.4461 32.4563 22.5232C32.4338 21.853 32.2898 21.1924 32.0312 20.5731Z" fill="#94CAFB"/>
</g>
<path d="M30.1743 21.6509C29.9398 21.525 29.7124 21.3864 29.4932 21.2356C29.2919 21.1096 29.0582 20.9588 28.7997 20.8179C28.5353 20.6617 28.2543 20.5349 27.962 20.4398C27.6751 20.3477 27.3719 20.3166 27.0721 20.3483C26.8102 20.3826 26.5532 20.4473 26.3065 20.5411C26.0602 20.6307 25.8195 20.7346 25.5856 20.8525L25.3892 20.9415L24.8771 21.1887C24.3655 21.4753 23.8328 21.7232 23.2837 21.9301C22.982 22.0334 22.6657 22.0884 22.3466 22.0933C22.0698 22.0969 21.7944 22.0551 21.5312 21.9697C21.4258 21.9403 21.3228 21.9031 21.223 21.8585C21.1439 21.8285 21.0667 21.7938 20.9918 21.7547C20.9241 21.7262 20.8605 21.6888 20.8029 21.6434C20.8029 21.6237 21.0962 21.772 21.5486 21.8906C22.1051 22.0309 22.6918 21.9946 23.2266 21.7868C23.7617 21.5665 24.2801 21.308 24.7777 21.0132L25.2898 20.7438L25.4861 20.6499C25.7282 20.5333 25.9772 20.4318 26.2319 20.3458C26.4952 20.2521 26.769 20.1907 27.0472 20.1629C27.3708 20.1363 27.6964 20.1793 28.0018 20.289C28.3014 20.3946 28.5876 20.5348 28.8544 20.7067C29.103 20.8624 29.3516 21.0231 29.533 21.1615C29.7145 21.2999 29.8885 21.4086 29.9979 21.5026C30.0626 21.5446 30.1219 21.5944 30.1743 21.6509Z" fill="#D2E4FF"/>
<path d="M31.3476 21.9995C31.3067 22.0619 31.2583 22.1192 31.2035 22.1701L31.027 22.3554L30.9201 22.479L30.7859 22.5902C30.3267 22.9754 29.8123 23.2903 29.2596 23.5245C28.6997 23.7528 28.1161 23.9185 27.5195 24.0188C27.2709 24.0633 27.0746 24.0757 26.9329 24.0979C26.7912 24.1201 26.7092 24.1201 26.7092 24.1201H26.4854C26.3413 24.1201 26.1374 24.1399 25.8938 24.1201C25.2976 24.1097 24.7029 24.0577 24.114 23.9644C23.5258 23.8668 22.9445 23.7314 22.3739 23.5591C22.1403 23.4948 21.9538 23.4157 21.8196 23.3688C21.7489 23.3469 21.6806 23.3179 21.6158 23.2823C21.8799 23.334 22.1413 23.3992 22.3988 23.4775C22.972 23.6213 23.553 23.7327 24.1388 23.8112C24.7217 23.8846 25.3088 23.9209 25.8963 23.9199C26.1449 23.9199 26.3363 23.9026 26.4755 23.8977H26.6942L26.9155 23.8779C27.0522 23.8606 27.2535 23.8532 27.4922 23.8137C28.0727 23.7296 28.6426 23.5846 29.1925 23.3811C29.7404 23.1673 30.2558 22.8787 30.7237 22.5235L30.8629 22.4222L30.9773 22.3183L31.1662 22.1503C31.2196 22.0922 31.2806 22.0414 31.3476 21.9995Z" fill="#D2E4FF"/>
<path d="M31.6981 23.6302C31.6741 23.7108 31.6416 23.7887 31.6012 23.8625C31.5609 23.9487 31.5135 24.0313 31.4595 24.1097C31.3971 24.2187 31.3265 24.3228 31.2482 24.4211C31.0575 24.676 30.8344 24.9053 30.5845 25.1033C30.2973 25.3298 29.9834 25.5206 29.6499 25.6717C29.0185 25.9475 28.3474 26.1226 27.6612 26.1908C27.3853 26.2204 27.1516 26.2353 26.9876 26.2402H26.739C26.739 26.2402 26.3661 26.2402 25.8118 26.1982C25.1362 26.1377 24.4659 26.0295 23.8057 25.8744C23.1472 25.7207 22.5001 25.5217 21.8693 25.2788C21.6207 25.1774 21.402 25.086 21.2578 25.0143C21.1787 24.9827 21.1037 24.9421 21.0341 24.8932C21.1198 24.9109 21.2032 24.9383 21.2827 24.9748C21.4318 25.0316 21.6481 25.1107 21.9066 25.1997C22.5429 25.4117 23.1912 25.5867 23.848 25.7236C24.5037 25.86 25.1682 25.9508 25.8366 25.9955C26.3835 26.0301 26.7464 26.0202 26.7464 26.0202H26.995C27.1541 26.0202 27.3803 26.0202 27.6538 25.9832C28.3182 25.9305 28.9705 25.7762 29.5877 25.5259C29.9158 25.3885 30.2263 25.2126 30.5124 25.0019C30.7604 24.8162 30.9857 24.6021 31.1836 24.3643C31.5266 23.9614 31.6783 23.6178 31.6981 23.6302Z" fill="#D2E4FF"/>
<g style="mix-blend-mode:multiply" opacity="0.4">
<path d="M30.5572 12.6148C29.4709 9.85895 25.2326 8.93952 25.2326 8.93952C15.8313 8.77886 16.6467 18.2772 16.6467 18.2772C15.3789 17.7186 14.5263 18.0128 14.0863 18.685C14.1484 18.8976 14.1882 19.0212 14.1882 19.0212C16.8232 17.9732 17.994 20.5338 17.994 20.5338C19.2816 19.4858 18.1705 17.6223 18.1705 17.6223C18.1705 17.6223 19.5749 18.2056 22.6797 16.8066C24.6037 15.9085 26.2735 14.5497 27.5394 12.8521C28.4487 14.184 29.7364 15.2166 31.2383 15.818C31.1586 14.7245 30.9295 13.6468 30.5572 12.6148Z" fill="#680C0C"/>
</g>
<path d="M13.9545 18.5637C13.9545 18.5637 12.0007 12.1795 15.8288 9.48055C19.0479 7.20914 22.2496 8.12116 23.4204 8.52898C23.4204 8.52898 29.9407 7.7875 32.0486 9.76478C34.1566 11.7421 33.1623 15.5286 32.1083 15.5879C31.0543 15.6472 28.653 14.4238 27.3057 12.3748C26.039 14.0717 24.3694 15.4303 22.446 16.3294C19.3412 17.7258 17.9368 17.145 17.9368 17.145C17.9368 17.145 19.0479 19.0086 17.7603 20.0565C17.7603 20.0788 16.5895 17.5157 13.9545 18.5637Z" fill="#74342D"/>
<g style="mix-blend-mode:multiply" opacity="0.4">
<path d="M26.8508 9.81438L26.5749 9.54744C26.3543 10.0389 26.072 10.5007 25.7347 10.9217C24.9091 11.9421 23.9483 12.8467 22.8785 13.6108C22.1667 14.1134 21.3728 14.4897 20.5319 14.723C19.544 15.1427 18.4839 15.3692 17.4098 15.3903C17.0563 15.4112 16.7037 15.3365 16.3895 15.1742C16.0752 15.0118 15.8111 14.768 15.625 14.4684C15.4107 14.2716 15.242 14.0309 15.1304 13.7629C15.0188 13.4949 14.967 13.206 14.9787 12.9162C14.9787 11.1861 16.1644 9.68585 17.6608 8.50195C17.01 8.75186 16.3942 9.08414 15.8288 9.49059C12.0007 12.1896 13.9545 18.5737 13.9545 18.5737C16.5895 17.5258 17.7603 20.0888 17.7603 20.0888C19.0479 19.0409 17.9368 17.1773 17.9368 17.1773C17.9368 17.1773 19.3412 17.7581 22.446 16.3617C24.3694 15.4626 26.039 14.104 27.3057 12.4071C28.653 14.4462 31.0543 15.6671 32.1083 15.6202C32.6054 15.593 33.0753 14.7576 33.2344 13.675C32.6022 13.5995 31.9877 13.4172 31.4172 13.1362C29.5405 12.543 27.8625 11.3888 26.8508 9.81438Z" fill="#680C0C"/>
</g>
<g style="mix-blend-mode:screen">
<path d="M30.3508 10.1353C30.2887 10.2786 30.0177 10.2959 29.7443 10.1773C29.4709 10.0587 29.3043 9.84609 29.3665 9.70521C29.4286 9.56433 29.702 9.54456 29.973 9.66567C30.2439 9.78678 30.4229 9.99439 30.3508 10.1353Z" fill="#74342D"/>
</g>
<g style="mix-blend-mode:screen">
<path d="M31.375 10.8078C31.3203 10.9042 31.1264 10.8992 30.935 10.8078C30.7436 10.7163 30.6392 10.5409 30.6864 10.442C30.7336 10.3431 30.935 10.3506 31.1264 10.442C31.3178 10.5334 31.4297 10.7089 31.375 10.8078Z" fill="#74342D"/>
</g>
<path d="M27.6289 11.6631C27.6016 11.7496 27.5641 11.8326 27.517 11.9102C27.4325 12.061 27.2933 12.2662 27.1417 12.5183C26.742 13.1284 26.2769 13.6936 25.7546 14.2039C25.2314 14.7128 24.665 15.1759 24.0618 15.588C23.8132 15.7486 23.6019 15.8895 23.4528 15.9785L23.2042 16.112L22.9556 16.243C22.804 16.3295 22.5728 16.4259 22.3018 16.5519L22.0905 16.6458L21.842 16.7323L21.3448 16.9177C20.9795 17.0333 20.6076 17.1274 20.2312 17.1995C19.5118 17.3411 18.7728 17.3545 18.0486 17.239C17.8099 17.2066 17.575 17.1503 17.3476 17.071C17.2619 17.05 17.1786 17.0202 17.0991 16.982C17.19 16.988 17.28 17.0038 17.3675 17.0289C17.5975 17.0894 17.8319 17.1316 18.0685 17.155C18.7829 17.2391 19.5064 17.2031 20.2088 17.0487C20.5839 16.9708 20.9541 16.8709 21.3175 16.7496L21.8146 16.5593L22.0433 16.4704L22.2496 16.3715C22.5131 16.243 22.7468 16.1466 22.8835 16.0576L23.1321 15.9266L23.3807 15.7981C23.5298 15.7116 23.7361 15.5806 23.9872 15.4249C24.5902 15.0306 25.1582 14.5857 25.685 14.0951C26.2128 13.604 26.69 13.0617 27.1094 12.4762C27.2734 12.2291 27.4226 12.0338 27.5195 11.8905C27.5503 11.8121 27.5869 11.7361 27.6289 11.6631Z" fill="#680C0C"/>
<path d="M32.675 15.479C32.6902 15.3659 32.7151 15.2542 32.7496 15.1453C32.8326 14.8599 32.8966 14.5692 32.941 14.2753C33.0183 13.8669 33.0706 13.4542 33.0976 13.0395C33.1313 12.5626 33.097 12.0833 32.9957 11.6159C32.9014 11.1498 32.7016 10.7111 32.4115 10.3331C32.1541 10.011 31.843 9.73514 31.4918 9.5175C31.246 9.35747 30.9855 9.22092 30.7138 9.10969C30.6168 9.0652 30.5348 9.04542 30.4826 9.02318L30.4005 8.99599C30.4005 8.99599 30.2862 8.9515 30.0799 8.89466C29.7968 8.81279 29.5087 8.74922 29.2173 8.70434C28.489 8.60053 27.5021 8.48931 26.5177 8.43494C25.6155 8.37336 24.709 8.42067 23.8182 8.57582C23.6367 8.60795 23.4751 8.65985 23.321 8.69693L22.9531 8.82298C22.8532 8.8773 22.7483 8.92199 22.6399 8.95645C22.7335 8.89075 22.8325 8.83288 22.9357 8.78343C23.0351 8.74142 23.1569 8.68704 23.2986 8.63514C23.4618 8.57967 23.6277 8.53265 23.7958 8.49426C24.694 8.30489 25.6133 8.23343 26.5302 8.2817C27.5245 8.31383 28.5188 8.41022 29.2645 8.50414C29.5656 8.54649 29.8636 8.60757 30.1569 8.68704C30.3707 8.74389 30.4875 8.78838 30.4875 8.78838L30.5745 8.81804C30.6292 8.84028 30.7138 8.865 30.8231 8.91196C31.1061 9.03021 31.3767 9.17591 31.631 9.34696C31.9965 9.58318 32.3185 9.87995 32.5831 10.2244C32.874 10.6247 33.0702 11.0852 33.1573 11.5714C33.2524 12.0531 33.2767 12.546 33.2294 13.0346C33.1932 13.4578 33.1284 13.8781 33.0355 14.2926C32.9818 14.5869 32.9037 14.8763 32.8018 15.1577C32.7693 15.2684 32.7269 15.3759 32.675 15.479Z" fill="#680C0C"/>
<path d="M31.4943 15.3604C31.3513 15.3861 31.2048 15.3861 31.0618 15.3604C30.7472 15.3112 30.441 15.2188 30.152 15.086C29.863 14.9544 29.5861 14.7981 29.3242 14.6189C29.1104 14.4706 28.9737 14.3718 28.9737 14.3718C28.9737 14.3718 28.842 14.2605 28.6555 14.0826C28.4297 13.8629 28.218 13.6293 28.0216 13.3831C27.826 13.1347 27.6522 12.8701 27.5021 12.5922C27.4266 12.4705 27.3704 12.338 27.3356 12.1992C27.429 12.3084 27.5122 12.4259 27.5842 12.5502C27.7566 12.8087 27.9451 13.0564 28.1484 13.2917C28.353 13.5212 28.5714 13.7383 28.8022 13.9417C28.9911 14.1073 29.1204 14.2111 29.1204 14.2111C29.1204 14.2111 29.2496 14.3174 29.4485 14.4583C29.6943 14.6433 29.9544 14.8086 30.2266 14.9526C30.4995 15.0949 30.7881 15.2052 31.0866 15.2813C31.2239 15.3003 31.36 15.3267 31.4943 15.3604Z" fill="#680C0C"/>
<path d="M15.4758 9.85889C15.4908 9.87372 15.2645 10.0591 15.0011 10.4002C14.8509 10.5941 14.7131 10.7972 14.5884 11.0082C14.5238 11.1268 14.4393 11.238 14.3821 11.3666C14.3249 11.4951 14.2603 11.6137 14.1981 11.7497C13.9996 12.2341 13.8553 12.7389 13.7681 13.2549C13.7358 13.4674 13.7209 13.6454 13.7035 13.769C13.7009 13.8167 13.7009 13.8646 13.7035 13.9123C13.7035 13.9469 13.7035 13.9642 13.7035 13.9642C13.7035 13.9642 13.7035 14.0359 13.6861 14.1595C13.6687 14.2831 13.6612 14.461 13.6587 14.676C13.6413 15.1036 13.6413 15.6795 13.6587 16.2505C13.6826 16.7749 13.75 17.2966 13.8601 17.81C13.8824 17.9163 13.9048 18.0102 13.9247 18.0967C13.9446 18.1832 13.9744 18.2524 13.9918 18.3118C14.0175 18.3741 14.0334 18.4399 14.039 18.507C14.0005 18.4519 13.9711 18.391 13.952 18.3266L13.8626 18.1165C13.8377 18.03 13.8079 17.9361 13.7756 17.8323C13.6408 17.3183 13.555 16.7928 13.5195 16.2628C13.4698 15.6845 13.4549 15.1061 13.4599 14.6711C13.4599 14.4536 13.4599 14.2707 13.4773 14.1446C13.4947 14.0186 13.4773 13.9444 13.4773 13.9444C13.4773 13.9444 13.4773 13.9271 13.4773 13.8925C13.4773 13.8579 13.4773 13.8085 13.4947 13.7442C13.5145 13.6182 13.5344 13.4378 13.5742 13.2203C13.6733 12.6926 13.8343 12.1783 14.054 11.6879L14.2653 11.2998C14.3351 11.1772 14.4114 11.0584 14.494 10.9439C14.629 10.7345 14.7785 10.5346 14.9414 10.3458C15.011 10.2618 15.0856 10.1926 15.1477 10.1283C15.2014 10.0735 15.2587 10.0223 15.3192 9.97505C15.3667 9.93035 15.4192 9.89136 15.4758 9.85889Z" fill="#680C0C"/>
</g>
</svg>
