<svg width="32" height="27" viewBox="0 0 32 27" fill="none" xmlns="http://www.w3.org/2000/svg">
<path d="M31.5135 8.1363C31.4789 7.69857 31.4106 7.26418 31.3091 6.83703C31.2534 6.57117 31.1787 6.3097 31.0854 6.05467C31.0747 5.98457 31.0541 5.91635 31.0242 5.85209C30.5871 4.64554 29.8828 3.55407 28.9642 2.65979C28.397 2.10361 27.7562 1.6283 27.0598 1.24719C25.863 0.586591 24.5344 0.201857 23.1706 0.120999C22.5107 0.0719651 21.8474 0.0980026 21.1934 0.198614C20.3322 0.344412 19.499 0.624088 18.7239 1.02754C17.6935 1.56622 16.7532 2.26278 15.937 3.0921C15.9184 3.11151 15.8998 3.1278 15.8828 3.14721C15.8426 3.19145 15.8054 3.20154 15.7566 3.15342C15.6893 3.08589 15.6134 3.02458 15.5484 2.95705C14.9296 2.32439 14.2366 1.76927 13.4845 1.30385C12.7858 0.867429 12.0303 0.529726 11.2395 0.300291C10.5694 0.112957 9.87819 0.0122762 9.18263 0.000697186C8.82516 -0.0035971 8.46774 0.011949 8.11199 0.0472655C7.63508 0.0847301 7.1622 0.162623 6.69841 0.28011C5.85007 0.48783 5.03661 0.818871 4.28387 1.26272C3.45813 1.74395 2.71759 2.35896 2.09228 3.08279C1.51713 3.74445 1.04855 4.49209 0.70347 5.2987C0.541134 5.66308 0.411595 6.04127 0.3164 6.42877C0.142011 7.04609 0.0396562 7.6816 0.0113884 8.32258C-0.0150785 8.8428 0.00460882 9.36435 0.0702214 9.88108C0.182287 10.7423 0.396432 11.587 0.708114 12.3974C0.941972 12.9999 1.21452 13.5866 1.52406 14.1538C1.71527 14.5015 1.92351 14.8415 2.13795 15.1744C3.08705 16.6491 4.21419 17.9787 5.42185 19.2446C6.04116 19.8934 6.69376 20.512 7.36262 21.1127C7.52593 21.2691 7.69725 21.4167 7.87588 21.5552C8.08025 21.7562 8.30088 21.9394 8.51996 22.1248C8.97825 22.515 9.44429 22.8966 9.91806 23.2697C11.0917 24.1956 12.2954 25.0789 13.5403 25.9039C14.0117 26.2144 14.487 26.5248 14.9747 26.8081C15.2345 26.9679 15.542 27.0308 15.8433 26.9859C16.0464 26.9482 16.24 26.8707 16.4131 26.7577C17.7291 25.9753 19.015 25.1549 20.225 24.2166C20.4038 24.08 20.5842 23.9449 20.7669 23.8184C20.9836 23.6709 21.1733 23.4893 21.4001 23.3566C21.4489 23.3287 21.5093 23.3015 21.5286 23.2363C21.5302 23.2299 21.5341 23.2242 21.5395 23.2204C21.5449 23.2166 21.5514 23.2148 21.558 23.2153C21.7129 23.1455 21.829 23.0229 21.9552 22.9181C21.956 22.9132 21.956 22.9082 21.9552 22.9033C21.9319 22.7869 21.9296 22.7892 22.0372 22.8141C22.0508 22.8186 22.0648 22.8215 22.079 22.8226C22.1483 22.782 22.2114 22.7315 22.2664 22.6728C22.3041 22.6583 22.3381 22.6352 22.3655 22.6053C22.7099 22.3212 23.0622 22.0488 23.3912 21.7391C23.5832 21.5575 23.8015 21.4061 24.0012 21.2331C24.403 20.883 24.7986 20.5221 25.188 20.155C26.1336 19.2615 27.0255 18.3124 27.8588 17.3127C27.9137 17.2491 27.9362 17.1653 28.0136 17.1164C28.0433 17.0959 28.0683 17.0695 28.0871 17.0387C28.4022 16.6445 28.7119 16.2463 28.9998 15.8303C30.0062 14.3835 30.8446 12.8568 31.2448 11.1214C31.2952 10.9002 31.3563 10.6828 31.3997 10.4593C31.4684 10.088 31.5098 9.71209 31.5235 9.33467C31.543 8.93535 31.5397 8.53524 31.5135 8.1363ZM29.0022 9.36572C28.919 10.2828 28.681 11.1791 28.2985 12.0163C27.8084 13.1238 27.1543 14.1297 26.4142 15.0828C25.9389 15.6921 25.4341 16.2781 24.9077 16.8455C24.8616 16.8848 24.8226 16.9318 24.7924 16.9844C24.6345 17.1474 24.476 17.3091 24.3171 17.4695C23.93 17.8684 23.5323 18.2552 23.1241 18.6298C23.1022 18.65 23.0792 18.6689 23.0552 18.6865C22.7819 18.9543 22.4916 19.2034 22.2037 19.4541C21.8352 19.7723 21.469 20.0975 21.0804 20.3925C20.8133 20.6308 20.5269 20.8442 20.2451 21.0654C19.6056 21.5668 18.9492 22.0519 18.2873 22.5246C18.2506 22.5427 18.2188 22.5693 18.1944 22.6022C17.9567 22.7628 17.7191 22.9251 17.4837 23.0873C16.9658 23.442 16.4425 23.7812 15.9084 24.1102C15.8309 24.1607 15.7535 24.2453 15.6599 24.2453C15.5662 24.2453 15.4934 24.1591 15.4137 24.1079C14.6713 23.636 13.9583 23.1238 13.2391 22.6216C12.852 22.3515 12.4735 22.0783 12.105 21.7927C11.9873 21.7003 11.889 21.5839 11.7559 21.5125C11.5399 21.3161 11.2999 21.15 11.0785 20.9622C10.9361 20.8419 10.782 20.7363 10.6519 20.6036C10.4375 20.4484 10.2393 20.266 10.0326 20.0952C9.5906 19.7219 9.1594 19.3385 8.73285 18.9481C8.70642 18.9241 8.68184 18.8981 8.65931 18.8705C8.3961 18.6516 8.15457 18.4048 7.90839 18.1719C6.79462 17.0861 5.76923 15.9127 4.84202 14.6629C4.73413 14.5003 4.61596 14.3448 4.48824 14.1973C4.02376 13.425 3.53992 12.662 3.19233 11.823C2.86799 11.0653 2.65345 10.265 2.55521 9.44644C2.45668 8.57039 2.54481 7.68336 2.81377 6.84401C2.86874 6.67326 2.9299 6.50406 2.99492 6.33796C3.1064 6.13306 3.19233 5.91806 3.30458 5.71316C3.86345 4.69658 4.70251 3.86289 5.72144 3.31175C6.35241 2.97007 7.03667 2.73833 7.74505 2.62641C8.09333 2.57391 8.44434 2.54152 8.79633 2.52939C9.51207 2.49028 10.2285 2.59341 10.9043 2.83287C11.6298 3.10013 12.3074 3.48332 12.9109 3.9676C13.6184 4.5232 14.2455 5.17466 14.7742 5.90332C14.9048 6.09112 15.0865 6.2374 15.2976 6.32477C15.7419 6.5025 16.2505 6.48 16.6608 6.07407C16.8691 5.86761 17.0293 5.6208 17.2228 5.3996C17.7406 4.80528 18.3266 4.27434 18.9685 3.8178C19.5058 3.43122 20.0958 3.12433 20.7204 2.9066C21.28 2.71698 21.8669 2.62151 22.4576 2.62408C23.3001 2.61253 24.1383 2.74751 24.9348 3.02302C26.3228 3.50213 27.4877 4.47429 28.2094 5.75585C28.2659 5.87364 28.3297 5.98771 28.4007 6.09735C28.4889 6.34805 28.6089 6.58866 28.6956 6.84168C28.9704 7.65282 29.0747 8.51218 29.0022 9.36572Z" fill="url(#paint0_linear)"/>
<path d="M4.48824 14.1941C4.01989 13.4226 3.53837 12.6589 3.19156 11.8206C2.86714 11.063 2.65234 10.2627 2.55367 9.44408C2.4556 8.56766 2.54426 7.68036 2.81378 6.84087C2.86874 6.66934 2.9299 6.50169 2.99415 6.33404C3.10563 6.13069 3.19156 5.91492 3.30381 5.71312C3.86289 4.69671 4.70189 3.86307 5.72067 3.31172C6.35129 2.96925 7.0357 2.73746 7.74427 2.62638C8.09275 2.5732 8.44404 2.54055 8.79633 2.52858C9.51201 2.48953 10.2283 2.59239 10.9043 2.83128C11.6297 3.09893 12.3071 3.48267 12.9101 3.96757C13.6181 4.52267 14.2455 5.1739 14.7742 5.90251C14.9048 6.09054 15.0864 6.23707 15.2976 6.32473C15.7419 6.50169 16.2513 6.47996 16.6608 6.07326C16.8698 5.8668 17.0285 5.61921 17.2221 5.39956C17.7398 4.80474 18.3257 4.27328 18.9678 3.81622C19.5059 3.43055 20.0964 3.12422 20.7212 2.90657C21.2801 2.71665 21.8666 2.62093 22.4568 2.62327C23.2993 2.61133 24.1375 2.74605 24.9341 3.02144C26.3223 3.50048 27.4873 4.473 28.2087 5.75504C28.2652 5.87293 28.3293 5.98701 28.4007 6.09654C28.4897 6.34879 28.6089 6.58707 28.6948 6.84009C28.9706 7.65182 29.076 8.51194 29.0045 9.36646C28.9203 10.2831 28.6816 11.1789 28.2985 12.0155C27.81 13.1238 27.1543 14.1289 26.4142 15.082C25.9397 15.6929 25.4349 16.2781 24.9077 16.8447C24.8626 16.8848 24.8241 16.932 24.7939 16.9844L24.3186 17.4702C23.931 17.8676 23.5334 18.2541 23.1257 18.6298C23.1032 18.65 23.0784 18.6678 23.0552 18.6865C23.0552 18.0236 23.0552 17.3608 23.0552 16.698C23.0552 16.6918 23.0676 16.6855 23.0808 16.6731C23.1721 16.7632 23.2611 16.8594 23.3595 16.9448C23.6792 17.2219 24.0415 17.2878 24.4285 17.1194C24.8156 16.951 25.0053 16.6413 25.0184 16.2237C25.0211 16.0813 24.9933 15.94 24.9368 15.8093C24.8803 15.6786 24.7965 15.5616 24.691 15.4662C21.9923 12.7642 19.2944 10.0606 16.5973 7.35546C16.5726 7.33062 16.5486 7.30423 16.5199 7.28172C16.3418 7.12086 16.1109 7.0311 15.8712 7.02947C15.7297 7.02825 15.5896 7.05668 15.4597 7.11295C15.3299 7.16922 15.2132 7.25209 15.1172 7.35623C12.4221 10.0619 9.72581 12.7668 7.02819 15.4709C6.99258 15.5066 6.95698 15.5431 6.92446 15.5819C6.78992 15.7414 6.71108 15.9406 6.69996 16.1492C6.68745 16.3462 6.73364 16.5425 6.83268 16.713C6.93172 16.8836 7.07911 17.0208 7.25613 17.1072C7.43314 17.1936 7.63178 17.2252 7.82678 17.1981C8.02177 17.1709 8.20432 17.0863 8.3512 16.9549C8.42862 16.885 8.50216 16.8059 8.57957 16.7329C8.60202 16.7119 8.61441 16.6677 8.66628 16.6871C8.66628 17.0853 8.66628 17.485 8.66628 17.8847C8.66628 18.2128 8.66447 18.5413 8.66086 18.8704C8.39765 18.6508 8.15534 18.4047 7.91072 18.168C6.79635 17.0831 5.77019 15.9108 4.84202 14.6621C4.7349 14.4982 4.61669 14.3418 4.48824 14.1941Z" fill="white"/>
<path d="M21.0788 20.3916C20.8118 20.6299 20.5261 20.8449 20.2443 21.0653C19.6033 21.5675 18.9484 22.0518 18.285 22.5245C18.2489 22.5428 18.2176 22.5694 18.1936 22.6021C17.956 22.7643 17.7183 22.925 17.4814 23.088C16.9653 23.4424 16.4407 23.7836 15.9076 24.1117C15.8263 24.1621 15.7528 24.2467 15.6591 24.2452C15.5654 24.2436 15.4919 24.159 15.4114 24.1078C14.6705 23.6359 13.9568 23.1244 13.2376 22.6215C12.8505 22.3529 12.4719 22.0782 12.1035 21.7926C11.9858 21.7002 11.8875 21.5846 11.7535 21.5124C11.5383 21.316 11.2991 21.1499 11.0769 20.9621C10.9345 20.8426 10.782 20.7362 10.6504 20.6035C10.6504 20.543 10.6558 20.4824 10.6558 20.4219C10.6558 18.5498 10.6558 16.678 10.6558 14.8064C10.6538 14.7547 10.6631 14.7031 10.6832 14.6553C10.7032 14.6076 10.7335 14.5648 10.7719 14.5301C12.4291 12.8743 14.0855 11.2152 15.7411 9.55268C15.7761 9.50747 15.8195 9.46951 15.8689 9.44092C15.9037 9.47507 15.9409 9.50844 15.9765 9.54415C17.6393 11.2113 19.3027 12.878 20.9666 14.5441C21.0028 14.5775 21.0314 14.6184 21.0502 14.664C21.0691 14.7095 21.0778 14.7587 21.0757 14.808C21.0726 16.6087 21.0726 18.4096 21.0757 20.2108C21.0711 20.2705 21.0765 20.3311 21.0788 20.3916ZM15.1443 15.2892C15.1505 15.2636 15.1327 15.2574 15.1141 15.2512C15.0894 15.185 15.0436 15.1288 14.9839 15.0914C14.9241 15.0539 14.8537 15.0372 14.7835 15.0439C14.7542 15.0163 14.7186 14.9963 14.6798 14.9857C14.2022 14.7785 13.7168 14.7917 13.236 14.9617C12.8491 15.0952 12.5163 15.3518 12.2881 15.6924C12.0599 16.0329 11.9489 16.4389 11.9719 16.8485C12.002 17.4919 12.2916 18.0368 12.6825 18.5335C12.7142 18.6229 12.775 18.6989 12.8551 18.7493C12.8782 18.8 12.9117 18.8452 12.9535 18.882C13.7013 19.742 14.5869 20.4343 15.5383 21.0552C15.5747 21.0841 15.6197 21.0997 15.6661 21.0997C15.7124 21.0997 15.7574 21.0841 15.7938 21.0552C16.5715 20.5772 17.2979 20.0198 17.9614 19.3919C18.1729 19.1976 18.3672 18.9852 18.542 18.757C18.7913 18.757 18.9089 18.5638 18.8416 18.369C19.0396 18.1074 19.1941 17.8154 19.2991 17.5043C19.3815 17.2706 19.4227 17.0242 19.4206 16.7763C19.4036 15.2318 17.7825 14.5014 16.6585 15.0416C16.3182 15.21 16.0182 15.4501 15.7791 15.7456C15.7551 15.7743 15.7365 15.81 15.7017 15.8232C15.6126 15.7223 15.5337 15.6229 15.4439 15.5352C15.3541 15.4475 15.2736 15.3373 15.1458 15.2915L15.1443 15.2892Z" fill="white"/>
<path d="M21.0788 20.3915C21.0788 20.331 21.0711 20.2705 21.0711 20.2099C21.0711 18.4093 21.0711 16.6083 21.0711 14.8071C21.0732 14.7578 21.0644 14.7087 21.0456 14.6631C21.0267 14.6175 20.9982 14.5766 20.9619 14.5432C19.2986 12.8776 17.636 11.211 15.9742 9.54329C15.9386 9.50758 15.9014 9.47421 15.8666 9.44006C15.8172 9.46865 15.7738 9.50661 15.7388 9.55182C14.0827 11.2112 12.4263 12.8704 10.7696 14.5293C10.7312 14.564 10.7009 14.6067 10.6809 14.6545C10.6608 14.7022 10.6515 14.7538 10.6535 14.8056C10.6571 16.6777 10.6571 18.5495 10.6535 20.421C10.6535 20.4816 10.6535 20.5421 10.6481 20.6027C10.4329 20.4474 10.2355 20.2658 10.0288 20.0943C9.58674 19.7217 9.15477 19.3368 8.72822 18.9471C8.7019 18.9238 8.67945 18.8959 8.65545 18.8695C8.65545 18.5409 8.65726 18.2124 8.66087 17.8838C8.66087 17.4841 8.66087 17.0844 8.66087 16.6862C8.609 16.6668 8.59662 16.711 8.57417 16.732C8.49675 16.8049 8.42553 16.8872 8.3458 16.954C8.19877 17.0835 8.01684 17.1665 7.82288 17.1926C7.62892 17.2187 7.43158 17.1868 7.25568 17.1008C7.07979 17.0147 6.93319 16.8785 6.83431 16.7092C6.73543 16.5398 6.68869 16.345 6.69997 16.1491C6.71109 15.9405 6.78993 15.7412 6.92448 15.5817C6.95699 15.5429 6.9926 15.5041 7.02821 15.4707C9.72531 12.7656 12.4224 10.0607 15.1195 7.35609C15.2155 7.25195 15.3322 7.16909 15.4621 7.11281C15.5919 7.05654 15.7321 7.02811 15.8735 7.02933C16.1133 7.03096 16.3441 7.12072 16.5223 7.28158C16.5486 7.30409 16.5726 7.33048 16.5997 7.35532C19.2963 10.0605 21.9934 12.7641 24.691 15.4661C24.7959 15.5614 24.8792 15.6781 24.9354 15.8083C24.9917 15.9386 25.0194 16.0794 25.0169 16.2213C25.0037 16.6389 24.8102 16.9493 24.427 17.117C24.0438 17.2846 23.6776 17.2194 23.3579 16.9423C23.2596 16.857 23.1706 16.7607 23.0792 16.6707C23.0661 16.6831 23.0537 16.6893 23.0537 16.6955C23.0537 17.3583 23.0537 18.0212 23.0537 18.684C22.7796 18.9518 22.4901 19.2009 22.2021 19.4516C21.8336 19.7729 21.4675 20.0958 21.0788 20.3915Z" fill="#001740"/>
<path d="M15.1435 15.2875C15.2712 15.3333 15.3502 15.4427 15.4415 15.5312C15.5329 15.6197 15.6103 15.7182 15.6993 15.8191C15.7365 15.8059 15.7551 15.7702 15.7767 15.7415C16.0158 15.446 16.3158 15.2059 16.6562 15.0375C17.7802 14.4942 19.4013 15.2277 19.4183 16.7722C19.4203 17.0201 19.3792 17.2665 19.2967 17.5003C19.1917 17.8113 19.0372 18.1033 18.8392 18.3649C18.8048 18.312 18.7566 18.2696 18.6998 18.2423C18.643 18.2149 18.5799 18.2036 18.5172 18.2097C18.2199 18.2151 17.9226 18.2097 17.6246 18.2135C17.5904 18.2187 17.5555 18.2102 17.5274 18.1899C17.4993 18.1696 17.4803 18.1391 17.4744 18.1049C17.3668 17.7843 17.253 17.4661 17.1408 17.1471C17.1266 17.0987 17.1079 17.0516 17.085 17.0066C17.062 16.9611 17.0258 16.9237 16.9812 16.8991C16.9366 16.8746 16.8856 16.8642 16.835 16.8693C16.7867 16.8705 16.7398 16.8859 16.7 16.9134C16.6603 16.941 16.6295 16.9796 16.6113 17.0245C16.5932 17.0662 16.5785 17.1093 16.5671 17.1533C16.3932 17.7442 16.219 18.3349 16.0446 18.9253C16.033 18.9656 16.0175 19.0029 16.0028 19.0456C15.9902 19.0386 15.9797 19.0285 15.9721 19.0163C15.9645 19.0041 15.9601 18.9901 15.9594 18.9757C15.6885 17.8001 15.4181 16.6242 15.1481 15.4481C15.1381 15.3961 15.1048 15.3418 15.1435 15.2875Z" fill="#FF1D14"/>
<path d="M15.1435 15.2877C15.1048 15.342 15.1396 15.3964 15.1505 15.4429C15.4199 16.6196 15.6903 17.7954 15.9618 18.9705C15.9625 18.9849 15.9668 18.9989 15.9744 19.0111C15.982 19.0233 15.9926 19.0334 16.0051 19.0404C16.0198 18.9992 16.0353 18.9628 16.0469 18.9201C16.2219 18.3292 16.3961 17.7385 16.5695 17.1481C16.5808 17.1041 16.5955 17.061 16.6136 17.0193C16.6318 16.9744 16.6627 16.9358 16.7024 16.9082C16.7421 16.8807 16.789 16.8653 16.8373 16.8641C16.888 16.859 16.9389 16.8694 16.9836 16.8939C17.0282 16.9185 17.0644 16.9559 17.0874 17.0014C17.1103 17.0464 17.1289 17.0935 17.1431 17.1419C17.2554 17.4609 17.3692 17.7791 17.4768 18.0997C17.4827 18.1339 17.5017 18.1644 17.5297 18.1847C17.5578 18.205 17.5927 18.2135 17.6269 18.2083C17.925 18.2029 18.2223 18.2083 18.5195 18.2045C18.5822 18.1984 18.6454 18.2097 18.7021 18.2371C18.7589 18.2644 18.8071 18.3068 18.8416 18.3597C18.9089 18.5584 18.7913 18.7478 18.542 18.7478C18.4862 18.7478 18.4313 18.7416 18.3755 18.7416H17.3769C17.1865 18.7416 17.1183 18.6903 17.0525 18.5087C17.0192 18.4179 16.9906 18.3263 16.9558 18.2371C16.9399 18.1725 16.9137 18.1109 16.8784 18.0547C16.8443 18.0733 16.8427 18.0997 16.8358 18.1237C16.715 18.5304 16.5945 18.9374 16.4743 19.3446C16.3883 19.6349 16.3055 19.9267 16.2165 20.2162C16.2023 20.2768 16.1686 20.3309 16.1206 20.3702C16.0725 20.4095 16.0129 20.4318 15.9509 20.4336C15.89 20.4287 15.8323 20.4044 15.7861 20.3644C15.7398 20.3243 15.7076 20.2705 15.6939 20.2108C15.6885 20.1914 15.687 20.1712 15.6823 20.151C15.4119 18.9801 15.1417 17.8086 14.8718 16.6366C14.8681 16.5907 14.8493 16.5473 14.8184 16.5132L14.326 18.4784C14.2734 18.6903 14.2037 18.747 13.99 18.7478C13.6123 18.7478 13.2337 18.7478 12.8551 18.7478C12.775 18.6974 12.7142 18.6214 12.6825 18.532C12.6791 18.4664 12.6925 18.4009 12.7212 18.3418C12.7505 18.2973 12.7911 18.2613 12.8389 18.2377C12.8867 18.2141 12.9398 18.2037 12.9929 18.2076C13.2298 18.2076 13.4675 18.2076 13.7044 18.2076C13.8368 18.2076 13.8368 18.2076 13.8716 18.0725C13.8712 18.0674 13.8712 18.0622 13.8716 18.057C14.1038 17.1458 14.3361 16.2354 14.5575 15.3226C14.5669 15.2604 14.5924 15.2018 14.6315 15.1526C14.6707 15.1034 14.722 15.0654 14.7804 15.0424C14.8507 15.0358 14.9211 15.0525 14.981 15.09C15.0409 15.1274 15.0868 15.1835 15.1118 15.2497C15.1118 15.2683 15.1056 15.2955 15.1412 15.2877H15.1435Z" fill="#001740"/>
<path d="M12.8551 18.7492C13.2337 18.7492 13.6122 18.7492 13.99 18.7492C14.2037 18.7492 14.2734 18.6917 14.326 18.4799L14.8184 16.5146C14.8493 16.5487 14.8681 16.5921 14.8718 16.6381C15.1412 17.809 15.4113 18.9805 15.6823 20.1525C15.6869 20.1726 15.6885 20.1928 15.6939 20.2122C15.7078 20.2716 15.7402 20.3251 15.7864 20.3649C15.8326 20.4046 15.8902 20.4286 15.9509 20.4334C16.0121 20.4322 16.0712 20.411 16.1193 20.3731C16.1673 20.3351 16.2017 20.2824 16.2172 20.2231C16.3063 19.9336 16.3891 19.6418 16.475 19.3515C16.5958 18.9448 16.7163 18.5378 16.8365 18.1306C16.8435 18.1065 16.8451 18.0801 16.8791 18.0615C16.9145 18.1178 16.9406 18.1793 16.9565 18.2439C16.9914 18.3332 17.02 18.4248 17.0533 18.5156C17.1191 18.6964 17.1872 18.7484 17.3777 18.7484H18.3763C18.432 18.7484 18.487 18.7523 18.5427 18.7546C18.3679 18.9827 18.1737 19.1952 17.9621 19.3895C17.2987 20.0173 16.5723 20.5747 15.7945 21.0528C15.7582 21.0816 15.7132 21.0973 15.6668 21.0973C15.6205 21.0973 15.5754 21.0816 15.5391 21.0528C14.5877 20.4365 13.702 19.7419 12.9542 18.8796C12.9125 18.8435 12.8787 18.7991 12.8551 18.7492Z" fill="#FF1D14"/>
<path d="M14.7835 15.0438C14.7251 15.0667 14.6738 15.1047 14.6346 15.1539C14.5955 15.2031 14.57 15.2617 14.5606 15.3239C14.3353 16.2367 14.1038 17.1471 13.8747 18.0583C13.8743 18.0635 13.8743 18.0687 13.8747 18.0738C13.8399 18.2081 13.8399 18.2089 13.7075 18.2089C13.4706 18.2089 13.2329 18.2089 12.9961 18.2089C12.943 18.205 12.8898 18.2155 12.842 18.2391C12.7943 18.2627 12.7536 18.2986 12.7243 18.3432C12.6956 18.4022 12.6823 18.4677 12.6856 18.5333C12.2986 18.0366 12.0052 17.4917 11.975 16.8483C11.952 16.4387 12.063 16.0327 12.2912 15.6922C12.5194 15.3516 12.8522 15.0951 13.2391 14.9615C13.7199 14.7915 14.2053 14.7783 14.6829 14.9855C14.7206 14.9966 14.7551 15.0166 14.7835 15.0438Z" fill="#FF1D14"/>
<path d="M15.1443 15.2894C15.1087 15.2973 15.1164 15.2698 15.1149 15.251C15.1327 15.2573 15.1505 15.2635 15.1443 15.2894Z" fill="#FF1D14"/>
<defs>
<linearGradient id="paint0_linear" x1="15.7682" y1="-0.00473589" x2="15.7682" y2="26.9967" gradientUnits="userSpaceOnUse">
<stop stop-color="#FE707B"/>
<stop offset="1" stop-color="#FF2219"/>
</linearGradient>
</defs>
</svg>
