<svg width="96" height="22" viewBox="0 0 96 22" fill="none" xmlns="http://www.w3.org/2000/svg">
<path d="M31.7014 12.7139C31.6784 12.6395 31.6236 12.6236 31.5689 12.6023C30.3854 12.1631 29.753 11.2475 29.4068 10.084C29.2143 9.43935 29.2514 8.78055 29.2849 8.12529C29.324 7.59542 29.4139 7.07055 29.5534 6.55798C29.5976 6.38088 29.6647 6.29588 29.8767 6.29942C31.1432 6.31182 32.4097 6.29942 33.6762 6.29942H33.7097C33.9606 6.29942 33.9606 6.29942 33.9146 6.54735C33.8422 6.93342 33.7769 7.31772 33.738 7.70911C33.6938 8.18196 33.685 8.65304 33.6797 9.12589C33.6739 9.59299 33.8486 10.0442 34.1672 10.3851C34.4064 10.6597 34.7 10.8814 35.0294 11.036C35.3588 11.1906 35.7166 11.2747 36.0802 11.2829C36.3558 11.2936 36.6331 11.2829 36.9087 11.2829C37.0659 11.2829 37.1383 11.3254 37.1383 11.4972C37.1383 12.2818 37.1383 13.0663 37.1383 13.8508C37.1383 14.0014 37.0871 14.0545 36.9387 14.0545C36.5362 14.0362 36.133 14.0552 35.734 14.1112C35.2808 14.1956 34.8467 14.3625 34.4534 14.6035C33.7716 15.0215 33.4342 15.6271 33.5013 16.4276C33.5702 17.2635 33.9712 17.8869 34.7554 18.2287C35.3269 18.4465 35.9379 18.5407 36.5483 18.5049C36.8448 18.5061 37.1407 18.4776 37.4315 18.4199C37.8094 18.3559 38.1628 18.1903 38.4543 17.9408C38.7457 17.6913 38.9642 17.3673 39.0866 17.0032C39.295 16.3909 39.3919 15.746 39.3728 15.0994V6.73507C39.3728 6.22149 39.3622 6.30827 39.7949 6.3065C40.9572 6.3065 42.1195 6.3065 43.2818 6.3065C43.363 6.3065 43.4443 6.3065 43.5238 6.3065C43.6421 6.3065 43.6898 6.36494 43.6881 6.4836C43.6881 6.56506 43.6881 6.64476 43.6881 6.72622C43.6881 9.83014 43.6881 12.9347 43.6881 16.0398C43.694 16.7332 43.5976 17.4237 43.4019 18.0888C42.9055 19.7252 41.7998 20.7665 40.2224 21.3438C39.3537 21.6532 38.4442 21.8322 37.5234 21.8751C36.1103 21.9566 34.6971 21.9123 33.307 21.5546C32.2003 21.3022 31.1896 20.7353 30.396 19.9217C29.9557 19.4627 29.6172 18.9155 29.4026 18.3161C29.188 17.7167 29.1021 17.0785 29.1507 16.4435C29.2337 14.7558 30.0551 13.5551 31.5548 12.806C31.6095 12.7705 31.6572 12.7387 31.7014 12.7139Z" fill="#001740"/>
<path d="M95.0015 16.5463V21.2199C95.0015 21.3014 95.0015 21.3828 95.0015 21.4625C95.0174 21.6272 94.9538 21.6857 94.786 21.6821C94.3709 21.6715 93.9558 21.6821 93.5496 21.6821H91.0219C90.7004 21.6821 90.6986 21.6821 90.6986 21.3669C90.6986 20.5345 90.6986 19.7034 90.6986 18.8734C90.6986 16.7045 90.6986 14.5345 90.6986 12.3633C90.7087 12.0982 90.6903 11.8328 90.6439 11.5716C90.5907 11.2625 90.4638 10.9708 90.2741 10.7213C90.0843 10.4719 89.8373 10.2721 89.554 10.1389C89.0469 9.88739 88.4935 9.74371 87.9284 9.71689C87.3633 9.69007 86.7988 9.78069 86.2703 9.98307C85.6766 10.22 85.1851 10.6589 84.8819 11.2228C84.5139 11.8752 84.2932 12.6006 84.2354 13.3479C84.1185 14.3623 84.2252 15.3901 84.5481 16.3586C84.7475 16.9874 85.1294 17.5423 85.645 17.9524C86.0624 18.2847 86.5765 18.4713 87.1093 18.4837C87.4626 18.4926 87.8159 18.5032 88.1692 18.4979C88.3458 18.4979 88.4058 18.5599 88.4041 18.7405C88.4041 19.6402 88.4041 20.5416 88.4041 21.4413C88.4041 21.5705 88.39 21.6591 88.2274 21.6609C86.9503 21.6715 85.6733 21.675 84.4191 21.3669C82.28 20.8356 80.8616 19.5304 80.2487 17.4141C79.6359 15.3657 79.6285 13.1831 80.2275 11.1307C80.9005 8.82839 82.439 7.29651 84.7265 6.60052C86.8801 5.93416 89.1955 6.02031 91.2939 6.8449C92.8253 7.42755 93.9629 8.46004 94.5953 9.99902C94.8904 10.7781 95.0284 11.6082 95.0015 12.4412C95.0004 13.8166 95.0004 15.185 95.0015 16.5463Z" fill="#001740"/>
<path d="M15.5743 8.76806C15.6696 8.75567 15.6679 8.68482 15.6891 8.63878C16.0627 7.83244 16.7228 7.1947 17.5402 6.8501C18.9004 6.23557 20.3329 6.09921 21.7955 6.25151C22.6948 6.34612 23.554 6.67455 24.2878 7.20429C24.8015 7.56893 25.2377 8.03224 25.5713 8.56731C25.9048 9.10237 26.129 9.69854 26.2309 10.3212C26.2934 10.6718 26.323 11.0276 26.3192 11.3838C26.3192 14.6896 26.3192 17.9907 26.3192 21.2871C26.3192 21.7369 26.351 21.6749 25.9323 21.6767H22.1629C22.0622 21.6767 22.0145 21.6306 22.0163 21.5297V21.2534C22.0163 18.3892 22.0163 15.5267 22.0163 12.666C22.0216 12.2619 21.9741 11.8588 21.875 11.467C21.804 11.1562 21.6616 10.8663 21.4593 10.6203C21.2569 10.3744 21 10.1792 20.7091 10.0502C20.2016 9.8127 19.6501 9.68416 19.0901 9.67288C18.5301 9.66159 17.9739 9.76782 17.4572 9.98472C16.7966 10.2539 16.3638 10.7746 16.0689 11.4139C15.7913 12.0394 15.6532 12.7181 15.6643 13.4027C15.6555 15.5279 15.6644 17.653 15.6555 19.7782C15.6555 20.3325 15.6555 20.8868 15.6555 21.4411C15.6555 21.682 15.6555 21.6873 15.4047 21.6873C14.1506 21.6873 12.8958 21.6873 11.6405 21.6873C11.3915 21.6873 11.3915 21.6873 11.3844 21.4394C11.3844 21.3703 11.3844 21.3012 11.3844 21.2322V6.74738C11.3844 6.69956 11.3844 6.65352 11.3844 6.60748C11.3844 6.30818 11.3844 6.30641 11.69 6.30641H15.2828C15.5425 6.30641 15.5478 6.30641 15.5495 6.57383C15.5495 7.19721 15.5495 7.81351 15.5495 8.44397C15.5338 8.55251 15.5422 8.6632 15.5743 8.76806Z" fill="#001740"/>
<path d="M77.1345 14.1112C77.1655 14.965 77.1247 15.8198 77.0126 16.6667C76.8219 17.9064 76.4156 19.0345 75.5412 19.959C74.7658 20.7807 73.7943 21.2571 72.715 21.5529C71.3655 21.9177 69.9877 21.962 68.6047 21.8752C67.7881 21.8294 66.9804 21.6813 66.2006 21.4342C64.0297 20.7258 62.788 19.2311 62.3623 17.0068C62.1503 15.8981 62.1998 14.7771 62.1856 13.6596C62.1856 13.4436 62.3146 13.4595 62.4576 13.4595H65.7043C65.8809 13.4595 66.0734 13.4595 66.2571 13.4595C66.4408 13.4595 66.5027 13.5126 66.4991 13.6951C66.4903 14.1927 66.4991 14.6886 66.4991 15.1844C66.4983 15.5886 66.5476 15.9914 66.6457 16.3834C66.9301 17.5363 67.6243 18.2677 68.8202 18.459C69.4794 18.5749 70.1556 18.552 70.8056 18.3917C71.1996 18.2979 71.5638 18.1064 71.8648 17.8347C72.1657 17.563 72.3937 17.2199 72.5278 16.8368C72.7212 16.3169 72.8176 15.7658 72.8122 15.211C72.8122 14.391 72.8298 13.5711 72.7945 12.7529C72.7221 11.0917 71.71 10.0061 70.0672 9.78652C69.2101 9.64153 68.3292 9.76522 67.5448 10.1407C67.0155 10.3851 66.6004 10.8247 66.3861 11.368C66.3673 11.4384 66.3231 11.4993 66.2621 11.5389C66.2011 11.5785 66.1275 11.594 66.0558 11.5823C64.8476 11.5823 63.6376 11.5823 62.4294 11.5823C62.1415 11.5823 62.1432 11.5823 62.1909 11.2901C62.4435 9.7511 63.3143 8.61237 64.5137 7.69323C65.4634 6.97151 66.583 6.5079 67.7639 6.34729C69.5681 6.05926 71.4154 6.22106 73.1425 6.81837C73.9963 7.1098 74.7743 7.58904 75.4194 8.22098C76.3397 9.1348 76.7989 10.2718 77.0091 11.5309C77.1246 12.3858 77.1665 13.2491 77.1345 14.1112Z" fill="#001740"/>
<path d="M48.3036 16.927C48.8459 16.927 49.3864 16.927 49.9269 16.927C50.0046 16.9118 50.0852 16.9263 50.1528 16.9676C50.2204 17.0089 50.2703 17.0739 50.2926 17.1501C50.4544 17.5382 50.7487 17.8558 51.1228 18.0462C52.338 18.7103 53.571 18.6466 54.8092 18.1153C54.9036 18.0696 54.9905 18.0099 55.0671 17.9382C55.184 17.8434 55.277 17.7224 55.3386 17.5849C55.4001 17.4474 55.4285 17.2973 55.4215 17.1468C55.4144 16.9962 55.3721 16.8494 55.2979 16.7183C55.2238 16.5872 55.1199 16.4755 54.9947 16.3921C54.7843 16.2509 54.5538 16.1422 54.3111 16.0698C53.3577 15.766 52.389 15.513 51.4089 15.3118C50.7697 15.1677 50.1402 14.9831 49.5242 14.7593C49.0582 14.5918 48.6141 14.3688 48.2012 14.0952C46.9453 13.2575 46.463 12.0586 46.5655 10.5851C46.6609 9.24094 47.3498 8.24742 48.4114 7.4859C49.3266 6.85667 50.3785 6.45591 51.4796 6.31705C52.8948 6.09173 54.3421 6.18121 55.7189 6.57915C56.9342 6.93335 57.9657 7.56736 58.7094 8.62464C59.1767 9.31722 59.4321 10.1315 59.4442 10.9676C59.4442 11.0969 59.4142 11.1678 59.2676 11.1607H59.1651C58.0594 11.1607 56.9536 11.1607 55.8478 11.1607C55.6712 11.1607 55.5864 11.1164 55.537 10.9375C55.4796 10.7126 55.3696 10.5046 55.2159 10.3309C55.0623 10.1572 54.8696 10.0227 54.6538 9.93869C54.1352 9.71243 53.5748 9.59847 53.0092 9.60427C52.4437 9.61007 51.8857 9.7355 51.3718 9.97234C51.1894 10.0505 51.0287 10.1721 50.9037 10.3265C50.8318 10.4098 50.7779 10.507 50.7453 10.6121C50.7127 10.7173 50.7021 10.828 50.7142 10.9374C50.7263 11.0469 50.7608 11.1526 50.8156 11.248C50.8705 11.3434 50.9443 11.4264 51.0327 11.4918C51.2904 11.6873 51.5829 11.8316 51.8947 11.9169C52.8432 12.1949 53.7953 12.4659 54.7421 12.7457C55.272 12.9015 55.8019 13.0574 56.3318 13.2398C57.1808 13.5081 57.9438 13.9969 58.5434 14.6566C59.1313 15.306 59.4613 16.1491 59.4707 17.0261C59.4876 17.4871 59.4539 17.9486 59.37 18.4022C59.1954 19.1729 58.7628 19.8604 58.1441 20.3502C57.4286 20.9402 56.5834 21.3512 55.6783 21.5492C53.8695 21.9884 52.0572 22.0415 50.2519 21.5315C49.0367 21.1897 47.9892 20.5734 47.2173 19.5427C46.7146 18.8646 46.4294 18.0493 46.3994 17.205C46.3853 16.9358 46.3906 16.9305 46.6556 16.9287C47.1979 16.9252 47.7507 16.927 48.3036 16.927Z" fill="#001740"/>
<path d="M5.4705 2.77685H0.309118C0.00353277 2.77685 0.00176639 2.77686 0 2.47933C0 1.96044 0 1.43977 0 0.920872C0 0.690646 0 0.458648 0 0.228421C0 0.0708049 0.047689 -0.0124289 0.217262 0.00350986C0.286695 0.00705206 0.356267 0.00705206 0.4257 0.00350986H10.0931C10.5171 0.00350986 10.5047 -0.0655566 10.5047 0.409064C10.5047 1.02005 10.5047 1.63103 10.5047 2.24379C10.5107 2.27945 10.5095 2.31597 10.5011 2.35115C10.4927 2.38632 10.4774 2.41945 10.4559 2.44854C10.4345 2.47763 10.4074 2.5021 10.3764 2.52047C10.3453 2.53885 10.3108 2.55075 10.2751 2.55548C9.77481 2.6969 9.30805 2.93781 8.90259 3.26387C8.15717 3.87132 7.788 4.68065 7.64315 5.61395C7.58046 6.05915 7.55211 6.50854 7.55837 6.95812C7.55837 11.7232 7.55837 16.4895 7.55837 21.257C7.55837 21.7139 7.59193 21.6731 7.15563 21.6731H3.395C3.27841 21.6731 3.22895 21.6165 3.23072 21.496C3.23072 21.4146 3.23072 21.3349 3.23072 21.2534C3.23072 16.9736 3.23072 12.6925 3.23072 8.41032C3.23072 7.40441 3.29784 6.40558 3.61403 5.43863C3.91843 4.4624 4.51167 3.60204 5.31506 2.97166C5.36805 2.93093 5.41574 2.88134 5.46696 2.83529C5.46994 2.81596 5.47112 2.7964 5.4705 2.77685Z" fill="#001740"/>
</svg>
